<?xml version="1.0" standalone="no"?>
<!DOCTYPE svg PUBLIC "-//W3C//DTD SVG 1.1//EN" "http://www.w3.org/Graphics/SVG/1.1/DTD/svg11.dtd" >
<svg>
<metadata>
Created by FontForge 20110222 at Fri May 30 00:53:17 2014
 By Orthosie Webhosting
Copyright (c) 2012 by Michael Chereda. All rights reserved.
</metadata>
<defs>
<font id="MartaRegular" horiz-adv-x="787" >
  <font-face 
    font-family="Marta"
    font-weight="400"
    font-stretch="normal"
    units-per-em="1000"
    panose-1="2 0 5 3 6 0 0 2 0 3"
    ascent="750"
    descent="-250"
    x-height="467"
    cap-height="700"
    bbox="-66 -256 2047 930"
    underline-thickness="50"
    underline-position="-50"
    unicode-range="U+0020-FB06"
  />
<missing-glyph horiz-adv-x="300" 
 />
    <glyph glyph-name=".notdef" horiz-adv-x="300" 
 />
    <glyph glyph-name=".null" horiz-adv-x="0" 
 />
    <glyph glyph-name="nonmarkingreturn" horiz-adv-x="333" 
 />
    <glyph glyph-name="space" unicode=" " horiz-adv-x="250" 
 />
    <glyph glyph-name="exclam" unicode="!" horiz-adv-x="278" 
d="M139 91q-23 0 -38.5 -15.5t-15.5 -38.5t15.5 -38.5t38.5 -15.5t38.5 15.5t15.5 38.5t-15.5 38.5t-38.5 15.5zM162 167h-46l-36 533l79 17l39 -17z" />
    <glyph glyph-name="quotedbl" unicode="&#x22;" horiz-adv-x="314" 
d="M90 422h-28l-33 278l67 17l28 -17zM251 422h-28l-33 278l67 17l28 -17z" />
    <glyph glyph-name="numbersign" unicode="#" horiz-adv-x="613" 
d="M356 691l-83 -213h170l87 222h47l9 -9l-83 -213h75v-45h-93l-60 -155h123v-46h-141l-94 -243h-44l-12 11l90 232h-170l-94 -243h-44l-12 11l90 232h-72v46h90l61 155h-121v45h138l87 222h47zM255 433l-60 -155h170l61 155h-171z" />
    <glyph glyph-name="dollar" unicode="$" horiz-adv-x="549" 
d="M236 -9l-18 -84h-47l19 91q-59 14 -100 44v128l38 7l45 -118q9 -3 29 -9l51 238q-4 2 -10.5 5.5t-8.5 4.5q-33 16 -52 27.5t-44.5 33t-38 50t-12.5 65.5q0 86 57.5 132t147.5 46q20 0 38 -3l15 68h46l-17 -77q44 -13 93 -41v-123l-38 -6l-42 112q-16 6 -23 8l-50 -233
q32 -15 43.5 -20.5t40 -20.5t40.5 -26.5t28.5 -30t23 -40t6.5 -47.5q0 -183 -224 -183q-14 0 -36 2zM267 42q138 0 138 98q0 46 -28 74.5t-82 54.5l-48 -226q7 -1 20 -1zM291 599q-58 0 -85 -28t-27 -75q0 -37 23 -64.5t70 -52.5l47 219q-9 1 -28 1z" />
    <glyph glyph-name="percent" unicode="%" horiz-adv-x="840" 
d="M640 385q84 0 122.5 -54.5t38.5 -142.5q0 -205 -161 -205q-164 0 -164 205q0 89 39.5 143t124.5 54zM640 352q-47 0 -65 -40.5t-18 -120.5q0 -175 83 -175q80 0 80 175q0 81 -16.5 121t-63.5 40zM203 717q84 0 122.5 -54.5t38.5 -142.5q0 -205 -161 -205q-164 0 -164 205
q0 89 39.5 143t124.5 54zM203 684q-47 0 -65 -40.5t-18 -120.5q0 -175 83 -175q80 0 80 175q0 81 -16.5 121t-63.5 40zM663 717h51l-534 -734h-52z" />
    <glyph glyph-name="ampersand" unicode="&#x26;" horiz-adv-x="651" 
d="M297 48q79 0 122 53t44 123v28q-29 -5 -42 -7.5t-34.5 -10t-33 -19.5t-17.5 -30q-3 1 -10.5 2.5t-11.5 2.5q7 51 37 82t68.5 43t76.5 19.5t66 22.5t33 42l25 -8q-7 -57 -34 -85.5t-70 -41.5v-40q0 -29 -5.5 -58t-20.5 -62t-39 -57.5t-65 -41t-94 -16.5q-123 0 -182.5 50
t-59.5 138q0 70 39 123.5t103 60.5v10q-44 15 -70.5 49.5t-26.5 83.5q0 66 54 108.5t143 42.5q88 0 173 -60v-92l-41 -8l-27 83q-41 28 -91 28q-48 0 -81.5 -27t-33.5 -79q0 -44 35.5 -79.5t79.5 -35.5h12v-42h-31q-60 0 -98.5 -42.5t-38.5 -105.5q0 -61 43 -104t104 -43z
" />
    <glyph glyph-name="quotesingle" unicode="'" horiz-adv-x="153" 
d="M90 422h-28l-33 278l67 17l28 -17z" />
    <glyph glyph-name="parenleft" unicode="(" horiz-adv-x="385" 
d="M365 -196v-47q-69 0 -123.5 34t-87.5 87t-55 124t-30.5 139t-8.5 137q0 86 17 168.5t51.5 156.5t95.5 119.5t141 45.5v-47q-54 0 -94.5 -36.5t-64 -99.5t-34.5 -138.5t-11 -163.5q0 -89 11 -170t33.5 -152.5t64 -114t95.5 -42.5z" />
    <glyph glyph-name="parenright" unicode=")" horiz-adv-x="385" 
d="M20 -196q54 0 95.5 42.5t64 114t33.5 152.5t11 170q0 88 -11 163.5t-34.5 138.5t-64 99.5t-94.5 36.5v47q80 0 141 -45.5t95.5 -119.5t51.5 -156.5t17 -168.5q0 -69 -8.5 -137t-30.5 -139t-55 -124t-87.5 -87t-123.5 -34v47z" />
    <glyph glyph-name="asterisk" unicode="*" horiz-adv-x="479" 
d="M201 537q1 -10 5 -33q-24 -2 -35 -2q-61 0 -121 28q0 7 2 37.5t3 31.5q23 20 25 22q50 -58 121 -84zM210 488l33 -3q-13 -80 -66 -145q-7 2 -35.5 12t-29.5 11l-4 7q-4 7 -7.5 14.5t-4.5 8.5q72 34 114 95zM256 483q5 9 15 29q71 -40 112 -112q-4 -6 -23 -29.5t-21 -24.5
q-29 -3 -33 -3q-6 77 -50 140zM277 528l-25 21q57 59 137 79q4 -5 22 -30t18 -26q-4 -30 -5 -33q-32 5 -55 5q-45 0 -92 -16zM242 559q-4 -2 -29 -17q-30 63 -30 126q0 1 2 31q63 18 67 18q26 -15 29 -16q-39 -69 -39 -142z" />
    <glyph glyph-name="plus" unicode="+" horiz-adv-x="622" 
d="M340 20h-56v225h-224l8 54h216v223h56v-223h222l-9 -54h-213v-225z" />
    <glyph glyph-name="comma" unicode="," horiz-adv-x="209" 
d="M105 91q23 0 38.5 -15.5t15.5 -38.5q0 -66 -41.5 -128.5t-86.5 -89.5l-21 20q33 26 56 73.5t23 87.5h-24q-14 16 -14 37q0 23 15.5 38.5t38.5 15.5z" />
    <glyph glyph-name="hyphen" unicode="-" horiz-adv-x="406" 
d="M50 245l8 55h298l-8 -55h-298z" />
    <glyph glyph-name="period" unicode="." horiz-adv-x="209" 
d="M103 91q23 0 39 -16t16 -38t-16 -38t-39 -16q-22 0 -38 16t-16 38t16 38t38 16z" />
    <glyph glyph-name="slash" unicode="/" horiz-adv-x="485" 
d="M494 768l-450 -898h-44l-12 11l450 896h47z" />
    <glyph glyph-name="zero" unicode="0" horiz-adv-x="627" 
d="M316 655q65 0 114 -29t76.5 -78t40.5 -105.5t13 -119.5q0 -65 -11.5 -120.5t-37.5 -105.5t-76 -79t-119 -29q-56 0 -100 19t-71.5 50.5t-45.5 75.5t-25.5 90.5t-7.5 98.5q0 65 14 122.5t42.5 105.5t78 76t115.5 28zM316 615q-48 0 -80 -42.5t-45 -105t-13 -140.5
q0 -77 13.5 -142.5t46 -110.5t78.5 -45t77 45t43.5 109.5t12.5 143.5q0 80 -11.5 141.5t-42.5 104t-79 42.5z" />
    <glyph glyph-name="one" unicode="1" horiz-adv-x="409" 
d="M58 0l-7 39l116 21v505h-114l-8 40l174 39h49v-584l112 -21l-8 -39h-314z" />
    <glyph glyph-name="two" unicode="2" horiz-adv-x="529" 
d="M260 605q-45 0 -89 -21l-29 -89l-39 8v114q79 38 160 38q93 0 143 -48.5t50 -120.5q0 -43 -16 -82.5t-42.5 -70t-58.5 -58.5t-65 -52.5t-61.5 -47.5t-49.5 -48.5t-26 -50.5h245l23 72l39 -8v-140h-372v38q0 55 29 104t70 87t82 75t70 83.5t29 97.5q0 53 -27 86.5
t-65 33.5z" />
    <glyph glyph-name="three" unicode="3" horiz-adv-x="536" 
d="M449 605l-221 -230l52 11q74 0 134.5 -49.5t60.5 -139.5q0 -93 -66 -150.5t-167 -57.5q-108 0 -178 62l24 36q75 -48 148 -48q56 0 97 44.5t41 110.5q0 65 -41.5 101.5t-119.5 36.5l-40 -8l-19 27l219 234l-64 -18h-157l-23 -72l-39 8v141h342z" />
    <glyph glyph-name="four" unicode="4" horiz-adv-x="529" 
d="M274 223v220l17 82l-219 -302h202zM274 60v124h-237l-24 33l321 438l40 -11v-421h95l-9 -39h-86v-124l111 -21l-8 -39h-311l-7 39z" />
    <glyph glyph-name="five" unicode="5" horiz-adv-x="508" 
d="M153 567l-24 -191q54 27 116 27q72 0 133.5 -56t61.5 -147q0 -97 -66 -154t-168 -57q-109 0 -177 62l24 36q75 -48 147 -48q57 0 98 44.5t41 113.5q0 67 -33.5 111t-95.5 45q-39 0 -95 -31l-37 15l41 307h241l23 72l39 -8v-141h-269z" />
    <glyph glyph-name="six" unicode="6" horiz-adv-x="532" 
d="M209 380q51 33 102 33q70 0 120.5 -56t50.5 -142q0 -90 -60.5 -158t-154.5 -68q-96 0 -157.5 70.5t-61.5 177.5q0 84 29 156t78.5 122.5t108.5 85t125 54.5l21 -39q-45 -22 -74.5 -39.5t-68.5 -50.5t-62 -69.5t-39.5 -93t-16.5 -125.5q0 -87 30 -143t88 -56
q57 0 85.5 53.5t28.5 124.5q0 70 -24 108t-63 38q-36 0 -72 -16z" />
    <glyph glyph-name="seven" unicode="7" horiz-adv-x="468" 
d="M111 0l257 567h-241l-23 -72l-39 8v141h371l17 -39l-261 -566v-39h-81z" />
    <glyph glyph-name="eight" unicode="8" horiz-adv-x="537" 
d="M243 309q-85 -53 -85 -157q0 -54 30 -83.5t81 -29.5q50 0 80.5 30.5t30.5 81.5q0 82 -137 158zM328 361q32 -19 52 -34t44.5 -40t37 -58t12.5 -72q0 -78 -60.5 -123t-144.5 -45q-85 0 -145.5 43t-60.5 120q0 27 10 52t21 40.5t35.5 35t36 27t39.5 24.5q-57 32 -90 77.5
t-33 98.5q0 63 50 105.5t137 42.5t136.5 -40.5t49.5 -98.5q0 -26 -11 -49.5t-33 -43.5t-39 -32.5t-44 -29.5zM278 389l13 -7q70 44 70 128q0 47 -25.5 71t-66.5 24q-40 0 -66 -23t-26 -72q0 -66 101 -121z" />
    <glyph glyph-name="nine" unicode="9" horiz-adv-x="523" 
d="M325 269q-51 -33 -102 -33q-70 0 -123.5 56.5t-53.5 142.5q0 89 60 154.5t155 65.5q98 0 158 -60t60 -165q0 -131 -98.5 -262.5t-218.5 -178.5l-21 37q97 47 167.5 160.5t70.5 242.5q0 176 -118 176q-57 0 -85.5 -51t-28.5 -122q0 -69 26.5 -107t66.5 -39q36 0 72 16z
" />
    <glyph glyph-name="colon" unicode=":" horiz-adv-x="209" 
d="M103 478q23 0 39 -16t16 -38t-16 -38t-39 -16q-22 0 -38 16t-16 38t16 38t38 16zM103 91q23 0 39 -16t16 -38t-16 -38t-39 -16q-22 0 -38 16t-16 38t16 38t38 16z" />
    <glyph glyph-name="semicolon" unicode=";" horiz-adv-x="231" 
d="M126 478q23 0 39 -16t16 -38t-16 -38t-39 -16q-22 0 -38 16t-16 38t16 38t38 16zM127 91q23 0 38.5 -15.5t15.5 -38.5q0 -66 -41.5 -128.5t-86.5 -89.5l-21 20q33 26 56 73.5t23 87.5h-24q-14 16 -14 37q0 23 15.5 38.5t38.5 15.5z" />
    <glyph glyph-name="less" unicode="&#x3c;" horiz-adv-x="592" 
d="M484 77l-381 189l-13 55l394 202l18 -29l-299 -194l299 -193z" />
    <glyph glyph-name="equal" unicode="=" horiz-adv-x="631" 
d="M551 405l-8 -50h-463l8 50h463zM551 234l-8 -50h-463l8 50h463z" />
    <glyph glyph-name="greater" unicode="&#x3e;" horiz-adv-x="592" 
d="M489 266l-381 -189l-18 30l299 193l-299 194l18 29l394 -202z" />
    <glyph glyph-name="question" unicode="?" horiz-adv-x="406" 
d="M151 167q-29 67 -29 129q0 101 99 160q45 27 61 58t16 70q0 43 -30.5 69.5t-76.5 26.5q-44 0 -84 -34l-24 -77l-33 7v82q61 59 139 59q84 0 135.5 -42t51.5 -117q0 -116 -96 -177q-49 -32 -71.5 -63t-22.5 -72q0 -28 10 -79h-45zM184 91q-22 0 -38 -15.5t-16 -38.5
t16 -38.5t38 -15.5t38 15.5t16 38.5t-16 38.5t-38 15.5z" />
    <glyph glyph-name="at" unicode="@" horiz-adv-x="996" 
d="M684 89q67 0 114.5 60t47.5 178q0 149 -89.5 238t-228.5 89q-179 0 -278.5 -108.5t-99.5 -276.5q0 -88 32 -158t83.5 -110.5t110.5 -61t119 -20.5q140 0 226 46l14 -32q-107 -60 -247 -60q-175 0 -286.5 111t-111.5 285q0 200 122 315.5t313 115.5q162 0 271.5 -102
t109.5 -269q0 -130 -67 -207.5t-176 -77.5q-84 0 -108 69q-28 -22 -54 -31.5t-67 -9.5q-56 0 -94 44.5t-38 123.5q0 113 60 175.5t144 62.5q44 0 75 -9l40 9l43 -9l-30 -327q0 -28 10 -40.5t40 -12.5zM553 160l25 273q-34 19 -68 19q-47 0 -83 -49.5t-36 -153.5
q0 -67 24 -101.5t54 -34.5q58 0 84 47z" />
    <glyph glyph-name="A" unicode="A" horiz-adv-x="738" 
d="M332 700l87 17l225 -642l86 -33l-8 -42h-272l-7 42l86 33l-56 161h-262l-57 -161l103 -33l-7 -42h-228l-7 42l86 33zM357 623l-130 -345h231l-101 294v51z" />
    <glyph glyph-name="B" unicode="B" horiz-adv-x="676" 
d="M228 658v-616h144q60 0 98.5 47t38.5 114t-45.5 115t-114.5 48h-79v42h45q52 0 88.5 36.5t36.5 88.5q0 56 -32 90.5t-101 34.5h-79zM401 0h-357l-8 42l86 33v550l-87 33l7 42h343q73 0 122.5 -46t49.5 -112q0 -56 -35 -99t-88 -55v-4q80 0 136 -56t56 -136
q0 -82 -61.5 -137t-163.5 -55z" />
    <glyph glyph-name="C" unicode="C" horiz-adv-x="622" 
d="M386 32q67 0 127 19l51 141l42 -7v-143q-37 -27 -97.5 -43t-122.5 -16q-94 0 -165 31t-111.5 84t-60 116t-19.5 136q0 71 22 135.5t64 117t112 83.5t158 31q118 0 220 -59v-136l-42 -7l-48 134q-66 19 -130 19q-121 0 -179.5 -76.5t-58.5 -236.5q0 -323 238 -323z" />
    <glyph glyph-name="D" unicode="D" horiz-adv-x="710" 
d="M315 658h-87v-616h87q121 0 184.5 89.5t63.5 225.5q0 134 -63 217.5t-185 83.5zM312 0h-269l-7 42l86 33v550l-87 33l7 42h273q180 0 272.5 -95.5t92.5 -249.5q0 -100 -38.5 -178.5t-123.5 -127.5t-206 -49z" />
    <glyph glyph-name="E" unicode="E" horiz-adv-x="581" 
d="M444 658h-216v-265h122l31 84l42 -7v-197l-42 -7l-31 84h-122v-308h221l55 150l42 -7v-185h-502l-7 42l85 33v550l-87 33l8 42h485v-150l-42 -8z" />
    <glyph glyph-name="F" unicode="F" horiz-adv-x="541" 
d="M228 658v-265h130l33 84l41 -7v-197l-41 -7l-33 84h-130v-275l87 -33l-7 -42h-264l-8 42l86 33v550l-87 33l7 42h474v-150l-42 -8l-42 116h-204z" />
    <glyph glyph-name="G" unicode="G" horiz-adv-x="733" 
d="M152 355q0 -49 6.5 -93t24 -87t44.5 -74t71.5 -50t101.5 -19q56 0 114 14v207l-86 34l7 42h265l8 -42l-87 -34v-211q-37 -27 -97.5 -43t-122.5 -16q-94 0 -166.5 31t-115 83.5t-63.5 116.5t-21 136q0 157 100.5 262t265.5 105q118 0 220 -59v-136l-42 -7l-48 134
q-67 19 -130 19q-53 0 -95.5 -17t-71 -46.5t-47.5 -69.5t-27 -85t-8 -95z" />
    <glyph glyph-name="H" unicode="H" horiz-adv-x="803" 
d="M763 658l-87 -33v-550l85 -33l-7 -42h-264l-7 42l87 33v265h-337v-265l85 -33l-7 -42h-262l-8 42l86 33v550l-87 33l7 42h266l7 -42l-87 -33v-243h337v243l-87 33l7 42h266z" />
    <glyph glyph-name="I" unicode="I" horiz-adv-x="401" 
d="M253 625v-550l88 -33l-8 -42h-265l-8 42l88 33v550l-88 33l8 42h265l8 -42z" />
    <glyph glyph-name="J" unicode="J" horiz-adv-x="368" 
d="M145 195v430l-87 33l8 42h264l8 -42l-88 -33v-456q0 -268 -233 -344l-22 37q92 62 121 143t29 190z" />
    <glyph glyph-name="K" unicode="K" horiz-adv-x="681" 
d="M228 625v-550l87 -32l-7 -43h-266l-7 43l87 32v550l-87 34l7 41h266l7 -42zM466 0l7 42l-203 303v42l233 238l-87 34l7 41h221l7 -41l-32 -13q-55 -22 -96 -63l-200 -204l73 -32l182 -271l87 -34l-8 -42h-191z" />
    <glyph glyph-name="L" unicode="L" horiz-adv-x="554" 
d="M42 700h266l7 -42l-87 -33v-583h216l58 150l42 -7v-185h-502l-7 42l87 33v550l-87 33z" />
    <glyph glyph-name="M" unicode="M" horiz-adv-x="951" 
d="M676 586l-221 -586l-49 -17l-196 580l-52 -488l85 -33l-7 -42h-199l-8 42l86 33l59 550l-87 33l7 42h181l176 -518v-73l222 591h186l8 -42l-87 -33l47 -550l85 -33l-7 -42h-263l-7 42l85 33z" />
    <glyph glyph-name="N" unicode="N" horiz-adv-x="721" 
d="M25 42l86 33v550l-87 33l7 42h191l345 -546v471l-86 33l7 42h199l7 -42l-86 -33v-625l-59 -17l-396 628v-536l85 -33l-7 -42h-198z" />
    <glyph glyph-name="O" unicode="O" 
d="M394 717q161 0 247 -102.5t86 -264.5q0 -80 -19 -145t-58 -115.5t-104 -78.5t-152 -28q-86 0 -152.5 31t-105 83.5t-57.5 116.5t-19 136q0 96 36 177.5t113.5 135.5t184.5 54zM394 668q-112 0 -164 -76t-52 -237q0 -163 52 -243t164 -80q216 0 216 323q0 158 -52.5 235.5
t-163.5 77.5z" />
    <glyph glyph-name="P" unicode="P" horiz-adv-x="603" 
d="M229 658v-583l87 -33l-8 -42h-264l-7 42l86 33v550l-88 33l8 42h310q107 0 163.5 -57.5t56.5 -157.5q0 -109 -72 -158t-186 -49h-44v42h47q68 0 110 49.5t42 115.5q0 80 -36.5 126.5t-113.5 46.5h-91z" />
    <glyph glyph-name="Q" unicode="Q" 
d="M610 355q0 158 -52.5 235.5t-163.5 77.5q-112 0 -164 -76t-52 -237q0 -163 52 -243t164 -80q97 0 156.5 85.5t59.5 237.5zM374 -89l3 -7q50 11 84 11q45 0 102 -21.5t77 -21.5q33 0 70 23l17 -14l-90 -85q-40 0 -110 35.5t-117 35.5q-87 0 -184 -42l-22 38
q114 57 188 120q-69 0 -125.5 21t-94.5 55.5t-63.5 82t-37 99.5t-11.5 109q0 96 36 177.5t113.5 135.5t184.5 54q161 0 247 -102.5t86 -264.5q0 -46 -8 -88t-31 -91t-61 -92t-102.5 -87.5t-150.5 -80.5z" />
    <glyph glyph-name="R" unicode="R" horiz-adv-x="650" 
d="M228 658v-583l86 -33l-7 -42h-263l-7 42l85 33v550l-87 33l8 42h315q107 0 160.5 -50.5t53.5 -141.5q0 -87 -62.5 -140.5t-149.5 -53.5l52 -26l130 -213l86 -33l-7 -42h-190l8 42l-168 274v42h47q67 0 109.5 46t42.5 104q0 150 -150 150h-92z" />
    <glyph glyph-name="S" unicode="S" horiz-adv-x="549" 
d="M50 537q0 87 64.5 133.5t163.5 46.5q98 0 195 -59v-136l-42 -7l-48 135q-51 18 -106 18q-64 0 -99 -35.5t-35 -88.5q0 -17 9.5 -34t20.5 -28.5t34 -26.5t34 -21t38.5 -19.5t31.5 -15.5q95 -48 144.5 -97.5t49.5 -128.5q0 -87 -61.5 -138.5t-187.5 -51.5q-121 0 -203 59
v143l42 7l50 -131q54 -29 104 -29q75 0 119.5 28.5t44.5 80.5q0 20 -8 38.5t-17.5 32.5t-29.5 29.5t-32.5 23.5t-39.5 21t-36.5 17.5t-36.5 15.5q-35 15 -59 30t-50.5 40t-40 62t-13.5 86z" />
    <glyph glyph-name="T" unicode="T" horiz-adv-x="652" 
d="M40 522v178h572v-178l-42 -7l-55 143h-136v-583l87 -33l-7 -42h-266l-7 42l87 33v583h-136l-55 -143z" />
    <glyph glyph-name="U" unicode="U" horiz-adv-x="726" 
d="M380 -17q-44 0 -80 7.5t-71 28.5t-59 55t-38.5 90.5t-14.5 131.5v329l-87 33l7 42h266l7 -42l-87 -33v-334q0 -138 40 -198.5t133 -60.5q187 0 187 257v336l-88 33l8 42h201l7 -42l-87 -33v-329q0 -75 -13.5 -131.5t-35.5 -90.5t-55 -55t-66 -28.5t-74 -7.5z" />
    <glyph glyph-name="V" unicode="V" horiz-adv-x="693" 
d="M601 625l-222 -625l-52 -17l-234 642l-88 33l8 42h272l8 -42l-87 -33l167 -458v-60l184 518l-88 33l8 42h203l8 -42z" />
    <glyph glyph-name="W" unicode="W" horiz-adv-x="1009" 
d="M517 483v78l-166 -561l-73 -17l-187 641l-87 33l7 43h270l8 -43l-87 -33l133 -458v-70l179 604l44 17l160 -551v-70l157 528l-87 33l7 43h203l8 -43l-88 -33l-185 -624l-72 -17z" />
    <glyph glyph-name="X" unicode="X" horiz-adv-x="671" 
d="M312 285l-161 -211l87 -33l-7 -41h-213l-7 41l85 34l192 248l-192 301l-86 33l8 43h285l7 -42l-87 -34l134 -210l162 210l-86 34l7 42h214l7 -42l-87 -34l-192 -249l191 -300l86 -33l-8 -42h-284l-7 41l86 34z" />
    <glyph glyph-name="Y" unicode="Y" horiz-adv-x="659" 
d="M295 75v183l-203 366l-87 33l8 43h280l8 -43l-88 -33l135 -242v-65l170 307l-87 33l7 43h208l8 -43l-88 -33l-165 -299v-250l86 -34l-8 -41h-264l-7 41z" />
    <glyph glyph-name="Z" unicode="Z" horiz-adv-x="602" 
d="M158 41h327l55 151l42 -8v-184h-526l-26 41l423 617h-286l-52 -143l-42 7v178h474l35 -42z" />
    <glyph glyph-name="bracketleft" unicode="[" horiz-adv-x="322" 
d="M160 726v-926h122v-42h-212v1010h212v-42h-122z" />
    <glyph glyph-name="backslash" unicode="\" horiz-adv-x="485" 
d="M441 -130l-450 898l9 9h47l450 -896l-12 -11h-44z" />
    <glyph glyph-name="bracketright" unicode="]" horiz-adv-x="322" 
d="M162 -200v926h-122v42h212v-1010h-212v42h122z" />
    <glyph glyph-name="asciicircum" unicode="^" horiz-adv-x="572" 
d="M327 768l207 -317l-31 -10l-217 246l-217 -246l-31 10l203 317h86z" />
    <glyph glyph-name="underscore" unicode="_" horiz-adv-x="497" 
d="M0 -140l8 55h489l-8 -55h-489z" />
    <glyph glyph-name="grave" unicode="`" horiz-adv-x="257" 
d="M139 735l68 -160l-20 -10l-137 160z" />
    <glyph glyph-name="a" unicode="a" horiz-adv-x="482" 
d="M71 359v83q72 36 148 36q92 0 140 -47.5t48 -136.5v-237l65 -21l-7 -36h-133l-17 36q-33 -26 -60 -36.5t-75 -10.5q-66 0 -107.5 34.5t-41.5 97.5q0 162 282 162v53q0 52 -27 78.5t-73 26.5q-51 0 -85 -12l-21 -77zM313 91v156q-176 0 -176 -116q0 -50 24 -72.5t59 -22.5
q61 0 93 55z" />
    <glyph glyph-name="b" unicode="b" horiz-adv-x="542" 
d="M196 414v44q43 20 95 20q110 0 160.5 -56.5t50.5 -176.5t-58 -188t-173 -68q-121 0 -201 47v664h-60l-8 36l118 11l44 -11v-679q40 -21 100 -21q66 0 100 58t34 162q0 97 -29 136t-87 39q-37 0 -86 -17z" />
    <glyph glyph-name="c" unicode="c" horiz-adv-x="478" 
d="M300 441q-75 0 -115 -49.5t-40 -138.5q0 -101 34.5 -159t121.5 -58q61 0 132 45l23 -33q-65 -59 -161 -59q-129 0 -192 64.5t-63 179.5t69.5 180t187.5 65q74 0 146 -36v-83l-36 -7l-19 72q-42 17 -88 17z" />
    <glyph glyph-name="d" unicode="d" horiz-adv-x="540" 
d="M376 79v324q-50 28 -96 28q-140 0 -140 -191q0 -91 36.5 -147.5t98.5 -56.5q58 0 101 43zM378 36q-50 -47 -109 -47q-116 0 -175 63.5t-59 177.5q0 112 65 180t174 68q49 0 102 -24v246h-60l-7 36l116 11l45 -11v-679l65 -21l-7 -36h-134z" />
    <glyph glyph-name="e" unicode="e" horiz-adv-x="518" 
d="M148 283h234q7 23 7 46q0 55 -27.5 83.5t-79.5 28.5q-120 0 -134 -158zM306 36q72 0 143 45l23 -33q-65 -59 -172 -59q-129 0 -194.5 65t-65.5 180q0 113 67.5 178.5t174.5 65.5q88 0 144.5 -43t56.5 -114q0 -38 -17 -74h-320v-5q0 -94 41 -150t119 -56z" />
    <glyph glyph-name="f" unicode="f" horiz-adv-x="372" 
d="M287 747q59 0 120 -42v-82l-36 -8l-21 79q-22 16 -59 16q-102 0 -102 -148v-95h121l-7 -36h-114v-374l66 -21l-8 -36h-209l-7 36l64 21v374h-68l-7 36l75 24v51q0 88 51.5 146.5t140.5 58.5z" />
    <glyph glyph-name="g" unicode="g" horiz-adv-x="452" 
d="M274 59q83 -24 125.5 -57.5t42.5 -91.5q0 -81 -66 -120.5t-165 -39.5q-77 0 -132 33t-55 92q0 35 27 63t63 41l20 -30q-45 -24 -45 -68q0 -33 34.5 -59t87.5 -26q56 0 94.5 23t38.5 63q0 55 -108 90l-109 36q-70 23 -70 73l55 92q-71 45 -71 136q0 70 52 119.5t137 49.5
q41 0 79 -11l127 11l-10 -47h-91l60 -20q31 -42 31 -102q0 -79 -54.5 -124t-138.5 -45q-47 0 -86 15q-12 -24 -12 -28q0 -28 46 -41zM230 441q-46 0 -72.5 -30.5t-27.5 -94.5q0 -65 28.5 -102t71.5 -37q44 0 75.5 35.5t31.5 98.5q0 64 -30.5 97t-76.5 33z" />
    <glyph glyph-name="h" unicode="h" horiz-adv-x="568" 
d="M178 57l65 -21l-7 -36h-210l-7 36l65 21v643h-61l-8 36l118 11l45 -11v-295q66 37 119 37q82 0 129 -42.5t47 -121.5v-257l65 -21l-7 -36h-210l-8 36l66 21v272q0 47 -25 74.5t-65 27.5q-49 0 -111 -27v-347z" />
    <glyph glyph-name="i" unicode="i" horiz-adv-x="305" 
d="M200 57l65 -21l-8 -36h-209l-8 36l66 21v374h-51l-7 36l106 11l46 -11v-410zM150 697q23 0 39 -16t16 -38t-16 -38t-39 -16q-22 0 -38 16t-16 38t16 38t38 16z" />
    <glyph glyph-name="j" unicode="j" horiz-adv-x="279" 
d="M37 467l118 11l45 -11v-385q0 -46 -5 -83t-19.5 -76t-38.5 -70t-64.5 -58t-95.5 -45l-22 37q94 63 122.5 135t28.5 177v332h-61zM150 697q23 0 39 -16t16 -38t-16 -38t-39 -16q-22 0 -38 16t-16 38t16 38t38 16z" />
    <glyph glyph-name="k" unicode="k" horiz-adv-x="538" 
d="M199 57l65 -21l-7 -36h-210l-7 36l65 21v643h-50l-7 36l106 11l45 -11v-679zM504 467h-179l-7 -36l71 -21l-159 -152v-34l132 -188l-8 -36h166l8 36l-66 21l-120 171l-70 19l137 131q33 32 77 45l26 8z" />
    <glyph glyph-name="l" unicode="l" horiz-adv-x="304" 
d="M199 57l65 -21l-7 -36h-210l-7 36l65 21v643h-50l-7 36l106 11l45 -11v-679z" />
    <glyph glyph-name="m" unicode="m" horiz-adv-x="872" 
d="M483 314v-257l66 -21l-8 -36h-210l-7 36l65 21v272q0 47 -26.5 74.5t-66.5 27.5q-46 0 -102 -27v-347l65 -21l-7 -36h-210l-7 36l65 21v374h-50l-7 36l112 11l39 -37q65 37 125 37q83 0 125 -45q67 45 135 45q94 0 143 -42t49 -122v-257l66 -21l-8 -36h-209l-8 36l65 21
v265q0 52 -30.5 80.5t-75.5 28.5q-53 0 -107 -27q19 -40 19 -90z" />
    <glyph glyph-name="n" unicode="n" horiz-adv-x="594" 
d="M194 57l66 -21l-8 -36h-210l-7 36l65 21v374h-50l-7 36l115 11l36 -37q78 37 130 37q82 0 126 -42.5t44 -121.5v-257l65 -21l-7 -36h-209l-8 36l65 21v272q0 46 -29 74t-70 28q-49 0 -107 -27v-347z" />
    <glyph glyph-name="o" unicode="o" horiz-adv-x="550" 
d="M275 478q111 0 173 -64.5t62 -179.5q0 -118 -59 -181.5t-176 -63.5q-116 0 -175.5 65t-59.5 180q0 113 62.5 178.5t172.5 65.5zM275 441q-63 0 -100.5 -55t-37.5 -149q0 -95 37.5 -153t100.5 -58q64 0 101.5 57.5t37.5 153.5q0 95 -37.5 149.5t-101.5 54.5z" />
    <glyph glyph-name="p" unicode="p" horiz-adv-x="544" 
d="M196 0v37h42q63 0 111.5 60.5t48.5 157.5t-29 136.5t-87 39.5q-42 0 -118 -27v-586l66 -21l-8 -36h-209l-8 36l65 21v613h-60l-8 36l121 11l41 -37q67 37 127 37q109 0 161 -57t52 -173q0 -111 -74 -179.5t-190 -68.5h-44z" />
    <glyph glyph-name="q" unicode="q" horiz-adv-x="541" 
d="M380 -182v212q-60 -41 -122 -41q-218 0 -218 239q0 114 63.5 182t179.5 68q44 0 97 -17l46 17l48 -11v-649l65 -21l-7 -36h-226l-8 36zM380 422q-59 19 -95 19q-66 0 -102 -58t-36 -155q0 -93 32.5 -142.5t88.5 -49.5q31 0 62 15t50 41v330z" />
    <glyph glyph-name="r" unicode="r" horiz-adv-x="422" 
d="M412 359l-36 -7l-22 71q-22 8 -49 8q-33 0 -106 -27v-347l66 -21l-8 -36h-210l-7 36l65 21v374h-50l-7 36l116 11l35 -37q66 37 124 37q48 0 89 -17v-102z" />
    <glyph glyph-name="s" unicode="s" horiz-adv-x="415" 
d="M193 -11q-78 0 -153 37v106l37 7l33 -97q44 -16 75 -16q49 0 79.5 21t30.5 56q0 10 -3.5 19t-12.5 17.5t-15.5 14.5t-22 13.5t-22.5 11t-26 12t-24 10.5q-30 14 -49 25t-39 28.5t-29.5 40t-9.5 50.5q0 61 49 97t131 36q63 0 133 -36v-83l-36 -7l-20 72q-34 17 -88 17
q-40 0 -65 -19.5t-25 -50.5q0 -16 9 -29.5t28 -25.5t32 -18t38 -17q35 -15 54.5 -25t44.5 -28.5t36.5 -43t11.5 -55.5q0 -65 -48 -102.5t-134 -37.5z" />
    <glyph glyph-name="t" unicode="t" horiz-adv-x="326" 
d="M169 583v-116h131l-7 -36h-124v-321q0 -34 16 -54t39 -20q44 0 79 38l23 -27q-28 -30 -54 -44t-65 -14q-66 0 -99 35.5t-33 93.5v313h-58l-7 36l71 22l42 105z" />
    <glyph glyph-name="u" unicode="u" horiz-adv-x="556" 
d="M382 87v344h-46l-7 36l111 11l36 -11v-410l65 -21l-7 -36h-134l-18 36q-32 -28 -62 -37.5t-75 -9.5q-80 0 -121.5 48t-41.5 131v263h-45l-7 36l103 11l43 -11v-308q0 -63 30.5 -93t75.5 -30q64 0 100 51z" />
    <glyph glyph-name="v" unicode="v" horiz-adv-x="556" 
d="M475 410l-154 -410l-68 -11l-168 421l-65 21l8 36h216l7 -36l-64 -21l117 -295v-58l133 353l-65 21l7 36h154l8 -36z" />
    <glyph glyph-name="w" unicode="w" horiz-adv-x="793" 
d="M404 346v48l-118 -394l-89 -11l-120 421l-65 21l7 36h213l7 -36l-64 -21l91 -318v-35l121 410l77 11l105 -365v-56l105 353l-65 21l8 36h153l7 -36l-65 -21l-122 -410l-84 -11z" />
    <glyph glyph-name="x" unicode="x" horiz-adv-x="519" 
d="M509 431l-65 -21l-142 -159l134 -194l67 -21l-8 -36h-231l-7 36l65 21l-85 124l-112 -124l65 -21l-7 -36h-165l-8 37l66 20l139 155l-136 198l-65 21l7 36h230l7 -36l-64 -21l86 -126l114 126l-74 21l11 36h171z" />
    <glyph glyph-name="y" unicode="y" horiz-adv-x="577" 
d="M497 411l-181 -517q-14 -39 -39.5 -84t-47.5 -60l-119 10l-8 37q30 5 46.5 9.5t45 17.5t50 39t36.5 65l23 61l-44 11l-174 410l-67 21l8 36h238l7 -36l-85 -21l142 -330v-23l123 353l-75 21l7 36h172l7 -36z" />
    <glyph glyph-name="z" unicode="z" horiz-adv-x="473" 
d="M58 467h357l33 -36l-288 -364l-66 -31h260l32 103l37 -7v-132h-380l-18 36l287 368l53 27h-246l-25 -79l-36 7v108z" />
    <glyph glyph-name="braceleft" unicode="{" horiz-adv-x="410" 
d="M334 726q-34 0 -57.5 -24t-23.5 -57v-210q0 -120 -113 -146v-9q113 -26 113 -146v-253q0 -34 23.5 -57.5t57.5 -23.5h36v-42h-50q-67 0 -114.5 48t-47.5 115v261q0 33 -24 57t-58 24h-16v42h16q34 0 58 23.5t24 57.5v219q0 67 47.5 115t114.5 48h50v-42h-36z" />
    <glyph glyph-name="bar" unicode="|" horiz-adv-x="270" 
d="M159 717v-956h-59v956h59z" />
    <glyph glyph-name="braceright" unicode="}" horiz-adv-x="410" 
d="M76 726h-36v42h50q67 0 114.5 -48t47.5 -115v-219q0 -34 24 -57.5t58 -23.5h16v-42h-16q-34 0 -58 -24t-24 -57v-261q0 -67 -47.5 -115t-114.5 -48h-50v42h36q34 0 57.5 23.5t23.5 57.5v253q0 120 113 146v9q-113 26 -113 146v210q0 33 -23.5 57t-57.5 24z" />
    <glyph glyph-name="asciitilde" unicode="~" horiz-adv-x="608" 
d="M553 324q-51 -90 -152 -90q-41 0 -112.5 22.5t-104.5 22.5q-68 0 -109 -45l-20 13q29 47 67 70.5t95 23.5q35 0 109 -20.5t106 -20.5q60 0 101 41q3 -3 6 -5.5t7.5 -6t6.5 -5.5z" />
    <glyph glyph-name="exclamdown" unicode="&#xa1;" horiz-adv-x="278" 
d="M139 370q-23 0 -38.5 16t-15.5 38t15.5 38t38.5 16t38.5 -16t15.5 -38t-15.5 -38t-38.5 -16zM116 294h46l36 -533l-79 -17l-39 17z" />
    <glyph glyph-name="cent" unicode="&#xa2;" horiz-adv-x="584" 
d="M376 601h46l-23 -108q45 -9 90 -31v-83l-36 -8l-20 63q-20 7 -44 12l-86 -403q16 -4 42 -4q38 0 88 16l20 64l36 -8v-87q-73 -35 -147 -35q-30 0 -50 4l-22 -103h-47l24 113q-72 25 -109.5 87.5t-37.5 154.5q0 118 62.5 185.5t179.5 67.5h12zM205 247q0 -138 55 -183
l83 386q-74 -1 -106 -50t-32 -153z" />
    <glyph glyph-name="sterling" unicode="&#xa3;" horiz-adv-x="455" 
d="M366 303v-42h-177q-12 -111 -117 -190l3 -5l99 12h261v-78h-431v66q24 20 39.5 38t31 59.5t17.5 97.5h-88v42h89v96q0 126 64 189.5t149 63.5q75 0 139 -43v-85l-37 -8l-22 70q-31 17 -75 17q-48 0 -84.5 -46.5t-36.5 -119.5v-134h176z" />
    <glyph glyph-name="currency" unicode="&#xa4;" horiz-adv-x="539" 
d="M396 217l62 -62l-34 -35l-64 62q-41 -27 -91 -27q-51 0 -91 28l-62 -62l-36 34l62 62q-28 42 -28 93q0 49 28 91l-62 62l34 36l62 -62q43 30 93 30q48 0 93 -30l62 62l35 -34l-63 -63q30 -41 30 -92q0 -48 -30 -93zM162 310q0 -45 31 -76t76 -31t77 31t32 76t-32 77
t-77 32t-76 -32t-31 -77z" />
    <glyph glyph-name="yen" unicode="&#xa5;" horiz-adv-x="648" 
d="M581 268v-42h-186v-165l86 -22l-7 -39h-267l-7 39l88 22v165h-220v42h220v5l-60 92h-160v42h133l-102 158l-89 38l8 38h283l7 -38l-87 -38l120 -194v-66l161 260l-89 38l8 38h210l7 -38l-88 -38l-95 -158h126v-42h-152l-34 -57v-40h186z" />
    <glyph glyph-name="brokenbar" unicode="&#xa6;" horiz-adv-x="259" 
d="M159 163v-402h-59v402h59zM159 717v-402h-59v402h59z" />
    <glyph glyph-name="section" unicode="&#xa7;" horiz-adv-x="521" 
d="M176 601q0 -38 29 -64.5t70 -43t82 -34t70 -50.5t29 -80q0 -77 -86 -139q86 -52 86 -135q0 -78 -52.5 -117.5t-141.5 -39.5q-37 0 -69.5 9t-51 18.5t-54.5 31.5v123l42 7l48 -121q48 -17 86 -17q94 0 94 81q0 38 -29 64.5t-70 43t-82 34.5t-70 51t-29 80q0 75 85 138
q-85 50 -85 135q0 78 52.5 117.5t141.5 39.5q37 0 69.5 -9t51 -18.5t54.5 -31.5v-113l-42 -7l-48 112q-48 17 -86 17q-47 0 -70.5 -21.5t-23.5 -60.5zM369 302q0 15 -7.5 28t-18.5 22t-30 19t-35 16.5t-40.5 16.5t-40.5 18q-33 -46 -33 -92q0 -18 9 -32.5t29 -26.5t37 -20
t48 -21t48 -21q34 48 34 93z" />
    <glyph glyph-name="dieresis" unicode="&#xa8;" horiz-adv-x="387" 
d="M283 697q22 0 38 -16t16 -38t-16 -38t-38 -16q-23 0 -38.5 15.5t-15.5 38.5t15.5 38.5t38.5 15.5zM104 697q22 0 38 -15.5t16 -38.5t-16 -38.5t-38 -15.5t-38 16t-16 38t16 38t38 16z" />
    <glyph glyph-name="copyright" unicode="&#xa9;" horiz-adv-x="838" 
d="M435 179q40 0 76 11l30 69l25 -5v-85q-48 -35 -131 -35q-107 0 -162 63.5t-55 154.5q0 88 57.5 152.5t159.5 64.5q70 0 131 -35v-81l-25 -4l-28 63q-39 12 -78 12q-71 0 -104 -41t-33 -129q0 -80 29 -127.5t108 -47.5zM55 351q0 152 106 259t257 107t258 -107.5
t107 -258.5q0 -150 -107 -256t-258 -106t-257 106t-106 256zM120 351q0 -133 83 -220t215 -87t216 87t84 220q0 135 -83.5 223t-216.5 88q-132 0 -215 -88t-83 -223z" />
    <glyph glyph-name="ordfeminine" unicode="&#xaa;" horiz-adv-x="290" 
d="M41 541v51q46 21 90 21q116 0 116 -112v-145l39 -13l-4 -21h-81l-11 21q-37 -28 -82 -28q-40 0 -65.5 21t-25.5 59q0 99 172 99v26q0 31 -16.5 48t-44.5 17q-30 0 -51 -8l-14 -41zM189 378v94q-108 0 -108 -70q0 -30 15 -44.5t36 -14.5q37 0 57 35z" />
    <glyph glyph-name="guillemotleft" unicode="&#xab;" horiz-adv-x="505" 
d="M429 95l-170 141l-9 35l179 145l16 -27l-113 -134l113 -133zM293 68l-223 160l-10 48l233 167l16 -27l-162 -161l162 -160z" />
    <glyph glyph-name="logicalnot" unicode="&#xac;" horiz-adv-x="546" 
d="M58 297l9 60h421v-229h-62v169h-368z" />
    <glyph glyph-name="uni00AD" unicode="&#xad;" horiz-adv-x="370" 
d="M42 297l8 60h278l-8 -60h-278z" />
    <glyph glyph-name="registered" unicode="&#xae;" horiz-adv-x="838" 
d="M55 351q0 152 106 259t257 107t258 -107.5t107 -258.5q0 -150 -107 -256t-258 -106t-257 106t-106 256zM120 351q0 -133 83 -220t215 -87t216 87t84 220q0 135 -83.5 223t-216.5 88q-132 0 -215 -88t-83 -223zM366 533v-346l49 -20l-4 -25h-158l-4 25l48 20v329l-49 20
l4 25h189q64 0 96 -30t32 -85q0 -52 -37.5 -84t-89.5 -32l37 -16l80 -127l52 -20l-4 -25h-119l5 25l-104 155v37h28q40 0 63 26t23 61q0 43 -19 65t-65 22h-53z" />
    <glyph glyph-name="macron" unicode="&#xaf;" horiz-adv-x="522" 
d="M102 614v62h333v-62h-333z" />
    <glyph glyph-name="degree" unicode="&#xb0;" horiz-adv-x="370" 
d="M186 717q51 0 87.5 -36t36.5 -90q0 -51 -36.5 -87.5t-87.5 -36.5q-54 0 -90 36.5t-36 87.5q0 52 37 89t89 37zM186 675q-36 0 -60 -24.5t-24 -59.5t24.5 -58.5t59.5 -23.5q33 0 57.5 24t24.5 58q0 35 -24.5 59.5t-57.5 24.5z" />
    <glyph glyph-name="plusminus" unicode="&#xb1;" horiz-adv-x="612" 
d="M549 12h-493l7 50h494zM333 126h-56v186h-222l8 53h214v183h56v-183h224l-9 -53h-215v-186z" />
    <glyph glyph-name="twosuperior" unicode="&#xb2;" horiz-adv-x="284" 
d="M133 687q-28 0 -50 -11l-21 -64l-23 5v75q50 25 96 25q65 0 96 -28t31 -72q0 -43 -27.5 -80.5t-61 -59.5t-64.5 -49.5t-36 -51.5h153l15 44l23 -5v-93h-244v23q0 33 17.5 62.5t42 53t49 46t42 51t17.5 58.5q0 36 -16 53.5t-39 17.5z" />
    <glyph glyph-name="threesuperior" unicode="&#xb3;" horiz-adv-x="306" 
d="M260 686l-133 -138l31 6q45 0 81.5 -30t36.5 -84q0 -56 -41.5 -90.5t-102.5 -34.5q-64 0 -107 37l14 22q46 -29 90 -29q33 0 54.5 26.5t21.5 67.5q0 83 -87 83l-24 -5l-12 16l132 141l-38 -10h-95l-14 -44l-23 5v85h206z" />
    <glyph glyph-name="acute" unicode="&#xb4;" horiz-adv-x="257" 
d="M50 575l68 160l89 -10l-137 -160z" />
    <glyph glyph-name="mu" unicode="&#xb5;" horiz-adv-x="541" 
d="M367 87v344h-46l-7 36l111 11l36 -11v-410l65 -21l-7 -36h-134l-18 36q-33 -28 -62 -37.5t-75 -9.5q-62 0 -103 32l34 -51v-152l66 -21l-8 -36h-209l-8 36l65 21v613h-45l-7 36l103 11l43 -11v-308q0 -63 30.5 -93t75.5 -30q63 0 100 51z" />
    <glyph glyph-name="paragraph" unicode="&#xb6;" horiz-adv-x="531" 
d="M249 268q-209 0 -209 191q0 88 61 143.5t148 55.5h245l7 -37l-87 -33v-388q0 -60 -11.5 -115t-36.5 -107.5t-71 -92.5t-110 -59l-22 36q49 33 81 74.5t46.5 89.5t19 88t4.5 91v417h-65v-354z" />
    <glyph glyph-name="periodcentered" unicode="&#xb7;" horiz-adv-x="209" 
d="M104 408q22 0 38 -16t16 -38t-16 -38t-38 -16t-38 16t-16 38t16 38t38 16z" />
    <glyph glyph-name="cedilla" unicode="&#xb8;" horiz-adv-x="448" 
d="M180 -221v29q41 0 64.5 18t23.5 47q0 20 -13.5 29t-30.5 9h-19v89h36v-46q34 0 60.5 -19t26.5 -55q0 -31 -14.5 -52.5t-39 -31t-47 -13.5t-47.5 -4z" />
    <glyph glyph-name="onesuperior" unicode="&#xb9;" horiz-adv-x="294" 
d="M59 322l-5 23l60 16v301h-58l-6 26l96 22h40v-349l58 -16l-5 -23h-180z" />
    <glyph glyph-name="ordmasculine" unicode="&#xba;" horiz-adv-x="335" 
d="M167 612q68 0 105.5 -39t37.5 -110t-36 -109.5t-107 -38.5q-70 0 -106 39.5t-36 108.5t37.5 109t104.5 40zM167 583q-77 0 -77 -117q0 -122 77 -122q79 0 79 122q0 117 -79 117z" />
    <glyph glyph-name="guillemotright" unicode="&#xbb;" horiz-adv-x="505" 
d="M435 228l-223 -160l-16 27l162 160l-162 161l16 27l233 -167zM246 236l-170 -141l-16 27l113 133l-113 134l16 27l179 -145z" />
    <glyph glyph-name="onequarter" unicode="&#xbc;" horiz-adv-x="779" 
d="M646 717h51l-534 -734h-52zM80 322l-4 24l70 13v304h-69l-5 24l105 23h30v-351l67 -13l-4 -24h-190zM564 134v133l10 50l-133 -183h123zM564 37v74h-142l-15 21l193 263l24 -7v-254h57l-5 -23h-52v-74l67 -13l-5 -24h-187l-5 24z" />
    <glyph glyph-name="onehalf" unicode="&#xbd;" horiz-adv-x="777" 
d="M613 358q-27 0 -53 -13l-18 -53l-24 5v67q47 24 97 24q56 0 86 -29.5t30 -72.5t-28 -81.5t-62 -61.5t-65.5 -51.5t-36.5 -53.5h147l14 44l24 -5v-84h-225v23q0 33 17.5 62.5t42.5 52.5t50 45.5t42.5 50.5t17.5 58q0 32 -16.5 52.5t-39.5 20.5zM646 717h51l-534 -734h-52z
M80 322l-4 24l70 13v304h-69l-5 24l105 23h30v-351l67 -13l-4 -24h-190z" />
    <glyph glyph-name="threequarters" unicode="&#xbe;" horiz-adv-x="745" 
d="M642 717h51l-534 -734h-52zM281 687l-132 -138l30 6q45 0 81.5 -30t36.5 -84q0 -56 -40 -91t-100 -35q-68 0 -107 39l13 20q50 -28 91 -28q33 0 57.5 26.5t24.5 66.5q0 39 -25 61t-72 22l-24 -5l-11 17l132 140l-39 -10h-95l-14 -43l-24 5v84h207zM564 134v133l10 50
l-133 -183h123zM564 37v74h-142l-15 21l193 263l24 -7v-254h57l-5 -23h-52v-74l67 -13l-5 -24h-187l-5 24z" />
    <glyph glyph-name="questiondown" unicode="&#xbf;" horiz-adv-x="406" 
d="M267 294q29 -67 29 -129q0 -101 -99 -160q-45 -27 -61 -58t-16 -70q0 -43 30.5 -69.5t76.5 -26.5q44 0 84 34l24 77l33 -7v-82q-61 -59 -139 -59q-84 0 -135.5 42t-51.5 117q0 115 96 177q49 32 71.5 63t22.5 72q0 28 -10 79h45zM234 370q-22 0 -38 16t-16 38t16 38
t38 16t38 -16t16 -38t-16 -38t-38 -16z" />
    <glyph glyph-name="Agrave" unicode="&#xc0;" horiz-adv-x="738" 
d="M335 928l109 -160l-20 -10l-184 160zM419 717l-87 -17l-231 -625l-86 -33l7 -42h228l7 42l-103 33l57 161h262l56 -161l-86 -33l7 -42h272l8 42l-86 33zM227 278l130 345v-51l101 -294h-231z" />
    <glyph glyph-name="Aacute" unicode="&#xc1;" horiz-adv-x="738" 
d="M332 700l87 17l225 -642l86 -33l-8 -42h-272l-7 42l86 33l-56 161h-262l-57 -161l103 -33l-7 -42h-228l-7 42l86 33zM357 623l-130 -345h231l-101 294v51zM313 768l109 160l95 -10l-184 -160z" />
    <glyph glyph-name="Acircumflex" unicode="&#xc2;" horiz-adv-x="738" 
d="M419 717l-87 -17l-231 -625l-86 -33l7 -42h228l7 42l-103 33l57 161h262l56 -161l-86 -33l7 -42h272l8 42l-86 33zM227 278l130 345v-51l101 -294h-231zM414 928l109 -160l-20 -10l-118 106l-119 -106l-20 10l109 160h59z" />
    <glyph glyph-name="Atilde" unicode="&#xc3;" horiz-adv-x="738" 
d="M332 700l87 17l225 -642l86 -33l-8 -42h-272l-7 42l86 33l-56 161h-262l-57 -161l103 -33l-7 -42h-228l-7 42l86 33zM357 623l-130 -345h231l-101 294v51zM457 777h-28l-100 55l-78 -55l-20 10l83 103h25l100 -45l81 45l20 -10z" />
    <glyph glyph-name="Adieresis" unicode="&#xc4;" horiz-adv-x="738" 
d="M332 700l87 17l225 -642l86 -33l-8 -42h-272l-7 42l86 33l-56 161h-262l-57 -161l103 -33l-7 -42h-228l-7 42l86 33zM357 623l-130 -345h231l-101 294v51zM464 876q22 0 38 -16t16 -38t-16 -38t-38 -16t-38 16t-16 38t16 38t38 16zM285 876q23 0 38.5 -16t15.5 -38
t-15.5 -38t-38.5 -16q-22 0 -38 16t-16 38t16 38t38 16z" />
    <glyph glyph-name="Aring" unicode="&#xc5;" horiz-adv-x="738" 
d="M385 930q45 0 73.5 -26t28.5 -70q0 -45 -27.5 -70.5t-74.5 -25.5t-74.5 26t-27.5 70t29 70t73 26zM385 902q-24 0 -39 -18.5t-15 -48.5t15 -49.5t39 -19.5q25 0 40 19.5t15 49.5q0 31 -15 49t-40 18zM419 717l-87 -17l-231 -625l-86 -33l7 -42h228l7 42l-103 33l57 161
h262l56 -161l-86 -33l7 -42h272l8 42l-86 33zM227 278l130 345v-51l101 -294h-231z" />
    <glyph glyph-name="AE" unicode="&#xc6;" horiz-adv-x="917" 
d="M222 236l-71 -161l81 -33l-7 -42h-213l-7 42l86 33l282 625h491v-150l-42 -8l-42 116h-216v-265h122l31 84l42 -7v-197l-42 -7l-31 84h-122v-308h221l55 150l42 -7v-185h-502l-7 42l85 33v161h-236zM240 278h217v357l-45 23z" />
    <glyph glyph-name="Ccedilla" unicode="&#xc7;" horiz-adv-x="652" 
d="M416 32q67 0 127 19l51 141l42 -7v-143q-37 -27 -97.5 -43t-122.5 -16q-13 0 -35 2v-31q34 0 60.5 -19t26.5 -55q0 -31 -14.5 -52.5t-39 -31t-47 -13.5t-47.5 -4v29q41 0 64.5 18t23.5 47q0 20 -13.5 29t-30.5 9h-19v77q-75 11 -131.5 45.5t-89 85t-48.5 108.5t-16 123
q0 71 22 135.5t64 117t112 83.5t158 31q118 0 220 -59v-136l-42 -7l-48 134q-67 19 -130 19q-121 0 -179.5 -76.5t-58.5 -236.5q0 -323 238 -323z" />
    <glyph glyph-name="Egrave" unicode="&#xc8;" horiz-adv-x="581" 
d="M228 658h216l42 -116l42 8v150h-485l-8 -42l87 -33v-550l-85 -33l7 -42h502v185l-42 7l-55 -150h-221v308h122l31 -84l42 7v197l-42 7l-31 -84h-122v265zM243 928l109 -160l-20 -10l-184 160z" />
    <glyph glyph-name="Eacute" unicode="&#xc9;" horiz-adv-x="581" 
d="M444 658h-216v-265h122l31 84l42 -7v-197l-42 -7l-31 84h-122v-308h221l55 150l42 -7v-185h-502l-7 42l85 33v550l-87 33l8 42h485v-150l-42 -8zM245 768l109 160l95 -10l-184 -160z" />
    <glyph glyph-name="Ecircumflex" unicode="&#xca;" horiz-adv-x="581" 
d="M228 658h216l42 -116l42 8v150h-485l-8 -42l87 -33v-550l-85 -33l7 -42h502v185l-42 7l-55 -150h-221v308h122l31 -84l42 7v197l-42 7l-31 -84h-122v265zM323 928l109 -160l-20 -10l-118 106l-119 -106l-20 10l109 160h59z" />
    <glyph glyph-name="Edieresis" unicode="&#xcb;" horiz-adv-x="581" 
d="M444 658h-216v-265h122l31 84l42 -7v-197l-42 -7l-31 84h-122v-308h221l55 150l42 -7v-185h-502l-7 42l85 33v550l-87 33l8 42h485v-150l-42 -8zM388 876q22 0 38 -16t16 -38t-16 -38t-38 -16t-38 16t-16 38t16 38t38 16zM209 876q23 0 38.5 -16t15.5 -38t-15.5 -38
t-38.5 -16q-22 0 -38 16t-16 38t16 38t38 16z" />
    <glyph glyph-name="Igrave" unicode="&#xcc;" horiz-adv-x="401" 
d="M253 75v550l88 33l-8 42h-265l-8 -42l88 -33v-550l-88 -33l8 -42h265l8 42zM144 928l109 -160l-20 -10l-184 160z" />
    <glyph glyph-name="Iacute" unicode="&#xcd;" horiz-adv-x="401" 
d="M253 625v-550l88 -33l-8 -42h-265l-8 42l88 33v550l-88 33l8 42h265l8 -42zM134 768l109 160l95 -10l-184 -160z" />
    <glyph glyph-name="Icircumflex" unicode="&#xce;" horiz-adv-x="401" 
d="M253 75v550l88 33l-8 42h-265l-8 -42l88 -33v-550l-88 -33l8 -42h265l8 42zM229 928l109 -160l-20 -10l-118 106l-119 -106l-20 10l109 160h59z" />
    <glyph glyph-name="Idieresis" unicode="&#xcf;" horiz-adv-x="401" 
d="M287 876q22 0 38 -16t16 -38t-16 -38t-38 -16q-23 0 -38.5 16t-15.5 38t15.5 38t38.5 16zM108 876q22 0 38 -16t16 -38t-16 -38t-38 -16t-38 16t-16 38t16 38t38 16zM253 625v-550l88 -33l-8 -42h-265l-8 42l88 33v550l-88 33l8 42h265l8 -42z" />
    <glyph glyph-name="Eth" unicode="&#xd0;" horiz-adv-x="710" 
d="M312 0h-269l-7 42l86 33v265h-87v42h87v243l-87 33l7 42h273q180 0 272.5 -95.5t92.5 -249.5q0 -100 -38.5 -178.5t-123.5 -127.5t-206 -49zM315 658h-87v-276h173v-42h-173v-298h87q121 0 184.5 89.5t63.5 225.5q0 134 -63 217.5t-185 83.5z" />
    <glyph glyph-name="Ntilde" unicode="&#xd1;" horiz-adv-x="721" 
d="M25 42l86 33v550l-87 33l7 42h191l345 -546v471l-86 33l7 42h199l7 -42l-86 -33v-625l-59 -17l-396 628v-536l85 -33l-7 -42h-198zM449 777h-28l-100 55l-78 -55l-20 10l83 103h25l100 -45l81 45l20 -10z" />
    <glyph glyph-name="Ograve" unicode="&#xd2;" 
d="M394 717q161 0 247 -102.5t86 -264.5q0 -80 -19 -145t-58 -115.5t-104 -78.5t-152 -28q-86 0 -152.5 31t-105 83.5t-57.5 116.5t-19 136q0 96 36 177.5t113.5 135.5t184.5 54zM394 668q-112 0 -164 -76t-52 -237q0 -163 52 -243t164 -80q216 0 216 323q0 158 -52.5 235.5
t-163.5 77.5zM331 929l109 -160l-20 -10l-184 160z" />
    <glyph glyph-name="Oacute" unicode="&#xd3;" 
d="M394 717q161 0 247 -102.5t86 -264.5q0 -80 -19 -145t-58 -115.5t-104 -78.5t-152 -28q-86 0 -152.5 31t-105 83.5t-57.5 116.5t-19 136q0 96 36 177.5t113.5 135.5t184.5 54zM394 668q-112 0 -164 -76t-52 -237q0 -163 52 -243t164 -80q216 0 216 323q0 158 -52.5 235.5
t-163.5 77.5zM343 768l109 160l95 -10l-184 -160z" />
    <glyph glyph-name="Ocircumflex" unicode="&#xd4;" 
d="M394 717q161 0 247 -102.5t86 -264.5q0 -80 -19 -145t-58 -115.5t-104 -78.5t-152 -28q-86 0 -152.5 31t-105 83.5t-57.5 116.5t-19 136q0 96 36 177.5t113.5 135.5t184.5 54zM394 668q-112 0 -164 -76t-52 -237q0 -163 52 -243t164 -80q216 0 216 323q0 158 -52.5 235.5
t-163.5 77.5zM423 928l109 -160l-20 -10l-118 106l-119 -106l-20 10l109 160h59z" />
    <glyph glyph-name="Otilde" unicode="&#xd5;" 
d="M394 717q161 0 247 -102.5t86 -264.5q0 -80 -19 -145t-58 -115.5t-104 -78.5t-152 -28q-86 0 -152.5 31t-105 83.5t-57.5 116.5t-19 136q0 96 36 177.5t113.5 135.5t184.5 54zM394 668q-112 0 -164 -76t-52 -237q0 -163 52 -243t164 -80q216 0 216 323q0 158 -52.5 235.5
t-163.5 77.5zM469 777h-28l-100 55l-78 -55l-20 10l83 103h25l100 -45l81 45l20 -10z" />
    <glyph glyph-name="Odieresis" unicode="&#xd6;" 
d="M473 876q22 0 38 -16t16 -38t-16 -38t-38 -16q-23 0 -38.5 16t-15.5 38t15.5 38t38.5 16zM294 876q22 0 38 -16t16 -38t-16 -38t-38 -16t-38 16t-16 38t16 38t38 16zM394 717q161 0 247 -102.5t86 -264.5q0 -80 -19 -145t-58 -115.5t-104 -78.5t-152 -28q-86 0 -152.5 31
t-105 83.5t-57.5 116.5t-19 136q0 96 36 177.5t113.5 135.5t184.5 54zM394 668q-112 0 -164 -76t-52 -237q0 -163 52 -243t164 -80q216 0 216 323q0 158 -52.5 235.5t-163.5 77.5z" />
    <glyph glyph-name="multiply" unicode="&#xd7;" horiz-adv-x="560" 
d="M419 143l-139 139l-139 -139l-41 37l141 141l-141 141l39 39l141 -141l141 141l39 -39l-141 -141l141 -141z" />
    <glyph glyph-name="Oslash" unicode="&#xd8;" 
d="M394 717q86 0 155 -33l25 42h47l9 -9l-35 -60q65 -48 98.5 -128t33.5 -179q0 -80 -19 -145t-58 -115.5t-104 -78.5t-152 -28q-97 0 -169 39l-25 -44h-44l-12 11l37 63q-121 100 -121 298q0 96 36 177.5t113.5 135.5t184.5 54zM610 355q0 160 -55 233l-294 -505
q60 -51 133 -51q216 0 216 323zM394 668q-112 0 -164 -76t-52 -237q0 -154 46 -229l292 500q-64 42 -122 42z" />
    <glyph glyph-name="Ugrave" unicode="&#xd9;" horiz-adv-x="726" 
d="M380 -17q41 0 74 7.5t66 28.5t55 55t35.5 90.5t13.5 131.5v329l87 33l-7 42h-201l-8 -42l88 -33v-336q0 -257 -187 -257q-93 0 -133 60.5t-40 198.5v334l87 33l-7 42h-266l-7 -42l87 -33v-329q0 -75 14.5 -131.5t38.5 -90.5t59 -55t71 -28.5t80 -7.5zM329 928l109 -160
l-20 -10l-184 160z" />
    <glyph glyph-name="Uacute" unicode="&#xda;" horiz-adv-x="726" 
d="M380 -17q-44 0 -80 7.5t-71 28.5t-59 55t-38.5 90.5t-14.5 131.5v329l-87 33l7 42h266l7 -42l-87 -33v-334q0 -138 40 -198.5t133 -60.5q187 0 187 257v336l-88 33l8 42h201l7 -42l-87 -33v-329q0 -75 -13.5 -131.5t-35.5 -90.5t-55 -55t-66 -28.5t-74 -7.5zM344 768
l109 160l95 -10l-184 -160z" />
    <glyph glyph-name="Ucircumflex" unicode="&#xdb;" horiz-adv-x="726" 
d="M380 -17q41 0 74 7.5t66 28.5t55 55t35.5 90.5t13.5 131.5v329l87 33l-7 42h-201l-8 -42l88 -33v-336q0 -257 -187 -257q-93 0 -133 60.5t-40 198.5v334l87 33l-7 42h-266l-7 -42l87 -33v-329q0 -75 14.5 -131.5t38.5 -90.5t59 -55t71 -28.5t80 -7.5zM429 928l109 -160
l-20 -10l-118 106l-119 -106l-20 10l109 160h59z" />
    <glyph glyph-name="Udieresis" unicode="&#xdc;" horiz-adv-x="726" 
d="M489 876q22 0 38 -16t16 -38t-16 -38t-38 -16q-23 0 -38.5 16t-15.5 38t15.5 38t38.5 16zM310 876q22 0 38 -16t16 -38t-16 -38t-38 -16t-38 16t-16 38t16 38t38 16zM380 -17q-44 0 -80 7.5t-71 28.5t-59 55t-38.5 90.5t-14.5 131.5v329l-87 33l7 42h266l7 -42l-87 -33
v-334q0 -138 40 -198.5t133 -60.5q187 0 187 257v336l-88 33l8 42h201l7 -42l-87 -33v-329q0 -75 -13.5 -131.5t-35.5 -90.5t-55 -55t-66 -28.5t-74 -7.5z" />
    <glyph glyph-name="Yacute" unicode="&#xdd;" horiz-adv-x="659" 
d="M295 75v183l-203 366l-87 33l8 43h280l8 -43l-88 -33l135 -242v-65l170 307l-87 33l7 43h208l8 -43l-88 -33l-165 -299v-250l86 -34l-8 -41h-264l-7 41zM307 768l109 160l95 -10l-184 -160z" />
    <glyph glyph-name="Thorn" unicode="&#xde;" horiz-adv-x="578" 
d="M222 625v-70h88q109 0 168.5 -53.5t59.5 -151.5q0 -198 -255 -198h-61v-77l88 -33l-8 -42h-260l-8 42l88 33v550l-88 33l8 42h260l8 -42zM283 513h-61v-319h59q68 0 111 47t43 112q0 160 -152 160z" />
    <glyph glyph-name="germandbls" unicode="&#xdf;" horiz-adv-x="645" 
d="M314 747q106 0 154 -41t48 -93q0 -31 -16.5 -55t-39.5 -40t-46 -31.5t-39.5 -36.5t-16.5 -48q0 -13 6 -24t18.5 -21t22.5 -16t29 -15.5t27 -14.5q33 -19 52.5 -32t44 -34.5t36 -48t11.5 -57.5q0 -67 -43 -108.5t-126 -41.5q-68 0 -143 37v106l37 7l33 -89q39 -14 65 -14
q46 0 71.5 23.5t25.5 60.5q0 14 -7 27t-23 25.5t-27.5 20t-34.5 20.5t-31 18q-33 20 -48 30.5t-36.5 30.5t-30.5 42.5t-9 50.5q0 37 15 65.5t36 46t42 33.5t36 37.5t15 49.5q0 33 -27.5 58t-81.5 25q-71 0 -97.5 -43.5t-26.5 -124.5v-532h-151l-7 36l64 21v374h-68l-7 36
l75 24v31q0 99 54 162t165 63z" />
    <glyph glyph-name="agrave" unicode="&#xe0;" horiz-adv-x="480" 
d="M69 442v-83l36 -7l21 77q34 12 85 12q46 0 73 -26.5t27 -78.5v-53q-282 0 -282 -162q0 -63 41.5 -97.5t107.5 -34.5q48 0 75 10.5t60 36.5l17 -36h133l7 36l-65 21v237q0 89 -48 136.5t-140 47.5q-76 0 -148 -36zM311 91q-32 -55 -93 -55q-35 0 -59 22.5t-24 72.5
q0 116 176 116v-156zM192 735l68 -160l-20 -10l-137 160z" />
    <glyph glyph-name="aacute" unicode="&#xe1;" horiz-adv-x="480" 
d="M69 359v83q72 36 148 36q92 0 140 -47.5t48 -136.5v-237l65 -21l-7 -36h-133l-17 36q-33 -26 -60 -36.5t-75 -10.5q-66 0 -107.5 34.5t-41.5 97.5q0 162 282 162v53q0 52 -27 78.5t-73 26.5q-51 0 -85 -12l-21 -77zM311 91v156q-176 0 -176 -116q0 -50 24 -72.5t59 -22.5
q61 0 93 55zM187 575l68 160l89 -10l-137 -160z" />
    <glyph glyph-name="acircumflex" unicode="&#xe2;" horiz-adv-x="480" 
d="M261 735l109 -160l-20 -10l-118 106l-119 -106l-20 10l109 160h59zM69 442v-83l36 -7l21 77q34 12 85 12q46 0 73 -26.5t27 -78.5v-53q-282 0 -282 -162q0 -63 41.5 -97.5t107.5 -34.5q48 0 75 10.5t60 36.5l17 -36h133l7 36l-65 21v237q0 89 -48 136.5t-140 47.5
q-76 0 -148 -36zM311 91q-32 -55 -93 -55q-35 0 -59 22.5t-24 72.5q0 116 176 116v-156z" />
    <glyph glyph-name="atilde" unicode="&#xe3;" horiz-adv-x="480" 
d="M307 584h-28l-100 55l-78 -55l-20 10l83 103h25l100 -45l81 45l20 -10zM69 359v83q72 36 148 36q92 0 140 -47.5t48 -136.5v-237l65 -21l-7 -36h-133l-17 36q-33 -26 -60 -36.5t-75 -10.5q-66 0 -107.5 34.5t-41.5 97.5q0 162 282 162v53q0 52 -27 78.5t-73 26.5
q-51 0 -85 -12l-21 -77zM311 91v156q-176 0 -176 -116q0 -50 24 -72.5t59 -22.5q61 0 93 55z" />
    <glyph glyph-name="adieresis" unicode="&#xe4;" horiz-adv-x="480" 
d="M69 359v83q72 36 148 36q92 0 140 -47.5t48 -136.5v-237l65 -21l-7 -36h-133l-17 36q-33 -26 -60 -36.5t-75 -10.5q-66 0 -107.5 34.5t-41.5 97.5q0 162 282 162v53q0 52 -27 78.5t-73 26.5q-51 0 -85 -12l-21 -77zM311 91v156q-176 0 -176 -116q0 -50 24 -72.5t59 -22.5
q61 0 93 55zM310 697q22 0 38 -16t16 -38t-16 -38t-38 -16t-38 15.5t-16 38.5t16 38.5t38 15.5zM131 697q23 0 38.5 -15.5t15.5 -38.5t-15.5 -38.5t-38.5 -15.5q-22 0 -38 16t-16 38t16 38t38 16z" />
    <glyph glyph-name="aring" unicode="&#xe5;" horiz-adv-x="480" 
d="M228 737q45 0 73.5 -26t28.5 -70q0 -45 -27.5 -70.5t-74.5 -25.5t-74.5 26t-27.5 70t29 70t73 26zM228 709q-24 0 -39 -18.5t-15 -48.5t15 -49.5t39 -19.5q25 0 40 19.5t15 49.5q0 31 -15 49t-40 18zM69 442v-83l36 -7l21 77q34 12 85 12q46 0 73 -26.5t27 -78.5v-53
q-282 0 -282 -162q0 -63 41.5 -97.5t107.5 -34.5q48 0 75 10.5t60 36.5l17 -36h133l7 36l-65 21v237q0 89 -48 136.5t-140 47.5q-76 0 -148 -36zM311 91q-32 -55 -93 -55q-35 0 -59 22.5t-24 72.5q0 116 176 116v-156z" />
    <glyph glyph-name="ae" unicode="&#xe6;" horiz-adv-x="782" 
d="M582 36q60 0 131 45l23 -33q-65 -59 -160 -59q-147 0 -212 84q-48 -47 -88.5 -65.5t-92.5 -18.5q-66 0 -109 34.5t-43 97.5q0 162 285 162v53q0 52 -27 78.5t-73 26.5q-51 0 -85 -12l-21 -77l-36 7v83q72 36 148 36q110 0 157 -69q66 69 179 69q87 0 138 -42.5t51 -114.5
q0 -38 -17 -74h-308v-5q0 -94 41 -150t119 -56zM316 91v156q-179 0 -179 -116q0 -49 25.5 -72t60.5 -23q61 0 93 55zM424 283h222q7 23 7 46q0 56 -22.5 84t-72.5 28q-120 0 -134 -158z" />
    <glyph glyph-name="ccedilla" unicode="&#xe7;" horiz-adv-x="478" 
d="M300 441q-75 0 -115 -49.5t-40 -138.5q0 -101 34.5 -159t121.5 -58q61 0 132 45l23 -33q-65 -59 -161 -59q-13 0 -37 2v-37q34 0 60.5 -19t26.5 -55q0 -31 -14.5 -52.5t-39 -31t-47 -13.5t-47.5 -4v29q41 0 64.5 18t23.5 47q0 20 -13.5 29t-30.5 9h-19v85
q-182 33 -182 237q0 115 69.5 180t187.5 65q74 0 146 -36v-83l-36 -7l-19 72q-42 17 -88 17z" />
    <glyph glyph-name="egrave" unicode="&#xe8;" horiz-adv-x="518" 
d="M382 283h-234q14 158 134 158q52 0 79.5 -28.5t27.5 -83.5q0 -23 -7 -46zM306 36q-78 0 -119 56t-41 150v5h320q17 36 17 74q0 71 -56.5 114t-144.5 43q-107 0 -174.5 -65.5t-67.5 -178.5q0 -115 65.5 -180t194.5 -65q107 0 172 59l-23 33q-71 -45 -143 -45zM255 735
l68 -160l-20 -10l-137 160z" />
    <glyph glyph-name="eacute" unicode="&#xe9;" horiz-adv-x="518" 
d="M148 283h234q7 23 7 46q0 55 -27.5 83.5t-79.5 28.5q-120 0 -134 -158zM306 36q72 0 143 45l23 -33q-65 -59 -172 -59q-129 0 -194.5 65t-65.5 180q0 113 67.5 178.5t174.5 65.5q88 0 144.5 -43t56.5 -114q0 -38 -17 -74h-320v-5q0 -94 41 -150t119 -56zM239 575l68 160
l89 -10l-137 -160z" />
    <glyph glyph-name="ecircumflex" unicode="&#xea;" horiz-adv-x="518" 
d="M382 283h-234q14 158 134 158q52 0 79.5 -28.5t27.5 -83.5q0 -23 -7 -46zM306 36q-78 0 -119 56t-41 150v5h320q17 36 17 74q0 71 -56.5 114t-144.5 43q-107 0 -174.5 -65.5t-67.5 -178.5q0 -115 65.5 -180t194.5 -65q107 0 172 59l-23 33q-71 -45 -143 -45zM305 735
l109 -160l-20 -10l-118 106l-119 -106l-20 10l109 160h59z" />
    <glyph glyph-name="edieresis" unicode="&#xeb;" horiz-adv-x="518" 
d="M372 697q22 0 38 -16t16 -38t-16 -38t-38 -16t-38 15.5t-16 38.5t16 38.5t38 15.5zM193 697q23 0 38.5 -15.5t15.5 -38.5t-15.5 -38.5t-38.5 -15.5q-22 0 -38 16t-16 38t16 38t38 16zM148 283h234q7 23 7 46q0 55 -27.5 83.5t-79.5 28.5q-120 0 -134 -158zM306 36
q72 0 143 45l23 -33q-65 -59 -172 -59q-129 0 -194.5 65t-65.5 180q0 113 67.5 178.5t174.5 65.5q88 0 144.5 -43t56.5 -114q0 -38 -17 -74h-320v-5q0 -94 41 -150t119 -56z" />
    <glyph glyph-name="igrave" unicode="&#xec;" horiz-adv-x="305" 
d="M200 57l65 -21l-8 -36h-209l-8 36l66 21v374h-51l-7 36l106 11l46 -11v-410zM127 735l68 -160l-20 -10l-137 160z" />
    <glyph glyph-name="iacute" unicode="&#xed;" horiz-adv-x="305" 
d="M200 57l65 -21l-8 -36h-209l-8 36l66 21v374h-51l-7 36l106 11l46 -11v-410zM109 575l68 160l89 -10l-137 -160z" />
    <glyph glyph-name="icircumflex" unicode="&#xee;" horiz-adv-x="305" 
d="M200 57l65 -21l-8 -36h-209l-8 36l66 21v374h-51l-7 36l106 11l46 -11v-410zM176 735l109 -160l-20 -10l-118 106l-119 -106l-20 10l109 160h59z" />
    <glyph glyph-name="idieresis" unicode="&#xef;" horiz-adv-x="305" 
d="M243 697q22 0 38 -16t16 -38t-16 -38t-38 -16q-23 0 -38.5 15.5t-15.5 38.5t15.5 38.5t38.5 15.5zM64 697q22 0 38 -15.5t16 -38.5t-16 -38.5t-38 -15.5t-38 16t-16 38t16 38t38 16zM200 57l65 -21l-8 -36h-209l-8 36l66 21v374h-51l-7 36l106 11l46 -11v-410z" />
    <glyph glyph-name="eth" unicode="&#xf0;" horiz-adv-x="533" 
d="M139 527l-31 40l130 93q-52 47 -115 78l18 39q78 -26 147 -82l115 82l31 -41l-106 -76q164 -160 164 -408q0 -121 -57.5 -192t-166.5 -71q-108 0 -166 67t-58 178q0 112 60.5 178t169.5 66q48 0 98 -22q-40 100 -98 167zM268 26q46 0 76.5 33.5t42 82t11.5 109.5
q0 88 -21 162q-44 28 -97 28q-64 0 -98 -61t-34 -145q0 -82 32 -144t88 -65z" />
    <glyph glyph-name="ntilde" unicode="&#xf1;" horiz-adv-x="594" 
d="M194 57l66 -21l-8 -36h-210l-7 36l65 21v374h-50l-7 36l115 11l36 -37q78 37 130 37q82 0 126 -42.5t44 -121.5v-257l65 -21l-7 -36h-209l-8 36l65 21v272q0 46 -29 74t-70 28q-49 0 -107 -27v-347zM356 584h-28l-100 55l-78 -55l-20 10l83 103h25l100 -45l81 45l20 -10z
" />
    <glyph glyph-name="ograve" unicode="&#xf2;" horiz-adv-x="550" 
d="M275 478q111 0 173 -64.5t62 -179.5q0 -118 -59 -181.5t-176 -63.5q-116 0 -175.5 65t-59.5 180q0 113 62.5 178.5t172.5 65.5zM275 441q-63 0 -100.5 -55t-37.5 -149q0 -95 37.5 -153t100.5 -58q64 0 101.5 57.5t37.5 153.5q0 95 -37.5 149.5t-101.5 54.5zM259 735
l68 -160l-20 -10l-137 160z" />
    <glyph glyph-name="oacute" unicode="&#xf3;" horiz-adv-x="550" 
d="M275 478q111 0 173 -64.5t62 -179.5q0 -118 -59 -181.5t-176 -63.5q-116 0 -175.5 65t-59.5 180q0 113 62.5 178.5t172.5 65.5zM275 441q-63 0 -100.5 -55t-37.5 -149q0 -95 37.5 -153t100.5 -58q64 0 101.5 57.5t37.5 153.5q0 95 -37.5 149.5t-101.5 54.5zM225 575
l68 160l89 -10l-137 -160z" />
    <glyph glyph-name="ocircumflex" unicode="&#xf4;" horiz-adv-x="548" 
d="M275 478q111 0 173 -64.5t62 -179.5q0 -118 -59 -181.5t-176 -63.5q-116 0 -175.5 65t-59.5 180q0 113 62.5 178.5t172.5 65.5zM275 441q-63 0 -100.5 -55t-37.5 -149q0 -95 37.5 -153t100.5 -58q64 0 101.5 57.5t37.5 153.5q0 95 -37.5 149.5t-101.5 54.5zM310 735
l109 -160l-20 -10l-118 106l-119 -106l-20 10l109 160h59z" />
    <glyph glyph-name="otilde" unicode="&#xf5;" horiz-adv-x="550" 
d="M275 478q111 0 173 -64.5t62 -179.5q0 -118 -59 -181.5t-176 -63.5q-116 0 -175.5 65t-59.5 180q0 113 62.5 178.5t172.5 65.5zM275 441q-63 0 -100.5 -55t-37.5 -149q0 -95 37.5 -153t100.5 -58q64 0 101.5 57.5t37.5 153.5q0 95 -37.5 149.5t-101.5 54.5zM351 584h-28
l-100 55l-78 -55l-20 10l83 103h25l100 -45l81 45l20 -10z" />
    <glyph glyph-name="odieresis" unicode="&#xf6;" horiz-adv-x="550" 
d="M361 696q22 0 38 -16t16 -38t-16 -38t-38 -16q-23 0 -38.5 16t-15.5 38t15.5 38t38.5 16zM182 696q22 0 38 -16t16 -38t-16 -38t-38 -16t-38 16t-16 38t16 38t38 16zM275 478q111 0 173 -64.5t62 -179.5q0 -118 -59 -181.5t-176 -63.5q-116 0 -175.5 65t-59.5 180
q0 113 62.5 178.5t172.5 65.5zM275 441q-63 0 -100.5 -55t-37.5 -149q0 -95 37.5 -153t100.5 -58q64 0 101.5 57.5t37.5 153.5q0 95 -37.5 149.5t-101.5 54.5z" />
    <glyph glyph-name="divide" unicode="&#xf7;" horiz-adv-x="613" 
d="M306 529q23 0 39 -16t16 -38t-16 -38t-39 -16q-22 0 -38 16t-16 38t16 38t38 16zM306 242q23 0 39 -16t16 -38t-16 -38t-39 -16q-22 0 -38 16t-16 38t16 38t38 16zM58 304l8 55h489l-8 -55h-489z" />
    <glyph glyph-name="oslash" unicode="&#xf8;" horiz-adv-x="550" 
d="M275 478q68 0 120 -26l21 32h38l8 -7l-32 -48q80 -63 80 -195q0 -118 -59 -181.5t-176 -63.5q-68 0 -121 24l-23 -34h-36l-9 9l32 48q-78 63 -78 198q0 113 62.5 178.5t172.5 65.5zM414 237q0 77 -26 129l-200 -301q36 -39 87 -39q64 0 101.5 57.5t37.5 153.5zM275 441
q-63 0 -100.5 -55t-37.5 -149q0 -80 26 -134l199 300q-35 38 -87 38z" />
    <glyph glyph-name="ugrave" unicode="&#xf9;" horiz-adv-x="556" 
d="M382 431v-344q-36 -51 -100 -51q-45 0 -75.5 30t-30.5 93v308l-43 11l-103 -11l7 -36h45v-263q0 -83 41.5 -131t121.5 -48q45 0 75 9.5t62 37.5l18 -36h134l7 36l-65 21v410l-36 11l-111 -11l7 -36h46zM259 735l68 -160l-20 -10l-137 160z" />
    <glyph glyph-name="uacute" unicode="&#xfa;" horiz-adv-x="556" 
d="M382 87v344h-46l-7 36l111 11l36 -11v-410l65 -21l-7 -36h-134l-18 36q-32 -28 -62 -37.5t-75 -9.5q-80 0 -121.5 48t-41.5 131v263h-45l-7 36l103 11l43 -11v-308q0 -63 30.5 -93t75.5 -30q64 0 100 51zM237 575l68 160l89 -10l-137 -160z" />
    <glyph glyph-name="ucircumflex" unicode="&#xfb;" horiz-adv-x="556" 
d="M382 431v-344q-36 -51 -100 -51q-45 0 -75.5 30t-30.5 93v308l-43 11l-103 -11l7 -36h45v-263q0 -83 41.5 -131t121.5 -48q45 0 75 9.5t62 37.5l18 -36h134l7 36l-65 21v410l-36 11l-111 -11l7 -36h46zM309 735l109 -160l-20 -10l-118 106l-119 -106l-20 10l109 160h59z
" />
    <glyph glyph-name="udieresis" unicode="&#xfc;" horiz-adv-x="556" 
d="M369 697q22 0 38 -16t16 -38t-16 -38t-38 -16q-23 0 -38.5 15.5t-15.5 38.5t15.5 38.5t38.5 15.5zM190 697q22 0 38 -15.5t16 -38.5t-16 -38.5t-38 -15.5t-38 16t-16 38t16 38t38 16zM382 87v344h-46l-7 36l111 11l36 -11v-410l65 -21l-7 -36h-134l-18 36
q-32 -28 -62 -37.5t-75 -9.5q-80 0 -121.5 48t-41.5 131v263h-45l-7 36l103 11l43 -11v-308q0 -63 30.5 -93t75.5 -30q64 0 100 51z" />
    <glyph glyph-name="yacute" unicode="&#xfd;" horiz-adv-x="577" 
d="M497 411l-181 -517q-14 -39 -39.5 -84t-47.5 -60l-119 10l-8 37q30 5 46.5 9.5t45 17.5t50 39t36.5 65l23 61l-44 11l-174 410l-67 21l8 36h238l7 -36l-85 -21l142 -330v-23l123 353l-75 21l7 36h172l7 -36zM268 575l68 160l89 -10l-137 -160z" />
    <glyph glyph-name="thorn" unicode="&#xfe;" horiz-adv-x="548" 
d="M164 736v-290q64 32 125 32q219 0 219 -234q0 -109 -75 -176.5t-184 -67.5h-42v26h36q62 0 110.5 65.5t48.5 163.5q0 97 -31.5 136.5t-90.5 39.5q-50 0 -116 -27v-586l66 -21l-8 -36h-209l-8 36l65 21v882h-60l-8 36l118 11z" />
    <glyph glyph-name="ydieresis" unicode="&#xff;" horiz-adv-x="577" 
d="M387 697q22 0 38 -16t16 -38t-16 -38t-38 -16q-23 0 -38.5 15.5t-15.5 38.5t15.5 38.5t38.5 15.5zM208 697q22 0 38 -15.5t16 -38.5t-16 -38.5t-38 -15.5t-38 16t-16 38t16 38t38 16zM497 411l-181 -517q-14 -39 -39.5 -84t-47.5 -60l-119 10l-8 37q30 5 46.5 9.5
t45 17.5t50 39t36.5 65l23 61l-44 11l-174 410l-67 21l8 36h238l7 -36l-85 -21l142 -330v-23l123 353l-75 21l7 36h172l7 -36z" />
    <glyph glyph-name="Amacron" unicode="&#x100;" horiz-adv-x="738" 
d="M202 777v52h333v-52h-333zM419 717l-87 -17l-231 -625l-86 -33l7 -42h228l7 42l-103 33l57 161h262l56 -161l-86 -33l7 -42h272l8 42l-86 33zM227 278l130 345v-51l101 -294h-231z" />
    <glyph glyph-name="amacron" unicode="&#x101;" horiz-adv-x="480" 
d="M68 594v52h333v-52h-333zM69 442v-83l36 -7l21 77q34 12 85 12q46 0 73 -26.5t27 -78.5v-53q-282 0 -282 -162q0 -63 41.5 -97.5t107.5 -34.5q48 0 75 10.5t60 36.5l17 -36h133l7 36l-65 21v237q0 89 -48 136.5t-140 47.5q-76 0 -148 -36zM311 91q-32 -55 -93 -55
q-35 0 -59 22.5t-24 72.5q0 116 176 116v-156z" />
    <glyph glyph-name="Abreve" unicode="&#x102;" horiz-adv-x="738" 
d="M332 700l87 17l225 -642l86 -33l-8 -42h-272l-7 42l86 33l-56 161h-262l-57 -161l103 -33l-7 -42h-228l-7 42l86 33zM357 623l-130 -345h231l-101 294v51zM376 833q92 0 140 57l18 -12q-16 -43 -58 -75t-100 -32t-100 32t-58 75l18 12q48 -57 140 -57z" />
    <glyph glyph-name="abreve" unicode="&#x103;" horiz-adv-x="480" 
d="M69 359v83q72 36 148 36q92 0 140 -47.5t48 -136.5v-237l65 -21l-7 -36h-133l-17 36q-33 -26 -60 -36.5t-75 -10.5q-66 0 -107.5 34.5t-41.5 97.5q0 162 282 162v53q0 52 -27 78.5t-73 26.5q-51 0 -85 -12l-21 -77zM311 91v156q-176 0 -176 -116q0 -50 24 -72.5t59 -22.5
q61 0 93 55zM227 643q92 0 140 57l18 -12q-16 -43 -58 -75t-100 -32t-100 32t-58 75l18 12q48 -57 140 -57z" />
    <glyph glyph-name="Aogonek" unicode="&#x104;" horiz-adv-x="738" 
d="M332 700l87 17l225 -642l86 -33l-8 -42q-70 -42 -70 -93q0 -50 58 -50q20 0 32 4v-50q-30 -8 -55 -8q-41 0 -67 24t-26 63q0 62 77 110h-221l-7 42l86 33l-56 161h-262l-57 -161l103 -33l-7 -42h-228l-7 42l86 33zM357 623l-130 -345h231l-101 294v51z" />
    <glyph glyph-name="aogonek" unicode="&#x105;" horiz-adv-x="480" 
d="M69 359v83q72 36 148 36q92 0 140 -47.5t48 -136.5v-237l65 -21l-7 -36q-70 -42 -70 -93q0 -50 58 -50q20 0 32 4v-50q-30 -8 -55 -8q-41 0 -67 24t-26 63q0 62 77 110h-82l-17 36q-33 -26 -60 -36.5t-75 -10.5q-66 0 -107.5 34.5t-41.5 97.5q0 162 282 162v53
q0 52 -27 78.5t-73 26.5q-51 0 -85 -12l-21 -77zM311 91v156q-176 0 -176 -116q0 -50 24 -72.5t59 -22.5q61 0 93 55z" />
    <glyph glyph-name="Cacute" unicode="&#x106;" horiz-adv-x="652" 
d="M334 768l109 160l95 -10l-184 -160zM416 32q67 0 127 19l51 141l42 -7v-143q-37 -27 -97.5 -43t-122.5 -16q-94 0 -165 31t-111.5 84t-60 116t-19.5 136q0 71 22 135.5t64 117t112 83.5t158 31q118 0 220 -59v-136l-42 -7l-48 134q-67 19 -130 19q-121 0 -179.5 -76.5
t-58.5 -236.5q0 -323 238 -323z" />
    <glyph glyph-name="cacute" unicode="&#x107;" horiz-adv-x="478" 
d="M300 441q-75 0 -115 -49.5t-40 -138.5q0 -101 34.5 -159t121.5 -58q61 0 132 45l23 -33q-65 -59 -161 -59q-129 0 -192 64.5t-63 179.5t69.5 180t187.5 65q74 0 146 -36v-83l-36 -7l-19 72q-42 17 -88 17zM233 575l68 160l89 -10l-137 -160z" />
    <glyph glyph-name="Ccircumflex" unicode="&#x108;" horiz-adv-x="652" 
d="M416 32q-238 0 -238 323q0 160 58.5 236.5t179.5 76.5q63 0 130 -19l48 -134l42 7v136q-102 59 -220 59q-88 0 -158 -31t-112 -83.5t-64 -117t-22 -135.5q0 -73 19.5 -136t60 -116t111.5 -84t165 -31q62 0 122.5 16t97.5 43v143l-42 7l-51 -141q-60 -19 -127 -19z
M439 928l109 -160l-20 -10l-118 106l-119 -106l-20 10l109 160h59z" />
    <glyph glyph-name="ccircumflex" unicode="&#x109;" horiz-adv-x="478" 
d="M300 441q46 0 88 -17l19 -72l36 7v83q-72 36 -146 36q-118 0 -187.5 -65t-69.5 -180t63 -179.5t192 -64.5q96 0 161 59l-23 33q-71 -45 -132 -45q-87 0 -121.5 58t-34.5 159q0 89 40 138.5t115 49.5zM311 735l109 -160l-20 -10l-118 106l-119 -106l-20 10l109 160h59z
" />
    <glyph glyph-name="Cdotaccent" unicode="&#x10a;" horiz-adv-x="652" 
d="M420 876q22 0 38 -16t16 -38t-16 -38t-38 -16t-38 16t-16 38t16 38t38 16zM416 32q67 0 127 19l51 141l42 -7v-143q-37 -27 -97.5 -43t-122.5 -16q-94 0 -165 31t-111.5 84t-60 116t-19.5 136q0 71 22 135.5t64 117t112 83.5t158 31q118 0 220 -59v-136l-42 -7l-48 134
q-67 19 -130 19q-121 0 -179.5 -76.5t-58.5 -236.5q0 -323 238 -323z" />
    <glyph glyph-name="cdotaccent" unicode="&#x10b;" horiz-adv-x="478" 
d="M286 697q22 0 38 -15.5t16 -38.5t-16 -38.5t-38 -15.5t-38 16t-16 38t16 38t38 16zM300 441q-75 0 -115 -49.5t-40 -138.5q0 -101 34.5 -159t121.5 -58q61 0 132 45l23 -33q-65 -59 -161 -59q-129 0 -192 64.5t-63 179.5t69.5 180t187.5 65q74 0 146 -36v-83l-36 -7
l-19 72q-42 17 -88 17z" />
    <glyph glyph-name="Ccaron" unicode="&#x10c;" horiz-adv-x="652" 
d="M416 32q67 0 127 19l51 141l42 -7v-143q-37 -27 -97.5 -43t-122.5 -16q-94 0 -165 31t-111.5 84t-60 116t-19.5 136q0 71 22 135.5t64 117t112 83.5t158 31q118 0 220 -59v-136l-42 -7l-48 134q-67 19 -130 19q-121 0 -179.5 -76.5t-58.5 -236.5q0 -323 238 -323z
M553 918l-109 -160h-59l-109 160l20 10l119 -106l118 106z" />
    <glyph glyph-name="ccaron" unicode="&#x10d;" horiz-adv-x="478" 
d="M300 441q-75 0 -115 -49.5t-40 -138.5q0 -101 34.5 -159t121.5 -58q61 0 132 45l23 -33q-65 -59 -161 -59q-129 0 -192 64.5t-63 179.5t69.5 180t187.5 65q74 0 146 -36v-83l-36 -7l-19 72q-42 17 -88 17zM417 725l-109 -160h-59l-109 160l20 10l119 -106l118 106z" />
    <glyph glyph-name="Dcaron" unicode="&#x10e;" horiz-adv-x="710" 
d="M315 658h-87v-616h87q121 0 184.5 89.5t63.5 225.5q0 134 -63 217.5t-185 83.5zM312 0h-269l-7 42l86 33v550l-87 33l7 42h273q180 0 272.5 -95.5t92.5 -249.5q0 -100 -38.5 -178.5t-123.5 -127.5t-206 -49zM438 918l-109 -160h-59l-109 160l20 10l119 -106l118 106z" />
    <glyph glyph-name="dcaron" unicode="&#x10f;" horiz-adv-x="565" 
d="M567 697q-19 0 -31.5 -13t-12.5 -31q0 -17 11 -30h24q0 -53 -32 -79l18 -19q28 16 47 49.5t19 78.5q0 19 -12.5 31.5t-30.5 12.5zM389 79v324q-50 28 -96 28q-140 0 -140 -191q0 -91 36.5 -147.5t98.5 -56.5q58 0 101 43zM391 36q-50 -47 -109 -47q-116 0 -175 63.5
t-59 177.5q0 112 65 180t174 68q49 0 102 -24v246h-60l-7 36l116 11l45 -11v-679l65 -21l-7 -36h-134z" />
    <glyph glyph-name="Dcroat" unicode="&#x110;" horiz-adv-x="740" 
d="M35 340v42h87v243l-87 33l7 42h273q180 0 272.5 -95.5t92.5 -249.5q0 -100 -38.5 -178.5t-123.5 -127.5t-206 -49h-269l-7 42l86 33v265h-87zM315 658h-87v-276h169v-42h-169v-298h87q121 0 184.5 89.5t63.5 225.5q0 134 -63 217.5t-185 83.5z" />
    <glyph glyph-name="dcroat" unicode="&#x111;" horiz-adv-x="540" 
d="M391 36q-50 -47 -109 -47q-116 0 -175 63.5t-59 177.5q0 112 65 180t174 68q49 0 102 -24v115h-198v42h198v89h-60l-7 36l116 11l45 -11v-125h65v-42h-65v-512l65 -21l-7 -36h-134zM389 79v324q-50 28 -96 28q-140 0 -140 -191q0 -91 36.5 -147.5t98.5 -56.5q58 0 101 43
z" />
    <glyph glyph-name="Emacron" unicode="&#x112;" horiz-adv-x="581" 
d="M141 778v52h333v-52h-333zM228 658h216l42 -116l42 8v150h-485l-8 -42l87 -33v-550l-85 -33l7 -42h502v185l-42 7l-55 -150h-221v308h122l31 -84l42 7v197l-42 7l-31 -84h-122v265z" />
    <glyph glyph-name="emacron" unicode="&#x113;" horiz-adv-x="518" 
d="M114 593v52h333v-52h-333zM382 283h-234q14 158 134 158q52 0 79.5 -28.5t27.5 -83.5q0 -23 -7 -46zM306 36q-78 0 -119 56t-41 150v5h320q17 36 17 74q0 71 -56.5 114t-144.5 43q-107 0 -174.5 -65.5t-67.5 -178.5q0 -115 65.5 -180t194.5 -65q107 0 172 59l-23 33
q-71 -45 -143 -45z" />
    <glyph glyph-name="Ebreve" unicode="&#x114;" horiz-adv-x="581" 
d="M444 658h-216v-265h122l31 84l42 -7v-197l-42 -7l-31 84h-122v-308h221l55 150l42 -7v-185h-502l-7 42l85 33v550l-87 33l8 42h485v-150l-42 -8zM282 833q92 0 140 57l18 -12q-16 -43 -58 -75t-100 -32t-100 32t-58 75l18 12q48 -57 140 -57z" />
    <glyph glyph-name="ebreve" unicode="&#x115;" horiz-adv-x="518" 
d="M148 283h234q7 23 7 46q0 55 -27.5 83.5t-79.5 28.5q-120 0 -134 -158zM306 36q72 0 143 45l23 -33q-65 -59 -172 -59q-129 0 -194.5 65t-65.5 180q0 113 67.5 178.5t174.5 65.5q88 0 144.5 -43t56.5 -114q0 -38 -17 -74h-320v-5q0 -94 41 -150t119 -56zM281 643
q92 0 140 57l18 -12q-16 -43 -58 -75t-100 -32t-100 32t-58 75l18 12q48 -57 140 -57z" />
    <glyph glyph-name="Edotaccent" unicode="&#x116;" horiz-adv-x="581" 
d="M314 876q22 0 38 -16t16 -38t-16 -38t-38 -16t-38 16t-16 38t16 38t38 16zM444 658h-216v-265h122l31 84l42 -7v-197l-42 -7l-31 84h-122v-308h221l55 150l42 -7v-185h-502l-7 42l85 33v550l-87 33l8 42h485v-150l-42 -8z" />
    <glyph glyph-name="edotaccent" unicode="&#x117;" horiz-adv-x="518" 
d="M278 697q22 0 38 -15.5t16 -38.5t-16 -38.5t-38 -15.5t-38 16t-16 38t16 38t38 16zM148 283h234q7 23 7 46q0 55 -27.5 83.5t-79.5 28.5q-120 0 -134 -158zM306 36q72 0 143 45l23 -33q-65 -59 -172 -59q-129 0 -194.5 65t-65.5 180q0 113 67.5 178.5t174.5 65.5
q88 0 144.5 -43t56.5 -114q0 -38 -17 -74h-320v-5q0 -94 41 -150t119 -56z" />
    <glyph glyph-name="Eogonek" unicode="&#x118;" horiz-adv-x="581" 
d="M444 658h-216v-265h122l31 84l42 -7v-197l-42 -7l-31 84h-122v-308h221l55 150l42 -7v-185h-31q-70 -42 -70 -93q0 -50 58 -50q20 0 32 4v-50q-30 -8 -55 -8q-41 0 -67 24t-26 63q0 62 77 110h-420l-7 42l85 33v550l-87 33l8 42h485v-150l-42 -8z" />
    <glyph glyph-name="eogonek" unicode="&#x119;" horiz-adv-x="518" 
d="M306 36q72 0 143 45l23 -33q-60 -56 -164 -59q-50 -37 -50 -82q0 -50 58 -50q20 0 32 4v-50q-30 -8 -55 -8q-41 0 -67 24t-26 63q0 57 60 101q-109 10 -164.5 73.5t-55.5 169.5q0 113 67.5 178.5t174.5 65.5q88 0 144.5 -43t56.5 -114q0 -38 -17 -74h-320v-5
q0 -94 41 -150t119 -56zM148 283h234q7 23 7 46q0 55 -27.5 83.5t-79.5 28.5q-120 0 -134 -158z" />
    <glyph glyph-name="Ecaron" unicode="&#x11a;" horiz-adv-x="581" 
d="M444 658h-216v-265h122l31 84l42 -7v-197l-42 -7l-31 84h-122v-308h221l55 150l42 -7v-185h-502l-7 42l85 33v550l-87 33l8 42h485v-150l-42 -8zM442 918l-109 -160h-59l-109 160l20 10l119 -106l118 106z" />
    <glyph glyph-name="ecaron" unicode="&#x11b;" horiz-adv-x="518" 
d="M148 283h234q7 23 7 46q0 55 -27.5 83.5t-79.5 28.5q-120 0 -134 -158zM306 36q72 0 143 45l23 -33q-65 -59 -172 -59q-129 0 -194.5 65t-65.5 180q0 113 67.5 178.5t174.5 65.5q88 0 144.5 -43t56.5 -114q0 -38 -17 -74h-320v-5q0 -94 41 -150t119 -56zM420 725
l-109 -160h-59l-109 160l20 10l119 -106l118 106z" />
    <glyph glyph-name="Gcircumflex" unicode="&#x11c;" horiz-adv-x="755" 
d="M174 355q0 50 8 95t27 85t47.5 69.5t71 46.5t95.5 17q63 0 130 -19l48 -134l42 7v136q-102 59 -220 59q-165 0 -265.5 -105t-100.5 -262q0 -72 21 -136t63.5 -116.5t115 -83.5t166.5 -31q62 0 122.5 16t97.5 43v211l87 34l-8 42h-265l-7 -42l86 -34v-207
q-58 -14 -114 -14q-57 0 -101.5 19t-71.5 50t-44.5 74t-24 87t-6.5 93zM444 928l109 -160l-20 -10l-118 106l-119 -106l-20 10l109 160h59z" />
    <glyph glyph-name="gcircumflex" unicode="&#x11d;" horiz-adv-x="452" 
d="M274 59q83 -24 125.5 -57.5t42.5 -91.5q0 -81 -66 -120.5t-165 -39.5q-77 0 -132 33t-55 92q0 35 27 63t63 41l20 -30q-45 -24 -45 -68q0 -33 34.5 -59t87.5 -26q56 0 94.5 23t38.5 63q0 55 -108 90l-109 36q-70 23 -70 73l55 92q-71 45 -71 136q0 70 52 119.5t137 49.5
q41 0 79 -11l127 11l-10 -47h-91l60 -20q31 -42 31 -102q0 -79 -54.5 -124t-138.5 -45q-47 0 -86 15q-12 -24 -12 -28q0 -28 46 -41zM230 441q-46 0 -72.5 -30.5t-27.5 -94.5q0 -65 28.5 -102t71.5 -37q44 0 75.5 35.5t31.5 98.5q0 64 -30.5 97t-76.5 33zM262 735l109 -160
l-20 -10l-118 106l-119 -106l-20 10l109 160h59z" />
    <glyph glyph-name="Gbreve" unicode="&#x11e;" horiz-adv-x="755" 
d="M411 768q-58 0 -100 32.5t-58 77.5l31 21q55 -66 127 -66t127 66l31 -21q-16 -45 -58 -77.5t-100 -32.5zM174 355q0 50 8 95t27 85t47.5 69.5t71 46.5t95.5 17q63 0 130 -19l48 -134l42 7v136q-102 59 -220 59q-165 0 -265.5 -105t-100.5 -262q0 -72 21 -136t63.5 -116.5
t115 -83.5t166.5 -31q62 0 122.5 16t97.5 43v211l87 34l-8 42h-265l-7 -42l86 -34v-207q-58 -14 -114 -14q-57 0 -101.5 19t-71.5 50t-44.5 74t-24 87t-6.5 93z" />
    <glyph glyph-name="gbreve" unicode="&#x11f;" horiz-adv-x="452" 
d="M247 575q-58 0 -100 32.5t-58 77.5l31 21q55 -66 127 -66t127 66l31 -21q-16 -45 -58 -77.5t-100 -32.5zM274 59q83 -24 125.5 -57.5t42.5 -91.5q0 -81 -66 -120.5t-165 -39.5q-77 0 -132 33t-55 92q0 35 27 63t63 41l20 -30q-45 -24 -45 -68q0 -33 34.5 -59t87.5 -26
q56 0 94.5 23t38.5 63q0 55 -108 90l-109 36q-70 23 -70 73l55 92q-71 45 -71 136q0 70 52 119.5t137 49.5q41 0 79 -11l127 11l-10 -47h-91l60 -20q31 -42 31 -102q0 -79 -54.5 -124t-138.5 -45q-47 0 -86 15q-12 -24 -12 -28q0 -28 46 -41zM230 441q-46 0 -72.5 -30.5
t-27.5 -94.5q0 -65 28.5 -102t71.5 -37q44 0 75.5 35.5t31.5 98.5q0 64 -30.5 97t-76.5 33z" />
    <glyph glyph-name="Gdotaccent" unicode="&#x120;" horiz-adv-x="755" 
d="M409 876q23 0 38.5 -16t15.5 -38t-15.5 -38t-38.5 -16q-22 0 -38 16t-16 38t16 38t38 16zM174 355q0 -49 6.5 -93t24 -87t44.5 -74t71.5 -50t101.5 -19q56 0 114 14v207l-86 34l7 42h265l8 -42l-87 -34v-211q-37 -27 -97.5 -43t-122.5 -16q-94 0 -166.5 31t-115 83.5
t-63.5 116.5t-21 136q0 157 100.5 262t265.5 105q118 0 220 -59v-136l-42 -7l-48 134q-67 19 -130 19q-53 0 -95.5 -17t-71 -46.5t-47.5 -69.5t-27 -85t-8 -95z" />
    <glyph glyph-name="gdotaccent" unicode="&#x121;" horiz-adv-x="452" 
d="M242 697q22 0 38 -15.5t16 -38.5t-16 -38.5t-38 -15.5t-38 16t-16 38t16 38t38 16zM274 59q83 -24 125.5 -57.5t42.5 -91.5q0 -81 -66 -120.5t-165 -39.5q-77 0 -132 33t-55 92q0 35 27 63t63 41l20 -30q-45 -24 -45 -68q0 -33 34.5 -59t87.5 -26q56 0 94.5 23t38.5 63
q0 55 -108 90l-109 36q-70 23 -70 73l55 92q-71 45 -71 136q0 70 52 119.5t137 49.5q41 0 79 -11l127 11l-10 -47h-91l60 -20q31 -42 31 -102q0 -79 -54.5 -124t-138.5 -45q-47 0 -86 15q-12 -24 -12 -28q0 -28 46 -41zM230 441q-46 0 -72.5 -30.5t-27.5 -94.5
q0 -65 28.5 -102t71.5 -37q44 0 75.5 35.5t31.5 98.5q0 64 -30.5 97t-76.5 33z" />
    <glyph glyph-name="Gcommaaccen" unicode="&#x122;" horiz-adv-x="755" 
d="M378 -35q18 0 30.5 -12.5t12.5 -31.5q0 -45 -19 -78.5t-47 -49.5l-18 19q32 26 32 79h-24q-11 13 -11 30q0 18 12.5 31t31.5 13zM174 355q0 -49 6.5 -93t24 -87t44.5 -74t71.5 -50t101.5 -19q56 0 114 14v207l-86 34l7 42h265l8 -42l-87 -34v-211q-37 -27 -97.5 -43
t-122.5 -16q-94 0 -166.5 31t-115 83.5t-63.5 116.5t-21 136q0 157 100.5 262t265.5 105q118 0 220 -59v-136l-42 -7l-48 134q-67 19 -130 19q-53 0 -95.5 -17t-71 -46.5t-47.5 -69.5t-27 -85t-8 -95z" />
    <glyph glyph-name="gcommaaccent" unicode="&#x123;" horiz-adv-x="452" 
d="M234 545q-18 0 -30.5 12.5t-12.5 31.5q0 45 19 78.5t47 49.5l18 -19q-32 -26 -32 -79h24q11 -13 11 -30q0 -18 -12.5 -31t-31.5 -13zM274 59q83 -24 125.5 -57.5t42.5 -91.5q0 -81 -66 -120.5t-165 -39.5q-77 0 -132 33t-55 92q0 35 27 63t63 41l20 -30q-45 -24 -45 -68
q0 -33 34.5 -59t87.5 -26q56 0 94.5 23t38.5 63q0 55 -108 90l-109 36q-70 23 -70 73l55 92q-71 45 -71 136q0 70 52 119.5t137 49.5q41 0 79 -11l127 11l-10 -47h-91l60 -20q31 -42 31 -102q0 -79 -54.5 -124t-138.5 -45q-47 0 -86 15q-12 -24 -12 -28q0 -28 46 -41z
M230 441q-46 0 -72.5 -30.5t-27.5 -94.5q0 -65 28.5 -102t71.5 -37q44 0 75.5 35.5t31.5 98.5q0 64 -30.5 97t-76.5 33z" />
    <glyph glyph-name="Hcircumflex" unicode="&#x124;" horiz-adv-x="803" 
d="M676 625l87 33l-7 42h-266l-7 -42l87 -33v-243h-337v243l87 33l-7 42h-266l-7 -42l87 -33v-550l-86 -33l8 -42h262l7 42l-85 33v265h337v-265l-87 -33l7 -42h264l7 42l-85 33v550zM431 928l109 -160l-20 -10l-118 106l-119 -106l-20 10l109 160h59z" />
    <glyph glyph-name="hcircumflex" unicode="&#x125;" horiz-adv-x="568" 
d="M178 57l65 -21l-7 -36h-210l-7 36l65 21v643h-61l-8 36l118 11l45 -11v-295q66 37 119 37q82 0 129 -42.5t47 -121.5v-257l65 -21l-7 -36h-210l-8 36l66 21v272q0 47 -25 74.5t-65 27.5q-49 0 -111 -27v-347zM131 928l109 -160l-20 -10l-118 106l-119 -106l-20 10
l109 160h59z" />
    <glyph glyph-name="Hbar" unicode="&#x126;" horiz-adv-x="803" 
d="M763 658l-87 -33v-107h87v-42h-87v-401l85 -33l-7 -42h-264l-7 42l87 33v265h-337v-265l85 -33l-7 -42h-262l-8 42l86 33v401h-87v42h87v107l-87 33l7 42h266l7 -42l-87 -33v-107h337v107l-87 33l7 42h266zM233 382h337v94h-337v-94z" />
    <glyph glyph-name="hbar" unicode="&#x127;" horiz-adv-x="568" 
d="M178 57l65 -21l-7 -36h-210l-7 36l65 21v512h-69v42h69v89h-61l-8 36l118 11l45 -11v-125h186v-42h-186v-128q66 37 119 37q82 0 129 -42.5t47 -121.5v-257l65 -21l-7 -36h-210l-8 36l66 21v272q0 47 -25 74.5t-65 27.5q-49 0 -111 -27v-347z" />
    <glyph glyph-name="Itilde" unicode="&#x128;" horiz-adv-x="401" 
d="M253 625v-550l88 -33l-8 -42h-265l-8 42l88 33v550l-88 33l8 42h265l8 -42zM277 777h-28l-100 55l-78 -55l-20 10l83 103h25l100 -45l81 45l20 -10z" />
    <glyph glyph-name="itilde" unicode="&#x129;" horiz-adv-x="305" 
d="M200 57l65 -21l-8 -36h-209l-8 36l66 21v374h-51l-7 36l106 11l46 -11v-410zM219 584h-28l-100 55l-78 -55l-20 10l83 103h25l100 -45l81 45l20 -10z" />
    <glyph glyph-name="uni012A" unicode="&#x12a;" horiz-adv-x="401" 
d="M35 777v52h333v-52h-333zM253 75v550l88 33l-8 42h-265l-8 -42l88 -33v-550l-88 -33l8 -42h265l8 42z" />
    <glyph glyph-name="imacron" unicode="&#x12b;" horiz-adv-x="305" 
d="M-12 594v52h333v-52h-333zM200 57l65 -21l-8 -36h-209l-8 36l66 21v374h-51l-7 36l106 11l46 -11v-410z" />
    <glyph glyph-name="Ibreve" unicode="&#x12c;" horiz-adv-x="401" 
d="M196 768q-58 0 -100 32.5t-58 77.5l31 21q55 -66 127 -66t127 66l31 -21q-16 -45 -58 -77.5t-100 -32.5zM253 75v550l88 33l-8 42h-265l-8 -42l88 -33v-550l-88 -33l8 -42h265l8 42z" />
    <glyph glyph-name="uni012D" unicode="&#x12d;" horiz-adv-x="305" 
d="M148 575q-58 0 -100 32.5t-58 77.5l31 21q55 -66 127 -66t127 66l31 -21q-16 -45 -58 -77.5t-100 -32.5zM200 57l65 -21l-8 -36h-209l-8 36l66 21v374h-51l-7 36l106 11l46 -11v-410z" />
    <glyph glyph-name="Iogonek" unicode="&#x12e;" horiz-adv-x="401" 
d="M253 625v-550l88 -33l-8 -42h-122q-70 -42 -70 -93q0 -50 58 -50q20 0 32 4v-50q-30 -8 -55 -8q-41 0 -67 24t-26 63q0 62 77 110h-92l-8 42l88 33v550l-88 33l8 42h265l8 -42z" />
    <glyph glyph-name="iogonek" unicode="&#x12f;" horiz-adv-x="305" 
d="M200 57l65 -21l-8 -36h-78q-70 -42 -70 -93q0 -50 58 -50q20 0 32 4v-50q-30 -8 -55 -8q-41 0 -67 24t-26 63q0 62 77 110h-80l-8 36l66 21v374h-51l-7 36l106 11l46 -11v-410zM150 697q22 0 38 -16t16 -38t-16 -38t-38 -16t-38 15.5t-16 38.5t16 38.5t38 15.5z" />
    <glyph glyph-name="Idotaccent" unicode="&#x130;" horiz-adv-x="401" 
d="M207 876q23 0 38.5 -16t15.5 -38t-15.5 -38t-38.5 -16q-22 0 -38 16t-16 38t16 38t38 16zM253 625v-550l88 -33l-8 -42h-265l-8 42l88 33v550l-88 33l8 42h265l8 -42z" />
    <glyph glyph-name="dotlessi" unicode="&#x131;" horiz-adv-x="305" 
d="M200 57l65 -21l-8 -36h-209l-8 36l66 21v374h-51l-7 36l106 11l46 -11v-410z" />
    <glyph glyph-name="Jcircumflex" unicode="&#x134;" horiz-adv-x="368" 
d="M145 195q0 -109 -29 -190t-121 -143l22 -37q233 76 233 344v456l88 33l-8 42h-264l-8 -42l87 -33v-430zM222 928l109 -160l-20 -10l-118 106l-119 -106l-20 10l109 160h59z" />
    <glyph glyph-name="jcircumflex" unicode="&#x135;" horiz-adv-x="275" 
d="M37 467l118 11l45 -11v-385q0 -46 -5 -83t-19.5 -76t-38.5 -70t-64.5 -58t-95.5 -45l-22 37q94 63 122.5 135t28.5 177v332h-61zM162 735l109 -160l-20 -10l-118 106l-119 -106l-20 10l109 160h59z" />
    <glyph glyph-name="Kcommaaccent" unicode="&#x136;" horiz-adv-x="681" 
d="M349 -35q18 0 30.5 -12.5t12.5 -31.5q0 -45 -19 -78.5t-47 -49.5l-18 19q32 26 32 79h-24q-11 13 -11 30q0 18 12.5 31t31.5 13zM228 625v-550l87 -32l-7 -43h-266l-7 43l87 32v550l-87 34l7 41h266l7 -42zM466 0l7 42l-203 303v42l233 238l-87 34l7 41h221l7 -41
l-32 -13q-55 -22 -96 -63l-200 -204l73 -32l182 -271l87 -34l-8 -42h-191z" />
    <glyph glyph-name="kcommaaccent" unicode="&#x137;" horiz-adv-x="538" 
d="M272 -35q-19 0 -31.5 -13t-12.5 -31q0 -17 11 -30h24q0 -53 -32 -79l18 -19q28 16 47 49.5t19 78.5q0 19 -12.5 31.5t-30.5 12.5zM199 57l65 -21l-7 -36h-210l-7 36l65 21v643h-50l-7 36l106 11l45 -11v-679zM504 467h-179l-7 -36l71 -21l-159 -152v-34l132 -188l-8 -36
h166l8 36l-66 21l-120 171l-70 19l137 131q33 32 77 45l26 8z" />
    <glyph glyph-name="kgreenlandic" unicode="&#x138;" horiz-adv-x="505" 
d="M166 57l65 -21l-7 -36h-210l-7 36l65 21v374h-61l-6 35l116 12l45 -12v-409zM329 36l-7 -36h165l8 36l-66 21l-119 171l-71 19l137 131q33 32 77 45l26 8l-8 36h-179l-7 -36l71 -21l-158 -152v-34z" />
    <glyph glyph-name="Lacute" unicode="&#x139;" horiz-adv-x="554" 
d="M150 768l109 160l95 -10l-184 -160zM42 700h266l7 -42l-87 -33v-583h216l58 150l42 -7v-185h-502l-7 42l87 33v550l-87 33z" />
    <glyph glyph-name="lacute" unicode="&#x13a;" horiz-adv-x="304" 
d="M65 768l109 160l95 -10l-184 -160zM199 57l65 -21l-7 -36h-210l-7 36l65 21v643h-50l-7 36l106 11l45 -11v-679z" />
    <glyph glyph-name="Lcommaaccent" unicode="&#x13b;" horiz-adv-x="554" 
d="M290 -35q-19 0 -31.5 -13t-12.5 -31q0 -17 11 -30h24q0 -53 -32 -79l18 -19q28 16 47 49.5t19 78.5q0 19 -12.5 31.5t-30.5 12.5zM42 700h266l7 -42l-87 -33v-583h216l58 150l42 -7v-185h-502l-7 42l87 33v550l-87 33z" />
    <glyph glyph-name="lcommaaccent" unicode="&#x13c;" horiz-adv-x="304" 
d="M154 -35q-19 0 -31.5 -13t-12.5 -31q0 -17 11 -30h24q0 -53 -32 -79l18 -19q28 16 47 49.5t19 78.5q0 19 -12.5 31.5t-30.5 12.5zM199 57l65 -21l-7 -36h-210l-7 36l65 21v643h-50l-7 36l106 11l45 -11v-679z" />
    <glyph glyph-name="Lcaron" unicode="&#x13d;" horiz-adv-x="554" 
d="M376 585q-19 0 -31.5 -13t-12.5 -31q0 -17 11 -30h24q0 -53 -32 -79l18 -19q28 16 47 49.5t19 78.5q0 19 -12.5 31.5t-30.5 12.5zM42 700h266l7 -42l-87 -33v-583h216l58 150l42 -7v-185h-502l-7 42l87 33v550l-87 33z" />
    <glyph glyph-name="lcaron" unicode="&#x13e;" horiz-adv-x="304" 
d="M298 687q-19 0 -31.5 -13t-12.5 -31q0 -17 11 -30h24q0 -53 -32 -79l18 -19q28 16 47 49.5t19 78.5q0 19 -12.5 31.5t-30.5 12.5zM199 57l65 -21l-7 -36h-210l-7 36l65 21v643h-50l-7 36l106 11l45 -11v-679z" />
    <glyph glyph-name="Ldot" unicode="&#x13f;" horiz-adv-x="554" 
d="M383 467q-22 0 -38 -16t-16 -38t16 -38t38 -16q23 0 38.5 15.5t15.5 38.5t-15.5 38.5t-38.5 15.5zM42 700h266l7 -42l-87 -33v-583h216l58 150l42 -7v-185h-502l-7 42l87 33v550l-87 33z" />
    <glyph glyph-name="ldot" unicode="&#x140;" horiz-adv-x="304" 
d="M298 467q-22 0 -38 -16t-16 -38t16 -38t38 -16t38 15.5t16 38.5t-16 38.5t-38 15.5zM199 57l65 -21l-7 -36h-210l-7 36l65 21v643h-50l-7 36l106 11l45 -11v-679z" />
    <glyph glyph-name="Lslash" unicode="&#x141;" horiz-adv-x="554" 
d="M42 700h266l7 -42l-87 -33v-196l101 38v-62l-101 -38v-325h216l58 150l42 -7v-185h-502l-7 42l87 33v252l-87 -33v62l87 33v236l-87 33z" />
    <glyph glyph-name="lslash" unicode="&#x142;" horiz-adv-x="304" 
d="M199 57l65 -21l-7 -36h-210l-7 36l65 21v274l-99 -37v62l99 37v307h-50l-7 36l106 11l45 -11v-307l101 38v-62l-101 -38v-310z" />
    <glyph glyph-name="Nacute" unicode="&#x143;" horiz-adv-x="721" 
d="M279 768l109 160l95 -10l-184 -160zM25 42l86 33v550l-87 33l7 42h191l345 -546v471l-86 33l7 42h199l7 -42l-86 -33v-625l-59 -17l-396 628v-536l85 -33l-7 -42h-198z" />
    <glyph glyph-name="nacute" unicode="&#x144;" horiz-adv-x="594" 
d="M194 57l66 -21l-8 -36h-210l-7 36l65 21v374h-50l-7 36l115 11l36 -37q78 37 130 37q82 0 126 -42.5t44 -121.5v-257l65 -21l-7 -36h-209l-8 36l65 21v272q0 46 -29 74t-70 28q-49 0 -107 -27v-347zM246 575l68 160l89 -10l-137 -160z" />
    <glyph glyph-name="Ncommaaccent" unicode="&#x145;" horiz-adv-x="721" 
d="M364 -35q18 0 30.5 -12.5t12.5 -31.5q0 -45 -19 -78.5t-47 -49.5l-18 19q32 26 32 79h-24q-11 13 -11 30q0 18 12.5 31t31.5 13zM25 42l86 33v550l-87 33l7 42h191l345 -546v471l-86 33l7 42h199l7 -42l-86 -33v-625l-59 -17l-396 628v-536l85 -33l-7 -42h-198z" />
    <glyph glyph-name="ncommaaccent" unicode="&#x146;" horiz-adv-x="594" 
d="M301 -35q-19 0 -31.5 -13t-12.5 -31q0 -17 11 -30h24q0 -53 -32 -79l18 -19q28 16 47 49.5t19 78.5q0 19 -12.5 31.5t-30.5 12.5zM194 57l66 -21l-8 -36h-210l-7 36l65 21v374h-50l-7 36l115 11l36 -37q78 37 130 37q82 0 126 -42.5t44 -121.5v-257l65 -21l-7 -36h-209
l-8 36l65 21v272q0 46 -29 74t-70 28q-49 0 -107 -27v-347z" />
    <glyph glyph-name="Ncaron" unicode="&#x147;" horiz-adv-x="721" 
d="M25 42l86 33v550l-87 33l7 42h191l345 -546v471l-86 33l7 42h199l7 -42l-86 -33v-625l-59 -17l-396 628v-536l85 -33l-7 -42h-198zM509 918l-109 -160h-59l-109 160l20 10l119 -106l118 106z" />
    <glyph glyph-name="ncaron" unicode="&#x148;" horiz-adv-x="594" 
d="M194 57l66 -21l-8 -36h-210l-7 36l65 21v374h-50l-7 36l115 11l36 -37q78 37 130 37q82 0 126 -42.5t44 -121.5v-257l65 -21l-7 -36h-209l-8 36l65 21v272q0 46 -29 74t-70 28q-49 0 -107 -27v-347zM430 725l-109 -160h-59l-109 160l20 10l119 -106l118 106z" />
    <glyph glyph-name="napostrophe" unicode="&#x149;" horiz-adv-x="594" 
d="M-22 585q18 0 30.5 -12.5t12.5 -31.5q0 -45 -19 -78.5t-47 -49.5l-18 19q32 26 32 79h-24q-11 13 -11 30q0 18 12.5 31t31.5 13zM194 57l66 -21l-8 -36h-210l-7 36l65 21v374h-50l-7 36l115 11l36 -37q78 37 130 37q82 0 126 -42.5t44 -121.5v-257l65 -21l-7 -36h-209
l-8 36l65 21v272q0 46 -29 74t-70 28q-49 0 -107 -27v-347z" />
    <glyph glyph-name="Eng" unicode="&#x14a;" horiz-adv-x="731" 
d="M25 42l86 33v550l-87 33l7 42h191l248 -394l42 -128v447l-87 33l8 42h255l8 -42l-88 -33v-476q0 -56 -10.5 -101.5t-36 -89t-72.5 -77.5t-115 -56l-22 37q120 81 148 198l-347 551v-536l85 -33l-7 -42h-198z" />
    <glyph glyph-name="eng" unicode="&#x14b;" horiz-adv-x="581" 
d="M200 57l66 -21l-8 -36h-216l-7 36l65 21v374h-50l-7 36l115 11l42 -32q74 32 130 32q83 0 130 -42.5t47 -121.5v-252q0 -57 -9 -100t-32 -84.5t-68.5 -73t-113.5 -54.5l-22 37q50 33 81 66.5t44.5 72t17.5 70t4 83.5v250q0 46 -30 74t-72 28q-44 0 -107 -37v-337z" />
    <glyph glyph-name="Omacron" unicode="&#x14c;" 
d="M220 777v52h333v-52h-333zM394 717q161 0 247 -102.5t86 -264.5q0 -80 -19 -145t-58 -115.5t-104 -78.5t-152 -28q-86 0 -152.5 31t-105 83.5t-57.5 116.5t-19 136q0 96 36 177.5t113.5 135.5t184.5 54zM394 668q-112 0 -164 -76t-52 -237q0 -163 52 -243t164 -80
q216 0 216 323q0 158 -52.5 235.5t-163.5 77.5z" />
    <glyph glyph-name="omacron" unicode="&#x14d;" horiz-adv-x="550" 
d="M109 594v52h333v-52h-333zM275 478q111 0 173 -64.5t62 -179.5q0 -118 -59 -181.5t-176 -63.5q-116 0 -175.5 65t-59.5 180q0 113 62.5 178.5t172.5 65.5zM275 441q-63 0 -100.5 -55t-37.5 -149q0 -95 37.5 -153t100.5 -58q64 0 101.5 57.5t37.5 153.5q0 95 -37.5 149.5
t-101.5 54.5z" />
    <glyph glyph-name="Obreve" unicode="&#x14e;" 
d="M394 717q161 0 247 -102.5t86 -264.5q0 -80 -19 -145t-58 -115.5t-104 -78.5t-152 -28q-86 0 -152.5 31t-105 83.5t-57.5 116.5t-19 136q0 96 36 177.5t113.5 135.5t184.5 54zM394 668q-112 0 -164 -76t-52 -237q0 -163 52 -243t164 -80q216 0 216 323q0 158 -52.5 235.5
t-163.5 77.5zM394 833q92 0 140 57l18 -12q-16 -43 -58 -75t-100 -32t-100 32t-58 75l18 12q48 -57 140 -57z" />
    <glyph glyph-name="obreve" unicode="&#x14f;" horiz-adv-x="550" 
d="M275 478q111 0 173 -64.5t62 -179.5q0 -118 -59 -181.5t-176 -63.5q-116 0 -175.5 65t-59.5 180q0 113 62.5 178.5t172.5 65.5zM275 441q-63 0 -100.5 -55t-37.5 -149q0 -95 37.5 -153t100.5 -58q64 0 101.5 57.5t37.5 153.5q0 95 -37.5 149.5t-101.5 54.5zM275 643
q92 0 140 57l18 -12q-16 -43 -58 -75t-100 -32t-100 32t-58 75l18 12q48 -57 140 -57z" />
    <glyph glyph-name="Ohungarumlaut" unicode="&#x150;" 
d="M394 717q161 0 247 -102.5t86 -264.5q0 -80 -19 -145t-58 -115.5t-104 -78.5t-152 -28q-86 0 -152.5 31t-105 83.5t-57.5 116.5t-19 136q0 96 36 177.5t113.5 135.5t184.5 54zM394 668q-112 0 -164 -76t-52 -237q0 -163 52 -243t164 -80q216 0 216 323q0 158 -52.5 235.5
t-163.5 77.5zM293 768l109 160l95 -10l-184 -160zM432 768l109 160l95 -10l-184 -160z" />
    <glyph glyph-name="ohungarumlaut" unicode="&#x151;" horiz-adv-x="550" 
d="M275 478q111 0 173 -64.5t62 -179.5q0 -118 -59 -181.5t-176 -63.5q-116 0 -175.5 65t-59.5 180q0 113 62.5 178.5t172.5 65.5zM275 441q-63 0 -100.5 -55t-37.5 -149q0 -95 37.5 -153t100.5 -58q64 0 101.5 57.5t37.5 153.5q0 95 -37.5 149.5t-101.5 54.5zM182 575
l68 160l89 -10l-137 -160zM307 575l68 160l89 -10l-137 -160z" />
    <glyph glyph-name="OE" unicode="&#x152;" horiz-adv-x="976" 
d="M839 658h-216v-265h122l31 84l42 -7v-197l-42 -7l-31 84h-122v-308h221l55 150l42 -7v-185h-426q-54 -17 -121 -17q-86 0 -152.5 31t-105 83.5t-57.5 116.5t-19 136q0 96 36 177.5t113.5 135.5t184.5 54q61 0 115 -17h414v-150l-42 -8zM517 76v549q-47 33 -123 33
q-113 0 -164.5 -71.5t-51.5 -231.5q0 -161 51.5 -237t164.5 -76q76 0 123 34z" />
    <glyph glyph-name="oe" unicode="&#x153;" horiz-adv-x="882" 
d="M275 478q122 0 184 -78q69 78 187 78q88 0 144.5 -43t56.5 -114q0 -38 -17 -74h-323v-14q0 -89 42.5 -143t120.5 -54q72 0 143 45l23 -33q-65 -59 -172 -59q-136 0 -204 74q-59 -74 -185 -74q-116 0 -175.5 65t-59.5 180q0 113 62.5 178.5t172.5 65.5zM275 441
q-62 0 -96 -54.5t-34 -149.5q0 -97 34 -154t96 -57t96.5 57t35.5 154q0 96 -34.5 150t-97.5 54zM509 283h237q7 23 7 46q0 55 -27.5 83.5t-79.5 28.5q-62 0 -96.5 -42.5t-40.5 -115.5z" />
    <glyph glyph-name="Racute" unicode="&#x154;" horiz-adv-x="650" 
d="M228 658v-583l86 -33l-7 -42h-263l-7 42l85 33v550l-87 33l8 42h315q107 0 160.5 -50.5t53.5 -141.5q0 -87 -62.5 -140.5t-149.5 -53.5l52 -26l130 -213l86 -33l-7 -42h-190l8 42l-168 274v42h47q67 0 109.5 46t42.5 104q0 150 -150 150h-92zM231 768l109 160l95 -10
l-184 -160z" />
    <glyph glyph-name="racute" unicode="&#x155;" horiz-adv-x="422" 
d="M412 359l-36 -7l-22 71q-22 8 -49 8q-33 0 -106 -27v-347l66 -21l-8 -36h-210l-7 36l65 21v374h-50l-7 36l116 11l35 -37q66 37 124 37q48 0 89 -17v-102zM187 575l68 160l89 -10l-137 -160z" />
    <glyph glyph-name="Rcommaaccent" unicode="&#x156;" horiz-adv-x="650" 
d="M355 -35q-19 0 -31.5 -13t-12.5 -31q0 -17 11 -30h24q0 -53 -32 -79l18 -19q28 16 47 49.5t19 78.5q0 19 -12.5 31.5t-30.5 12.5zM228 658v-583l86 -33l-7 -42h-263l-7 42l85 33v550l-87 33l8 42h315q107 0 160.5 -50.5t53.5 -141.5q0 -87 -62.5 -140.5t-149.5 -53.5
l52 -26l130 -213l86 -33l-7 -42h-190l8 42l-168 274v42h47q67 0 109.5 46t42.5 104q0 150 -150 150h-92z" />
    <glyph glyph-name="rcommaaccent" unicode="&#x157;" horiz-adv-x="422" 
d="M153 -35q-19 0 -31.5 -13t-12.5 -31q0 -17 11 -30h24q0 -53 -32 -79l18 -19q28 16 47 49.5t19 78.5q0 19 -12.5 31.5t-30.5 12.5zM412 359l-36 -7l-22 71q-22 8 -49 8q-33 0 -106 -27v-347l66 -21l-8 -36h-210l-7 36l65 21v374h-50l-7 36l116 11l35 -37q66 37 124 37
q48 0 89 -17v-102z" />
    <glyph glyph-name="Rcaron" unicode="&#x158;" horiz-adv-x="650" 
d="M228 658v-583l86 -33l-7 -42h-263l-7 42l85 33v550l-87 33l8 42h315q107 0 160.5 -50.5t53.5 -141.5q0 -87 -62.5 -140.5t-149.5 -53.5l52 -26l130 -213l86 -33l-7 -42h-190l8 42l-168 274v42h47q67 0 109.5 46t42.5 104q0 150 -150 150h-92zM404 918l-109 -160h-59
l-109 160l20 10l119 -106l118 106z" />
    <glyph glyph-name="rcaron" unicode="&#x159;" horiz-adv-x="422" 
d="M412 359l-36 -7l-22 71q-22 8 -49 8q-33 0 -106 -27v-347l66 -21l-8 -36h-210l-7 36l65 21v374h-50l-7 36l116 11l35 -37q66 37 124 37q48 0 89 -17v-102zM357 725l-109 -160h-59l-109 160l20 10l119 -106l118 106z" />
    <glyph glyph-name="Sacute" unicode="&#x15a;" horiz-adv-x="549" 
d="M212 768l109 160l95 -10l-184 -160zM50 537q0 87 64.5 133.5t163.5 46.5q98 0 195 -59v-136l-42 -7l-48 135q-51 18 -106 18q-64 0 -99 -35.5t-35 -88.5q0 -17 9.5 -34t20.5 -28.5t34 -26.5t34 -21t38.5 -19.5t31.5 -15.5q95 -48 144.5 -97.5t49.5 -128.5
q0 -87 -61.5 -138.5t-187.5 -51.5q-121 0 -203 59v143l42 7l50 -131q80 -29 104 -29q164 0 164 109q0 20 -8 38.5t-17.5 32.5t-29.5 29.5t-32.5 23.5t-39.5 21t-36.5 17.5t-36.5 15.5q-35 15 -59 30t-50.5 40t-40 62t-13.5 86z" />
    <glyph glyph-name="sacute" unicode="&#x15b;" horiz-adv-x="415" 
d="M193 -11q-78 0 -153 37v106l37 7l33 -97q44 -16 75 -16q49 0 79.5 21t30.5 56q0 10 -3.5 19t-12.5 17.5t-15.5 14.5t-22 13.5t-22.5 11t-26 12t-24 10.5q-30 14 -49 25t-39 28.5t-29.5 40t-9.5 50.5q0 61 49 97t131 36q63 0 133 -36v-83l-36 -7l-20 72q-34 17 -88 17
q-40 0 -65 -19.5t-25 -50.5q0 -16 9 -29.5t28 -25.5t32 -18t38 -17q35 -15 54.5 -25t44.5 -28.5t36.5 -43t11.5 -55.5q0 -65 -48 -102.5t-134 -37.5zM167 575l68 160l89 -10l-137 -160z" />
    <glyph glyph-name="Scircumflex" unicode="&#x15c;" horiz-adv-x="549" 
d="M50 537q0 -49 13.5 -86t40 -62t50.5 -40t59 -30q27 -11 36.5 -15.5t36.5 -17.5t39.5 -21t32.5 -23.5t29.5 -29.5t17.5 -32.5t8 -38.5q0 -109 -164 -109q-24 0 -104 29l-50 131l-42 -7v-143q82 -59 203 -59q126 0 187.5 51.5t61.5 138.5q0 79 -49.5 128.5t-144.5 97.5
q-4 2 -31.5 15.5t-38.5 19.5t-34 21t-34 26.5t-20.5 28.5t-9.5 34q0 53 35 88.5t99 35.5q55 0 106 -18l48 -135l42 7v136q-97 59 -195 59q-99 0 -163.5 -46.5t-64.5 -133.5zM290 928l109 -160l-20 -10l-118 106l-119 -106l-20 10l109 160h59z" />
    <glyph glyph-name="scircumflex" unicode="&#x15d;" horiz-adv-x="415" 
d="M193 -11q86 0 134 37.5t48 102.5q0 31 -11.5 55.5t-36.5 43t-44.5 28.5t-54.5 25q-25 11 -38 17t-32 18t-28 25.5t-9 29.5q0 31 25 50.5t65 19.5q54 0 88 -17l20 -72l36 7v83q-70 36 -133 36q-82 0 -131 -36t-49 -97q0 -53 32.5 -84t94.5 -60q5 -2 24 -10.5t26 -12
t22.5 -11t22 -13.5t15.5 -14.5t12.5 -17.5t3.5 -19q0 -35 -30.5 -56t-79.5 -21q-31 0 -75 16l-33 97l-37 -7v-106q75 -37 153 -37zM238 735l109 -160l-20 -10l-118 106l-119 -106l-20 10l109 160h59z" />
    <glyph glyph-name="Scedilla" unicode="&#x15e;" horiz-adv-x="549" 
d="M50 537q0 87 64.5 133.5t163.5 46.5q98 0 195 -59v-136l-42 -7l-48 135q-51 18 -106 18q-64 0 -99 -35.5t-35 -88.5q0 -15 5.5 -29t18.5 -27t23.5 -22.5t31 -21.5t30.5 -17.5t32.5 -16.5t26.5 -13q46 -23 75.5 -41.5t59.5 -46t44.5 -61t14.5 -75.5q0 -86 -59.5 -137.5
t-182.5 -52.5v-29q34 0 60.5 -19t26.5 -55q0 -31 -14.5 -52.5t-39 -31t-47 -13.5t-47.5 -4v29q41 0 64.5 18t23.5 47q0 20 -13.5 29t-30.5 9h-19v73q-105 7 -174 58v143l42 7l50 -141q52 -19 104 -19q75 0 119.5 31t44.5 88q0 25 -12 46.5t-39.5 41.5t-45 30.5t-57 29
t-46.5 22.5q-33 17 -47 25t-41.5 28.5t-40 39.5t-23.5 51.5t-11 71.5z" />
    <glyph glyph-name="scedilla" unicode="&#x15f;" horiz-adv-x="415" 
d="M137 -221v29q41 0 64.5 18t23.5 47q0 20 -13.5 29t-30.5 9h-19v80q-68 7 -122 35v106l37 7l33 -97q44 -16 75 -16q49 0 79.5 21t30.5 56q0 10 -3.5 19t-12.5 17.5t-15.5 14.5t-22 13.5t-22.5 11t-26 12t-24 10.5q-30 14 -49 25t-39 28.5t-29.5 40t-9.5 50.5q0 61 49 97
t131 36q63 0 133 -36v-83l-36 -7l-20 72q-34 17 -88 17q-40 0 -65 -19.5t-25 -50.5q0 -16 9 -29.5t28 -25.5t32 -18t38 -17q35 -15 54.5 -25t44.5 -28.5t36.5 -43t11.5 -55.5q0 -64 -46.5 -101.5t-130.5 -38.5v-35q34 0 60.5 -19t26.5 -55q0 -31 -14.5 -52.5t-39 -31
t-47 -13.5t-47.5 -4z" />
    <glyph glyph-name="Scaron" unicode="&#x160;" horiz-adv-x="549" 
d="M50 537q0 87 64.5 133.5t163.5 46.5q98 0 195 -59v-136l-42 -7l-48 135q-51 18 -106 18q-64 0 -99 -35.5t-35 -88.5q0 -17 9.5 -34t20.5 -28.5t34 -26.5t34 -21t38.5 -19.5t31.5 -15.5q95 -48 144.5 -97.5t49.5 -128.5q0 -87 -61.5 -138.5t-187.5 -51.5q-121 0 -203 59
v143l42 7l50 -131q80 -29 104 -29q164 0 164 109q0 20 -8 38.5t-17.5 32.5t-29.5 29.5t-32.5 23.5t-39.5 21t-36.5 17.5t-36.5 15.5q-35 15 -59 30t-50.5 40t-40 62t-13.5 86zM419 918l-109 -160h-59l-109 160l20 10l119 -106l118 106z" />
    <glyph glyph-name="scaron" unicode="&#x161;" horiz-adv-x="415" 
d="M193 -11q-78 0 -153 37v106l37 7l33 -89q38 -14 75 -14q49 0 79.5 19.5t30.5 54.5q0 14 -7 25.5t-22 21t-27.5 15.5t-36 15t-33.5 14q-30 14 -49 25t-39 28.5t-29.5 40t-9.5 50.5q0 61 49 97t131 36q63 0 133 -36v-83l-36 -7l-20 62q-34 17 -88 17q-41 0 -65.5 -18
t-24.5 -49q0 -9 3 -17.5t10.5 -15.5t13.5 -12t18.5 -11t19.5 -9.5t21.5 -9.5t20.5 -8q35 -15 54.5 -25t44.5 -28.5t36.5 -43t11.5 -55.5q0 -65 -48 -102.5t-134 -37.5zM349 725l-109 -160h-59l-109 160l20 10l119 -106l118 106z" />
    <glyph glyph-name="Tcommaaccent" unicode="&#x162;" horiz-adv-x="652" 
d="M266 -221v29q41 0 64.5 18t23.5 47q0 20 -13.5 29t-30.5 9h-19v89h-98l-7 42l87 33v583h-136l-55 -143l-42 7v178h572v-178l-42 -7l-55 143h-136v-583l87 -33l-7 -42h-132v-46q34 0 60.5 -19t26.5 -55q0 -31 -14.5 -52.5t-39 -31t-47 -13.5t-47.5 -4z" />
    <glyph glyph-name="tcommaaccent" unicode="&#x163;" horiz-adv-x="336" 
d="M155 0q-70 27 -70 118v313h-58l-7 36l71 22l42 105l46 -11v-116h131l-7 -36h-124v-321q0 -34 16 -54t39 -20q44 0 79 38l23 -27q-28 -30 -54 -44t-65 -14q-10 0 -26 2v-37q34 0 60.5 -19t26.5 -55q0 -31 -14.5 -52.5t-39 -31t-47 -13.5t-47.5 -4v29q41 0 64.5 18t23.5 47
q0 20 -13.5 29t-30.5 9h-19v89z" />
    <glyph glyph-name="Tcaron" unicode="&#x164;" horiz-adv-x="652" 
d="M40 522v178h572v-178l-42 -7l-55 143h-136v-583l87 -33l-7 -42h-266l-7 42l87 33v583h-136l-55 -143zM474 918l-109 -160h-59l-109 160l20 10l119 -106l118 106z" />
    <glyph glyph-name="tcaron" unicode="&#x165;" horiz-adv-x="336" 
d="M328 687q18 0 30.5 -12.5t12.5 -31.5q0 -45 -19 -78.5t-47 -49.5l-18 19q32 26 32 79h-24q-11 13 -11 30q0 18 12.5 31t31.5 13zM179 583v-116h131l-7 -36h-124v-321q0 -34 16 -54t39 -20q44 0 79 38l23 -27q-28 -30 -54 -44t-65 -14q-66 0 -99 35.5t-33 93.5v313h-58
l-7 36l71 22l42 105z" />
    <glyph glyph-name="Tbar" unicode="&#x166;" horiz-adv-x="652" 
d="M40 522v178h572v-178l-42 -7l-55 143h-136v-288h172v-42h-172v-253l87 -33l-7 -42h-266l-7 42l87 33v253h-176v42h176v288h-136l-55 -143z" />
    <glyph glyph-name="tbar" unicode="&#x167;" horiz-adv-x="336" 
d="M179 583v-116h131l-7 -36h-124v-151h131v-42h-131v-128q0 -34 16 -54t39 -20q44 0 79 38l23 -27q-28 -30 -54 -44t-65 -14q-66 0 -99 35.5t-33 93.5v120h-65v42h65v151h-58l-7 36l71 22l42 105z" />
    <glyph glyph-name="Utilde" unicode="&#x168;" horiz-adv-x="726" 
d="M380 -17q-44 0 -80 7.5t-71 28.5t-59 55t-38.5 90.5t-14.5 131.5v329l-87 33l7 42h266l7 -42l-87 -33v-334q0 -138 40 -198.5t133 -60.5q187 0 187 257v336l-88 33l8 42h201l7 -42l-87 -33v-329q0 -75 -13.5 -131.5t-35.5 -90.5t-55 -55t-66 -28.5t-74 -7.5zM482 777h-28
l-100 55l-78 -55l-20 10l83 103h25l100 -45l81 45l20 -10z" />
    <glyph glyph-name="utilde" unicode="&#x169;" horiz-adv-x="556" 
d="M382 87v344h-46l-7 36l111 11l36 -11v-410l65 -21l-7 -36h-134l-18 36q-32 -28 -62 -37.5t-75 -9.5q-80 0 -121.5 48t-41.5 131v263h-45l-7 36l103 11l43 -11v-308q0 -63 30.5 -93t75.5 -30q64 0 100 51zM364 584h-28l-100 55l-78 -55l-20 10l83 103h25l100 -45l81 45
l20 -10z" />
    <glyph glyph-name="Umacron" unicode="&#x16a;" horiz-adv-x="726" 
d="M229 777v52h333v-52h-333zM380 -17q41 0 74 7.5t66 28.5t55 55t35.5 90.5t13.5 131.5v329l87 33l-7 42h-201l-8 -42l88 -33v-336q0 -257 -187 -257q-93 0 -133 60.5t-40 198.5v334l87 33l-7 42h-266l-7 -42l87 -33v-329q0 -75 14.5 -131.5t38.5 -90.5t59 -55t71 -28.5
t80 -7.5z" />
    <glyph glyph-name="umacron" unicode="&#x16b;" horiz-adv-x="556" 
d="M105 594v52h333v-52h-333zM382 431v-344q-36 -51 -100 -51q-45 0 -75.5 30t-30.5 93v308l-43 11l-103 -11l7 -36h45v-263q0 -83 41.5 -131t121.5 -48q45 0 75 9.5t62 37.5l18 -36h134l7 36l-65 21v410l-36 11l-111 -11l7 -36h46z" />
    <glyph glyph-name="Ubreve" unicode="&#x16c;" horiz-adv-x="726" 
d="M380 -17q-44 0 -80 7.5t-71 28.5t-59 55t-38.5 90.5t-14.5 131.5v329l-87 33l7 42h266l7 -42l-87 -33v-334q0 -138 40 -198.5t133 -60.5q187 0 187 257v336l-88 33l8 42h201l7 -42l-87 -33v-329q0 -75 -13.5 -131.5t-35.5 -90.5t-55 -55t-66 -28.5t-74 -7.5zM400 833
q92 0 140 57l18 -12q-16 -43 -58 -75t-100 -32t-100 32t-58 75l18 12q48 -57 140 -57z" />
    <glyph glyph-name="ubreve" unicode="&#x16d;" horiz-adv-x="556" 
d="M382 87v344h-46l-7 36l111 11l36 -11v-410l65 -21l-7 -36h-134l-18 36q-32 -28 -62 -37.5t-75 -9.5q-80 0 -121.5 48t-41.5 131v263h-45l-7 36l103 11l43 -11v-308q0 -63 30.5 -93t75.5 -30q64 0 100 51zM275 643q92 0 140 57l18 -12q-16 -43 -58 -75t-100 -32t-100 32
t-58 75l18 12q48 -57 140 -57z" />
    <glyph glyph-name="Uring" unicode="&#x16e;" horiz-adv-x="726" 
d="M381 930q45 0 73.5 -26t28.5 -70q0 -45 -27.5 -70.5t-74.5 -25.5t-74.5 26t-27.5 70t29 70t73 26zM381 902q-24 0 -39 -18.5t-15 -48.5t15 -49.5t39 -19.5q25 0 40 19.5t15 49.5q0 31 -15 49t-40 18zM380 -17q41 0 74 7.5t66 28.5t55 55t35.5 90.5t13.5 131.5v329l87 33
l-7 42h-201l-8 -42l88 -33v-336q0 -257 -187 -257q-93 0 -133 60.5t-40 198.5v334l87 33l-7 42h-266l-7 -42l87 -33v-329q0 -75 14.5 -131.5t38.5 -90.5t59 -55t71 -28.5t80 -7.5z" />
    <glyph glyph-name="uring" unicode="&#x16f;" horiz-adv-x="556" 
d="M274 737q45 0 73.5 -26t28.5 -70q0 -45 -27.5 -70.5t-74.5 -25.5t-74.5 26t-27.5 70t29 70t73 26zM274 709q-24 0 -39 -18.5t-15 -48.5t15 -49.5t39 -19.5q25 0 40 19.5t15 49.5q0 31 -15 49t-40 18zM382 431v-344q-36 -51 -100 -51q-45 0 -75.5 30t-30.5 93v308l-43 11
l-103 -11l7 -36h45v-263q0 -83 41.5 -131t121.5 -48q45 0 75 9.5t62 37.5l18 -36h134l7 36l-65 21v410l-36 11l-111 -11l7 -36h46z" />
    <glyph glyph-name="Uhungarumlaut" unicode="&#x170;" horiz-adv-x="726" 
d="M380 -17q-44 0 -80 7.5t-71 28.5t-59 55t-38.5 90.5t-14.5 131.5v329l-87 33l7 42h266l7 -42l-87 -33v-334q0 -138 40 -198.5t133 -60.5q187 0 187 257v336l-88 33l8 42h201l7 -42l-87 -33v-329q0 -75 -13.5 -131.5t-35.5 -90.5t-55 -55t-66 -28.5t-74 -7.5zM253 768
l109 160l95 -10l-184 -160zM392 768l109 160l95 -10l-184 -160z" />
    <glyph glyph-name="uhungarumlaut" unicode="&#x171;" horiz-adv-x="556" 
d="M382 87v344h-46l-7 36l111 11l36 -11v-410l65 -21l-7 -36h-134l-18 36q-32 -28 -62 -37.5t-75 -9.5q-80 0 -121.5 48t-41.5 131v263h-45l-7 36l103 11l43 -11v-308q0 -63 30.5 -93t75.5 -30q64 0 100 51zM181 575l68 160l89 -10l-137 -160zM306 575l68 160l89 -10
l-137 -160z" />
    <glyph glyph-name="Uogonek" unicode="&#x172;" horiz-adv-x="726" 
d="M363 -93q0 -50 58 -50q20 0 32 4v-50q-30 -8 -55 -8q-41 0 -67 24t-26 63q0 53 52 94q-52 2 -92 17t-75 48.5t-54 96t-19 150.5v329l-87 33l7 42h266l7 -42l-87 -33v-334q0 -138 40 -198.5t133 -60.5q187 0 187 257v336l-88 33l8 42h201l7 -42l-87 -33v-329
q0 -86 -17 -147.5t-49 -95.5t-68 -50t-83 -19q-44 -34 -44 -77z" />
    <glyph glyph-name="uogonek" unicode="&#x173;" horiz-adv-x="562" 
d="M382 87v344h-46l-7 36l111 11l36 -11v-410l65 -21l-7 -36h-6q-71 -41 -71 -93q0 -50 58 -50q20 0 32 4v-50q-30 -8 -55 -8q-41 0 -67 24t-26 63q0 62 77 110h-76l-18 36q-32 -28 -62 -37.5t-75 -9.5q-80 0 -121.5 48t-41.5 131v263h-45l-7 36l103 11l43 -11v-308
q0 -63 30.5 -93t75.5 -30q64 0 100 51z" />
    <glyph glyph-name="Wcircumflex" unicode="&#x174;" horiz-adv-x="1009" 
d="M517 561v-78l144 -500l72 17l185 624l88 33l-8 43h-203l-7 -43l87 -33l-157 -528v70l-160 551l-44 -17l-179 -604v70l-133 458l87 33l-8 43h-270l-7 -43l87 -33l187 -641l73 17zM576 928l109 -160l-20 -10l-118 106l-119 -106l-20 10l109 160h59z" />
    <glyph glyph-name="wcircumflex" unicode="&#x175;" horiz-adv-x="793" 
d="M404 346v48l-118 -394l-89 -11l-120 421l-65 21l7 36h213l7 -36l-64 -21l91 -318v-35l121 410l77 11l105 -365v-56l105 353l-65 21l8 36h153l7 -36l-65 -21l-122 -410l-84 -11zM456 735l109 -160l-20 -10l-118 106l-119 -106l-20 10l109 160h59z" />
    <glyph glyph-name="Ycircumflex" unicode="&#x176;" horiz-adv-x="659" 
d="M295 258v-183l-87 -34l7 -41h264l8 41l-86 34v250l165 299l88 33l-8 43h-208l-7 -43l87 -33l-170 -307v65l-135 242l88 33l-8 43h-280l-8 -43l87 -33zM391 928l109 -160l-20 -10l-118 106l-119 -106l-20 10l109 160h59z" />
    <glyph glyph-name="ycircumflex" unicode="&#x177;" horiz-adv-x="577" 
d="M497 411l-181 -517q-14 -39 -39.5 -84t-47.5 -60l-119 10l-8 37q30 5 46.5 9.5t45 17.5t50 39t36.5 65l23 61l-44 11l-174 410l-67 21l8 36h238l7 -36l-85 -21l142 -330v-23l123 353l-75 21l7 36h172l7 -36zM338 735l109 -160l-20 -10l-118 106l-119 -106l-20 10l109 160
h59z" />
    <glyph glyph-name="Ydieresis" unicode="&#x178;" horiz-adv-x="659" 
d="M295 75v183l-203 366l-87 33l8 43h280l8 -43l-88 -33l135 -242v-65l170 307l-87 33l7 43h208l8 -43l-88 -33l-165 -299v-250l86 -34l-8 -41h-264l-7 41zM429 876q22 0 38 -16t16 -38t-16 -38t-38 -16q-23 0 -38.5 16t-15.5 38t15.5 38t38.5 16zM250 876q22 0 38 -16
t16 -38t-16 -38t-38 -16t-38 16t-16 38t16 38t38 16z" />
    <glyph glyph-name="Zacute" unicode="&#x179;" horiz-adv-x="602" 
d="M235 768l109 160l95 -10l-184 -160zM158 41h327l55 151l42 -8v-184h-545l-7 41l423 617h-286l-52 -143l-42 7v178h501l8 -42z" />
    <glyph glyph-name="zacute" unicode="&#x17a;" horiz-adv-x="473" 
d="M58 467h357l33 -36l-288 -364l-66 -31h260l32 103l37 -7v-132h-380l-18 36l287 368l53 27h-246l-25 -79l-36 7v108zM204 575l68 160l89 -10l-137 -160z" />
    <glyph glyph-name="Zdotaccent" unicode="&#x17b;" horiz-adv-x="602" 
d="M315 876q23 0 38.5 -16t15.5 -38t-15.5 -38t-38.5 -16q-22 0 -38 16t-16 38t16 38t38 16zM158 41h327l55 151l42 -8v-184h-545l-7 41l423 617h-286l-52 -143l-42 7v178h501l8 -42z" />
    <glyph glyph-name="zdotaccent" unicode="&#x17c;" horiz-adv-x="473" 
d="M244 697q22 0 38 -15.5t16 -38.5t-16 -38.5t-38 -15.5t-38 16t-16 38t16 38t38 16zM58 467h357l33 -36l-288 -364l-66 -31h260l32 103l37 -7v-132h-380l-18 36l287 368l53 27h-246l-25 -79l-36 7v108z" />
    <glyph glyph-name="Zcaron" unicode="&#x17d;" horiz-adv-x="602" 
d="M458 918l-109 -160h-59l-109 160l20 10l119 -106l118 106zM158 41h327l55 151l42 -8v-184h-526l-26 41l423 617h-286l-52 -143l-42 7v178h474l35 -42z" />
    <glyph glyph-name="zcaron" unicode="&#x17e;" horiz-adv-x="473" 
d="M58 467h357l33 -36l-288 -364l-66 -31h260l32 103l37 -7v-132h-380l-18 36l287 368l53 27h-246l-25 -79l-36 7v108zM382 725l-109 -160h-59l-109 160l20 10l119 -106l118 106z" />
    <glyph glyph-name="longs" unicode="&#x17f;" horiz-adv-x="382" 
d="M287 747q59 0 120 -42v-82l-36 -8l-21 79q-22 16 -59 16q-102 0 -102 -148v-505l66 -21l-8 -36h-209l-7 36l64 21v374h-68l-7 36l75 24v51q0 88 51.5 146.5t140.5 58.5z" />
    <glyph glyph-name="florin" unicode="&#x192;" horiz-adv-x="449" 
d="M221 365v-263q0 -58 -9 -106.5t-31.5 -98t-69 -87.5t-113.5 -60l-22 37q93 62 123 143t30 189v246h-70l-7 36h77v67q0 74 47 129t133 55q73 0 120 -38v-86l-36 -8l-21 75q-28 16 -59 16q-92 0 -92 -161v-49h121l-7 -36h-114z" />
    <glyph glyph-name="AEacute" unicode="&#x1fc;" horiz-adv-x="917" 
d="M222 236l-71 -161l81 -33l-7 -42h-213l-7 42l86 33l282 625h491v-150l-42 -8l-42 116h-216v-265h122l31 84l42 -7v-197l-42 -7l-31 84h-122v-308h221l55 150l42 -7v-185h-502l-7 42l85 33v161h-236zM240 278h217v357l-45 23zM496 768l109 160l95 -10l-184 -160z" />
    <glyph glyph-name="aeacute" unicode="&#x1fd;" horiz-adv-x="780" 
d="M580 36q60 0 131 45l23 -33q-65 -59 -160 -59q-147 0 -212 84l-46 -37q-34 -26 -60.5 -36.5t-74.5 -10.5q-66 0 -109 34.5t-43 97.5q0 162 285 162v53q0 52 -27 78.5t-73 26.5q-51 0 -85 -12l-21 -77l-36 7v83q72 36 148 36q110 0 157 -69q66 69 179 69q87 0 138 -42.5
t51 -114.5q0 -38 -17 -74h-308v-5q0 -94 41 -150t119 -56zM314 91v156q-179 0 -179 -116q0 -49 25.5 -72t60.5 -23q61 0 93 55zM422 283h222q7 23 7 46q0 56 -22.5 84t-72.5 28q-120 0 -134 -158zM348 575l68 160l89 -10l-137 -160z" />
    <glyph glyph-name="Oslashacute" unicode="&#x1fe;" 
d="M394 717q87 0 153 -32l24 41h47l9 -9l-34 -59q66 -47 100 -127.5t34 -180.5q0 -80 -19 -145t-58 -115.5t-104 -78.5t-152 -28q-97 0 -171 40l-26 -45h-44l-12 11l38 65q-60 50 -89.5 128t-29.5 168q0 96 36 177.5t113.5 135.5t184.5 54zM610 355q0 164 -57 236l-294 -508
q58 -51 135 -51q216 0 216 323zM394 668q-112 0 -164 -76t-52 -237q0 -153 44 -228l291 501q-59 40 -119 40zM356 768l109 160l95 -10l-184 -160z" />
    <glyph glyph-name="oslashacute" unicode="&#x1ff;" horiz-adv-x="550" 
d="M275 478q68 0 120 -26l21 32h38l8 -7l-32 -48q80 -63 80 -195q0 -118 -59 -181.5t-176 -63.5q-68 0 -121 24l-23 -34h-36l-9 9l32 48q-78 63 -78 198q0 113 62.5 178.5t172.5 65.5zM414 237q0 77 -26 129l-200 -301q36 -39 87 -39q64 0 101.5 57.5t37.5 153.5zM275 441
q-63 0 -100.5 -55t-37.5 -149q0 -80 26 -134l199 300q-35 38 -87 38zM223 575l68 160l89 -10l-137 -160z" />
    <glyph glyph-name="uni0200" unicode="&#x200;" horiz-adv-x="738" 
d="M419 717l-87 -17l-231 -625l-86 -33l7 -42h228l7 42l-103 33l57 161h262l56 -161l-86 -33l7 -42h272l8 42l-86 33zM227 278l130 345v-51l101 -294h-231zM385 928l109 -160l-20 -10l-184 160zM246 928l109 -160l-20 -10l-184 160z" />
    <glyph glyph-name="uni0201" unicode="&#x201;" horiz-adv-x="480" 
d="M69 442v-83l36 -7l21 77q34 12 85 12q46 0 73 -26.5t27 -78.5v-53q-282 0 -282 -162q0 -63 41.5 -97.5t107.5 -34.5q48 0 75 10.5t60 36.5l17 -36h133l7 36l-65 21v237q0 89 -48 136.5t-140 47.5q-76 0 -148 -36zM311 91q-32 -55 -93 -55q-35 0 -59 22.5t-24 72.5
q0 116 176 116v-156zM259 735l68 -160l-20 -10l-137 160zM134 735l68 -160l-20 -10l-137 160z" />
    <glyph glyph-name="uni0202" unicode="&#x202;" horiz-adv-x="738" 
d="M417 928l109 -160l-30 -10l-108 106l-109 -106l-30 10l109 160h59zM419 717l-87 -17l-231 -625l-86 -33l7 -42h228l7 42l-103 33l57 161h262l56 -161l-86 -33l7 -42h272l8 42l-86 33zM227 278l130 345v-51l101 -294h-231z" />
    <glyph glyph-name="uni0203" unicode="&#x203;" horiz-adv-x="480" 
d="M69 442v-83l36 -7l21 77q34 12 85 12q46 0 73 -26.5t27 -78.5v-53q-282 0 -282 -162q0 -63 41.5 -97.5t107.5 -34.5q48 0 75 10.5t60 36.5l17 -36h133l7 36l-65 21v237q0 89 -48 136.5t-140 47.5q-76 0 -148 -36zM311 91q-32 -55 -93 -55q-35 0 -59 22.5t-24 72.5
q0 116 176 116v-156zM254 735l109 -160l-20 -10l-118 106l-119 -106l-20 10l109 160h59z" />
    <glyph glyph-name="uni0204" unicode="&#x204;" horiz-adv-x="581" 
d="M228 658h216l42 -116l42 8v150h-485l-8 -42l87 -33v-550l-85 -33l7 -42h502v185l-42 7l-55 -150h-221v308h122l31 -84l42 7v197l-42 7l-31 -84h-122v265zM326 928l109 -160l-20 -10l-184 160zM187 928l109 -160l-20 -10l-184 160z" />
    <glyph glyph-name="uni0205" unicode="&#x205;" horiz-adv-x="518" 
d="M382 283h-234q14 158 134 158q52 0 79.5 -28.5t27.5 -83.5q0 -23 -7 -46zM306 36q-78 0 -119 56t-41 150v5h320q17 36 17 74q0 71 -56.5 114t-144.5 43q-107 0 -174.5 -65.5t-67.5 -178.5q0 -115 65.5 -180t194.5 -65q107 0 172 59l-23 33q-71 -45 -143 -45zM304 735
l68 -160l-20 -10l-137 160zM179 735l68 -160l-20 -10l-137 160z" />
    <glyph glyph-name="uni0206" unicode="&#x206;" horiz-adv-x="581" 
d="M228 658h216l42 -116l42 8v150h-485l-8 -42l87 -33v-550l-85 -33l7 -42h502v185l-42 7l-55 -150h-221v308h122l31 -84l42 7v197l-42 7l-31 -84h-122v265zM319 928l109 -160l-20 -10l-118 106l-119 -106l-20 10l109 160h59z" />
    <glyph glyph-name="uni0207" unicode="&#x207;" horiz-adv-x="518" 
d="M382 283h-234q14 158 134 158q52 0 79.5 -28.5t27.5 -83.5q0 -23 -7 -46zM306 36q-78 0 -119 56t-41 150v5h320q17 36 17 74q0 71 -56.5 114t-144.5 43q-107 0 -174.5 -65.5t-67.5 -178.5q0 -115 65.5 -180t194.5 -65q107 0 172 59l-23 33q-71 -45 -143 -45zM298 735
l109 -160l-20 -10l-118 106l-119 -106l-20 10l109 160h59z" />
    <glyph glyph-name="uni0208" unicode="&#x208;" horiz-adv-x="401" 
d="M253 75v550l88 33l-8 42h-265l-8 -42l88 -33v-550l-88 -33l8 -42h265l8 42zM230 928l109 -160l-20 -10l-184 160zM91 928l109 -160l-20 -10l-184 160z" />
    <glyph glyph-name="uni0209" unicode="&#x209;" horiz-adv-x="305" 
d="M200 57l65 -21l-8 -36h-209l-8 36l66 21v374h-51l-7 36l106 11l46 -11v-410zM160 735l68 -160l-20 -10l-137 160zM35 735l68 -160l-20 -10l-137 160z" />
    <glyph glyph-name="uni020A" unicode="&#x20a;" horiz-adv-x="401" 
d="M253 75v550l88 33l-8 42h-265l-8 -42l88 -33v-550l-88 -33l8 -42h265l8 42zM233 928l109 -160l-20 -10l-118 106l-119 -106l-20 10l109 160h59z" />
    <glyph glyph-name="uni020B" unicode="&#x20b;" horiz-adv-x="305" 
d="M200 57l65 -21l-8 -36h-209l-8 36l66 21v374h-51l-7 36l106 11l46 -11v-410zM171 735l109 -160l-20 -10l-118 106l-119 -106l-20 10l109 160h59z" />
    <glyph glyph-name="uni020C" unicode="&#x20c;" 
d="M394 717q161 0 247 -102.5t86 -264.5q0 -80 -19 -145t-58 -115.5t-104 -78.5t-152 -28q-86 0 -152.5 31t-105 83.5t-57.5 116.5t-19 136q0 96 36 177.5t113.5 135.5t184.5 54zM394 668q-112 0 -164 -76t-52 -237q0 -163 52 -243t164 -80q216 0 216 323q0 158 -52.5 235.5
t-163.5 77.5zM417 928l109 -160l-20 -10l-184 160zM278 928l109 -160l-20 -10l-184 160z" />
    <glyph glyph-name="uni020D" unicode="&#x20d;" horiz-adv-x="550" 
d="M275 478q111 0 173 -64.5t62 -179.5q0 -118 -59 -181.5t-176 -63.5q-116 0 -175.5 65t-59.5 180q0 113 62.5 178.5t172.5 65.5zM275 441q-63 0 -100.5 -55t-37.5 -149q0 -95 37.5 -153t100.5 -58q64 0 101.5 57.5t37.5 153.5q0 95 -37.5 149.5t-101.5 54.5zM306 735
l68 -160l-20 -10l-137 160zM181 735l68 -160l-20 -10l-137 160z" />
    <glyph glyph-name="uni020E" unicode="&#x20e;" 
d="M415 928l109 -160l-30 -10l-108 106l-109 -106l-30 10l109 160h59zM394 717q161 0 247 -102.5t86 -264.5q0 -80 -19 -145t-58 -115.5t-104 -78.5t-152 -28q-86 0 -152.5 31t-105 83.5t-57.5 116.5t-19 136q0 96 36 177.5t113.5 135.5t184.5 54zM394 668q-112 0 -164 -76
t-52 -237q0 -163 52 -243t164 -80q216 0 216 323q0 158 -52.5 235.5t-163.5 77.5z" />
    <glyph glyph-name="uni020F" unicode="&#x20f;" horiz-adv-x="550" 
d="M275 478q111 0 173 -64.5t62 -179.5q0 -118 -59 -181.5t-176 -63.5q-116 0 -175.5 65t-59.5 180q0 113 62.5 178.5t172.5 65.5zM275 441q-63 0 -100.5 -55t-37.5 -149q0 -95 37.5 -153t100.5 -58q64 0 101.5 57.5t37.5 153.5q0 95 -37.5 149.5t-101.5 54.5zM303 735
l109 -160l-20 -10l-118 106l-119 -106l-20 10l109 160h59z" />
    <glyph glyph-name="uni0210" unicode="&#x210;" horiz-adv-x="650" 
d="M228 658v-583l86 -33l-7 -42h-263l-7 42l85 33v550l-87 33l8 42h315q107 0 160.5 -50.5t53.5 -141.5q0 -87 -62.5 -140.5t-149.5 -53.5l52 -26l130 -213l86 -33l-7 -42h-190l8 42l-168 274v42h47q67 0 109.5 46t42.5 104q0 150 -150 150h-92zM311 928l109 -160l-20 -10
l-184 160zM172 928l109 -160l-20 -10l-184 160z" />
    <glyph glyph-name="uni0211" unicode="&#x211;" horiz-adv-x="422" 
d="M412 359l-36 -7l-22 71q-22 8 -49 8q-33 0 -106 -27v-347l66 -21l-8 -36h-210l-7 36l65 21v374h-50l-7 36l116 11l35 -37q66 37 124 37q48 0 89 -17v-102zM245 735l68 -160l-20 -10l-137 160zM120 735l68 -160l-20 -10l-137 160z" />
    <glyph glyph-name="uni0212" unicode="&#x212;" horiz-adv-x="650" 
d="M228 658v-583l86 -33l-7 -42h-263l-7 42l85 33v550l-87 33l8 42h315q107 0 160.5 -50.5t53.5 -141.5q0 -87 -62.5 -140.5t-149.5 -53.5l52 -26l130 -213l86 -33l-7 -42h-190l8 42l-168 274v42h47q67 0 109.5 46t42.5 104q0 150 -150 150h-92zM306 928l109 -160l-20 -10
l-118 106l-119 -106l-20 10l109 160h59z" />
    <glyph glyph-name="uni0213" unicode="&#x213;" horiz-adv-x="422" 
d="M412 359l-36 -7l-22 71q-22 8 -49 8q-33 0 -106 -27v-347l66 -21l-8 -36h-210l-7 36l65 21v374h-50l-7 36l116 11l35 -37q66 37 124 37q48 0 89 -17v-102zM254 735l109 -160l-20 -10l-118 106l-119 -106l-20 10l109 160h59z" />
    <glyph glyph-name="uni0214" unicode="&#x214;" horiz-adv-x="726" 
d="M380 -17q41 0 74 7.5t66 28.5t55 55t35.5 90.5t13.5 131.5v329l87 33l-7 42h-201l-8 -42l88 -33v-336q0 -257 -187 -257q-93 0 -133 60.5t-40 198.5v334l87 33l-7 42h-266l-7 -42l87 -33v-329q0 -75 14.5 -131.5t38.5 -90.5t59 -55t71 -28.5t80 -7.5zM416 928l109 -160
l-20 -10l-184 160zM277 928l109 -160l-20 -10l-184 160z" />
    <glyph glyph-name="uni0215" unicode="&#x215;" horiz-adv-x="556" 
d="M382 431v-344q-36 -51 -100 -51q-45 0 -75.5 30t-30.5 93v308l-43 11l-103 -11l7 -36h45v-263q0 -83 41.5 -131t121.5 -48q45 0 75 9.5t62 37.5l18 -36h134l7 36l-65 21v410l-36 11l-111 -11l7 -36h46zM305 735l68 -160l-20 -10l-137 160zM180 735l68 -160l-20 -10
l-137 160z" />
    <glyph glyph-name="uni0216" unicode="&#x216;" horiz-adv-x="726" 
d="M380 -17q41 0 74 7.5t66 28.5t55 55t35.5 90.5t13.5 131.5v329l87 33l-7 42h-201l-8 -42l88 -33v-336q0 -257 -187 -257q-93 0 -133 60.5t-40 198.5v334l87 33l-7 42h-266l-7 -42l87 -33v-329q0 -75 14.5 -131.5t38.5 -90.5t59 -55t71 -28.5t80 -7.5zM425 928l109 -160
l-20 -10l-118 106l-119 -106l-20 10l109 160h59z" />
    <glyph glyph-name="uni0217" unicode="&#x217;" horiz-adv-x="556" 
d="M382 431v-344q-36 -51 -100 -51q-45 0 -75.5 30t-30.5 93v308l-43 11l-103 -11l7 -36h45v-263q0 -83 41.5 -131t121.5 -48q45 0 75 9.5t62 37.5l18 -36h134l7 36l-65 21v410l-36 11l-111 -11l7 -36h46zM308 735l109 -160l-20 -10l-118 106l-119 -106l-20 10l109 160h59z
" />
    <glyph glyph-name="Scommaaccent" unicode="&#x218;" horiz-adv-x="549" 
d="M251 -35q18 0 30.5 -12.5t12.5 -31.5q0 -45 -19 -78.5t-47 -49.5l-18 19q32 26 32 79h-24q-11 13 -11 30q0 18 12.5 31t31.5 13zM50 537q0 87 64.5 133.5t163.5 46.5q98 0 195 -59v-136l-42 -7l-48 135q-51 18 -106 18q-64 0 -99 -35.5t-35 -88.5q0 -17 9.5 -34
t20.5 -28.5t34 -26.5t34 -21t38.5 -19.5t31.5 -15.5q95 -48 144.5 -97.5t49.5 -128.5q0 -87 -61.5 -138.5t-187.5 -51.5q-121 0 -203 59v143l42 7l50 -131q80 -29 104 -29q164 0 164 109q0 20 -8 38.5t-17.5 32.5t-29.5 29.5t-32.5 23.5t-39.5 21t-36.5 17.5t-36.5 15.5
q-35 15 -59 30t-50.5 40t-40 62t-13.5 86z" />
    <glyph glyph-name="scommaaccent" unicode="&#x219;" horiz-adv-x="415" 
d="M197 -35q18 0 30.5 -12.5t12.5 -31.5q0 -45 -19 -78.5t-47 -49.5l-18 19q32 26 32 79h-24q-11 13 -11 30q0 18 12.5 31t31.5 13zM193 -11q-78 0 -153 37v106l37 7l33 -97q44 -16 75 -16q49 0 79.5 21t30.5 56q0 10 -3.5 19t-12.5 17.5t-15.5 14.5t-22 13.5t-22.5 11
t-26 12t-24 10.5q-30 14 -49 25t-39 28.5t-29.5 40t-9.5 50.5q0 61 49 97t131 36q63 0 133 -36v-83l-36 -7l-20 72q-34 17 -88 17q-40 0 -65 -19.5t-25 -50.5q0 -16 9 -29.5t28 -25.5t32 -18t38 -17q35 -15 54.5 -25t44.5 -28.5t36.5 -43t11.5 -55.5q0 -65 -48 -102.5
t-134 -37.5z" />
    <glyph glyph-name="uni021A" unicode="&#x21a;" horiz-adv-x="652" 
d="M338 -35q-19 0 -31.5 -13t-12.5 -31q0 -17 11 -30h24q0 -53 -32 -79l18 -19q28 16 47 49.5t19 78.5q0 19 -12.5 31.5t-30.5 12.5zM40 522v178h572v-178l-42 -7l-55 143h-136v-583l87 -33l-7 -42h-266l-7 42l87 33v583h-136l-55 -143z" />
    <glyph glyph-name="uni021B" unicode="&#x21b;" horiz-adv-x="336" 
d="M180 -35q-19 0 -31.5 -13t-12.5 -31q0 -17 11 -30h24q0 -53 -32 -79l18 -19q28 16 47 49.5t19 78.5q0 19 -12.5 31.5t-30.5 12.5zM179 583v-116h131l-7 -36h-124v-321q0 -34 16 -54t39 -20q44 0 79 38l23 -27q-28 -30 -54 -44t-65 -14q-66 0 -99 35.5t-33 93.5v313h-58
l-7 36l71 22l42 105z" />
    <glyph glyph-name="dotlessj" unicode="&#x237;" horiz-adv-x="275" 
d="M37 467l118 11l45 -11v-385q0 -46 -5 -83t-19.5 -76t-38.5 -70t-64.5 -58t-95.5 -45l-22 37q94 63 122.5 135t28.5 177v332h-61z" />
    <glyph glyph-name="circumflex" unicode="&#x2c6;" horiz-adv-x="377" 
d="M218 735l109 -160l-20 -10l-118 106l-119 -106l-20 10l109 160h59z" />
    <glyph glyph-name="caron" unicode="&#x2c7;" horiz-adv-x="377" 
d="M327 725l-109 -160h-59l-109 160l20 10l119 -106l118 106z" />
    <glyph glyph-name="breve" unicode="&#x2d8;" horiz-adv-x="384" 
d="M192 640q92 0 140 57l18 -12q-16 -43 -58 -75t-100 -32t-100 32t-58 75l18 12q48 -57 140 -57z" />
    <glyph glyph-name="dotaccent" unicode="&#x2d9;" horiz-adv-x="181" 
d="M90 697q22 0 38 -15.5t16 -38.5t-16 -38.5t-38 -15.5t-38 16t-16 38t16 38t38 16z" />
    <glyph glyph-name="ring" unicode="&#x2da;" horiz-adv-x="277" 
d="M138 910q45 0 73.5 -26t28.5 -70q0 -45 -27.5 -70.5t-74.5 -25.5t-74.5 26t-27.5 70t29 70t73 26zM138 882q-24 0 -39 -18.5t-15 -48.5t15 -49.5t39 -19.5q25 0 40 19.5t15 49.5q0 31 -15 49t-40 18z" />
    <glyph glyph-name="ogonek" unicode="&#x2db;" horiz-adv-x="215" 
d="M126 10l34 -10q-70 -42 -70 -93q0 -50 58 -50q20 0 32 4v-50q-30 -8 -55 -8q-41 0 -67 24t-26 63q0 67 94 120z" />
    <glyph glyph-name="tilde" unicode="&#x2dc;" horiz-adv-x="409" 
d="M276 584h-28l-100 55l-78 -55l-20 10l83 103h25l100 -45l81 45l20 -10z" />
    <glyph glyph-name="hungarumlaut" unicode="&#x2dd;" horiz-adv-x="385" 
d="M67 575l68 160l89 -10l-137 -160zM192 575l68 160l89 -10l-137 -160z" />
    <glyph glyph-name="uni0400" unicode="&#x400;" horiz-adv-x="581" 
d="M228 658h216l42 -116l42 8v150h-485l-8 -42l87 -33v-550l-85 -33l7 -42h502v185l-42 7l-55 -150h-221v308h122l31 -84l42 7v197l-42 7l-31 -84h-122v265zM269 928l109 -160l-20 -10l-184 160z" />
    <glyph glyph-name="afii10023" unicode="&#x401;" horiz-adv-x="581" 
d="M377 876q22 0 38 -16t16 -38t-16 -38t-38 -16q-23 0 -38.5 16t-15.5 38t15.5 38t38.5 16zM198 876q22 0 38 -16t16 -38t-16 -38t-38 -16t-38 16t-16 38t16 38t38 16zM444 658h-216v-265h122l31 84l42 -7v-197l-42 -7l-31 84h-122v-308h221l55 150l42 -7v-185h-502l-7 42
l85 33v550l-87 33l8 42h485v-150l-42 -8z" />
    <glyph glyph-name="afii10051" unicode="&#x402;" horiz-adv-x="720" 
d="M40 522v178h572v-178l-42 -7l-55 143h-136v-232q61 32 119 32q83 0 132.5 -43t49.5 -121v-212q0 -46 -5 -83t-19.5 -76t-38.5 -70t-64.5 -58t-95.5 -45l-22 37q50 33 81 69.5t45 79t18 77t4 86.5v210q0 47 -26.5 74.5t-66.5 27.5q-51 0 -111 -27v-309l87 -33l-7 -42h-266
l-7 42l87 33v583h-136l-55 -143z" />
    <glyph glyph-name="afii10052" unicode="&#x403;" horiz-adv-x="534" 
d="M220 659v-584l85 -33l-7 -42h-254l-7 42l85 33v550l-87 34l8 41h466v-177l-42 -7l-56 143h-191zM211 768l109 160l95 -10l-184 -160z" />
    <glyph glyph-name="afii10053" unicode="&#x404;" horiz-adv-x="680" 
d="M426 32q69 0 127 20l51 140l42 -7v-142q-38 -27 -98 -43.5t-122 -16.5q-94 0 -166.5 31t-115 84t-63.5 116.5t-21 135.5q0 71 23.5 136t67.5 117.5t115.5 83.5t159.5 31q116 0 220 -60v-135l-42 -7l-48 133q-61 19 -130 19q-238 0 -248 -285h162l33 84l41 -7v-197l-41 -7
l-33 84h-162q1 -60 13.5 -111.5t39.5 -97.5t76.5 -72.5t118.5 -26.5z" />
    <glyph glyph-name="afii10054" unicode="&#x405;" horiz-adv-x="549" 
d="M50 537q0 87 64.5 133.5t163.5 46.5q98 0 195 -59v-136l-42 -7l-48 135q-51 18 -106 18q-64 0 -99 -35.5t-35 -88.5q0 -17 9.5 -34t20.5 -28.5t34 -26.5t34 -21t38.5 -19.5t31.5 -15.5q95 -48 144.5 -97.5t49.5 -128.5q0 -87 -61.5 -138.5t-187.5 -51.5q-121 0 -203 59
v143l42 7l50 -131q80 -29 104 -29q164 0 164 109q0 20 -8 38.5t-17.5 32.5t-29.5 29.5t-32.5 23.5t-39.5 21t-36.5 17.5t-36.5 15.5q-35 15 -59 30t-50.5 40t-40 62t-13.5 86z" />
    <glyph glyph-name="afii10055" unicode="&#x406;" horiz-adv-x="401" 
d="M253 625v-550l88 -33l-8 -42h-265l-8 42l88 33v550l-88 33l8 42h265l8 -42z" />
    <glyph glyph-name="afii10056" unicode="&#x407;" horiz-adv-x="401" 
d="M284 876q22 0 38 -16t16 -38t-16 -38t-38 -16t-38 16t-16 38t16 38t38 16zM105 876q23 0 38.5 -16t15.5 -38t-15.5 -38t-38.5 -16q-22 0 -38 16t-16 38t16 38t38 16zM253 625v-550l88 -33l-8 -42h-265l-8 42l88 33v550l-88 33l8 42h265l8 -42z" />
    <glyph glyph-name="afii10057" unicode="&#x408;" horiz-adv-x="368" 
d="M145 195v430l-87 33l8 42h264l8 -42l-88 -33v-456q0 -268 -233 -344l-22 37q92 62 121 143t29 190z" />
    <glyph glyph-name="afii10058" unicode="&#x409;" horiz-adv-x="924" 
d="M435 75v584h-166v-192q0 -123 -27 -256t-77 -211h-148l-7 42q206 92 206 462v121l-87 34l7 41h484l8 -41l-87 -34v-583h58q83 0 125 49.5t42 128.5q0 76 -43 116.5t-118 40.5h-28v42h53q48 0 91.5 -11t81 -33.5t59.5 -62.5t22 -92q0 -99 -56 -159.5t-187 -60.5h-286
l-6 42z" />
    <glyph glyph-name="afii10059" unicode="&#x40a;" horiz-adv-x="1046" 
d="M753 658l-87 -33v-583h58q83 0 125 46t42 124q0 75 -42.5 112t-118.5 37h-28v42h53q49 0 92 -9.5t80.5 -30.5t59.5 -60t22 -91q0 -212 -243 -212h-286l-7 42l87 33v279h-327v-279l85 -33l-7 -42h-262l-8 42l86 33v550l-87 33l7 42h266l7 -42l-87 -33v-229h327v229l-87 33
l7 42h266z" />
    <glyph glyph-name="afii10060" unicode="&#x40b;" horiz-adv-x="765" 
d="M490 411q-53 0 -111 -27v-309l87 -33l-7 -42h-266l-7 42l87 33v583h-136l-55 -143l-42 7v178h572v-178l-42 -7l-55 143h-136v-232q61 32 119 32q83 0 132.5 -43t49.5 -121v-237l65 -21l-7 -36h-151l-7 36v273q0 47 -25 74.5t-65 27.5z" />
    <glyph glyph-name="afii10061" unicode="&#x40c;" horiz-adv-x="681" 
d="M228 625v-550l87 -32l-7 -43h-266l-7 43l87 32v550l-87 34l7 41h266l7 -42zM466 0l7 42l-203 303v42l233 238l-87 34l7 41h221l7 -41l-32 -13q-55 -22 -96 -63l-200 -204l73 -32l182 -271l87 -34l-8 -42h-191zM289 768l109 160l95 -10l-184 -160z" />
    <glyph glyph-name="uni040D" unicode="&#x40d;" horiz-adv-x="825" 
d="M234 75v54l357 360v-414l-85 -33l7 -42h263l7 42l-86 33v550l87 34l-7 41h-265l-8 -41l87 -34v-44l-357 -360v404l88 34l-8 41h-265l-8 -41l87 -34v-550l-85 -33l7 -42h262l8 42zM337 928l109 -160l-20 -10l-184 160z" />
    <glyph glyph-name="afii10062" unicode="&#x40e;" horiz-adv-x="544" 
d="M465 886l21 -23q-34 -41 -82 -68t-95 -27q-117 0 -171 76l53 55h39q17 -29 46.5 -47.5t65.5 -18.5q38 0 64 12.5t59 40.5zM526 625l-211 -528q-36 -89 -73 -114l-132 17l-7 42q49 0 108 29t79 79l14 34l-37 8l-175 433l-87 34l8 41h277l7 -41l-88 -34l126 -325v-39
l145 364l-87 34l7 41h206l8 -41z" />
    <glyph glyph-name="afii10145" unicode="&#x40f;" horiz-adv-x="782" 
d="M362 -174l-28 174h-285l-7 42l85 33v550l-87 34l8 42h265l7 -42l-87 -34v-583h316v583l-87 34l7 42h265l8 -42l-87 -34v-550l85 -33l-7 -42h-299l-28 -174h-44z" />
    <glyph glyph-name="afii10017" unicode="&#x410;" horiz-adv-x="738" 
d="M332 700l87 17l225 -642l86 -33l-8 -42h-272l-7 42l86 33l-56 161h-262l-57 -161l103 -33l-7 -42h-228l-7 42l86 33zM357 623l-130 -345h231l-101 294v51z" />
    <glyph glyph-name="afii10018" unicode="&#x411;" horiz-adv-x="626" 
d="M498 543l-45 115h-222v-616h69q84 0 126 47t42 126q0 75 -43 113t-119 38h-38v43h63q67 0 121.5 -17.5t93.5 -62.5t39 -114q0 -215 -243 -215h-296l-7 42l87 33v550l-87 34l7 41h494v-150z" />
    <glyph glyph-name="afii10019" unicode="&#x412;" horiz-adv-x="671" 
d="M228 658v-616h144q60 0 98.5 47t38.5 114t-45.5 115t-114.5 48h-79v42h45q52 0 88.5 36.5t36.5 88.5q0 56 -32 90.5t-101 34.5h-79zM401 0h-357l-8 42l86 33v550l-87 33l7 42h343q73 0 122.5 -46t49.5 -112q0 -56 -35 -99t-88 -55v-4q80 0 136 -56t56 -136
q0 -82 -61.5 -137t-163.5 -55z" />
    <glyph glyph-name="afii10020" unicode="&#x413;" horiz-adv-x="534" 
d="M220 659v-584l85 -33l-7 -42h-254l-7 42l85 33v550l-87 34l8 41h466v-177l-42 -7l-56 143h-191z" />
    <glyph glyph-name="afii10021" unicode="&#x414;" horiz-adv-x="692" 
d="M560 42h77v-209l-42 -7l-67 174h-405l-67 -174l-42 7v209h57q71 67 106.5 229.5t35.5 353.5l-87 34l7 41h506l8 -41l-87 -34v-583zM454 42v616h-188q0 -446 -125 -616h313z" />
    <glyph glyph-name="afii10022" unicode="&#x415;" horiz-adv-x="581" 
d="M444 658h-216v-265h122l31 84l42 -7v-197l-42 -7l-31 84h-122v-308h221l55 150l42 -7v-185h-502l-7 42l85 33v550l-87 33l8 42h485v-150l-42 -8z" />
    <glyph glyph-name="afii10024" unicode="&#x416;" horiz-adv-x="948" 
d="M737 0l8 42l-192 309v42l217 232l-87 34l7 41h231l7 -41l-29 -12q-57 -22 -100 -67l-184 -198l60 -31l173 -276l85 -33l-7 -42h-189zM204 42l7 -42h-189l-7 42l86 33l172 276l61 31l-184 198q-40 44 -101 67l-29 12l8 41h227l7 -41l-83 -34l216 -232v-42zM522 625v-550
l86 -33l-8 -42h-252l-7 42l86 33v550l-87 34l7 41h254l8 -41z" />
    <glyph glyph-name="afii10025" unicode="&#x417;" horiz-adv-x="540" 
d="M229 -17q-123 0 -205 59v143l42 7l48 -134q64 -26 115 -26q67 0 105 53t38 124q0 68 -39 112.5t-104 44.5h-57v43h28q52 0 94 41.5t42 93.5q0 55 -27.5 90t-80.5 35t-103 -19l-48 -134l-42 7v135q103 60 193 60q119 0 172.5 -44.5t53.5 -119.5q0 -63 -37 -103.5
t-98 -55.5v-9q71 -10 121 -61.5t50 -126.5q0 -40 -15.5 -76.5t-45.5 -68.5t-82 -51t-118 -19z" />
    <glyph glyph-name="afii10026" unicode="&#x418;" horiz-adv-x="825" 
d="M234 129v-54l86 -33l-8 -42h-262l-7 42l85 33v550l-87 34l8 41h265l8 -41l-88 -34v-404l357 360v44l-87 34l8 41h265l7 -41l-87 -34v-550l86 -33l-7 -42h-263l-7 42l85 33v414z" />
    <glyph glyph-name="afii10027" unicode="&#x419;" horiz-adv-x="825" 
d="M559 886l21 -23q-34 -41 -82 -68t-95 -27q-117 0 -171 76l53 55h39q17 -29 46.5 -47.5t65.5 -18.5q38 0 64 12.5t59 40.5zM234 129v-54l86 -33l-8 -42h-262l-7 42l85 33v550l-87 34l8 41h265l8 -41l-88 -34v-404l357 360v44l-87 34l8 41h265l7 -41l-87 -34v-550l86 -33
l-7 -42h-263l-7 42l85 33v414z" />
    <glyph glyph-name="afii10028" unicode="&#x41a;" horiz-adv-x="681" 
d="M228 625v-550l87 -32l-7 -43h-266l-7 43l87 32v550l-87 34l7 41h266l7 -42zM466 0l7 42l-203 303v42l233 238l-87 34l7 41h221l7 -41l-32 -13q-55 -22 -96 -63l-200 -204l73 -32l182 -271l87 -34l-8 -42h-191z" />
    <glyph glyph-name="afii10029" unicode="&#x41b;" horiz-adv-x="668" 
d="M269 467q0 -123 -27 -256t-77 -211h-148l-7 42q206 92 206 462v121l-87 34l7 41h484l8 -41l-87 -34v-550l85 -33l-7 -42h-263l-7 42l86 33v584h-166v-192z" />
    <glyph glyph-name="afii10030" unicode="&#x41c;" horiz-adv-x="951" 
d="M676 586l-221 -586l-49 -17l-196 580l-52 -488l85 -33l-7 -42h-199l-8 42l86 33l59 550l-87 33l7 42h181l176 -518v-73l222 591h186l8 -42l-87 -33l47 -550l85 -33l-7 -42h-263l-7 42l85 33z" />
    <glyph glyph-name="afii10031" unicode="&#x41d;" horiz-adv-x="803" 
d="M763 658l-87 -33v-550l85 -33l-7 -42h-264l-7 42l87 33v265h-337v-265l85 -33l-7 -42h-262l-8 42l86 33v550l-87 33l7 42h266l7 -42l-87 -33v-243h337v243l-87 33l7 42h266z" />
    <glyph glyph-name="afii10032" unicode="&#x41e;" 
d="M394 717q161 0 247 -102.5t86 -264.5q0 -80 -19 -145t-58 -115.5t-104 -78.5t-152 -28q-86 0 -152.5 31t-105 83.5t-57.5 116.5t-19 136q0 96 36 177.5t113.5 135.5t184.5 54zM394 668q-112 0 -164 -76t-52 -237q0 -163 52 -243t164 -80q216 0 216 323q0 158 -52.5 235.5
t-163.5 77.5z" />
    <glyph glyph-name="afii10033" unicode="&#x41f;" 
d="M554 75v583h-321v-583l85 -33l-7 -42h-262l-8 42l86 33v550l-87 34l7 41h692l8 -41l-87 -34v-550l85 -33l-7 -42h-262l-8 42z" />
    <glyph glyph-name="afii10034" unicode="&#x420;" horiz-adv-x="603" 
d="M229 658v-583l87 -33l-8 -42h-264l-7 42l86 33v550l-88 33l8 42h310q107 0 163.5 -57.5t56.5 -157.5q0 -109 -72 -158t-186 -49h-44v42h47q68 0 110 49.5t42 115.5q0 80 -36.5 126.5t-113.5 46.5h-91z" />
    <glyph glyph-name="afii10035" unicode="&#x421;" horiz-adv-x="652" 
d="M416 32q67 0 127 19l51 141l42 -7v-143q-37 -27 -97.5 -43t-122.5 -16q-94 0 -165 31t-111.5 84t-60 116t-19.5 136q0 71 22 135.5t64 117t112 83.5t158 31q118 0 220 -59v-136l-42 -7l-48 134q-67 19 -130 19q-121 0 -179.5 -76.5t-58.5 -236.5q0 -323 238 -323z" />
    <glyph glyph-name="afii10036" unicode="&#x422;" horiz-adv-x="652" 
d="M40 522v178h572v-178l-42 -7l-55 143h-136v-583l87 -33l-7 -42h-266l-7 42l87 33v583h-136l-55 -143z" />
    <glyph glyph-name="afii10037" unicode="&#x423;" horiz-adv-x="544" 
d="M526 625l-211 -528q-36 -89 -73 -114l-132 17l-7 42q49 0 108 29t79 79l14 34l-37 8l-175 433l-87 34l8 41h277l7 -41l-88 -34l126 -325v-39l145 364l-87 34l7 41h206l8 -41z" />
    <glyph glyph-name="afii10038" unicode="&#x424;" horiz-adv-x="879" 
d="M307 717h266l7 -41l-87 -34v-46q35 9 77 9q81 0 140.5 -37.5t86.5 -94t27 -123.5q0 -106 -63.5 -180t-190.5 -74q-40 0 -77 9v-30l85 -33l-7 -42h-262l-8 42l86 33v30q-37 -9 -78 -9q-126 0 -190 74t-64 180q0 104 67 179.5t187 75.5q43 0 78 -9v46l-87 34zM493 558v-415
q30 -5 50 -5q49 0 85.5 18.5t56 50t28.5 68t9 79.5q0 209 -179 209q-20 0 -50 -5zM387 143v415q-30 5 -51 5q-178 0 -178 -209q0 -92 42 -154t137 -62q20 0 50 5z" />
    <glyph glyph-name="afii10039" unicode="&#x425;" horiz-adv-x="671" 
d="M312 285l-161 -211l87 -33l-7 -41h-213l-7 41l85 34l192 248l-192 301l-86 33l8 43h285l7 -42l-87 -34l134 -210l162 210l-86 34l7 42h214l7 -42l-87 -34l-192 -249l191 -300l86 -33l-8 -42h-284l-7 41l86 34z" />
    <glyph glyph-name="afii10040" unicode="&#x426;" horiz-adv-x="782" 
d="M549 42v583l-87 34l7 42h265l8 -42l-87 -34v-583h87v-209l-42 -7l-68 174h-583l-7 42l85 33v550l-87 34l8 42h265l7 -42l-87 -34v-583h316z" />
    <glyph glyph-name="afii10041" unicode="&#x427;" horiz-adv-x="696" 
d="M213 626v-192q0 -52 33.5 -79.5t78.5 -27.5q34 0 74.5 11.5t63.5 24.5v262l-88 34l8 42h265l8 -42l-87 -34v-550l85 -33l-7 -42h-263l-7 42l86 33v236q-27 -13 -70.5 -22t-76.5 -9q-86 0 -147.5 43.5t-61.5 119.5v183l-87 33l8 41h265l7 -41z" />
    <glyph glyph-name="afii10042" unicode="&#x428;" horiz-adv-x="1064" 
d="M831 43v582l-87 34l7 42h265l8 -42l-87 -34v-550l85 -33l-7 -42h-970l-8 42l86 33v550l-87 34l7 42h265l8 -42l-87 -34v-582h248v582l-87 34l7 42h266l7 -42l-87 -34v-582h248z" />
    <glyph glyph-name="afii10043" unicode="&#x429;" horiz-adv-x="1064" 
d="M831 43v582l-87 34l7 42h266l7 -42l-87 -34v-583h87v-209l-42 -7l-67 174h-870l-8 42l86 33v550l-87 34l7 42h266l7 -42l-87 -34v-582h248v582l-87 34l7 42h266l7 -42l-87 -34v-582h248z" />
    <glyph glyph-name="afii10044" unicode="&#x42a;" horiz-adv-x="664" 
d="M175 75v583h-78l-45 -115l-42 7v150h350l8 -41l-87 -34v-583h57q83 0 125.5 49.5t42.5 128.5q0 76 -43 116.5t-118 40.5h-28v42h53q48 0 91.5 -11t81 -33.5t59.5 -62.5t22 -92q0 -99 -56 -159.5t-187 -60.5h-284l-8 42z" />
    <glyph glyph-name="afii10045" unicode="&#x42b;" horiz-adv-x="901" 
d="M122 75v550l-87 34l7 41h266l7 -41l-87 -34v-583h58q83 0 125 47t42 126q0 75 -42.5 113t-118.5 38h-27v43h52q67 0 121.5 -17.5t93.5 -62.5t39 -114q0 -215 -243 -215h-284l-7 42zM779 75v550l87 34l-7 41h-266l-7 -41l87 -34v-550l-87 -33l7 -42h266l7 42z" />
    <glyph glyph-name="afii10046" unicode="&#x42c;" horiz-adv-x="611" 
d="M122 75v550l-87 34l7 41h265l8 -41l-87 -34v-583h58q83 0 125 49.5t42 128.5q0 76 -43 116.5t-118 40.5h-28v42h53q48 0 91.5 -11t81 -33.5t59.5 -62.5t22 -92q0 -99 -56 -159.5t-187 -60.5h-286l-6 42z" />
    <glyph glyph-name="afii10047" unicode="&#x42d;" horiz-adv-x="666" 
d="M260 32q69 0 118.5 26.5t76.5 72.5t39.5 97.5t13.5 111.5h-162l-33 -84l-41 7v197l41 7l33 -84h162q-10 285 -248 285q-69 0 -130 -19l-48 -133l-42 7v135q104 60 220 60q88 0 159.5 -31t115.5 -83.5t67.5 -117.5t23.5 -136q0 -72 -21 -135.5t-63.5 -116.5t-115 -84
t-166.5 -31q-62 0 -122 16.5t-98 43.5v142l42 7l51 -140q58 -20 127 -20z" />
    <glyph glyph-name="afii10048" unicode="&#x42e;" horiz-adv-x="1043" 
d="M686 718q108 0 180.5 -49.5t104.5 -130t32 -188.5q0 -81 -16.5 -145t-52.5 -115.5t-98.5 -79t-149.5 -27.5q-68 0 -122 20t-89.5 53t-59.5 79.5t-34.5 96.5t-11.5 106h-136v-263l87 -33l-7 -42h-265l-8 42l87 33v550l-87 34l8 41h265l7 -42l-87 -33v-246h136
q8 143 88.5 241t228.5 98zM686 668q-110 0 -155 -74t-45 -238q0 -166 45 -244.5t155 -78.5t155 79.5t45 243.5q0 161 -45.5 236.5t-154.5 75.5z" />
    <glyph glyph-name="afii10049" unicode="&#x42f;" horiz-adv-x="640" 
d="M425 75v584h-86q-78 0 -117 -42.5t-39 -113.5q0 -55 47 -97t116 -42h36v-42l-178 -280l7 -41h-194l-7 41l90 33l130 213l73 34q-90 0 -156 48t-66 133q0 92 56.5 144.5t163.5 52.5h309l8 -42l-87 -33v-550l87 -33l-8 -42h-265l-7 42z" />
    <glyph glyph-name="afii10065" unicode="&#x430;" horiz-adv-x="480" 
d="M69 359v83q72 36 148 36q92 0 140 -47.5t48 -136.5v-237l65 -21l-7 -36h-133l-17 36q-33 -26 -60 -36.5t-75 -10.5q-66 0 -107.5 34.5t-41.5 97.5q0 162 282 162v53q0 52 -27 78.5t-73 26.5q-51 0 -85 -12l-21 -77zM311 91v156q-176 0 -176 -116q0 -50 24 -72.5t59 -22.5
q61 0 93 55z" />
    <glyph glyph-name="afii10066" unicode="&#x431;" horiz-adv-x="518" 
d="M259 441q-61 0 -95 -57t-34 -147q0 -91 34 -151t95 -60q60 0 89 58t29 153q0 93 -29 148.5t-89 55.5zM259 478q108 0 166 -66.5t58 -177.5t-58 -178t-166 -67t-166 69t-58 184q0 66 2.5 111t11.5 98t25 88.5t45.5 67.5t71.5 50q45 19 100 29t81.5 21t38.5 41h36
q-7 -83 -44 -113t-149 -57q-102 -24 -138 -100l-21 -103q23 49 67.5 76t96.5 27z" />
    <glyph glyph-name="afii10067" unicode="&#x432;" horiz-adv-x="521" 
d="M233 239v37h14q35 0 59 23t24 57t-24 54.5t-59 20.5h-56v-395h79q44 0 75 28t31 71q0 44 -31 74t-75 30h-37zM352 0h-313l-8 36l66 21v353l-67 21l7 36h292q44 0 75 -30.5t31 -74.5q0 -37 -23.5 -66t-59.5 -37q53 -2 91 -40t38 -91t-38 -90.5t-91 -37.5z" />
    <glyph glyph-name="afii10068" unicode="&#x433;" horiz-adv-x="403" 
d="M191 431v-374l65 -21l-7 -36h-210l-7 36l65 21v353l-67 21l7 36h346v-108l-37 -7l-24 79h-131z" />
    <glyph glyph-name="afii10069" unicode="&#x434;" horiz-adv-x="521" 
d="M414 36h56v-161l-36 -5l-41 130h-306l-40 -130l-37 7v159h44q46 45 69 147t23 227l-67 21l7 36h388l7 -36l-67 -21v-374zM320 36v395h-130v-20q0 -264 -83 -375h213z" />
    <glyph glyph-name="afii10070" unicode="&#x435;" horiz-adv-x="518" 
d="M148 283h234q7 23 7 46q0 55 -27.5 83.5t-79.5 28.5q-120 0 -134 -158zM306 36q72 0 143 45l23 -33q-65 -59 -172 -59q-129 0 -194.5 65t-65.5 180q0 113 67.5 178.5t174.5 65.5q88 0 144.5 -43t56.5 -114q0 -38 -17 -74h-320v-5q0 -94 41 -150t119 -56z" />
    <glyph glyph-name="afii10072" unicode="&#x436;" horiz-adv-x="737" 
d="M445 232l-35 15v-190l65 -21l-7 -36h-200l-7 36l66 21v190l-35 -15l-116 -196l7 -36h-166l-7 36l66 21l109 184l59 31l-104 105q-32 32 -78 47l-23 7l8 36h170l8 -36l-68 -21l133 -132h37v131l-59 22l5 36h190l5 -36l-58 -22v-131h37l133 132l-68 21l8 36h170l8 -36
l-23 -7q-46 -15 -78 -47l-104 -105l59 -31l109 -184l66 -21l-7 -36h-166l7 36z" />
    <glyph glyph-name="afii10073" unicode="&#x437;" horiz-adv-x="397" 
d="M178 -11q-78 0 -153 37v106l37 7l27 -97q37 -16 78 -16q46 0 71.5 31.5t25.5 79.5q0 44 -29 73t-74 29h-30v36h19q34 0 62 27t28 61q0 38 -21 58t-54 20q-41 0 -78 -17l-20 -72l-36 7v82q74 37 148 37q72 0 113.5 -31t41.5 -78q0 -84 -84 -105v-6q47 -6 77.5 -39
t30.5 -86q0 -59 -47 -101.5t-133 -42.5z" />
    <glyph glyph-name="afii10074" unicode="&#x438;" horiz-adv-x="630" 
d="M196 97v-40l65 -21l-8 -36h-209l-7 36l65 21v353l-67 21l7 36h214l8 -36l-68 -21v-263l238 232v31l-67 21l7 36h214l7 -36l-67 -21v-353l65 -21l-7 -36h-211l-8 36l67 21v272z" />
    <glyph glyph-name="afii10075" unicode="&#x439;" horiz-adv-x="630" 
d="M196 97v-40l65 -21l-8 -36h-209l-7 36l65 21v353l-67 21l7 36h214l8 -36l-68 -21v-263l238 232v31l-67 21l7 36h214l7 -36l-67 -21v-353l65 -21l-7 -36h-211l-8 36l67 21v272zM479 693l21 -23q-34 -41 -82 -68t-95 -27q-117 0 -171 76l53 55h39q17 -29 46.5 -47.5
t65.5 -18.5q38 0 64 12.5t59 40.5z" />
    <glyph glyph-name="afii10076" unicode="&#x43a;" horiz-adv-x="510" 
d="M171 57l65 -21l-7 -36h-210l-7 36l65 21v374h-61l-6 35l116 12l45 -12v-409zM334 36l-7 -36h165l8 36l-66 21l-119 171l-71 19l137 131q33 32 77 45l26 8l-8 36h-179l-7 -36l71 -21l-158 -152v-34z" />
    <glyph glyph-name="afii10077" unicode="&#x43b;" horiz-adv-x="504" 
d="M197 311q0 -72 -19 -166t-52 -145h-109l-7 36q43 14 74 46t47.5 75t23.5 87t7 92v74l-67 21l7 36h359l8 -36l-67 -21v-353l65 -21l-7 -36h-210l-7 36l65 21v374h-111v-120z" />
    <glyph glyph-name="afii10078" unicode="&#x43c;" horiz-adv-x="711" 
d="M487 366l-130 -366l-54 -11l-134 366l-38 -298l66 -21l-8 -36h-152l-7 36l65 21l43 353l-67 21l7 36h152l115 -309v-85l138 394h154l8 -36l-67 -21l36 -353l65 -21l-7 -36h-211l-7 36l65 21z" />
    <glyph glyph-name="afii10079" unicode="&#x43d;" horiz-adv-x="625" 
d="M429 265v145l-67 21l7 36h214l7 -36l-67 -21v-353l65 -21l-7 -36h-211l-7 36l66 21v172h-233v-172l65 -21l-8 -36h-209l-7 36l65 21v353l-67 21l7 36h214l8 -36l-68 -21v-145h233z" />
    <glyph glyph-name="afii10080" unicode="&#x43e;" horiz-adv-x="550" 
d="M275 478q111 0 173 -64.5t62 -179.5q0 -118 -59 -181.5t-176 -63.5q-116 0 -175.5 65t-59.5 180q0 113 62.5 178.5t172.5 65.5zM275 441q-63 0 -100.5 -55t-37.5 -149q0 -95 37.5 -153t100.5 -58q64 0 101.5 57.5t37.5 153.5q0 95 -37.5 149.5t-101.5 54.5z" />
    <glyph glyph-name="afii10081" unicode="&#x43f;" horiz-adv-x="593" 
d="M42 467h509l7 -36l-67 -21v-353l65 -21l-7 -36h-211l-7 36l66 21v374h-201v-374l65 -21l-7 -36h-210l-7 36l65 21v353l-67 21z" />
    <glyph glyph-name="afii10082" unicode="&#x440;" horiz-adv-x="552" 
d="M204 0v37h42q63 0 111.5 60.5t48.5 157.5t-29 136.5t-87 39.5q-42 0 -118 -27v-586l66 -21l-8 -36h-209l-8 36l65 21v613h-60l-8 36l121 11l41 -37q67 37 127 37q109 0 161 -57t52 -173q0 -111 -74 -179.5t-190 -68.5h-44z" />
    <glyph glyph-name="afii10083" unicode="&#x441;" horiz-adv-x="478" 
d="M300 441q-75 0 -115 -49.5t-40 -138.5q0 -101 34.5 -159t121.5 -58q61 0 132 45l23 -33q-65 -59 -161 -59q-129 0 -192 64.5t-63 179.5t69.5 180t187.5 65q74 0 146 -36v-83l-36 -7l-19 72q-42 17 -88 17z" />
    <glyph glyph-name="afii10084" unicode="&#x442;" horiz-adv-x="452" 
d="M376 431h-105v-374l64 -21l-7 -36h-210l-7 36l65 21v374h-105l-24 -79l-37 7v108h427v-108l-37 -7z" />
    <glyph glyph-name="afii10085" unicode="&#x443;" horiz-adv-x="577" 
d="M497 411l-181 -517q-14 -39 -39.5 -84t-47.5 -60l-119 10l-8 37q30 5 46.5 9.5t45 17.5t50 39t36.5 65l23 61l-44 11l-174 410l-67 21l8 36h238l7 -36l-85 -21l142 -330v-23l123 353l-75 21l7 36h172l7 -36z" />
    <glyph glyph-name="afii10086" unicode="&#x444;" horiz-adv-x="708" 
d="M307 36v395q-69 0 -114.5 -48t-45.5 -146t46 -149.5t114 -51.5zM307 -182v171q-124 0 -195.5 61.5t-71.5 183.5q0 119 74 176t193 57v233h-50l-6 36l105 11l45 -11v-269q119 0 193 -57t74 -176q0 -122 -71.5 -183.5t-195.5 -61.5v-171l65 -21l-7 -36h-210l-7 36zM401 431
v-395q68 0 114 51.5t46 149.5t-45.5 146t-114.5 48z" />
    <glyph glyph-name="afii10087" unicode="&#x445;" horiz-adv-x="519" 
d="M509 431l-65 -21l-142 -159l134 -194l67 -21l-8 -36h-231l-7 36l65 21l-85 124l-112 -124l65 -21l-7 -36h-165l-8 37l66 20l139 155l-136 198l-65 21l7 36h230l7 -36l-64 -21l86 -126l114 126l-74 21l11 36h171z" />
    <glyph glyph-name="afii10088" unicode="&#x446;" horiz-adv-x="595" 
d="M491 36h67v-159l-37 -7l-40 130h-439l-7 36l67 22v352l-65 21l7 36h209l8 -36l-65 -21v-374h201v374l-67 21l8 36h211l7 -36l-65 -21v-374z" />
    <glyph glyph-name="afii10089" unicode="&#x447;" horiz-adv-x="539" 
d="M344 410l-65 21l8 36h209l8 -36l-66 -21v-352l65 -22l-7 -36h-210l-7 36l65 22v137q-55 -29 -108 -29q-81 0 -123.5 41t-42.5 120v83l-65 21l7 36h210l8 -36l-65 -21v-103q0 -100 79 -100q64 0 100 24v179z" />
    <glyph glyph-name="afii10090" unicode="&#x448;" horiz-adv-x="820" 
d="M778 0h-736l-7 36l67 22v352l-65 21l7 36h210l7 -36l-65 -21v-374h169v374l-66 21l7 36h210l8 -36l-65 -21v-374h165v374l-66 21l7 36h211l8 -36l-66 -21v-353l67 -21z" />
    <glyph glyph-name="afii10091" unicode="&#x449;" horiz-adv-x="818" 
d="M699 0h-657l-7 36l67 22v352l-66 21l7 36h210l8 -36l-65 -21v-374h168v374l-65 21l7 36h210l7 -36l-64 -21v-374h165v374l-66 21l7 36h211l7 -36l-65 -21v-374h58v-159l-36 -7z" />
    <glyph glyph-name="afii10092" unicode="&#x44a;" horiz-adv-x="539" 
d="M279 276h46q29 0 58 -6.5t57.5 -21.5t46 -44.5t17.5 -69.5q0 -53 -40 -93.5t-93 -40.5h-287l-7 37l65 20v374h-68l-25 -79l-36 7v108h283l7 -36l-67 -21v-374h66q43 0 70.5 30t27.5 75q0 44 -27 71.5t-71 27.5h-23v36z" />
    <glyph glyph-name="afii10093" unicode="&#x44b;" horiz-adv-x="728" 
d="M282 276q30 0 58.5 -6.5t57.5 -21.5t46.5 -44.5t17.5 -69.5q0 -53 -40.5 -93.5t-93.5 -40.5h-284l-7 37l65 20v353l-67 21l8 36h213l7 -36l-67 -21v-374h63q44 0 71 30t27 75q0 44 -27 71.5t-71 27.5h-20v36h43zM534 58v352l-65 21l7 36h210l7 -36l-65 -21v-352l65 -22
l-7 -36h-210l-7 36z" />
    <glyph glyph-name="afii10094" unicode="&#x44c;" horiz-adv-x="500" 
d="M290 276q30 0 58 -6.5t55.5 -21.5t44.5 -44.5t17 -69.5q0 -54 -38 -94t-90 -40h-292l-8 37l65 20v353l-67 21l8 36h213l7 -36l-67 -21v-374h66q44 0 71 30t27 75q0 44 -27 71.5t-71 27.5h-23v36h51z" />
    <glyph glyph-name="afii10095" unicode="&#x44d;" horiz-adv-x="473" 
d="M156 219v39h172q-2 86 -42 134.5t-112 48.5q-42 0 -88 -17l-19 -72l-37 7v83q73 36 147 36q118 0 187 -65t69 -180t-63 -179.5t-192 -64.5q-69 0 -148 37v106l37 7l27 -97q37 -16 76 -16q146 0 157 193h-171z" />
    <glyph glyph-name="afii10096" unicode="&#x44e;" horiz-adv-x="803" 
d="M100 58v352l-65 21l8 36h209l8 -36l-66 -21v-152h115q6 103 64.5 161.5t162.5 58.5q110 0 168.5 -64t58.5 -180q0 -244 -227 -244q-112 0 -168 60t-59 169h-115v-161l65 -22l-7 -36h-210l-7 36zM536 441q-120 0 -120 -204q0 -211 120 -211q121 0 121 211q0 204 -121 204z
" />
    <glyph glyph-name="afii10097" unicode="&#x44f;" horiz-adv-x="508" 
d="M286 227v-32l-109 -159l7 -36h-161l-8 37l65 21l80 120l45 23q-55 5 -96.5 40t-41.5 88q0 62 38 100t109 38h251l8 -36l-61 -22v-351l59 -22l-6 -36h-200l-4 36l57 22v373h-46q-52 0 -77.5 -28.5t-25.5 -74.5q0 -38 31.5 -69.5t76.5 -31.5h9z" />
    <glyph glyph-name="uni0450" unicode="&#x450;" horiz-adv-x="518" 
d="M382 283h-234q14 158 134 158q52 0 79.5 -28.5t27.5 -83.5q0 -23 -7 -46zM306 36q-78 0 -119 56t-41 150v5h320q17 36 17 74q0 71 -56.5 114t-144.5 43q-107 0 -174.5 -65.5t-67.5 -178.5q0 -115 65.5 -180t194.5 -65q107 0 172 59l-23 33q-71 -45 -143 -45zM255 735
l68 -160l-20 -10l-137 160z" />
    <glyph glyph-name="afii10071" unicode="&#x451;" horiz-adv-x="518" 
d="M365 697q22 0 38 -16t16 -38t-16 -38t-38 -16q-23 0 -38.5 15.5t-15.5 38.5t15.5 38.5t38.5 15.5zM186 697q22 0 38 -15.5t16 -38.5t-16 -38.5t-38 -15.5t-38 16t-16 38t16 38t38 16zM148 283h234q7 23 7 46q0 55 -27.5 83.5t-79.5 28.5q-120 0 -134 -158zM306 36
q72 0 143 45l23 -33q-65 -59 -172 -59q-129 0 -194.5 65t-65.5 180q0 113 67.5 178.5t174.5 65.5q88 0 144.5 -43t56.5 -114q0 -38 -17 -74h-320v-5q0 -94 41 -150t119 -56z" />
    <glyph glyph-name="afii10099" unicode="&#x452;" horiz-adv-x="549" 
d="M257 -250l-22 37q94 63 133 169t39 263q0 116 -29.5 164t-87.5 48q-57 0 -111 -27v-347l65 -21l-7 -36h-210l-7 36l65 21v512h-69v42h69v89h-61l-8 36l118 11l45 -11v-125h179v-42h-179v-123q61 32 119 32q106 0 158.5 -72.5t52.5 -197.5q0 -67 -14.5 -136.5
t-43.5 -135.5t-79.5 -116.5t-114.5 -69.5z" />
    <glyph glyph-name="afii10100" unicode="&#x453;" horiz-adv-x="403" 
d="M191 431v-374l65 -21l-7 -36h-210l-7 36l65 21v353l-67 21l7 36h346v-108l-37 -7l-24 79h-131zM155 575l68 160l89 -10l-137 -160z" />
    <glyph glyph-name="afii10101" unicode="&#x454;" horiz-adv-x="495" 
d="M295 -11q-129 0 -192 64.5t-63 179.5t69 180t187 65q74 0 147 -36v-83l-37 -7l-19 72q-46 17 -88 17q-72 0 -112 -48.5t-42 -134.5h172v-39h-171q5 -86 40 -134.5t116 -48.5q60 0 131 45l23 -33q-65 -59 -161 -59z" />
    <glyph glyph-name="afii10102" unicode="&#x455;" horiz-adv-x="415" 
d="M193 -11q-78 0 -153 37v106l37 7l33 -97q44 -16 75 -16q49 0 79.5 21t30.5 56q0 10 -3.5 19t-12.5 17.5t-15.5 14.5t-22 13.5t-22.5 11t-26 12t-24 10.5q-30 14 -49 25t-39 28.5t-29.5 40t-9.5 50.5q0 61 49 97t131 36q63 0 133 -36v-83l-36 -7l-20 72q-34 17 -88 17
q-40 0 -65 -19.5t-25 -50.5q0 -16 9 -29.5t28 -25.5t32 -18t38 -17q35 -15 54.5 -25t44.5 -28.5t36.5 -43t11.5 -55.5q0 -65 -48 -102.5t-134 -37.5z" />
    <glyph glyph-name="afii10103" unicode="&#x456;" horiz-adv-x="305" 
d="M200 57l65 -21l-8 -36h-209l-8 36l66 21v374h-51l-7 36l106 11l46 -11v-410zM150 697q22 0 38 -16t16 -38t-16 -38t-38 -16t-38 15.5t-16 38.5t16 38.5t38 15.5z" />
    <glyph glyph-name="afii10104" unicode="&#x457;" horiz-adv-x="305" 
d="M200 57l65 -21l-8 -36h-209l-8 36l66 21v374h-51l-7 36l103 11l49 -11v-410zM234 697q22 0 38 -16t16 -38t-16 -38t-38 -16t-38 15.5t-16 38.5t16 38.5t38 15.5zM55 697q23 0 38.5 -15.5t15.5 -38.5t-15.5 -38.5t-38.5 -15.5q-22 0 -38 16t-16 38t16 38t38 16z" />
    <glyph glyph-name="afii10105" unicode="&#x458;" horiz-adv-x="279" 
d="M37 467l118 11l45 -11v-385q0 -46 -5 -83t-19.5 -76t-38.5 -70t-64.5 -58t-95.5 -45l-22 37q94 63 122.5 135t28.5 177v332h-61zM150 697q22 0 38 -16t16 -38t-16 -38t-38 -16t-38 15.5t-16 38.5t16 38.5t38 15.5z" />
    <glyph glyph-name="afii10106" unicode="&#x459;" horiz-adv-x="714" 
d="M504 276q30 0 58 -6.5t55.5 -21.5t44.5 -44.5t17 -69.5q0 -54 -38 -94t-90 -40h-294l-7 36l65 21v374h-118v-120q0 -72 -19 -166t-52 -145h-109l-7 36q43 14 74 46t47.5 75t23.5 87t7 92v74l-67 21l7 36h366l8 -36l-67 -21v-374h67q44 0 71 30t27 75q0 44 -27 71.5
t-71 27.5h-24v36h52z" />
    <glyph glyph-name="afii10107" unicode="&#x45a;" horiz-adv-x="822" 
d="M617 267q31 0 58 -5.5t55.5 -18.5t45 -41t16.5 -68q0 -54 -38 -94t-90 -40h-294l-7 36l66 21v173h-233v-173l65 -21l-8 -36h-209l-7 36l65 21v353l-67 21l7 36h214l8 -36l-68 -21v-144h233v144l-67 21l7 36h214l7 -36l-67 -21v-374h66q44 0 71 30t27 75q0 43 -26.5 66.5
t-71.5 23.5h-23v36h51z" />
    <glyph glyph-name="afii10108" unicode="&#x45b;" horiz-adv-x="575" 
d="M16 569v42h69v89h-61l-8 36l118 11l45 -11v-125h198v-42h-198v-123q61 32 119 32q83 0 132.5 -43t49.5 -121v-257l65 -21l-7 -36h-151l-7 36v293q0 47 -25 74.5t-65 27.5q-50 0 -111 -27v-347l65 -21l-7 -36h-210l-7 36l65 21v512h-69z" />
    <glyph glyph-name="afii10109" unicode="&#x45c;" horiz-adv-x="505" 
d="M171 57l65 -21l-7 -36h-210l-7 36l65 21v374h-61l-6 35l116 12l45 -12v-409zM327 0l7 36l-131 188v34l158 152l-71 21l7 36h179l8 -36l-26 -8q-44 -13 -77 -45l-137 -131l71 -19l119 -171l66 -21l-8 -36h-165zM207 575l68 160l89 -10l-137 -160z" />
    <glyph glyph-name="uni045D" unicode="&#x45d;" horiz-adv-x="630" 
d="M196 57v40l238 232v-272l-67 -21l8 -36h211l7 36l-65 21v353l67 21l-7 36h-214l-7 -36l67 -21v-31l-238 -232v263l68 21l-8 36h-214l-7 -36l67 -21v-353l-65 -21l7 -36h209l8 36zM273 735l68 -160l-20 -10l-137 160z" />
    <glyph glyph-name="afii10110" unicode="&#x45e;" horiz-adv-x="577" 
d="M439 693l21 -23q-34 -41 -82 -68t-95 -27q-117 0 -171 76l53 55h39q17 -29 46.5 -47.5t65.5 -18.5q38 0 64 12.5t59 40.5zM497 411l-181 -517q-14 -39 -39.5 -84t-47.5 -60l-119 10l-8 37q30 5 46.5 9.5t45 17.5t50 39t36.5 65l23 61l-44 11l-174 410l-67 21l8 36h238
l7 -36l-85 -21l142 -330v-23l123 353l-75 21l7 36h172l7 -36z" />
    <glyph glyph-name="afii10193" unicode="&#x45f;" horiz-adv-x="593" 
d="M256 0h-214l-7 36l67 22v352l-65 21l7 36h209l8 -36l-65 -21v-374h201v374l-67 21l8 36h211l7 -36l-65 -21v-352l67 -22l-7 -36h-211l-20 -130h-44z" />
    <glyph glyph-name="afii10146" unicode="&#x462;" horiz-adv-x="691" 
d="M10 446v148h192v48l-87 34l7 41h265l8 -41l-87 -34v-48h214v-148l-42 -7l-43 113h-129v-510h58q167 0 167 160q0 139 -161 139h-28v42h53q40 0 74 -4.5t68 -17t58 -32.5t39 -52.5t15 -74.5q0 -96 -55 -149t-188 -53h-286l-6 42l86 33v477h-107l-43 -113z" />
    <glyph glyph-name="afii10194" unicode="&#x463;" horiz-adv-x="571" 
d="M376 431h-109v-395h66q44 0 71 30t27 75q0 44 -27 71.5t-71 27.5h-23v36h51q30 0 58 -6.5t55.5 -21.5t44.5 -44.5t17 -69.5q0 -54 -38 -94t-90 -40h-292l-8 37l65 20v374h-102l-24 -79l-37 7v108h163v233h-61l-6 36l116 11l45 -11v-269h170v-108l-37 -7z" />
    <glyph glyph-name="afii10147" unicode="&#x472;" 
d="M394 717q161 0 247 -102.5t86 -264.5q0 -80 -19 -145t-58 -115.5t-104 -78.5t-152 -28q-86 0 -152.5 31t-105 83.5t-57.5 116.5t-19 136q0 96 36 177.5t113.5 135.5t184.5 54zM394 668q-112 0 -164 -76t-52 -237v-13q52 57 131 57q35 0 109 -25.5t106 -25.5q44 0 85 32
q-4 145 -56.5 216.5t-158.5 71.5zM276 337q-53 0 -97 -38q8 -133 60.5 -200t154.5 -67q207 0 215 297q-49 -47 -116 -47q-41 0 -112.5 27.5t-104.5 27.5z" />
    <glyph glyph-name="afii10195" unicode="&#x473;" horiz-adv-x="550" 
d="M275 478q111 0 173 -64.5t62 -179.5q0 -118 -59 -181.5t-176 -63.5q-116 0 -175.5 65t-59.5 180q0 113 62.5 178.5t172.5 65.5zM275 441q-63 0 -100.5 -55t-37.5 -149v-4q38 43 90 43q22 0 65.5 -21.5t63.5 -21.5q24 0 57 26q-4 85 -41 133.5t-97 48.5zM206 232
q-37 0 -68 -29q7 -80 43.5 -128.5t93.5 -48.5q61 0 98.5 54t40.5 144q-39 -39 -78 -39q-26 0 -67.5 23.5t-62.5 23.5z" />
    <glyph glyph-name="afii10148" unicode="&#x474;" horiz-adv-x="699" 
d="M593 602l-214 -602l-52 -17l-234 642l-88 33l8 42h272l8 -42l-87 -33l167 -458v-60l186 523q16 44 53 65.5t74 21.5l8 -42q-3 0 -8 -0.5t-19.5 -4.5t-27 -10.5t-26 -22t-20.5 -35.5z" />
    <glyph glyph-name="afii10196" unicode="&#x475;" horiz-adv-x="560" 
d="M466 386l-145 -386l-68 -11l-168 421l-65 21l8 36h216l7 -36l-64 -21l117 -295v-58l126 335q14 39 44.5 59.5t62.5 26.5l8 -36q-25 -4 -48 -20t-31 -36z" />
    <glyph glyph-name="afii10050" unicode="&#x490;" horiz-adv-x="511" 
d="M511 659h-289v-584l85 -33l-7 -42h-256l-7 42l85 33v550l-87 34l8 41h370l56 143l42 -7v-177z" />
    <glyph glyph-name="afii10098" unicode="&#x491;" horiz-adv-x="393" 
d="M373 431h-182v-374l65 -21l-7 -36h-210l-7 36l65 21v353l-67 21l7 36h275l24 79l37 -7v-108z" />
    <glyph glyph-name="uni0492" unicode="&#x492;" horiz-adv-x="534" 
d="M220 659v-289h172v-42h-172v-253l85 -33l-7 -42h-254l-7 42l85 33v253h-87v42h87v255l-87 34l8 41h466v-177l-42 -7l-56 143h-191z" />
    <glyph glyph-name="uni0493" unicode="&#x493;" horiz-adv-x="403" 
d="M191 431v-151h120v-42h-120v-181l65 -21l-7 -36h-210l-7 36l65 21v181h-67v42h67v130l-67 21l7 36h346v-108l-37 -7l-24 79h-131z" />
    <glyph glyph-name="uni0496" unicode="&#x496;" horiz-adv-x="948" 
d="M933 42v-209l-42 -7l-68 174h-86l8 42l-192 309v42l217 232l-87 34l7 41h231l7 -41l-29 -12q-57 -22 -100 -67l-184 -198l60 -31l173 -276zM522 625v-550l86 -33l-8 -42h-252l-7 42l86 33v550l-87 34l7 41h254l8 -41zM204 42l7 -42h-189l-7 42l86 33l172 276l61 31
l-184 198q-40 44 -101 67l-29 12l8 41h227l7 -41l-83 -34l216 -232v-42z" />
    <glyph glyph-name="uni0497" unicode="&#x497;" horiz-adv-x="737" 
d="M445 232l-35 15v-190l65 -21l-7 -36h-200l-7 36l66 21v190l-35 -15l-116 -196l7 -36h-166l-7 36l66 21l109 184l59 31l-104 105q-32 32 -78 47l-23 7l8 36h170l8 -36l-68 -21l133 -132h37v131l-59 22l5 36h190l5 -36l-58 -22v-131h37l133 132l-68 21l8 36h170l8 -36
l-23 -7q-46 -15 -78 -47l-104 -105l59 -31l109 -184l66 -21v-159l-37 -7l-40 130h-96l7 36z" />
    <glyph glyph-name="uni0498" unicode="&#x498;" horiz-adv-x="540" 
d="M229 -17q-10 0 -28 2v-31q34 0 60.5 -19t26.5 -55q0 -31 -14.5 -52.5t-39 -31t-47 -13.5t-47.5 -4v29q41 0 64.5 18t23.5 47q0 20 -13.5 29t-30.5 9h-19v77q-88 14 -141 54v143l42 7l48 -134q64 -26 115 -26q67 0 105 53t38 124q0 68 -39 112.5t-104 44.5h-57v43h28
q52 0 94 41.5t42 93.5q0 55 -27.5 90t-80.5 35t-103 -19l-48 -134l-42 7v135q103 60 193 60q119 0 172.5 -44.5t53.5 -119.5q0 -63 -37 -103.5t-98 -55.5v-9q71 -10 121 -61.5t50 -126.5q0 -40 -15.5 -76.5t-45.5 -68.5t-82 -51t-118 -19z" />
    <glyph glyph-name="uni0499" unicode="&#x499;" horiz-adv-x="397" 
d="M166 -89h-19v80q-65 7 -122 35v106l37 7l27 -97q37 -16 78 -16q46 0 71.5 31.5t25.5 79.5q0 44 -29 73t-74 29h-30v36h19q34 0 62 27t28 61q0 38 -21 58t-54 20q-41 0 -78 -17l-20 -72l-36 7v82q74 37 148 37q72 0 113.5 -31t41.5 -78q0 -84 -84 -105v-6q47 -6 77.5 -39
t30.5 -86q0 -58 -45.5 -100.5t-129.5 -43.5v-35q34 0 60.5 -19t26.5 -55q0 -31 -14.5 -52.5t-39 -31t-47 -13.5t-47.5 -4v29q41 0 64.5 18t23.5 47q0 20 -13.5 29t-30.5 9z" />
    <glyph glyph-name="uni049A" unicode="&#x49a;" horiz-adv-x="681" 
d="M228 625v-550l87 -32l-7 -43h-266l-7 43l87 32v550l-87 34l7 41h266l7 -42zM466 0l7 42l-203 303v42l233 238l-87 34l7 41h221l7 -41l-32 -13q-55 -22 -96 -63l-200 -204l73 -32l182 -271l87 -34v-209l-42 -7l-68 174h-89z" />
    <glyph glyph-name="uni049B" unicode="&#x49b;" horiz-adv-x="505" 
d="M329 36l-7 -36h96l40 -130l37 7v159l-66 21l-119 171l-71 19l137 131q33 32 77 45l26 8l-8 36h-179l-7 -36l71 -21l-158 -152v-34zM166 57l65 -21l-7 -36h-210l-7 36l65 21v374h-61l-6 35l116 12l45 -12v-409z" />
    <glyph glyph-name="uni049C" unicode="&#x49c;" horiz-adv-x="706" 
d="M499 42l-187 279v-151h-42v391h42v-158l217 222l-87 34l7 41h221l7 -41l-32 -13q-55 -22 -96 -63l-200 -204l73 -32l182 -271l87 -34l-8 -42h-191zM228 625v-550l87 -32l-7 -43h-266l-7 43l87 32v550l-87 34l7 41h266l7 -42z" />
    <glyph glyph-name="uni049D" unicode="&#x49d;" horiz-adv-x="551" 
d="M246 401v-141l156 150l-71 21l7 36h179l8 -36l-26 -8q-44 -13 -77 -45l-137 -131l71 -19l119 -171l66 -21l-8 -36h-165l7 36l-129 185v-119h-48v299h48zM166 57l65 -21l-7 -36h-210l-7 36l65 21v374h-61l-6 35l116 12l45 -12v-409z" />
    <glyph glyph-name="uni04A0" unicode="&#x4a0;" horiz-adv-x="728" 
d="M175 75v583h-78l-45 -115l-42 7v150h351l7 -41l-87 -34v-550l87 -32l-7 -43h-266l-7 43zM519 0l7 42l-203 303v42l233 238l-87 34l7 41h221l7 -41l-32 -13q-55 -22 -96 -63l-200 -204l73 -32l182 -271l87 -34l-8 -42h-191z" />
    <glyph glyph-name="uni04A1" unicode="&#x4a1;" horiz-adv-x="565" 
d="M226 467v-410l65 -21l-7 -36h-210l-7 36l65 21v374h-58l-25 -79l-36 7v108h213zM382 0l7 36l-131 188v34l158 152l-71 21l7 36h179l8 -36l-26 -8q-44 -13 -77 -45l-137 -131l71 -19l119 -171l66 -21l-8 -36h-165z" />
    <glyph glyph-name="uni04A2" unicode="&#x4a2;" horiz-adv-x="803" 
d="M763 658l-87 -33v-550l85 -33v-209l-42 -7l-68 174h-161l-7 42l87 33v265h-337v-265l85 -33l-7 -42h-262l-8 42l86 33v550l-87 33l7 42h266l7 -42l-87 -33v-243h337v243l-87 33l7 42h266z" />
    <glyph glyph-name="uni04A3" unicode="&#x4a3;" horiz-adv-x="630" 
d="M511 0h-141l-7 36l66 21v172h-233v-172l65 -21l-8 -36h-209l-7 36l65 21v353l-67 21l7 36h214l8 -36l-68 -21v-145h233v145l-67 21l7 36h214l7 -36l-67 -21v-353l65 -21v-159l-37 -7z" />
    <glyph glyph-name="uni04AA" unicode="&#x4aa;" horiz-adv-x="652" 
d="M416 32q67 0 127 19l51 141l42 -7v-143q-80 -57 -214 -59q-45 -34 -45 -76q0 -50 58 -50q20 0 32 4v-50q-30 -8 -55 -8q-41 0 -67 24t-26 63q0 55 53 95q-82 7 -144 40t-97.5 84.5t-53 112t-17.5 128.5q0 71 22 135.5t64 117t112 83.5t158 31q118 0 220 -59v-136l-42 -7
l-48 134q-67 19 -130 19q-121 0 -179.5 -76.5t-58.5 -236.5q0 -323 238 -323z" />
    <glyph glyph-name="uni04AB" unicode="&#x4ab;" horiz-adv-x="478" 
d="M300 441q-75 0 -115 -49.5t-40 -138.5q0 -101 34.5 -159t121.5 -58q61 0 132 45l23 -33q-60 -54 -143 -58q-52 -37 -52 -83q0 -50 58 -50q20 0 32 4v-50q-30 -8 -55 -8q-41 0 -67 24t-26 63q0 56 60 100q-113 8 -168 71.5t-55 171.5q0 115 69.5 180t187.5 65
q74 0 146 -36v-83l-36 -7l-19 72q-42 17 -88 17z" />
    <glyph glyph-name="uni04AE" unicode="&#x4ae;" horiz-adv-x="659" 
d="M295 75v183l-203 366l-87 33l8 43h280l8 -43l-88 -33l135 -242v-65l170 307l-87 33l7 43h208l8 -43l-88 -33l-165 -299v-250l86 -34l-8 -41h-264l-7 41z" />
    <glyph glyph-name="uni04AF" unicode="&#x4af;" horiz-adv-x="587" 
d="M507 411l-148 -395v-198l65 -21l-7 -36h-216l-8 36l65 21v189l-171 403l-67 21l8 36h218l7 -36l-65 -21l142 -330v-23l133 353l-65 21l7 36h160l7 -36z" />
    <glyph glyph-name="uni04B0" unicode="&#x4b0;" horiz-adv-x="659" 
d="M295 258h-183v42h159l-179 324l-87 33l8 43h280l8 -43l-88 -33l135 -242v-65l170 307l-87 33l7 43h208l8 -43l-88 -33l-165 -299v-25h165v-42h-165v-183l86 -34l-8 -41h-264l-7 41l87 34v183z" />
    <glyph glyph-name="uni04B1" unicode="&#x4b1;" horiz-adv-x="587" 
d="M524 0h-165v-182l65 -21l-7 -36h-216l-8 36l65 21v182h-168v42h153l-156 368l-67 21l8 36h218l7 -36l-65 -21l140 -329v-28l135 357l-65 21l7 36h160l7 -36l-65 -20l-139 -369h156v-42z" />
    <glyph glyph-name="uni04B2" unicode="&#x4b2;" horiz-adv-x="671" 
d="M312 285l-161 -211l87 -33l-7 -41h-213l-7 41l85 34l192 248l-192 301l-86 33l8 43h285l7 -42l-87 -34l134 -210l162 210l-86 34l7 42h214l7 -42l-87 -34l-192 -249l191 -300l86 -33v-209l-42 -7l-68 174h-182l-7 41l86 34z" />
    <glyph glyph-name="uni04B3" unicode="&#x4b3;" horiz-adv-x="519" 
d="M426 0h-162l-7 36l65 21l-85 124l-112 -124l65 -21l-7 -36h-165l-8 37l66 20l139 155l-136 198l-65 21l7 36h230l7 -36l-64 -21l86 -126l114 126l-74 21l11 36h171l7 -36l-65 -21l-142 -159l134 -194l67 -21v-159l-37 -7z" />
    <glyph glyph-name="uni04B8" unicode="&#x4b8;" horiz-adv-x="696" 
d="M213 626v-192q0 -52 33.5 -79.5t78.5 -27.5q13 0 20 1v233h42v-226q47 11 76 28v262l-88 34l8 42h265l8 -42l-87 -34v-550l85 -33l-7 -42h-263l-7 42l86 33v236q-27 -13 -76 -24v-117h-42v111q-11 -1 -29 -1q-86 0 -147.5 43.5t-61.5 119.5v183l-87 33l8 41h265l7 -41z
" />
    <glyph glyph-name="uni04B9" unicode="&#x4b9;" horiz-adv-x="549" 
d="M344 410l-65 21l8 36h209l8 -36l-66 -21v-352l65 -22l-7 -36h-210l-7 36l65 22v137q-32 -17 -61 -24v-69h-42v64h-5q-81 0 -123.5 41t-42.5 120v83l-65 21l7 36h210l8 -36l-65 -21v-103q0 -98 76 -100v174h42v-172q40 7 61 22v179z" />
    <glyph glyph-name="uni04BA" unicode="&#x4ba;" horiz-adv-x="623" 
d="M264 664l-65 -21v-252q63 28 129 28q89 0 144.5 -45t55.5 -130v-187l65 -21l-7 -36h-216l-8 36l66 21v215q0 50 -32 75t-76 25q-60 0 -121 -23v-292l65 -21l-7 -36h-210l-7 36l65 21v586l-65 21l7 36h210z" />
    <glyph glyph-name="uni04BB" unicode="&#x4bb;" horiz-adv-x="568" 
d="M178 57l65 -21l-7 -36h-210l-7 36l65 21v643h-61l-8 36l118 11l45 -11v-295q66 37 119 37q82 0 129 -42.5t47 -121.5v-257l65 -21l-7 -36h-210l-8 36l66 21v272q0 47 -25 74.5t-65 27.5q-49 0 -111 -27v-347z" />
    <glyph glyph-name="uni04D0" unicode="&#x4d0;" horiz-adv-x="738" 
d="M332 700l87 17l225 -642l86 -33l-8 -42h-272l-7 42l86 33l-56 161h-262l-57 -161l103 -33l-7 -42h-228l-7 42l86 33zM357 623l-130 -345h231l-101 294v51zM376 833q92 0 140 57l18 -12q-16 -43 -58 -75t-100 -32t-100 32t-58 75l18 12q48 -57 140 -57z" />
    <glyph glyph-name="uni04D1" unicode="&#x4d1;" horiz-adv-x="480" 
d="M69 359v83q72 36 148 36q92 0 140 -47.5t48 -136.5v-237l65 -21l-7 -36h-133l-17 36q-33 -26 -60 -36.5t-75 -10.5q-66 0 -107.5 34.5t-41.5 97.5q0 162 282 162v53q0 52 -27 78.5t-73 26.5q-51 0 -85 -12l-21 -77zM311 91v156q-176 0 -176 -116q0 -50 24 -72.5t59 -22.5
q61 0 93 55zM227 643q92 0 140 57l18 -12q-16 -43 -58 -75t-100 -32t-100 32t-58 75l18 12q48 -57 140 -57z" />
    <glyph glyph-name="uni04D2" unicode="&#x4d2;" horiz-adv-x="738" 
d="M332 700l87 17l225 -642l86 -33l-8 -42h-272l-7 42l86 33l-56 161h-262l-57 -161l103 -33l-7 -42h-228l-7 42l86 33zM357 623l-130 -345h231l-101 294v51zM464 876q22 0 38 -16t16 -38t-16 -38t-38 -16t-38 16t-16 38t16 38t38 16zM285 876q23 0 38.5 -16t15.5 -38
t-15.5 -38t-38.5 -16q-22 0 -38 16t-16 38t16 38t38 16z" />
    <glyph glyph-name="uni04D3" unicode="&#x4d3;" horiz-adv-x="480" 
d="M69 359v83q72 36 148 36q92 0 140 -47.5t48 -136.5v-237l65 -21l-7 -36h-133l-17 36q-33 -26 -60 -36.5t-75 -10.5q-66 0 -107.5 34.5t-41.5 97.5q0 162 282 162v53q0 52 -27 78.5t-73 26.5q-51 0 -85 -12l-21 -77zM311 91v156q-176 0 -176 -116q0 -50 24 -72.5t59 -22.5
q61 0 93 55zM310 697q22 0 38 -16t16 -38t-16 -38t-38 -16t-38 15.5t-16 38.5t16 38.5t38 15.5zM131 697q23 0 38.5 -15.5t15.5 -38.5t-15.5 -38.5t-38.5 -15.5q-22 0 -38 16t-16 38t16 38t38 16z" />
    <glyph glyph-name="uni04D4" unicode="&#x4d4;" horiz-adv-x="917" 
d="M222 236l-71 -161l81 -33l-7 -42h-213l-7 42l86 33l282 625h491v-150l-42 -8l-42 116h-216v-265h122l31 84l42 -7v-197l-42 -7l-31 84h-122v-308h221l55 150l42 -7v-185h-502l-7 42l85 33v161h-236zM240 278h217v357l-45 23z" />
    <glyph glyph-name="uni04D5" unicode="&#x4d5;" horiz-adv-x="780" 
d="M580 36q60 0 131 45l23 -33q-65 -59 -160 -59q-147 0 -212 84l-46 -37q-34 -26 -60.5 -36.5t-74.5 -10.5q-66 0 -109 34.5t-43 97.5q0 162 285 162v53q0 52 -27 78.5t-73 26.5q-51 0 -85 -12l-21 -77l-36 7v83q72 36 148 36q110 0 157 -69q66 69 179 69q87 0 138 -42.5
t51 -114.5q0 -38 -17 -74h-308v-5q0 -94 41 -150t119 -56zM314 91v156q-179 0 -179 -116q0 -49 25.5 -72t60.5 -23q61 0 93 55zM422 283h222q7 23 7 46q0 56 -22.5 84t-72.5 28q-120 0 -134 -158z" />
    <glyph glyph-name="uni04D6" unicode="&#x4d6;" horiz-adv-x="581" 
d="M444 658h-216v-265h122l31 84l42 -7v-197l-42 -7l-31 84h-122v-308h221l55 150l42 -7v-185h-502l-7 42l85 33v550l-87 33l8 42h485v-150l-42 -8zM282 833q92 0 140 57l18 -12q-16 -43 -58 -75t-100 -32t-100 32t-58 75l18 12q48 -57 140 -57z" />
    <glyph glyph-name="uni04D7" unicode="&#x4d7;" horiz-adv-x="518" 
d="M148 283h234q7 23 7 46q0 55 -27.5 83.5t-79.5 28.5q-120 0 -134 -158zM306 36q72 0 143 45l23 -33q-65 -59 -172 -59q-129 0 -194.5 65t-65.5 180q0 113 67.5 178.5t174.5 65.5q88 0 144.5 -43t56.5 -114q0 -38 -17 -74h-320v-5q0 -94 41 -150t119 -56zM268 643
q92 0 140 57l18 -12q-16 -43 -58 -75t-100 -32t-100 32t-58 75l18 12q48 -57 140 -57z" />
    <glyph glyph-name="uni04D8" unicode="&#x4d8;" horiz-adv-x="732" 
d="M549 325h-349q-25 -50 -25 -103q0 -83 48.5 -136.5t140.5 -53.5q65 0 108.5 45.5t60 108.5t16.5 139zM672 350q0 -177 -76.5 -272t-231.5 -95q-144 0 -224 64t-80 187q0 69 41 146h451q0 134 -60.5 211t-165.5 77q-74 0 -140 -19l-48 -134l-42 7v136q102 59 230 59
q88 0 156.5 -31t108.5 -83.5t60.5 -116.5t20.5 -136z" />
    <glyph glyph-name="afii10846" unicode="&#x4d9;" horiz-adv-x="499" 
d="M352 217h-206q-16 -32 -16 -69q0 -53 26.5 -82.5t77.5 -29.5q60 0 89 52t29 129zM66 253h288q0 188 -145 188q-56 0 -98 -17l-19 -72l-36 7v83q72 36 156 36q117 0 182 -64.5t65 -180.5q0 -115 -60 -179.5t-165 -64.5q-89 0 -141.5 43t-52.5 124q0 20 8.5 50t17.5 47z
" />
    <glyph glyph-name="uni04DA" unicode="&#x4da;" horiz-adv-x="732" 
d="M436 876q22 0 38 -16t16 -38t-16 -38t-38 -16t-38 16t-16 38t16 38t38 16zM257 876q23 0 38.5 -16t15.5 -38t-15.5 -38t-38.5 -16q-22 0 -38 16t-16 38t16 38t38 16zM549 325h-349q-25 -50 -25 -103q0 -83 48.5 -136.5t140.5 -53.5q65 0 108.5 45.5t60 108.5t16.5 139z
M672 350q0 -177 -76.5 -272t-231.5 -95q-144 0 -224 64t-80 187q0 69 41 146h451q0 134 -60.5 211t-165.5 77q-74 0 -140 -19l-48 -134l-42 7v136q102 59 230 59q88 0 156.5 -31t108.5 -83.5t60.5 -116.5t20.5 -136z" />
    <glyph glyph-name="uni04DB" unicode="&#x4db;" horiz-adv-x="499" 
d="M352 217h-206q-16 -32 -16 -69q0 -53 26.5 -82.5t77.5 -29.5q60 0 89 52t29 129zM66 253h288q0 188 -145 188q-56 0 -98 -17l-19 -72l-36 7v83q72 36 156 36q117 0 182 -64.5t65 -180.5q0 -115 -60 -179.5t-165 -64.5q-89 0 -141.5 43t-52.5 124q0 20 8.5 50t17.5 47z
M302 697q22 0 38 -16t16 -38t-16 -38t-38 -16t-38 15.5t-16 38.5t16 38.5t38 15.5zM123 697q23 0 38.5 -15.5t15.5 -38.5t-15.5 -38.5t-38.5 -15.5q-22 0 -38 16t-16 38t16 38t38 16z" />
    <glyph glyph-name="uni04DC" unicode="&#x4dc;" horiz-adv-x="948" 
d="M556 876q22 0 38 -16t16 -38t-16 -38t-38 -16t-38 16t-16 38t16 38t38 16zM377 876q23 0 38.5 -16t15.5 -38t-15.5 -38t-38.5 -16q-22 0 -38 16t-16 38t16 38t38 16zM737 0l8 42l-192 309v42l217 232l-87 34l7 41h231l7 -41l-29 -12q-57 -22 -100 -67l-184 -198l60 -31
l173 -276l85 -33l-7 -42h-189zM204 42l7 -42h-189l-7 42l86 33l172 276l61 31l-184 198q-40 44 -101 67l-29 12l8 41h227l7 -41l-83 -34l216 -232v-42zM522 625v-550l86 -33l-8 -42h-252l-7 42l86 33v550l-87 34l7 41h254l8 -41z" />
    <glyph glyph-name="uni04DD" unicode="&#x4dd;" horiz-adv-x="775" 
d="M450 697q22 0 38 -16t16 -38t-16 -38t-38 -16t-38 15.5t-16 38.5t16 38.5t38 15.5zM271 697q23 0 38.5 -15.5t15.5 -38.5t-15.5 -38.5t-38.5 -15.5q-22 0 -38 16t-16 38t16 38t38 16zM445 232l-35 15v-190l65 -21l-7 -36h-200l-7 36l66 21v190l-35 -15l-116 -196l7 -36
h-166l-7 36l66 21l109 184l59 31l-104 105q-32 32 -78 47l-23 7l8 36h170l8 -36l-68 -21l133 -132h37v131l-59 22l5 36h190l5 -36l-58 -22v-131h37l133 132l-68 21l8 36h170l8 -36l-23 -7q-46 -15 -78 -47l-104 -105l59 -31l109 -184l66 -21l-7 -36h-166l7 36z" />
    <glyph glyph-name="uni04DE" unicode="&#x4de;" horiz-adv-x="540" 
d="M328 876q22 0 38 -16t16 -38t-16 -38t-38 -16t-38 16t-16 38t16 38t38 16zM149 876q23 0 38.5 -16t15.5 -38t-15.5 -38t-38.5 -16q-22 0 -38 16t-16 38t16 38t38 16zM229 -17q-123 0 -205 59v143l42 7l48 -134q64 -26 115 -26q67 0 105 53t38 124q0 68 -39 112.5
t-104 44.5h-57v43h28q52 0 94 41.5t42 93.5q0 55 -27.5 90t-80.5 35t-103 -19l-48 -134l-42 7v135q103 60 193 60q119 0 172.5 -44.5t53.5 -119.5q0 -63 -37 -103.5t-98 -55.5v-9q71 -10 121 -61.5t50 -126.5q0 -40 -15.5 -76.5t-45.5 -68.5t-82 -51t-118 -19z" />
    <glyph glyph-name="uni04DF" unicode="&#x4df;" horiz-adv-x="420" 
d="M264 697q22 0 38 -16t16 -38t-16 -38t-38 -16t-38 15.5t-16 38.5t16 38.5t38 15.5zM85 697q23 0 38.5 -15.5t15.5 -38.5t-15.5 -38.5t-38.5 -15.5q-22 0 -38 16t-16 38t16 38t38 16zM178 -11q-78 0 -153 37v106l37 7l27 -97q37 -16 78 -16q46 0 71.5 31.5t25.5 79.5
q0 44 -29 73t-74 29h-30v36h19q34 0 62 27t28 61q0 38 -21 58t-54 20q-41 0 -78 -17l-20 -72l-36 7v82q74 37 148 37q72 0 113.5 -31t41.5 -78q0 -84 -84 -105v-6q47 -6 77.5 -39t30.5 -86q0 -59 -47 -101.5t-133 -42.5z" />
    <glyph glyph-name="uni04E2" unicode="&#x4e2;" horiz-adv-x="825" 
d="M240 777v52h333v-52h-333zM234 75v54l357 360v-414l-85 -33l7 -42h263l7 42l-86 33v550l87 34l-7 41h-265l-8 -41l87 -34v-44l-357 -360v404l88 34l-8 41h-265l-8 -41l87 -34v-550l-85 -33l7 -42h262l8 42z" />
    <glyph glyph-name="uni04E3" unicode="&#x4e3;" horiz-adv-x="618" 
d="M136 594v52h333v-52h-333zM196 57v40l238 232v-272l-67 -21l8 -36h211l7 36l-65 21v353l67 21l-7 36h-214l-7 -36l67 -21v-31l-238 -232v263l68 21l-8 36h-214l-7 -36l67 -21v-353l-65 -21l7 -36h209l8 36z" />
    <glyph glyph-name="uni04E4" unicode="&#x4e4;" horiz-adv-x="825" 
d="M496 876q22 0 38 -16t16 -38t-16 -38t-38 -16t-38 16t-16 38t16 38t38 16zM317 876q23 0 38.5 -16t15.5 -38t-15.5 -38t-38.5 -16q-22 0 -38 16t-16 38t16 38t38 16zM234 129v-54l86 -33l-8 -42h-262l-7 42l85 33v550l-87 34l8 41h265l8 -41l-88 -34v-404l357 360v44
l-87 34l8 41h265l7 -41l-87 -34v-550l86 -33l-7 -42h-263l-7 42l85 33v414z" />
    <glyph glyph-name="uni04E5" unicode="&#x4e5;" horiz-adv-x="623" 
d="M392 697q22 0 38 -16t16 -38t-16 -38t-38 -16t-38 15.5t-16 38.5t16 38.5t38 15.5zM213 697q23 0 38.5 -15.5t15.5 -38.5t-15.5 -38.5t-38.5 -15.5q-22 0 -38 16t-16 38t16 38t38 16zM196 97v-40l65 -21l-8 -36h-209l-7 36l65 21v353l-67 21l7 36h214l8 -36l-68 -21v-263
l238 232v31l-67 21l7 36h214l7 -36l-67 -21v-353l65 -21l-7 -36h-211l-8 36l67 21v272z" />
    <glyph glyph-name="uni04E6" unicode="&#x4e6;" 
d="M484 876q22 0 38 -16t16 -38t-16 -38t-38 -16t-38 16t-16 38t16 38t38 16zM305 876q23 0 38.5 -16t15.5 -38t-15.5 -38t-38.5 -16q-22 0 -38 16t-16 38t16 38t38 16zM394 717q161 0 247 -102.5t86 -264.5q0 -80 -19 -145t-58 -115.5t-104 -78.5t-152 -28q-86 0 -152.5 31
t-105 83.5t-57.5 116.5t-19 136q0 96 36 177.5t113.5 135.5t184.5 54zM394 668q-112 0 -164 -76t-52 -237q0 -163 52 -243t164 -80q216 0 216 323q0 158 -52.5 235.5t-163.5 77.5z" />
    <glyph glyph-name="uni04E7" unicode="&#x4e7;" horiz-adv-x="550" 
d="M359 697q22 0 38 -16t16 -38t-16 -38t-38 -16q-23 0 -38.5 15.5t-15.5 38.5t15.5 38.5t38.5 15.5zM180 697q22 0 38 -15.5t16 -38.5t-16 -38.5t-38 -15.5t-38 16t-16 38t16 38t38 16zM275 478q111 0 173 -64.5t62 -179.5q0 -118 -59 -181.5t-176 -63.5q-116 0 -175.5 65
t-59.5 180q0 113 62.5 178.5t172.5 65.5zM275 441q-63 0 -100.5 -55t-37.5 -149q0 -95 37.5 -153t100.5 -58q64 0 101.5 57.5t37.5 153.5q0 95 -37.5 149.5t-101.5 54.5z" />
    <glyph glyph-name="uni04E8" unicode="&#x4e8;" 
d="M394 717q161 0 247 -102.5t86 -264.5q0 -80 -19 -145t-58 -115.5t-104 -78.5t-152 -28q-86 0 -152.5 31t-105 83.5t-57.5 116.5t-19 136q0 96 36 177.5t113.5 135.5t184.5 54zM394 668q-109 0 -161.5 -72t-54.5 -224h432q-3 149 -55.5 222.5t-160.5 73.5zM394 32
q207 0 215 298h-431q4 -149 56 -223.5t160 -74.5z" />
    <glyph glyph-name="uni04E9" unicode="&#x4e9;" horiz-adv-x="550" 
d="M275 478q111 0 173 -64.5t62 -179.5q0 -118 -59 -181.5t-176 -63.5q-116 0 -175.5 65t-59.5 180q0 113 62.5 178.5t172.5 65.5zM275 26q60 0 96.5 51.5t41.5 137.5h-276q5 -86 42 -137.5t96 -51.5zM275 441q-59 0 -96 -49.5t-42 -134.5h276q-4 86 -41 135t-97 49z" />
    <glyph glyph-name="uni04EA" unicode="&#x4ea;" 
d="M484 876q22 0 38 -16t16 -38t-16 -38t-38 -16t-38 16t-16 38t16 38t38 16zM305 876q23 0 38.5 -16t15.5 -38t-15.5 -38t-38.5 -16q-22 0 -38 16t-16 38t16 38t38 16zM394 717q161 0 247 -102.5t86 -264.5q0 -80 -19 -145t-58 -115.5t-104 -78.5t-152 -28q-86 0 -152.5 31
t-105 83.5t-57.5 116.5t-19 136q0 96 36 177.5t113.5 135.5t184.5 54zM394 668q-109 0 -161.5 -72t-54.5 -224h432q-3 149 -55.5 222.5t-160.5 73.5zM394 32q207 0 215 298h-431q4 -149 56 -223.5t160 -74.5z" />
    <glyph glyph-name="uni04EB" unicode="&#x4eb;" horiz-adv-x="550" 
d="M366 697q22 0 38 -16t16 -38t-16 -38t-38 -16t-38 15.5t-16 38.5t16 38.5t38 15.5zM187 697q23 0 38.5 -15.5t15.5 -38.5t-15.5 -38.5t-38.5 -15.5q-22 0 -38 16t-16 38t16 38t38 16zM275 478q111 0 173 -64.5t62 -179.5q0 -118 -59 -181.5t-176 -63.5q-116 0 -175.5 65
t-59.5 180q0 113 62.5 178.5t172.5 65.5zM275 26q60 0 96.5 51.5t41.5 137.5h-276q5 -86 42 -137.5t96 -51.5zM275 441q-59 0 -96 -49.5t-42 -134.5h276q-4 86 -41 135t-97 49z" />
    <glyph glyph-name="uni04EC" unicode="&#x4ec;" horiz-adv-x="666" 
d="M354 876q22 0 38 -16t16 -38t-16 -38t-38 -16t-38 16t-16 38t16 38t38 16zM175 876q23 0 38.5 -16t15.5 -38t-15.5 -38t-38.5 -16q-22 0 -38 16t-16 38t16 38t38 16zM260 32q69 0 118.5 26.5t76.5 72.5t39.5 97.5t13.5 111.5h-162l-33 -84l-41 7v197l41 7l33 -84h162
q-10 285 -248 285q-69 0 -130 -19l-48 -133l-42 7v135q104 60 220 60q88 0 159.5 -31t115.5 -83.5t67.5 -117.5t23.5 -136q0 -72 -21 -135.5t-63.5 -116.5t-115 -84t-166.5 -31q-62 0 -122 16.5t-98 43.5v142l42 7l51 -140q58 -20 127 -20z" />
    <glyph glyph-name="uni04ED" unicode="&#x4ed;" horiz-adv-x="473" 
d="M284 697q22 0 38 -16t16 -38t-16 -38t-38 -16t-38 15.5t-16 38.5t16 38.5t38 15.5zM105 697q23 0 38.5 -15.5t15.5 -38.5t-15.5 -38.5t-38.5 -15.5q-22 0 -38 16t-16 38t16 38t38 16zM156 219v39h172q-2 86 -42 134.5t-112 48.5q-42 0 -88 -17l-19 -72l-37 7v83
q73 36 147 36q118 0 187 -65t69 -180t-63 -179.5t-192 -64.5q-69 0 -148 37v106l37 7l27 -97q37 -16 76 -16q146 0 157 193h-171z" />
    <glyph glyph-name="uni04EE" unicode="&#x4ee;" horiz-adv-x="544" 
d="M140 777v52h333v-52h-333zM526 625l-211 -528q-36 -89 -73 -114l-132 17l-7 42q49 0 108 29t79 79l14 34l-37 8l-175 433l-87 34l8 41h277l7 -41l-88 -34l126 -325v-39l145 364l-87 34l7 41h206l8 -41z" />
    <glyph glyph-name="uni04EF" unicode="&#x4ef;" horiz-adv-x="582" 
d="M115 594v52h333v-52h-333zM497 411l-181 -517q-14 -39 -39.5 -84t-47.5 -60l-119 10l-8 37q30 5 46.5 9.5t45 17.5t50 39t36.5 65l23 61l-44 11l-174 410l-67 21l8 36h238l7 -36l-85 -21l142 -330v-23l123 353l-75 21l7 36h172l7 -36z" />
    <glyph glyph-name="uni04F0" unicode="&#x4f0;" horiz-adv-x="544" 
d="M407 876q22 0 38 -16t16 -38t-16 -38t-38 -16q-23 0 -38.5 16t-15.5 38t15.5 38t38.5 16zM228 876q22 0 38 -16t16 -38t-16 -38t-38 -16t-38 16t-16 38t16 38t38 16zM526 625l-211 -528q-36 -89 -73 -114l-132 17l-7 42q49 0 108 29t79 79l14 34l-37 8l-175 433l-87 34
l8 41h277l7 -41l-88 -34l126 -325v-39l145 364l-87 34l7 41h206l8 -41z" />
    <glyph glyph-name="uni04F1" unicode="&#x4f1;" horiz-adv-x="586" 
d="M392 697q22 0 38 -16t16 -38t-16 -38t-38 -16t-38 15.5t-16 38.5t16 38.5t38 15.5zM213 697q23 0 38.5 -15.5t15.5 -38.5t-15.5 -38.5t-38.5 -15.5q-22 0 -38 16t-16 38t16 38t38 16zM497 411l-181 -517q-14 -39 -39.5 -84t-47.5 -60l-119 10l-8 37q30 5 46.5 9.5
t45 17.5t50 39t36.5 65l23 61l-44 11l-174 410l-67 21l8 36h238l7 -36l-85 -21l142 -330v-23l123 353l-75 21l7 36h172l7 -36z" />
    <glyph glyph-name="uni04F2" unicode="&#x4f2;" horiz-adv-x="544" 
d="M526 625l-211 -528q-36 -89 -73 -114l-132 17l-7 42q49 0 108 29t79 79l14 34l-37 8l-175 433l-87 34l8 41h277l7 -41l-88 -34l126 -325v-39l145 364l-87 34l7 41h206l8 -41zM213 768l109 160l95 -10l-184 -160zM352 768l109 160l95 -10l-184 -160z" />
    <glyph glyph-name="uni04F3" unicode="&#x4f3;" horiz-adv-x="588" 
d="M497 411l-181 -517q-14 -39 -39.5 -84t-47.5 -60l-119 10l-8 37q30 5 46.5 9.5t45 17.5t50 39t36.5 65l23 61l-44 11l-174 410l-67 21l8 36h238l7 -36l-85 -21l142 -330v-23l123 353l-75 21l7 36h172l7 -36zM191 575l68 160l89 -10l-137 -160zM316 575l68 160l89 -10
l-137 -160z" />
    <glyph glyph-name="uni04F4" unicode="&#x4f4;" horiz-adv-x="696" 
d="M428 876q22 0 38 -16t16 -38t-16 -38t-38 -16t-38 16t-16 38t16 38t38 16zM249 876q23 0 38.5 -16t15.5 -38t-15.5 -38t-38.5 -16q-22 0 -38 16t-16 38t16 38t38 16zM213 626v-192q0 -52 33.5 -79.5t78.5 -27.5q34 0 74.5 11.5t63.5 24.5v262l-88 34l8 42h265l8 -42
l-87 -34v-550l85 -33l-7 -42h-263l-7 42l86 33v236q-27 -13 -70.5 -22t-76.5 -9q-86 0 -147.5 43.5t-61.5 119.5v183l-87 33l8 41h265l7 -41z" />
    <glyph glyph-name="uni04F5" unicode="&#x4f5;" horiz-adv-x="552" 
d="M361 697q22 0 38 -16t16 -38t-16 -38t-38 -16q-23 0 -38.5 15.5t-15.5 38.5t15.5 38.5t38.5 15.5zM182 697q22 0 38 -15.5t16 -38.5t-16 -38.5t-38 -15.5t-38 16t-16 38t16 38t38 16zM344 410l-65 21l8 36h209l8 -36l-66 -21v-352l65 -22l-7 -36h-210l-7 36l65 22v137
q-55 -29 -108 -29q-81 0 -123.5 41t-42.5 120v83l-65 21l7 36h210l8 -36l-65 -21v-103q0 -100 79 -100q64 0 100 24v179z" />
    <glyph glyph-name="uni04F8" unicode="&#x4f8;" horiz-adv-x="901" 
d="M540 876q22 0 38 -16t16 -38t-16 -38t-38 -16t-38 16t-16 38t16 38t38 16zM361 876q23 0 38.5 -16t15.5 -38t-15.5 -38t-38.5 -16q-22 0 -38 16t-16 38t16 38t38 16zM122 75v550l-87 34l7 41h266l7 -41l-87 -34v-583h58q83 0 125 47t42 126q0 75 -42.5 113t-118.5 38h-27
v43h52q67 0 121.5 -17.5t93.5 -62.5t39 -114q0 -215 -243 -215h-284l-7 42zM779 625v-550l87 -33l-7 -42h-266l-7 42l87 33v550l-87 34l7 41h266l7 -41z" />
    <glyph glyph-name="uni04F9" unicode="&#x4f9;" horiz-adv-x="721" 
d="M451 697q22 0 38 -16t16 -38t-16 -38t-38 -16q-23 0 -38.5 15.5t-15.5 38.5t15.5 38.5t38.5 15.5zM272 697q22 0 38 -15.5t16 -38.5t-16 -38.5t-38 -15.5t-38 16t-16 38t16 38t38 16zM282 276q30 0 58.5 -6.5t57.5 -21.5t46.5 -44.5t17.5 -69.5q0 -53 -40.5 -93.5
t-93.5 -40.5h-284l-7 37l65 20v353l-67 21l8 36h213l7 -36l-67 -21v-374h63q44 0 71 30t27 75q0 44 -27 71.5t-71 27.5h-20v36h43zM534 58v352l-65 21l7 36h210l7 -36l-65 -21v-352l65 -22l-7 -36h-210l-7 36z" />
    <glyph glyph-name="Wgrave" unicode="&#x1e80;" horiz-adv-x="1009" 
d="M471 928l109 -160l-20 -10l-184 160zM517 561v-78l144 -500l72 17l185 624l88 33l-8 43h-203l-7 -43l87 -33l-157 -528v70l-160 551l-44 -17l-179 -604v70l-133 458l87 33l-8 43h-270l-7 -43l87 -33l187 -641l73 17z" />
    <glyph glyph-name="wgrave" unicode="&#x1e81;" horiz-adv-x="793" 
d="M404 346v48l-118 -394l-89 -11l-120 421l-65 21l7 36h213l7 -36l-64 -21l91 -318v-35l121 410l77 11l105 -365v-56l105 353l-65 21l8 36h153l7 -36l-65 -21l-122 -410l-84 -11zM387 735l68 -160l-20 -10l-137 160z" />
    <glyph glyph-name="Wacute" unicode="&#x1e82;" horiz-adv-x="1009" 
d="M517 483v78l-166 -561l-73 -17l-187 641l-87 33l7 43h270l8 -43l-87 -33l133 -458v-70l179 604l44 17l160 -551v-70l157 528l-87 33l7 43h203l8 -43l-88 -33l-185 -624l-72 -17zM484 768l109 160l95 -10l-184 -160z" />
    <glyph glyph-name="wacute" unicode="&#x1e83;" horiz-adv-x="793" 
d="M404 346v48l-118 -394l-89 -11l-120 421l-65 21l7 36h213l7 -36l-64 -21l91 -318v-35l121 410l77 11l105 -365v-56l105 353l-65 21l8 36h153l7 -36l-65 -21l-122 -410l-84 -11zM384 575l68 160l89 -10l-137 -160z" />
    <glyph glyph-name="Wdieresis" unicode="&#x1e84;" horiz-adv-x="1009" 
d="M625 876q22 0 38 -16t16 -38t-16 -38t-38 -16q-23 0 -38.5 16t-15.5 38t15.5 38t38.5 16zM446 876q22 0 38 -16t16 -38t-16 -38t-38 -16t-38 16t-16 38t16 38t38 16zM517 483v78l-166 -561l-73 -17l-187 641l-87 33l7 43h270l8 -43l-87 -33l133 -458v-70l179 604l44 17
l160 -551v-70l157 528l-87 33l7 43h203l8 -43l-88 -33l-185 -624l-72 -17z" />
    <glyph glyph-name="wdieresis" unicode="&#x1e85;" horiz-adv-x="793" 
d="M511 697q22 0 38 -16t16 -38t-16 -38t-38 -16q-23 0 -38.5 15.5t-15.5 38.5t15.5 38.5t38.5 15.5zM332 697q22 0 38 -15.5t16 -38.5t-16 -38.5t-38 -15.5t-38 16t-16 38t16 38t38 16zM404 346v48l-118 -394l-89 -11l-120 421l-65 21l7 36h213l7 -36l-64 -21l91 -318v-35
l121 410l77 11l105 -365v-56l105 353l-65 21l8 36h153l7 -36l-65 -21l-122 -410l-84 -11z" />
    <glyph glyph-name="Ygrave" unicode="&#x1ef2;" horiz-adv-x="659" 
d="M295 258v-183l-87 -34l7 -41h264l8 41l-86 34v250l165 299l88 33l-8 43h-208l-7 -43l87 -33l-170 -307v65l-135 242l88 33l-8 43h-280l-8 -43l87 -33zM296 928l109 -160l-20 -10l-184 160z" />
    <glyph glyph-name="ygrave" unicode="&#x1ef3;" horiz-adv-x="577" 
d="M497 411l-181 -517q-14 -39 -39.5 -84t-47.5 -60l-119 10l-8 37q30 5 46.5 9.5t45 17.5t50 39t36.5 65l23 61l-44 11l-174 410l-67 21l8 36h238l7 -36l-85 -21l142 -330v-23l123 353l-75 21l7 36h172l7 -36zM283 735l68 -160l-20 -10l-137 160z" />
    <glyph glyph-name="endash" unicode="&#x2013;" horiz-adv-x="557" 
d="M30 239l8 55h489l-8 -55h-489z" />
    <glyph glyph-name="emdash" unicode="&#x2014;" horiz-adv-x="780" 
d="M30 239l8 55h712l-8 -55h-712z" />
    <glyph glyph-name="quoteleft" unicode="&#x2018;" horiz-adv-x="269" 
d="M124 504q-22 0 -38 16t-16 38q0 66 41.5 128.5t86.5 89.5l21 -20q-33 -26 -56 -73.5t-23 -87.5h24q14 -16 14 -37q0 -22 -16 -38t-38 -16z" />
    <glyph glyph-name="quoteright" unicode="&#x2019;" horiz-adv-x="269" 
d="M145 776q23 0 38.5 -16t15.5 -38q0 -66 -41.5 -128.5t-86.5 -89.5l-21 20q33 26 56 73.5t23 87.5h-24q-14 16 -14 37q0 22 15.5 38t38.5 16z" />
    <glyph glyph-name="quotesinglbase" unicode="&#x201a;" horiz-adv-x="222" 
d="M118 91q22 0 38 -15.5t16 -38.5q0 -66 -41.5 -128.5t-86.5 -89.5l-21 20q33 26 56 73.5t23 87.5h-24q-14 16 -14 37q0 23 16 38.5t38 15.5z" />
    <glyph glyph-name="quotedblleft" unicode="&#x201c;" horiz-adv-x="425" 
d="M280 504q-22 0 -38 16t-16 38q0 66 41.5 128.5t86.5 89.5l21 -20q-33 -26 -56 -73.5t-23 -87.5h24q14 -16 14 -37q0 -22 -16 -38t-38 -16zM124 504q-22 0 -38 16t-16 38q0 66 41.5 128.5t86.5 89.5l21 -20q-33 -26 -56 -73.5t-23 -87.5h24q14 -16 14 -37q0 -22 -16 -38
t-38 -16z" />
    <glyph glyph-name="quotedblright" unicode="&#x201d;" horiz-adv-x="425" 
d="M145 776q23 0 38.5 -16t15.5 -38q0 -66 -41.5 -128.5t-86.5 -89.5l-21 20q33 26 56 73.5t23 87.5h-24q-14 16 -14 37q0 22 15.5 38t38.5 16zM301 776q23 0 38.5 -16t15.5 -38q0 -66 -41.5 -128.5t-86.5 -89.5l-21 20q33 26 56 73.5t23 87.5h-24q-14 16 -14 37
q0 22 15.5 38t38.5 16z" />
    <glyph glyph-name="quotedblbase" unicode="&#x201e;" horiz-adv-x="378" 
d="M118 91q22 0 38 -15.5t16 -38.5q0 -66 -41.5 -128.5t-86.5 -89.5l-21 20q33 26 56 73.5t23 87.5h-24q-14 16 -14 37q0 23 16 38.5t38 15.5zM274 91q22 0 38 -15.5t16 -38.5q0 -66 -41.5 -128.5t-86.5 -89.5l-21 20q33 26 56 73.5t23 87.5h-24q-14 16 -14 37q0 23 16 38.5
t38 15.5z" />
    <glyph glyph-name="dagger" unicode="&#x2020;" horiz-adv-x="493" 
d="M257 -130h-26l-28 587l-158 -24l-15 70l15 31l155 -29l-9 195l73 17l37 -17l-11 -196l158 30l15 -70l-15 -31l-160 25z" />
    <glyph glyph-name="daggerdbl" unicode="&#x2021;" horiz-adv-x="493" 
d="M257 -130h-26l-11 233l-140 -13l-19 51l19 23l138 -17l-15 310l-158 -24l-15 70l15 31l155 -29l-9 195l73 17l37 -17l-10 -196l157 30l15 -70l-15 -31l-160 25l-16 -311l141 17l19 -52l-19 -22l-144 13z" />
    <glyph glyph-name="bullet" unicode="&#x2022;" horiz-adv-x="412" 
d="M205 479q45 0 76 -30.5t31 -74.5q0 -46 -31 -76.5t-76 -30.5q-44 0 -74.5 30.5t-30.5 76.5q0 44 30.5 74.5t74.5 30.5z" />
    <glyph glyph-name="onedotenleader" unicode="&#x2024;" horiz-adv-x="182" 
d="M90 91q23 0 39 -16t16 -38t-16 -38t-39 -16q-22 0 -38 16t-16 38t16 38t38 16z" />
    <glyph glyph-name="twodotenleader" unicode="&#x2025;" horiz-adv-x="389" 
d="M94 91q23 0 39 -16t16 -38t-16 -38t-39 -16q-22 0 -38 16t-16 38t16 38t38 16zM294 91q23 0 39 -16t16 -38t-16 -38t-39 -16q-22 0 -38 16t-16 38t16 38t38 16z" />
    <glyph glyph-name="ellipsis" unicode="&#x2026;" horiz-adv-x="635" 
d="M530 91q23 0 39 -16t16 -38t-16 -38t-39 -16q-22 0 -38 16t-16 38t16 38t38 16zM104 91q23 0 39 -16t16 -38t-16 -38t-39 -16q-22 0 -38 16t-16 38t16 38t38 16zM317 91q23 0 39 -16t16 -38t-16 -38t-39 -16q-22 0 -38 16t-16 38t16 38t38 16z" />
    <glyph glyph-name="perthousand" unicode="&#x2030;" horiz-adv-x="1229" 
d="M656 711h38l10 -11l-519 -711h-38l-10 11zM1028 391q84 0 122.5 -54.5t38.5 -142.5q0 -205 -161 -205q-164 0 -164 205q0 89 39.5 143t124.5 54zM1028 358q-47 0 -65 -40.5t-18 -120.5q0 -175 83 -175q80 0 80 175q0 81 -16.5 121t-63.5 40zM204 711q84 0 122.5 -54.5
t38.5 -142.5q0 -205 -161 -205q-164 0 -164 205q0 89 39.5 143t124.5 54zM204 678q-47 0 -65 -40.5t-18 -120.5q0 -175 83 -175q80 0 80 175q0 81 -16.5 121t-63.5 40zM641 391q84 0 122.5 -54.5t38.5 -142.5q0 -205 -161 -205q-164 0 -164 205q0 89 39.5 143t124.5 54z
M641 358q-47 0 -65 -40.5t-18 -120.5q0 -175 83 -175q80 0 80 175q0 81 -16.5 121t-63.5 40z" />
    <glyph glyph-name="guilsinglleft" unicode="&#x2039;" horiz-adv-x="339" 
d="M263 85l-191 143l-12 48l203 150l16 -27l-133 -141l133 -146z" />
    <glyph glyph-name="guilsinglright" unicode="&#x203a;" horiz-adv-x="339" 
d="M267 228l-191 -143l-16 27l133 146l-133 141l16 27l203 -150z" />
    <glyph glyph-name="franc" unicode="&#x20a3;" horiz-adv-x="875" 
d="M850 300l-36 -7l-22 71q-22 8 -49 8q-10 0 -23 -3.5t-22 -7.5t-26.5 -12.5t-24.5 -11.5v-280l66 -21l-8 -36h-210l-7 36l65 21v315h-44l-13 36l106 11l45 -32q7 3 23 10.5t22 9.5t18.5 6t24 5t26.5 1q48 0 89 -17v-102zM233 599v-265h120l33 84l41 -7v-197l-41 -7l-33 84
h-120v-216l87 -33l-7 -42h-264l-8 42l86 33v491l-87 33l7 42h464v-150l-42 -8l-42 116h-194z" />
    <glyph glyph-name="Euro" unicode="&#x20ac;" horiz-adv-x="625" 
d="M458 407l-12 -42h-218q-1 -14 -1 -44q0 -41 1 -58h230l-12 -42h-212q27 -182 179 -182q62 0 110 32l47 110l43 -7v-125q-51 -31 -94.5 -45.5t-105.5 -14.5q-130 0 -202 62.5t-93 169.5h-101l13 42h81q-2 36 -2 57q0 15 2 45h-94l14 42h85q19 112 91.5 178.5t205.5 66.5
q63 0 106.5 -14.5t93.5 -44.5v-126l-43 -8l-47 110q-49 33 -110 33q-156 0 -182 -195h227z" />
    <glyph glyph-name="hryvnia" unicode="&#x20b4;" horiz-adv-x="558" 
d="M493 267l-15 -42h-263q-34 -36 -34 -91q0 -39 30 -65.5t80 -26.5q60 0 105 17l38 102l43 -8v-121q-41 -20 -96 -31.5t-96 -11.5q-197 0 -197 158q0 42 17 78h-88l12 42h104q37 43 124 92h-194l13 42h253q50 39 50 101q0 42 -27.5 69.5t-84.5 27.5q-59 0 -97 -20l-22 -70
l-41 8v94q80 41 158 41q107 0 157.5 -40.5t50.5 -123.5q0 -48 -21 -87h94l-15 -42h-117q-31 -34 -88 -62q-6 -3 -28.5 -13.5t-32.5 -16.5h228z" />
    <glyph glyph-name="centigrade" unicode="&#x2103;" horiz-adv-x="917" 
d="M187 717q51 0 87.5 -36t36.5 -90q0 -51 -36.5 -87.5t-87.5 -36.5q-54 0 -90 36.5t-36 87.5q0 52 37 89t89 37zM187 675q-36 0 -60 -24.5t-24 -59.5t24.5 -58.5t59.5 -23.5q33 0 57.5 24t24.5 58q0 35 -24.5 59.5t-57.5 24.5zM681 32q67 0 127 19l51 141l42 -7v-143
q-37 -27 -97.5 -43t-122.5 -16q-94 0 -165 31t-111.5 84t-60 116t-19.5 136q0 71 22 135.5t64 117t112 83.5t158 31q118 0 220 -59v-136l-42 -7l-48 134q-67 19 -130 19q-121 0 -179.5 -76.5t-58.5 -236.5q0 -323 238 -323z" />
    <glyph glyph-name="fahrenheit" unicode="&#x2109;" horiz-adv-x="850" 
d="M547 658v-265h120l33 84l41 -7v-197l-41 -7l-33 84h-120v-275l87 -33l-7 -42h-264l-8 42l86 33v550l-87 33l7 42h464v-150l-42 -8l-42 116h-194zM187 717q51 0 87.5 -36t36.5 -90q0 -51 -36.5 -87.5t-87.5 -36.5q-54 0 -90 36.5t-36 87.5q0 52 37 89t89 37zM187 675
q-36 0 -60 -24.5t-24 -59.5t24.5 -58.5t59.5 -23.5q33 0 57.5 24t24.5 58q0 35 -24.5 59.5t-57.5 24.5z" />
    <glyph glyph-name="afii61352" unicode="&#x2116;" horiz-adv-x="1104" 
d="M499 700h198l7 -42l-85 -33v-625l-59 -17l-397 627v-535l86 -34l-7 -41h-199l-7 41l86 34v549l-87 34l7 42h190l345 -547v472l-86 33zM906 316q-81 0 -122 45t-41 125q0 79 43 124t120 45t120 -44.5t43 -124.5q0 -82 -41 -126t-122 -44zM906 622q-89 0 -89 -134
q0 -66 22.5 -102.5t66.5 -36.5q89 0 89 139q0 134 -89 134zM760 207v52h293v-52h-293z" />
    <glyph glyph-name="published" unicode="&#x2117;" horiz-adv-x="838" 
d="M55 351q0 152 106 259t257 107t258 -107.5t107 -258.5q0 -150 -107 -256t-258 -106t-257 106t-106 256zM120 351q0 -133 83 -220t215 -87t216 87t84 220q0 135 -83.5 223t-216.5 88q-132 0 -215 -88t-83 -223zM287 561h189q65 0 99 -34t34 -94q0 -66 -43 -95t-111 -29
h-28v27h19q41 0 65.5 28.5t24.5 68.5q0 100 -89 100h-46v-346l49 -20l-4 -25h-158l-4 25l48 20v329l-49 20z" />
    <glyph glyph-name="trademark" unicode="&#x2122;" horiz-adv-x="817" 
d="M50 613v87h278v-87l-20 -3l-27 63h-66v-277l42 -16l-3 -21h-130l-3 21l42 16v277h-66l-27 -63zM550 359l102 281l20 -244l-40 -16l3 -21h128l4 21l-41 16l-23 267l42 17l-4 20h-91l-108 -288v36l-85 252h-89l-3 -20l40 -17l-26 -267l-42 -16l4 -21h97l5 21l-41 16l23 231
l95 -276z" />
    <glyph glyph-name="arrowleft" unicode="&#x2190;" horiz-adv-x="863" 
d="M387 75l-299 182l-6 29l305 191l18 -29l-211 -173l211 -170zM293 297h509v-49h-509v49z" />
    <glyph glyph-name="arrowup" unicode="&#x2191;" horiz-adv-x="444" 
d="M26 415l182 299l29 6l191 -305l-29 -18l-173 211l-170 -211zM248 509v-509h-49v509h49z" />
    <glyph glyph-name="arrowright" unicode="&#x2192;" horiz-adv-x="863" 
d="M775 257l-299 -182l-18 30l211 170l-211 173l18 29l305 -191zM61 297h509v-49h-509v49z" />
    <glyph glyph-name="arrowdown" unicode="&#x2193;" horiz-adv-x="444" 
d="M208 -5l-182 299l30 18l170 -211l173 211l29 -18l-191 -305zM248 709v-509h-49v509h49z" />
    <glyph glyph-name="heart" unicode="&#x2665;" horiz-adv-x="714" 
d="M357 45q-6 3 -17 8t-42.5 23.5t-60 39t-63.5 54.5t-60 70t-42 85t-17 100q0 49 16.5 84.5t39.5 52t46.5 26t40.5 10.5l16 1q38 0 73.5 -17.5t52.5 -34.5l17 -17q7 8 19 19.5t49.5 30.5t74.5 19q6 0 17 -1t38.5 -10.5t48.5 -26t38 -52t17 -84.5q0 -51 -16.5 -100
t-43.5 -85.5t-59 -69t-64 -55t-59 -39t-43 -24.5z" />
    <glyph glyph-name="f_j" unicode="&#xe1f8;" horiz-adv-x="601" 
d="M321 710q-24 0 -45.5 -7t-42 -23.5t-32.5 -49t-12 -78.5v-85h333v-385q0 -46 -5 -83t-19.5 -76t-38.5 -70t-64.5 -58t-95.5 -45l-22 37q94 63 122.5 135t28.5 177v332h-239v-374l66 -21l-8 -36h-209l-7 36l64 21v374h-68l-7 36l75 24v41q0 105 62.5 160t159.5 55
q85 0 147 -29.5t62 -74.5q0 -22 -16 -38t-38 -16t-38 15.5t-16 38.5q0 13 6 25q-12 15 -40.5 28.5t-62.5 13.5z" />
    <glyph glyph-name="f_f_j" unicode="&#xe1f9;" horiz-adv-x="953" 
d="M447 467v65q0 105 62.5 160t159.5 55q85 0 147 -29.5t62 -74.5q0 -22 -16 -38t-38 -16t-38 15.5t-16 38.5q0 13 6 25q-12 15 -40.5 28.5t-62.5 13.5q-24 0 -45.5 -7t-42 -23.5t-32.5 -49t-12 -78.5v-85h333v-385q0 -46 -5 -83t-19.5 -76t-38.5 -70t-64.5 -58t-95.5 -45
l-22 37q94 63 122.5 135t28.5 177v332h-239v-374l66 -21l-8 -36h-209l-7 36l64 21v374h-258v-374l66 -21l-8 -36h-209l-7 36l64 21v374h-68l-7 36l75 24v51q0 88 51.5 146.5t140.5 58.5q59 0 120 -42v-82l-36 -8l-21 79q-22 16 -59 16q-102 0 -102 -148v-95h258z" />
    <glyph glyph-name="slashedzero" unicode="&#xe23f;" horiz-adv-x="627" 
d="M316 655q65 0 114 -29t76.5 -78t40.5 -105.5t13 -119.5q0 -65 -11.5 -120.5t-37.5 -105.5t-76 -79t-119 -29q-56 0 -100 19t-71.5 50.5t-45.5 75.5t-25.5 90.5t-7.5 98.5q0 65 14 122.5t42.5 105.5t78 76t115.5 28zM316 615q-48 0 -80 -42.5t-45 -105t-13 -140.5
q0 -89 17 -157l218 374q-35 71 -97 71zM449 327q0 86 -14 149l-216 -373q38 -74 97 -74q46 0 77 45t43.5 109.5t12.5 143.5z" />
    <glyph glyph-name="information" unicode="&#xe389;" horiz-adv-x="838" 
d="M55 351q0 152 106 259t257 107t258 -107.5t107 -258.5q0 -150 -107 -256t-258 -106t-257 106t-106 256zM120 351q0 -133 83 -220t215 -87t216 87t84 220q0 135 -83.5 223t-216.5 88q-132 0 -215 -88t-83 -223zM498 137l-45 15v286l-35 7l-77 -7l4 -25h36v-261l-46 -15
l6 -25h151zM414 606q-18 0 -32 -13.5t-14 -32.5q0 -18 14 -31.5t32 -13.5q19 0 32.5 13t13.5 32t-13.5 32.5t-32.5 13.5z" />
    <glyph glyph-name="dblS" unicode="&#xf485;" horiz-adv-x="1091" 
d="M256 -17q-121 0 -203 59v143l42 7l50 -141q52 -19 104 -19q74 0 114 30.5t40 88.5q0 25 -9 46t-19 34.5t-34 29.5t-37.5 23t-46 22t-44.5 21q-33 16 -46 23t-41 26.5t-40.5 36.5t-24 45.5t-11.5 61.5q0 95 64.5 146t163.5 51q98 0 195 -59v-136l-42 -7l-48 135
q-51 18 -106 18q-63 0 -93.5 -35t-30.5 -89q0 -41 25.5 -70t79.5 -58q18 -10 62 -30t69 -34.5t56 -38.5t45.5 -55.5t14.5 -70.5q0 -204 -249 -204zM798 -17q-121 0 -203 59v143l42 7l50 -141q52 -19 104 -19q74 0 114 30.5t40 88.5q0 25 -9 46t-19 34.5t-34 29.5t-37.5 23
t-46 22t-44.5 21q-33 16 -46 23t-41 26.5t-40.5 36.5t-24 45.5t-11.5 61.5q0 95 64.5 146t163.5 51q98 0 195 -59v-136l-42 -7l-48 135q-51 18 -106 18q-63 0 -93.5 -35t-30.5 -89q0 -41 25.5 -70t79.5 -58q18 -10 62 -30t69 -34.5t56 -38.5t45.5 -55.5t14.5 -70.5
q0 -204 -249 -204z" />
    <glyph glyph-name="uniF644" unicode="&#xf644;" horiz-adv-x="546" 
d="M273 478q109 0 164.5 -63.5t55.5 -181.5q0 -120 -52 -182t-168 -62q-220 0 -220 244q0 115 55.5 180t164.5 65zM273 440q-62 0 -93 -53t-31 -150q0 -98 31 -154t93 -56t93 55.5t31 154.5q0 97 -31 150t-93 53z" />
    <glyph glyph-name="uniF645" unicode="&#xf645;" horiz-adv-x="349" 
d="M54 0l-8 37l89 20v339h-81l-8 35l130 36h53v-410l93 -20l-7 -37h-261z" />
    <glyph glyph-name="uniF646" unicode="&#xf646;" horiz-adv-x="447" 
d="M212 431q-40 0 -78 -24l-18 -63l-39 8v87q81 39 150 39q153 0 153 -117q0 -44 -26.5 -82t-64 -64.5t-75.5 -49t-66.5 -45t-31.5 -42.5h211l25 60l34 -7v-131h-329v67q9 34 35.5 66.5t58.5 58t62 51t50.5 55t20.5 60.5q0 40 -18 56.5t-54 16.5z" />
    <glyph glyph-name="uniF647" unicode="&#xf647;" horiz-adv-x="467" 
d="M210 -84q48 0 83 38.5t35 102.5q-1 128 -139 128l-33 -7l-15 21l158 184h-170l-19 -64l-39 8v140h294l23 -36l-188 -212l43 9q28 0 58 -9t58.5 -28t46.5 -53t18 -78q0 -84 -64 -137t-148 -53q-73 0 -148 36v106l36 7l27 -87q39 -16 83 -16z" />
    <glyph glyph-name="uniF648" unicode="&#xf648;" horiz-adv-x="484" 
d="M266 58h-239l-22 30l320 390l35 -11v-362h95l-7 -47h-88v-167l-94 -21v188zM266 105v175l17 78l-208 -253h191z" />
    <glyph glyph-name="uniF649" unicode="&#xf649;" horiz-adv-x="481" 
d="M178 -84q61 0 108 39t47 106q0 65 -38 99t-92 34q-59 0 -105 -29l-36 15l41 287h243l22 72l38 -8v-147h-268l-23 -165q52 28 125 28q76 0 132.5 -49t56.5 -135q0 -94 -67.5 -143.5t-172.5 -49.5q-77 0 -154 36v117l37 7l27 -98q39 -16 79 -16z" />
    <glyph glyph-name="uniF64A" unicode="&#xf64a;" horiz-adv-x="493" 
d="M192 339q51 33 96 33q71 0 118.5 -49t47.5 -134t-56.5 -142.5t-151.5 -57.5q-98 0 -153.5 58t-55.5 164q0 146 93.5 248.5t231.5 143.5l18 -34q-42 -19 -74 -39t-66 -51t-56 -67t-36.5 -87.5t-14.5 -112.5q0 -75 29 -128.5t83 -53.5t83.5 48t29.5 113q0 62 -26 96.5
t-66 34.5q-25 0 -62 -16z" />
    <glyph glyph-name="uniF64B" unicode="&#xf64b;" horiz-adv-x="428" 
d="M99 -130l238 513h-231l-19 -64l-39 8v140h344l23 -36l-238 -514v-47h-78z" />
    <glyph glyph-name="uniF64C" unicode="&#xf64c;" horiz-adv-x="494" 
d="M224 287q-35 -22 -56.5 -58t-21.5 -79q0 -56 27.5 -85t74.5 -29q46 0 73.5 30.5t27.5 82.5q0 15 -3.5 28t-12.5 24.5t-16 20t-22 19.5t-22.5 16t-25.5 16t-23 14zM306 337q27 -16 39.5 -24t35.5 -26.5t34 -34.5t20.5 -42t9.5 -55q0 -79 -57 -122.5t-141 -43.5
q-85 0 -141 41t-56 120q0 56 42 99t94 59q-59 33 -88 69.5t-29 89.5q0 63 46.5 99.5t131.5 36.5q83 0 130.5 -38.5t47.5 -97.5q0 -49 -38.5 -82.5t-80.5 -47.5zM267 359q27 14 44.5 44.5t17.5 68.5q0 41 -22 62.5t-60 21.5q-82 0 -82 -84q0 -13 2.5 -24t9 -20.5t11 -16
t17.5 -15t18 -12t22 -13t22 -12.5z" />
    <glyph glyph-name="uniF64D" unicode="&#xf64d;" horiz-adv-x="477" 
d="M296 133q-45 -38 -92 -38q-71 0 -118.5 48.5t-47.5 134.5q0 88 53 144t148 56q201 0 201 -205q0 -131 -87 -244t-208 -159l-21 36q98 49 159 143.5t61 222.5q0 159 -104 159q-51 0 -78.5 -44t-27.5 -111q0 -62 24 -96.5t63 -34.5q33 0 59 19z" />
    <glyph glyph-name="cyrbreve" unicode="&#xf6d4;" horiz-adv-x="413" 
d="M362 693l21 -23q-34 -41 -82 -68t-95 -27q-117 0 -171 76l53 55h39q17 -29 46.5 -47.5t65.5 -18.5q38 0 64 12.5t59 40.5z" />
    <glyph glyph-name="f_f" unicode="&#xfb00;" horiz-adv-x="724" 
d="M287 747q59 0 120 -42v-82l-36 -8l-21 79q-22 16 -59 16q-102 0 -102 -148v-95h258v75q0 88 51.5 146.5t140.5 58.5q59 0 120 -42v-82l-36 -8l-21 79q-22 16 -59 16q-102 0 -102 -148v-95h121l-7 -36h-114v-374l66 -21l-8 -36h-209l-7 36l64 21v374h-258v-374l66 -21
l-8 -36h-209l-7 36l64 21v374h-68l-7 36l75 24v51q0 88 51.5 146.5t140.5 58.5z" />
    <glyph glyph-name="f_i" unicode="&#xfb01;" horiz-adv-x="657" 
d="M342 710q-25 0 -49.5 -7t-49 -23.5t-39.5 -49.5t-15 -78v-85h363v-410l65 -21l-8 -36h-209l-8 36l66 21v374h-269v-374l66 -21l-8 -36h-209l-7 36l64 21v374h-68l-7 36l75 24v41q0 105 69 160t174 55q95 0 156.5 -29t61.5 -75q0 -22 -16 -38t-38 -16t-38 15.5t-16 38.5
q0 13 6 25q-42 42 -112 42z" />
    <glyph glyph-name="f_l" unicode="&#xfb02;" horiz-adv-x="646" 
d="M541 700v-643l65 -21l-7 -36h-210l-7 36l65 21v621q-47 32 -116 32q-64 0 -103 -40t-39 -118v-85h121l-7 -36h-114v-374l66 -21l-8 -36h-209l-7 36l64 21v374h-68l-7 36l75 24v41q0 92 60.5 153.5t179.5 61.5q125 0 206 -47z" />
    <glyph glyph-name="f_f_i" unicode="&#xfb03;" horiz-adv-x="979" 
d="M541 552v-85h363v-410l65 -21l-8 -36h-209l-8 36l66 21v374h-269v-374l66 -21l-8 -36h-209l-7 36l64 21v374h-258v-374l66 -21l-8 -36h-209l-7 36l64 21v374h-68l-7 36l75 24v51q0 88 51.5 146.5t140.5 58.5q59 0 120 -42v-82l-36 -8l-21 79q-22 16 -59 16
q-102 0 -102 -148v-95h258v65q0 105 69 160t174 55q95 0 156.5 -29t61.5 -75q0 -22 -16 -38t-38 -16t-38 15.5t-16 38.5q0 13 6 25q-42 42 -112 42q-25 0 -49.5 -7t-49 -23.5t-39.5 -49.5t-15 -78z" />
    <glyph glyph-name="f_f_l" unicode="&#xfb04;" horiz-adv-x="998" 
d="M893 700v-643l65 -21l-7 -36h-210l-7 36l65 21v621q-47 32 -116 32q-64 0 -103 -40t-39 -118v-85h121l-7 -36h-114v-374l66 -21l-8 -36h-209l-7 36l64 21v374h-258v-374l66 -21l-8 -36h-209l-7 36l64 21v374h-68l-7 36l75 24v51q0 88 51.5 146.5t140.5 58.5q59 0 120 -42
v-82l-36 -8l-21 79q-22 16 -59 16q-102 0 -102 -148v-95h258v65q0 92 60.5 153.5t179.5 61.5q125 0 206 -47z" />
    <glyph glyph-name="longs_t" unicode="&#xfb05;" horiz-adv-x="638" 
d="M95 491v41q0 105 61.5 160t158.5 55q90 0 143 -42t53 -115q0 -34 -7.5 -64.5t-15.5 -44.5l-7 -14h131l-7 -36h-124v-321q0 -34 16 -54t39 -20q44 0 79 38l23 -27q-28 -30 -54 -44t-65 -14q-66 0 -99 35.5t-33 93.5v313h-58l-7 36q53 16 84.5 52.5t31.5 80.5
q0 57 -33 83.5t-87 26.5q-53 0 -91 -35.5t-38 -122.5v-495l66 -21l-8 -36h-209l-7 36l64 21v374h-68l-7 36z" />
    <glyph glyph-name="s_t" unicode="&#xfb06;" horiz-adv-x="751" 
d="M193 -11q-78 0 -153 37v106l37 7l33 -97q44 -16 75 -16q49 0 79.5 21t30.5 56q0 10 -3.5 19t-12.5 17.5t-15.5 14.5t-22 13.5t-22.5 11t-26 12t-24 10.5q-30 14 -49 25t-39 28.5t-29.5 40t-9.5 50.5q0 61 49 97t131 36q14 0 42 -4q-58 44 -58 116q0 68 58 112.5t148 44.5
q91 0 151.5 -43t60.5 -114q0 -34 -7.5 -64.5t-14.5 -44.5l-8 -14h131l-7 -36h-124v-321q0 -34 16 -54t39 -20q44 0 79 38l23 -27q-28 -30 -54 -44t-65 -14q-66 0 -99 35.5t-33 93.5v313h-58l-7 36q116 36 116 123q0 57 -42.5 88.5t-104.5 31.5q-57 0 -104 -29.5t-48 -90.5
q0 -42 31 -82.5t72 -65.5v-83l-36 -7l-20 72q-34 17 -88 17q-40 0 -65 -19.5t-25 -50.5q0 -16 9 -29.5t28 -25.5t32 -18t38 -17q35 -15 54.5 -25t44.5 -28.5t36.5 -43t11.5 -55.5q0 -65 -48 -102.5t-134 -37.5z" />
    <glyph glyph-name="CR" horiz-adv-x="250" 
 />
    <glyph glyph-name="commaaccent" horiz-adv-x="153" 
d="M80 585q18 0 30.5 -12.5t12.5 -31.5q0 -45 -19 -78.5t-47 -49.5l-18 19q32 26 32 79h-24q-11 13 -11 30q0 18 12.5 31t31.5 13z" />
    <glyph glyph-name="dblgrave" horiz-adv-x="385" 
d="M259 735l68 -160l-20 -10l-137 160zM134 735l68 -160l-20 -10l-137 160z" />
    <glyph glyph-name="ampersand.alt" horiz-adv-x="688" 
d="M274 343q-61 0 -99 -42.5t-38 -105.5q0 -61 42.5 -104t104.5 -43q80 0 126 58v237h-136zM279 -11q-123 0 -182.5 50t-59.5 138q0 70 39 123.5t103 60.5v10q-44 15 -70.5 49.5t-26.5 83.5q0 66 54 108.5t143 42.5q87 0 173 -60v-92l-41 -8l-27 83q-41 28 -91 28
q-48 0 -81.5 -27t-33.5 -79q0 -44 36 -79.5t79 -35.5h343l-8 -42h-124v-233q0 -34 16 -54t39 -20q44 0 79 38l23 -27q-28 -30 -54 -44t-65 -14q-79 0 -111 50q-57 -50 -152 -50z" />
    <glyph glyph-name="i_j.cyr" horiz-adv-x="962" 
d="M196 97v-40l65 -21l-8 -36h-209l-7 36l65 21v353l-67 21l7 36h214l8 -36l-68 -21v-263l238 232v31l-67 21l7 36h214l7 -36l-67 -21v-263l238 232v31l-67 21l7 36h214l7 -36l-67 -21v-353l65 -21l-7 -36h-211l-8 36l67 21v272l-238 -232v-40l65 -21l-7 -36h-211l-8 36
l67 21v272zM813 693l21 -23q-34 -41 -82 -68t-95 -27q-117 0 -171 76l53 55h39q17 -29 46.5 -47.5t65.5 -18.5q38 0 64 12.5t59 40.5z" />
    <glyph glyph-name="i_n.cyr" horiz-adv-x="962" 
d="M761 265v145l-67 21l7 36h214l7 -36l-67 -21v-353l65 -21l-7 -36h-211l-7 36l66 21v172h-233v-172l65 -21l-7 -36h-211l-8 36l67 21v272l-238 -232v-40l65 -21l-8 -36h-209l-7 36l65 21v353l-67 21l7 36h214l8 -36l-68 -21v-263l238 232v31l-67 21l7 36h214l7 -36
l-67 -21v-145h233z" />
    <glyph glyph-name="w_w_w" horiz-adv-x="2063" 
d="M1039 346v48l-118 -394l-89 -11l-120 421l-122 -410l-84 -11l-102 357v48l-118 -394l-89 -11l-120 421l-65 21l7 36h213l7 -36l-64 -21l91 -318v-35l121 410l77 11l105 -365v-56l122 410h103l107 -375v-35l121 410l77 11l105 -365v-56l122 410h103l107 -375v-35l121 410
l77 11l105 -365v-56l105 353l-65 21l8 36h153l7 -36l-65 -21l-122 -410l-84 -11l-102 357v48l-118 -394l-89 -11l-120 421l-122 -410l-84 -11z" />
    <glyph glyph-name="n_n.cyr" horiz-adv-x="977" 
d="M776 265v145l-67 21l7 36h214l7 -36l-67 -21v-353l65 -21l-7 -36h-211l-7 36l66 21v172h-243v-172l65 -21l-7 -36h-211l-7 36l66 21v172h-243v-172l65 -21l-8 -36h-209l-7 36l65 21v353l-67 21l7 36h214l8 -36l-68 -21v-145h243v145l-67 21l7 36h214l7 -36l-67 -21v-145
h243z" />
    <glyph glyph-name="a_l.cyr.001" horiz-adv-x="960" 
d="M311 101v146q-176 0 -176 -116q0 -50 24 -72.5t59 -22.5q55 0 93 65zM473 36q61 0 103 93t42 210v71l-67 21l7 36h359l8 -36l-67 -21v-353l65 -21l-7 -36h-210l-7 36l65 21v374h-108v-98q0 -66 -8 -121.5t-27.5 -108.5t-58.5 -83.5t-94 -30.5q-105 0 -155 57
q-52 -57 -135 -57q-66 0 -107.5 34.5t-41.5 97.5q0 162 282 162v53q0 52 -27 78.5t-73 26.5q-51 0 -85 -12l-21 -77l-36 7v83q72 36 148 36q92 0 140 -47.5t48 -136.5v-182q0 -39 20 -57.5t48 -18.5z" />
    <glyph glyph-name="P_K.cyr" horiz-adv-x="1113" 
d="M554 75v583h-321v-583l85 -33l-7 -42h-262l-8 42l86 33v550l-87 34l7 41h692l8 -41l-87 -34v-550l85 -33l-7 -42h-262l-8 42zM898 0l7 42l-203 303v42l233 238l-87 34l7 41h221l7 -41l-32 -13q-55 -22 -96 -63l-200 -204l73 -32l182 -271l87 -34l-8 -42h-191z" />
    <glyph glyph-name="i_i.ukr" horiz-adv-x="574" 
d="M217 57l65 -21l-8 -36h-209l-8 36l66 21v374h-51l-7 36l106 11l46 -11v-410zM472 57l65 -21l-8 -36h-209l-8 36l66 21v374h-51l-7 36l106 11l46 -11v-410zM90 697q22 0 38 -15.5t16 -38.5t-16 -38.5t-38 -15.5t-38 16t-16 38t16 38t38 16zM468 697q22 0 38 -16t16 -38
t-16 -38t-38 -16t-38 15.5t-16 38.5t16 38.5t38 15.5zM279 697q23 0 38.5 -15.5t15.5 -38.5t-15.5 -38.5t-38.5 -15.5q-22 0 -38 16t-16 38t16 38t38 16z" />
    <glyph glyph-name="O_O" horiz-adv-x="1336" 
d="M394 717q192 0 274 -151q42 70 111.5 110.5t163.5 40.5q161 0 247 -102.5t86 -264.5q0 -80 -19 -145t-58 -115.5t-104 -78.5t-152 -28q-187 0 -275 142q-78 -142 -274 -142q-86 0 -152.5 31t-105 83.5t-57.5 116.5t-19 136q0 96 36 177.5t113.5 135.5t184.5 54zM943 668
q-226 0 -226 -303q0 -333 226 -333q216 0 216 323q0 158 -52.5 235.5t-163.5 77.5zM394 668q-112 0 -164 -76t-52 -237q0 -163 52 -243t164 -80q217 0 217 318q0 162 -53.5 240t-163.5 78z" />
    <glyph glyph-name="k_k.cyr" horiz-adv-x="814" 
d="M201 57l65 -21l-7 -36h-210l-7 36l65 21v374h-61l-6 35l116 12l45 -12v-409zM611 36l-7 -36h165l8 36l-66 21l-119 171l-71 19l137 131q33 32 77 45l26 8l-8 36h-179l-7 -36l71 -21l-158 -152v-34zM364 36l-7 -36h165l8 36l-66 21l-119 171l-71 19l137 131q33 32 77 45
l26 8l-8 36h-179l-7 -36l71 -21l-158 -152v-34z" />
    <glyph glyph-name="O_C" horiz-adv-x="1193" 
d="M394 717q191 0 273 -148q92 148 290 148q118 0 220 -59v-136l-42 -7l-48 134q-67 19 -130 19q-121 0 -180.5 -77t-59.5 -236q0 -323 240 -323q67 0 127 19l51 141l42 -7v-143q-37 -27 -97.5 -43t-122.5 -16q-201 0 -289 139q-79 -139 -274 -139q-86 0 -152.5 31
t-105 83.5t-57.5 116.5t-19 136q0 96 36 177.5t113.5 135.5t184.5 54zM394 668q-112 0 -164 -76t-52 -237q0 -163 52 -243t164 -80q216 0 216 318q0 161 -52.5 239.5t-163.5 78.5z" />
    <glyph glyph-name="A_A" horiz-adv-x="1226" 
d="M327 700l87 17l200 -573l206 556l87 17l225 -642l86 -33l-8 -42h-272l-7 42l86 33l-56 161h-262l-60 -161l86 -33l-8 -42h-272l-7 42l86 33l-56 161h-262l-60 -161l85 -33l-7 -42h-207l-7 42l86 33zM352 623l-130 -345h231l-101 294v51zM845 623l-130 -345h231l-101 294
v51z" />
    <glyph glyph-name="O_Q" horiz-adv-x="1337" 
d="M394 668q-112 0 -164 -76t-52 -237q0 -163 52 -243t164 -80q214 0 216 318v5q0 158 -52.5 235.5t-163.5 77.5zM943 32q97 0 156.5 85.5t59.5 237.5q0 158 -52.5 235.5t-163.5 77.5q-66 0 -111.5 -24.5t-69.5 -70.5t-34 -99t-10 -123q0 -319 225 -319zM671 119
q-84 -136 -277 -136q-86 0 -152.5 31t-105 83.5t-57.5 116.5t-19 136q0 96 36 177.5t113.5 135.5t184.5 54q185 0 274 -151q98 151 275 151q161 0 247 -102.5t86 -264.5q0 -305 -384 -455l136 30q49 -1 96 -21.5t63 -20.5q37 0 66 24l17 -14l-84 -85q-38 0 -106.5 29.5
t-129.5 29.5q-78 0 -175 -42l-25 43q97 44 191 115q-183 1 -270 136z" />
    <glyph glyph-name="n_m" horiz-adv-x="1172" 
d="M194 57l66 -21l-8 -36h-210l-7 36l65 21v374h-50l-7 36l115 11l36 -37q78 37 130 37q84 0 128 -45q79 45 149 45q101 0 143 -45q67 45 135 45q94 0 143 -42t49 -122v-257l66 -21l-8 -36h-209l-8 36l65 21v265q0 52 -30.5 80.5t-75.5 28.5q-53 0 -107 -27q19 -40 19 -90
v-257l66 -21l-8 -36h-210l-7 36l65 21v267q0 107 -113 107q-47 0 -103 -27q21 -36 21 -90v-257l65 -21l-7 -36h-209l-8 36l65 21v272q0 46 -29 74t-70 28q-49 0 -107 -27v-347z" />
    <glyph glyph-name="m_m" horiz-adv-x="1446" 
d="M483 314v-257l66 -21l-8 -36h-210l-7 36l65 21v272q0 47 -26.5 74.5t-66.5 27.5q-46 0 -102 -27v-347l65 -21l-7 -36h-210l-7 36l65 21v374h-50l-7 36l112 11l39 -37q65 37 125 37q83 0 125 -45q67 45 135 45q95 0 146 -45q79 45 150 45q101 0 143 -45q67 45 135 45
q94 0 143 -42t49 -122v-257l66 -21l-8 -36h-209l-8 36l65 21v265q0 52 -30.5 80.5t-75.5 28.5q-53 0 -107 -27q19 -40 19 -90v-257l66 -21l-8 -36h-210l-7 36l65 21v267q0 107 -113 107q-46 0 -102 -27q23 -37 23 -90v-257l66 -21l-8 -36h-209l-8 36l65 21v265
q0 52 -30.5 80.5t-75.5 28.5q-53 0 -107 -27q19 -40 19 -90z" />
    <glyph glyph-name="ruble.cyr" horiz-adv-x="569" 
d="M385 207v-42h-156v-90l87 -33l-8 -42h-264l-7 42l86 33v90h-88v42h88v82h-88v42h88v235l-88 33l8 42h273q112 0 167.5 -41.5t55.5 -136.5q0 -56 -18 -92.5t-55 -53.5t-75.5 -22.5t-97.5 -5.5h-24v42h27q69 0 104.5 34.5t35.5 97.5q0 74 -35.5 105t-117.5 31h-54v-392h156
z" />
    <glyph glyph-name="ya.cyr" horiz-adv-x="399" 
d="M229 475v-24l-72 -111l5 -25h-116l-6 26l46 15l56 85l32 16q-39 3 -68 27.5t-29 62.5q0 44 27 70.5t77 26.5h174l6 -25l-43 -16v-247l41 -16l-4 -25h-140l-3 25l39 16v263h-30q-36 0 -54 -20t-18 -53q0 -27 22 -49t53 -22h5zM30 215h339v-42h-339v42z" />
    <glyph glyph-name="a_ya.cyr.001" horiz-adv-x="756" 
d="M76 568v59q51 25 104 25q133 0 133 -130v-167l46 -15l-5 -25h-94l-12 25q-23 -18 -42 -25.5t-53 -7.5q-47 0 -76.5 24.5t-29.5 68.5q0 115 200 115v30q0 36 -19 55t-52 19q-37 0 -60 -8l-15 -48zM247 379v110q-125 0 -125 -82q0 -35 17.5 -51t41.5 -16q43 0 66 39z
M30 215h696v-42h-696v42zM578 475v-24l-72 -111l5 -25h-116l-6 26l46 15l56 85l32 16q-39 3 -68 27.5t-29 62.5q0 44 27 70.5t77 26.5h174l6 -25l-43 -16v-247l41 -16l-4 -25h-140l-3 25l39 16v263h-30q-36 0 -54 -20t-18 -53q0 -27 22 -49t53 -22h5z" />
    <glyph glyph-name="e.cyr" horiz-adv-x="392" 
d="M116 515h165q4 18 4 32q0 72 -75 72q-86 0 -94 -104zM227 340q49 0 101 32l16 -23q-45 -42 -121 -42q-91 0 -137 46t-46 127q0 80 47 126t123 46q62 0 102 -30.5t40 -80.5q0 -23 -12 -52h-226q0 -68 29 -108.5t84 -40.5zM30 215h332v-42h-332v42z" />
    <glyph glyph-name="o_e.cyr" horiz-adv-x="773" 
d="M206 652q79 0 122.5 -45t43.5 -127q0 -83 -41.5 -128t-124.5 -45q-82 0 -124 46t-42 127q0 80 44 126t122 46zM206 619q-44 0 -67 -35t-23 -102q0 -68 23 -105t67 -37t67.5 37t23.5 105q0 137 -91 137zM662 515h-165q8 104 94 104q75 0 75 -72q0 -14 -4 -32zM608 340
q-55 0 -84 40.5t-29 108.5h226q12 29 12 52q0 50 -40 80.5t-102 30.5q-76 0 -123 -46t-47 -126q0 -81 46 -127t137 -46q76 0 121 42l-16 23q-52 -32 -101 -32zM30 215h713v-42h-713v42z" />
    <glyph glyph-name="o_i.cyr" horiz-adv-x="857" 
d="M211 652q79 0 122.5 -45t43.5 -127q0 -83 -41.5 -128t-124.5 -45q-82 0 -124 46t-42 127q0 80 44 126t122 46zM211 619q-44 0 -67 -35t-23 -102q0 -68 23 -105t67 -37t67.5 37t23.5 105q0 137 -91 137zM531 383v-28l46 -15l-6 -25h-147l-5 25l46 15v249l-47 14l5 26h150
l6 -26l-48 -14v-186l167 164v22l-47 14l5 26h151l5 -26l-47 -14v-249l45 -15l-5 -25h-148l-6 25l47 15v192zM730 807l15 -16q-24 -29 -58 -48t-67 -19q-83 0 -120 53l37 39h28q27 -46 79 -46q43 0 86 37zM30 215h797v-42h-797v42z" />
    <glyph glyph-name="i.cyr" horiz-adv-x="483" 
d="M162 383v-28l46 -15l-6 -25h-147l-5 25l46 15v249l-47 14l5 26h150l6 -26l-48 -14v-186l167 164v22l-47 14l5 26h151l5 -26l-47 -14v-249l45 -15l-5 -25h-148l-6 25l47 15v192zM361 807l15 -16q-24 -29 -58 -48t-67 -19q-83 0 -120 53l37 39h28q27 -46 79 -46q43 0 86 37
zM30 215h423v-42h-423v42z" />
    <glyph glyph-name="i_i.cyr" horiz-adv-x="992" 
d="M225 509q29 0 55.5 -7.5t48.5 -31.5t22 -61t-28.5 -65.5t-65.5 -28.5h-200l-5 26l46 14v249l-47 15l5 25h150l5 -25l-47 -15v-264h44q31 0 50 21.5t19 52.5q0 32 -19 51t-50 19h-14v25h31zM402 356v248l-46 15l5 25h148l5 -25l-46 -15v-248l46 -16l-5 -25h-148l-5 25z
M680 383v-28l46 -15l-6 -25h-147l-5 25l46 15v249l-47 14l5 26h150l6 -26l-48 -14v-186l167 164v22l-47 14l5 26h151l5 -26l-47 -14v-249l45 -15l-5 -25h-148l-6 25l47 15v192zM879 807l15 -16q-24 -29 -58 -48t-67 -19q-83 0 -120 53l37 39h28q27 -46 79 -46q43 0 86 37z
M30 215h932v-42h-932v42z" />
    <glyph glyph-name="e_e.cyr" horiz-adv-x="754" 
d="M118 515h165q4 18 4 32q0 72 -75 72q-86 0 -94 -104zM229 340q49 0 101 32l16 -23q-45 -42 -121 -42q-91 0 -137 46t-46 127q0 80 47 126t123 46q62 0 102 -30.5t40 -80.5q0 -23 -12 -52h-226q0 -68 29 -108.5t84 -40.5zM482 515h165q4 18 4 32q0 72 -75 72
q-86 0 -94 -104zM593 340q49 0 101 32l16 -23q-45 -42 -121 -42q-91 0 -137 46t-46 127q0 80 47 126t123 46q62 0 102 -30.5t40 -80.5q0 -23 -12 -52h-226q0 -68 29 -108.5t84 -40.5zM30 215h694v-42h-694v42z" />
    <glyph glyph-name="ya_ya.cyr" horiz-adv-x="748" 
d="M229 475v-24l-72 -111l5 -25h-116l-6 26l46 15l56 85l32 16q-39 3 -68 27.5t-29 62.5q0 44 27 70.5t77 26.5h174l6 -25l-43 -16v-247l41 -16l-4 -25h-140l-3 25l39 16v263h-30q-36 0 -54 -20t-18 -53q0 -27 22 -49t53 -22h5zM565 475v-24l-72 -111l5 -25h-116l-6 26
l46 15l56 85l32 16q-39 3 -68 27.5t-29 62.5q0 44 27 70.5t77 26.5h174l6 -25l-43 -16v-247l41 -16l-4 -25h-140l-3 25l39 16v263h-30q-36 0 -54 -20t-18 -53q0 -27 22 -49t53 -22h5zM30 215h688v-42h-688v42z" />
    <glyph glyph-name="i_i" horiz-adv-x="951" 
d="M596 383v-28l46 -15l-6 -25h-147l-5 25l46 15v249l-47 14l5 26h150l6 -26l-48 -14v-186l167 164v22l-47 14l5 26h151l5 -26l-47 -14v-249l45 -15l-5 -25h-148l-6 25l47 15v192zM795 807l15 -16q-24 -29 -58 -48t-67 -19q-83 0 -120 53l37 39h28q27 -46 79 -46q43 0 86 37
zM162 383v-28l46 -15l-6 -25h-147l-5 25l46 15v249l-47 14l5 26h150l6 -26l-48 -14v-186l167 164v22l-47 14l5 26h151l5 -26l-47 -14v-249l45 -15l-5 -25h-148l-6 25l47 15v192zM30 215h891v-42h-891v42z" />
    <glyph glyph-name="s_t_ord" horiz-adv-x="574" 
d="M433 726v-82h92l-4 -25h-88v-227q0 -24 11 -38t28 -14q31 0 55 27l17 -19q-38 -41 -84 -41q-47 0 -70.5 25t-23.5 66v221h-41l-4 25l50 16l29 74zM155 307q60 0 93 26.5t33 71.5q0 22 -8 39.5t-25 30.5t-30 20t-38 18q-3 1 -12.5 5t-13.5 5.5t-12 5.5t-12 6.5t-9.5 7
t-8 8.5t-4.5 9.5t-2 11.5q0 22 16.5 34.5t45.5 12.5q27 0 54 -12l14 -43l26 4v58q-50 26 -87 26q-58 0 -91.5 -25.5t-33.5 -68.5q0 -38 22.5 -60t65.5 -42q7 -3 23.5 -10t24.5 -11t18.5 -10.5t15 -14.5t4.5 -18q0 -25 -20 -38.5t-55 -13.5q-19 0 -46 10l-23 63l-26 -5v-75
q52 -26 101 -26zM30 215h498v-42h-498v42z" />
    <glyph glyph-name="n_d_ord" horiz-adv-x="842" 
d="M697 377v221q-32 21 -67 21q-49 0 -70 -34.5t-21 -102.5q0 -65 22 -104t65 -39q37 0 71 38zM698 339q-35 -32 -75 -32q-159 0 -159 169q0 80 42.5 128t118.5 48q25 0 72 -17v172h-41l-5 24l82 9l31 -9v-476l47 -16l-6 -24h-95zM166 355l48 -16l-5 -24h-152l-6 24l46 16
v264h-35l-5 24l81 9l28 -22q61 22 93 22q58 0 91 -30t33 -85v-182l46 -16l-5 -24h-152l-6 24l46 16v193q0 32 -20.5 51.5t-48.5 19.5q-33 0 -77 -27v-237zM30 215h782v-42h-782v42z" />
    <glyph glyph-name="r_d_ord" horiz-adv-x="726" 
d="M320 570l-26 -5l-17 49q-13 7 -33 7q-9 0 -18.5 -3t-28 -11.5t-21.5 -9.5v-241l46 -16l-5 -25h-149l-5 25l45 16v265h-34l-5 25l73 6l34 -21q5 2 16.5 7t15.5 6.5t12.5 4t17 3t19.5 0.5q33 0 63 -10v-72zM583 377v225q-40 19 -69 19q-49 0 -70 -34.5t-21 -100.5
q0 -68 22 -107t65 -39q34 0 73 37zM584 340q-36 -33 -78 -33q-157 0 -157 171q0 79 42 126.5t119 47.5q35 0 73 -15v174h-44l-5 26l84 8l31 -8v-481l47 -16l-5 -25h-96zM30 215h658v-42h-658v42z" />
    </font>
</defs>
</svg>
