<?xml version="1.0" standalone="no"?>
<!DOCTYPE svg PUBLIC "-//W3C//DTD SVG 1.1//EN" "http://www.w3.org/Graphics/SVG/1.1/DTD/svg11.dtd" >
<svg>
<metadata>
Created by FontForge 20110222 at Fri May 30 00:55:15 2014
 By Orthosie Webhosting
Copyright (c) 2012 by Michael Chereda. All rights reserved.
</metadata>
<defs>
<font id="MartaBold" horiz-adv-x="809" >
  <font-face 
    font-family="Marta"
    font-weight="700"
    font-stretch="normal"
    units-per-em="1000"
    panose-1="2 0 5 3 6 0 0 2 0 3"
    ascent="750"
    descent="-250"
    x-height="467"
    cap-height="700"
    bbox="-98 -256 2106 941"
    underline-thickness="50"
    underline-position="-50"
    unicode-range="U+0020-FB06"
  />
<missing-glyph horiz-adv-x="300" 
 />
    <glyph glyph-name=".notdef" horiz-adv-x="300" 
 />
    <glyph glyph-name=".null" horiz-adv-x="0" 
 />
    <glyph glyph-name="nonmarkingreturn" horiz-adv-x="333" 
 />
    <glyph glyph-name="space" unicode=" " horiz-adv-x="250" 
 />
    <glyph glyph-name="exclam" unicode="!" horiz-adv-x="313" 
d="M192 172h-71l-41 528l97 17l56 -17zM157 120q-28 0 -48 -20t-20 -48t20 -48.5t48 -20.5q29 0 49 20.5t20 48.5t-20.5 48t-48.5 20z" />
    <glyph glyph-name="quotedbl" unicode="&#x22;" horiz-adv-x="357" 
d="M119 422h-53l-37 278l83 17l45 -17zM290 422h-53l-37 278l83 17l45 -17z" />
    <glyph glyph-name="numbersign" unicode="#" horiz-adv-x="668" 
d="M393 700l-85 -223h147l92 234h76l12 -11l-85 -223h91v-78h-121l-41 -106h134v-79h-165l-88 -225h-80l-11 11l83 214h-146l-88 -225h-79l-12 11l83 214h-77v79h109l41 106h-122v78h152l93 234h75zM278 399l-41 -106h146l42 106h-147z" />
    <glyph glyph-name="dollar" unicode="$" horiz-adv-x="581" 
d="M260 -9l-16 -84h-54l17 93q-85 19 -120 47v143l65 12l44 -115q12 -3 27 -6l37 195q-166 76 -166 191q0 88 63 136.5t154 48.5q13 0 20 -1l13 66h53l-14 -74q60 -14 118 -48v-139l-65 -11l-41 109q-2 0 -11.5 3t-15.5 4l-36 -188q34 -18 45.5 -23.5t39.5 -21.5t38 -24.5
t28.5 -25t25.5 -30t13 -32.5t6 -40q0 -88 -59.5 -137.5t-175.5 -49.5q-11 0 -33 2zM276 75h12q119 0 119 71q0 58 -97 108zM315 567h-4q-45 0 -70 -22.5t-25 -57.5q0 -47 67 -87z" />
    <glyph glyph-name="percent" unicode="%" horiz-adv-x="881" 
d="M675 386q87 0 127 -55.5t40 -144.5q0 -203 -167 -203q-170 0 -170 203q0 91 41 145.5t129 54.5zM675 319q-33 0 -45.5 -33t-12.5 -97q0 -139 58 -139q55 0 55 139q0 66 -11.5 98t-43.5 32zM663 717h81l-534 -734h-82zM209 717q87 0 127 -55.5t40 -144.5q0 -203 -167 -203
q-170 0 -170 203q0 91 41 145.5t129 54.5zM209 650q-33 0 -45.5 -33t-12.5 -97q0 -139 58 -139q55 0 55 139q0 66 -11.5 98t-43.5 32z" />
    <glyph glyph-name="ampersand" unicode="&#x26;" horiz-adv-x="662" 
d="M306 80q65 0 102.5 40.5t38.5 97.5q-34 -6 -55 -19t-31 -42l-8 2q-8 2 -20 4.5t-25 6.5q5 56 28 88.5t55.5 45t65.5 20.5t65.5 25.5t49.5 48.5l59 -16q-15 -114 -98 -143q0 -46 -10.5 -86.5t-35 -79t-72.5 -61.5t-114 -23q-124 0 -187.5 51.5t-63.5 140.5q0 59 33 109
t85 69q-33 21 -55 57.5t-22 76.5q0 69 56.5 115.5t146.5 46.5q95 0 188 -64v-110l-68 -13l-28 86q-30 19 -79 19q-36 0 -63 -22.5t-27 -61.5q0 -33 32 -65.5t65 -32.5h30v-75h-47q-49 0 -83.5 -34.5t-34.5 -83.5q0 -48 38.5 -83t88.5 -35z" />
    <glyph glyph-name="quotesingle" unicode="'" horiz-adv-x="186" 
d="M119 422h-53l-37 278l83 17l45 -17z" />
    <glyph glyph-name="parenleft" unicode="(" horiz-adv-x="408" 
d="M388 -163v-80q-71 0 -129 34.5t-94 88.5t-60.5 124t-34.5 137t-10 133q0 82 19.5 165.5t57 158.5t103 122.5t148.5 47.5v-80q-50 0 -89 -36t-62 -95.5t-35 -130t-12 -147.5t11.5 -152.5t34.5 -141.5t62.5 -107t89.5 -41z" />
    <glyph glyph-name="parenright" unicode=")" horiz-adv-x="368" 
d="M20 -243v80q50 0 89.5 41t62.5 107t34.5 141.5t11.5 152.5t-12 147.5t-35 130t-62 95.5t-89 36v80q83 0 148.5 -47.5t103 -122.5t57 -158.5t19.5 -165.5q0 -66 -10 -133t-34.5 -137t-60.5 -124t-94 -88.5t-129 -34.5z" />
    <glyph glyph-name="asterisk" unicode="*" horiz-adv-x="486" 
d="M97 637q51 -62 101 -85q-25 69 -25 102q0 27 1 42l85 21l49 -23q-38 -65 -46 -127q69 55 125 70l49 -74l-11 -49q-45 7 -72 7q-23 0 -63 -6q71 -50 106 -109l-59 -67l-50 -3q-7 81 -31 126q-23 -81 -63 -131l-78 30l-35 45q69 32 115 84q-90 0 -145 26l7 85z" />
    <glyph glyph-name="plus" unicode="+" horiz-adv-x="625" 
d="M357 18h-89v208h-208l11 86h197v206h89v-206h208l-15 -86h-193v-208z" />
    <glyph glyph-name="comma" unicode="," horiz-adv-x="237" 
d="M119 120q28 0 48 -20t20 -48q0 -69 -47 -139t-95 -94l-35 36q34 27 55.5 67.5t23.5 77.5h-15q-23 26 -23 52q0 28 20 48t48 20z" />
    <glyph glyph-name="hyphen" unicode="-" horiz-adv-x="423" 
d="M50 226l12 87h311l-11 -87h-312z" />
    <glyph glyph-name="period" unicode="." horiz-adv-x="237" 
d="M117 120q28 0 48.5 -20t20.5 -48t-20 -48.5t-49 -20.5q-28 0 -48 20.5t-20 48.5t20 48t48 20z" />
    <glyph glyph-name="slash" unicode="/" horiz-adv-x="520" 
d="M529 768l-450 -898h-69l-22 11l450 896h72z" />
    <glyph glyph-name="zero" unicode="0" horiz-adv-x="628" 
d="M316 655q65 0 114 -29.5t76.5 -78.5t41 -105.5t13.5 -118.5q0 -63 -11.5 -118.5t-38 -105.5t-76.5 -79.5t-119 -29.5q-55 0 -99 19.5t-72 51t-46 75.5t-25.5 90t-7.5 97q0 50 8.5 96.5t27.5 90t47.5 75.5t71 51t95.5 19zM316 581q-55 0 -82.5 -74t-27.5 -180
q0 -105 28.5 -184t81.5 -79t79.5 78t26.5 185q0 50 -5.5 93.5t-17.5 80.5t-33 58.5t-50 21.5z" />
    <glyph glyph-name="one" unicode="1" horiz-adv-x="425" 
d="M62 0l-12 70l110 19v445h-102l-13 70l177 40h68v-555l106 -20l-13 -69h-321z" />
    <glyph glyph-name="two" unicode="2" horiz-adv-x="536" 
d="M264 581q-47 0 -76 -14l-30 -99l-67 13v133q86 41 176 41q94 0 145 -50t51 -124q0 -56 -26 -105t-65.5 -84t-79.5 -65.5t-73 -61.5t-42 -58h185l23 69l67 -13v-163h-380v53q0 49 26.5 96t65 85t76.5 76t64.5 85t26.5 97q0 89 -67 89z" />
    <glyph glyph-name="three" unicode="3" horiz-adv-x="546" 
d="M464 590l-172 -198q75 -3 134 -53t59 -139q0 -94 -66 -152t-167 -58q-104 0 -188 73l41 61q77 -60 142 -60q44 0 76.5 39t32.5 94q0 109 -129 109l-47 -9l-33 47l198 224l-83 -31h-89l-23 -70l-66 13v164h356z" />
    <glyph glyph-name="four" unicode="4" horiz-adv-x="546" 
d="M268 242v120l43 133l-185 -253h142zM268 169h-219l-36 49l320 437l64 -17v-396h92l-18 -73h-74v-80l105 -20l-13 -69h-318l-12 70l109 19v80z" />
    <glyph glyph-name="five" unicode="5" horiz-adv-x="528" 
d="M185 540l-19 -145q43 23 96 23q76 0 137 -52.5t61 -152.5q0 -106 -65.5 -164.5t-168.5 -58.5q-52 0 -105 19t-92 54l40 61q77 -60 151 -60q46 0 78 38t32 108q0 63 -25 98.5t-75 35.5q-49 0 -96 -30l-54 22l40 311h234l22 69l67 -13v-163h-258z" />
    <glyph glyph-name="six" unicode="6" horiz-adv-x="535" 
d="M426 589q-76 -38 -131.5 -83.5t-86.5 -114.5q46 26 91 26q73 0 129.5 -57t56.5 -144q0 -90 -61 -158t-156 -68q-103 0 -161.5 69t-58.5 178q0 81 29 152t78.5 122.5t109 87.5t125.5 56zM221 323l-24 40q-23 -69 -23 -125q0 -75 23 -124.5t71 -49.5q44 0 67.5 48t23.5 106
q0 55 -22 90t-51 35q-35 0 -65 -20z" />
    <glyph glyph-name="seven" unicode="7" horiz-adv-x="496" 
d="M107 0l262 568l-78 -32h-137l-22 -69l-67 13v164h393l23 -54l-252 -539v-51h-122z" />
    <glyph glyph-name="eight" unicode="8" horiz-adv-x="562" 
d="M375 161q0 21 -10.5 40.5t-31.5 36.5t-35.5 26.5t-39.5 23.5q-70 -51 -70 -127q0 -44 27 -70.5t66 -26.5t66.5 26t27.5 71zM299 402q59 41 59 101q0 40 -22.5 59t-54.5 19q-31 0 -53.5 -19.5t-22.5 -61.5q0 -48 94 -98zM475 510q0 -81 -105 -150q57 -38 93 -83t36 -111
q0 -80 -66 -128t-152 -48t-152 46t-66 125q0 56 34.5 96t89.5 75q-106 74 -106 165q0 66 55.5 112t144.5 46q90 0 142 -42.5t52 -102.5z" />
    <glyph glyph-name="nine" unicode="9" horiz-adv-x="529" 
d="M129 55q54 27 102.5 76t80.5 111q-47 -21 -81 -21q-76 0 -130.5 59.5t-54.5 148.5q0 90 61 158t159 68q101 0 160 -62t59 -169q0 -127 -99 -257.5t-219 -177.5zM246 295q32 0 74 25l15 -24q21 63 21 128q0 157 -90 157q-44 0 -67 -45t-23 -110q0 -57 19.5 -94t50.5 -37z
" />
    <glyph glyph-name="colon" unicode=":" horiz-adv-x="237" 
d="M118 120q28 0 48.5 -20t20.5 -48t-20.5 -48.5t-48.5 -20.5t-48 20.5t-20 48.5t20 48t48 20zM118 478q28 0 48.5 -20t20.5 -48t-20.5 -48.5t-48.5 -20.5t-48 20.5t-20 48.5t20 48t48 20z" />
    <glyph glyph-name="semicolon" unicode=";" horiz-adv-x="260" 
d="M141 478q28 0 48.5 -20t20.5 -48t-20 -48.5t-49 -20.5q-28 0 -48 20.5t-20 48.5t20 48t48 20zM141 120q28 0 48 -20t20 -48q0 -69 -47 -139t-95 -94l-35 36q34 27 55.5 67.5t23.5 77.5h-15q-23 26 -23 52q0 28 20 48t48 20z" />
    <glyph glyph-name="less" unicode="&#x3c;" horiz-adv-x="607" 
d="M481 65l-374 186l-17 73l391 200l36 -56l-247 -173l246 -172z" />
    <glyph glyph-name="equal" unicode="=" horiz-adv-x="637" 
d="M557 430l-13 -83h-464l12 83h465zM557 242l-13 -83h-464l12 83h465z" />
    <glyph glyph-name="greater" unicode="&#x3e;" horiz-adv-x="607" 
d="M500 251l-374 -186l-35 58l246 172l-247 173l36 56l391 -200z" />
    <glyph glyph-name="question" unicode="?" horiz-adv-x="417" 
d="M226 172h-74q-36 47 -36 139q0 35 16.5 66t40.5 54t48 44.5t40.5 47t16.5 53.5q0 32 -23 51t-57 19q-31 0 -61 -24q-16 -48 -25 -81l-62 12v99q68 65 146 65q88 0 139.5 -39t51.5 -116q0 -44 -18.5 -80t-45 -61t-53 -47.5t-45 -49.5t-18.5 -57q0 -33 19 -95zM198 120
q-28 0 -48 -20t-20 -48t20 -48.5t48 -20.5t48.5 20.5t20.5 48.5t-20.5 48t-48.5 20z" />
    <glyph glyph-name="at" unicode="@" horiz-adv-x="1009" 
d="M676 129q55 0 102.5 56.5t47.5 154.5q0 127 -86 204.5t-208 77.5q-156 0 -253 -104.5t-97 -251.5q0 -76 31 -138.5t79.5 -99.5t103 -56.5t106.5 -19.5q134 0 227 50l27 -63q-120 -66 -261 -66q-171 0 -288 112.5t-117 280.5q0 128 60 228.5t159.5 154t219.5 53.5
q160 0 275 -100t115 -261q0 -126 -76 -208t-187 -82q-82 0 -107 53q-42 -28 -104 -28q-59 0 -99.5 46t-40.5 127q0 112 61 175t146 63q40 0 71 -8l36 8l59 -12l-30 -318q0 -15 6 -21.5t22 -6.5zM537 180l22 237q-21 9 -44 9q-36 0 -63.5 -41t-27.5 -127q0 -53 16.5 -80
t37.5 -27q38 0 59 29z" />
    <glyph glyph-name="A" unicode="A" horiz-adv-x="761" 
d="M332 700l109 17l224 -614l88 -32l-11 -71h-291l-11 71l79 32l-45 120h-234l-48 -120l94 -31l-10 -72h-250l-11 71l87 32zM445 301l-63 170v114l-112 -284h175z" />
    <glyph glyph-name="B" unicode="B" horiz-adv-x="704" 
d="M257 629v-558h138q47 0 78.5 42t31.5 98t-37.5 95.5t-94.5 39.5h-74v78h42q41 0 70 29t29 70q0 46 -26 76t-81 30h-76zM422 0h-375l-11 71l83 31v494l-84 33l11 71h361q77 0 129.5 -49t52.5 -119q0 -89 -76 -140q62 -20 101.5 -72.5t39.5 -118.5q0 -86 -63.5 -143.5
t-168.5 -57.5z" />
    <glyph glyph-name="C" unicode="C" horiz-adv-x="649" 
d="M396 67q64 0 115 14l51 139l71 -10v-162q-41 -29 -107.5 -47t-129.5 -18q-94 0 -166.5 31t-115 84t-63.5 116.5t-21 135.5q0 70 23.5 135t67.5 117.5t115.5 83.5t159.5 31q125 0 237 -64v-156l-72 -11l-46 131q-58 16 -119 16q-216 0 -216 -278q0 -44 6 -82.5t21 -77
t39 -66.5t62.5 -45t87.5 -17z" />
    <glyph glyph-name="D" unicode="D" horiz-adv-x="735" 
d="M341 629h-84v-558h84q71 0 120.5 40.5t72 104t22.5 141.5q0 119 -55 195.5t-160 76.5zM338 0h-292l-10 71l83 31v494l-84 33l10 71h296q179 0 271.5 -96t92.5 -249q0 -155 -94 -255t-273 -100z" />
    <glyph glyph-name="E" unicode="E" horiz-adv-x="613" 
d="M450 629h-193v-229h103l30 81l72 -10v-221l-71 -10l-31 81h-103v-250h197l53 150l71 -10v-211h-531l-10 71l82 31v494l-84 33l11 71h515v-178l-72 -11z" />
    <glyph glyph-name="F" unicode="F" horiz-adv-x="574" 
d="M257 629v-229h111l32 81l70 -11v-219l-70 -11l-32 81h-111v-219l114 -31l-10 -71h-314l-11 71l83 32v493l-84 33l10 71h504v-178l-71 -11l-40 118h-181z" />
    <glyph glyph-name="G" unicode="G" horiz-adv-x="757" 
d="M184 355q0 -55 11.5 -103t36 -91t70 -68.5t107.5 -25.5q55 0 99 12v165l-83 33l11 71h284l12 -71l-85 -34v-195q-40 -29 -107 -47t-130 -18q-94 0 -167.5 31t-117.5 83.5t-67 117t-23 135.5q0 156 105 261.5t270 105.5q125 0 237 -65v-156l-71 -11l-47 131
q-61 17 -119 17q-76 0 -128.5 -40.5t-75 -101.5t-22.5 -136z" />
    <glyph glyph-name="H" unicode="H" horiz-adv-x="820" 
d="M780 629l-84 -33v-493l83 -32l-11 -71h-284l-10 71l84 31v220h-296v-220l82 -31l-10 -71h-282l-11 71l83 31v494l-84 33l10 71h286l10 -71l-84 -33v-197h296v197l-84 33l10 71h286z" />
    <glyph glyph-name="I" unicode="I" horiz-adv-x="428" 
d="M283 596v-494l85 -31l-12 -71h-284l-12 71l85 31v494l-85 33l12 71h284l12 -71z" />
    <glyph glyph-name="J" unicode="J" horiz-adv-x="396" 
d="M144 197v399l-85 33l12 71h284l11 -71l-85 -33v-423q0 -268 -248 -348l-38 64q91 62 120 136t29 172z" />
    <glyph glyph-name="K" unicode="K" horiz-adv-x="728" 
d="M257 596v-492l84 -32l-10 -72h-286l-10 71l84 33v492l-84 34l11 70h285l10 -71zM481 0l9 54l-191 286v53l199 203l-63 33l12 71h241l11 -71q-82 -23 -129 -72l-177 -180l68 -32l164 -242l87 -32l-11 -71h-220z" />
    <glyph glyph-name="L" unicode="L" horiz-adv-x="586" 
d="M45 700h286l11 -71l-85 -33v-525h193l55 150l71 -10v-211h-531l-10 71l84 32v493l-84 33z" />
    <glyph glyph-name="M" unicode="M" horiz-adv-x="965" 
d="M665 487l-178 -487l-75 -17l-175 479l-45 -359l81 -32l-10 -71h-222l-12 71l85 32l58 493l-83 33l11 71h201l162 -437v-100l198 537h206l12 -71l-84 -33l48 -494l83 -31l-10 -71h-283l-10 71l81 31z" />
    <glyph glyph-name="N" unicode="N" horiz-adv-x="746" 
d="M25 71l83 32v493l-84 33l10 71h208l281 -415l36 -104v415l-83 33l10 71h223l10 -71l-83 -33v-596l-83 -17l-368 549v-430l83 -31l-11 -71h-221z" />
    <glyph glyph-name="O" unicode="O" 
d="M405 717q162 0 253 -103.5t91 -263.5q0 -164 -86.5 -265.5t-257.5 -101.5q-86 0 -154 31t-108.5 83.5t-61.5 117t-21 135.5q0 70 23 135t65.5 117t109 83.5t147.5 31.5zM405 633q-195 0 -195 -278q0 -288 195 -288q97 0 146.5 74t49.5 214q0 138 -50 208t-146 70z" />
    <glyph glyph-name="P" unicode="P" horiz-adv-x="634" 
d="M259 629v-527l114 -31l-11 -71h-314l-11 71l84 31v494l-86 33l12 71h330q110 0 168.5 -59.5t58.5 -162.5q0 -113 -73 -164t-190 -51h-40v78h43q56 0 90.5 41t34.5 96q0 67 -30 109t-93 42h-87z" />
    <glyph glyph-name="Q" unicode="Q" 
d="M600 355q0 138 -50 208t-146 70q-195 0 -195 -278q0 -288 195 -288q84 0 140 77t56 211zM748 350q0 -51 -13.5 -104t-43 -108.5t-85 -103.5t-131.5 -77q45 0 90 -20t72 -20q28 0 67 26l45 -36l-106 -100q-58 0 -120 33.5t-103 33.5q-79 0 -182 -44l-40 68q102 49 154 89
q-77 7 -135 39.5t-91 83.5t-49.5 111.5t-16.5 128.5q0 95 38.5 177t118.5 136t187 54q162 0 253 -103.5t91 -263.5z" />
    <glyph glyph-name="R" unicode="R" horiz-adv-x="690" 
d="M258 629v-526l83 -32l-11 -71h-282l-11 71l82 31v494l-84 33l12 71h345q111 0 171 -53.5t60 -147.5q0 -78 -65.5 -132t-142.5 -54l66 -34l100 -177l87 -31l-11 -71h-219l10 55l-148 258v63h64q55 0 90 38t35 85q0 57 -34.5 93.5t-98.5 36.5h-98z" />
    <glyph glyph-name="S" unicode="S" horiz-adv-x="582" 
d="M50 527q0 91 70.5 140.5t173.5 49.5q107 0 214 -64v-156l-72 -11l-47 134q-44 13 -95 13q-55 0 -86.5 -23.5t-31.5 -65.5q0 -21 11.5 -39.5t33.5 -33.5t39 -24.5t43 -20.5t30 -13q93 -39 149 -93.5t56 -136.5q0 -91 -67 -145.5t-197 -54.5t-221 65v162l71 10l51 -131
q46 -22 92 -22q63 0 104.5 23t41.5 62q0 22 -11.5 42t-36.5 37t-42.5 27t-53 26t-44.5 20q-29 14 -41 20.5t-38 22.5t-38.5 31t-28.5 37t-22.5 50t-6.5 62z" />
    <glyph glyph-name="T" unicode="T" horiz-adv-x="679" 
d="M40 496v204h599v-204l-71 -11l-53 144h-107v-527l84 -31l-10 -71h-286l-10 71l84 31v527h-106l-53 -144z" />
    <glyph glyph-name="U" unicode="U" horiz-adv-x="750" 
d="M391 -17q-57 0 -102.5 13.5t-87 46t-64.5 97.5t-23 159v297l-84 33l10 71h286l10 -71l-84 -33v-303q0 -119 37.5 -172.5t117.5 -53.5q81 0 124.5 57t43.5 167v305l-86 33l12 71h224l10 -71l-84 -33v-297q0 -316 -260 -316z" />
    <glyph glyph-name="V" unicode="V" horiz-adv-x="718" 
d="M624 596l-219 -596l-77 -17l-234 613l-89 33l12 71h291l11 -71l-77 -33l130 -333v-117l171 450l-79 33l12 71h226l11 -71z" />
    <glyph glyph-name="W" unicode="W" horiz-adv-x="1036" 
d="M663 -17l-126 402v119l-159 -504l-98 -17l-188 613l-88 33l10 71h289l12 -71l-81 -33l101 -316v-140l177 560l70 17l136 -437v-135l147 451l-80 33l11 71h226l11 -71l-89 -33l-185 -596z" />
    <glyph glyph-name="X" unicode="X" horiz-adv-x="697" 
d="M343 278l-145 -176l69 -31l-11 -71h-234l-11 71l86 31l183 223l-183 271l-87 33l11 71h304l10 -71l-73 -33l92 -128v-45l143 173l-67 33l10 71h237l10 -71l-90 -33l-181 -224l182 -270l87 -31l-11 -71h-302l-11 71l72 31l-90 126v50z" />
    <glyph glyph-name="Y" unicode="Y" horiz-adv-x="685" 
d="M291 102v155l-198 339l-88 33l11 71h299l11 -72l-75 -32l106 -176v-63l144 239l-73 33l10 71h231l11 -71l-90 -33l-161 -274v-220l83 -31l-12 -71h-282l-11 71z" />
    <glyph glyph-name="Z" unicode="Z" horiz-adv-x="642" 
d="M175 71h322l54 150l71 -11v-210h-547l-45 71l379 498l76 60h-281l-51 -144l-71 11v204h486l54 -71l-372 -505z" />
    <glyph glyph-name="bracketleft" unicode="[" horiz-adv-x="342" 
d="M190 693v-859h112v-76h-232v1010h232v-75h-112z" />
    <glyph glyph-name="backslash" unicode="\" horiz-adv-x="520" 
d="M441 -130l-450 898l19 9h72l450 -896l-22 -11h-69z" />
    <glyph glyph-name="bracketright" unicode="]" horiz-adv-x="342" 
d="M152 -166v859h-112v75h232v-1010h-232v76h112z" />
    <glyph glyph-name="asciicircum" unicode="^" horiz-adv-x="571" 
d="M333 768l200 -310l-55 -31l-193 210l-195 -210l-52 31l195 310h100z" />
    <glyph glyph-name="underscore" unicode="_" horiz-adv-x="499" 
d="M0 -140l12 88h487l-11 -88h-488z" />
    <glyph glyph-name="grave" unicode="`" horiz-adv-x="288" 
d="M218 758l-176 112l81 71l124 -156z" />
    <glyph glyph-name="a" unicode="a" horiz-adv-x="508" 
d="M68 340v96q84 42 168 42q97 0 151.5 -49t54.5 -139v-207l56 -22l-12 -61h-127l-30 23q-49 -34 -129 -34q-71 0 -120 37t-49 102q0 48 26 83t70 52t90.5 24.5t98.5 7.5v35q0 41 -25 63t-60 22q-32 0 -74 -11l-22 -76zM316 102v131q-69 0 -108.5 -26.5t-39.5 -69.5
q0 -39 21.5 -57t47.5 -18q21 0 44 11t35 29z" />
    <glyph glyph-name="b" unicode="b" horiz-adv-x="572" 
d="M226 396v72q34 10 79 10q114 0 170.5 -57.5t56.5 -176.5q0 -116 -68 -185.5t-188 -69.5q-122 0 -207 52v634h-56l-11 57l134 15l58 -15v-657q34 -13 76 -13q55 0 91 52.5t36 140.5q0 151 -100 151q-37 0 -71 -10z" />
    <glyph glyph-name="c" unicode="c" horiz-adv-x="514" 
d="M313 415q-61 0 -98.5 -43.5t-37.5 -119.5q0 -86 32.5 -138t104.5 -52q77 0 144 46l34 -51q-74 -68 -183 -68q-132 0 -200.5 65.5t-68.5 178.5q0 114 75 179.5t196 65.5q82 0 166 -42v-96l-67 -12l-21 75q-31 12 -76 12z" />
    <glyph glyph-name="d" unicode="d" horiz-adv-x="571" 
d="M375 93v293q-35 20 -81 20q-58 0 -90.5 -44t-32.5 -122t33.5 -128t84.5 -50q55 0 86 31zM418 0l-30 23q-42 -34 -105 -34q-119 0 -183.5 64t-64.5 177q0 111 70.5 179.5t182.5 68.5q45 0 87 -13v210h-54l-11 57l132 15l59 -15v-649l65 -22l-12 -61h-136z" />
    <glyph glyph-name="e" unicode="e" horiz-adv-x="549" 
d="M180 294h205q3 15 3 29q0 43 -26 67.5t-66 24.5q-48 0 -78.5 -33t-37.5 -88zM318 62q85 0 154 46l34 -51q-84 -68 -193 -68q-138 0 -205.5 65t-67.5 180q0 112 73 178t183 66q92 0 155 -45t63 -117q0 -46 -22 -84h-315q2 -76 39.5 -123t101.5 -47z" />
    <glyph glyph-name="f" unicode="f" horiz-adv-x="413" 
d="M311 747q73 0 137 -48v-94l-67 -13l-22 83q-18 9 -44 9q-87 0 -87 -115v-102h116l-11 -61h-105v-323l94 -22l-12 -61h-260l-12 61l64 22v323h-72l-10 55l82 24v65q0 87 57.5 142t151.5 55z" />
    <glyph glyph-name="g" unicode="g" horiz-adv-x="482" 
d="M195 108l88 -31q86 -30 128.5 -64.5t42.5 -92.5q0 -84 -68 -127t-168 -43q-82 0 -138 30t-56 92q0 37 31.5 68t74.5 46l36 -44q-22 -12 -33 -30.5t-11 -34.5q0 -24 26.5 -40t69.5 -16t74.5 21t31.5 52q0 26 -26.5 48t-61.5 33l-102 33q-79 27 -79 85l48 80
q-61 44 -61 131q0 72 57.5 123t146.5 51q47 0 88 -11l138 12l-15 -73h-58l45 -28q15 -33 15 -74q0 -83 -61 -127.5t-159 -44.5q-42 0 -70 8l-3 -8q1 -16 29 -24zM246 415q-38 0 -61.5 -27.5t-23.5 -80.5q0 -54 23.5 -83t61.5 -29q41 0 66.5 28.5t25.5 85.5q0 58 -26.5 82
t-65.5 24z" />
    <glyph glyph-name="h" unicode="h" horiz-adv-x="602" 
d="M208 83l63 -22l-12 -61h-227l-12 61l62 22v592h-55l-12 57l134 15l59 -15v-280q56 26 113 26q88 0 138 -40t50 -119v-236l63 -22l-12 -61h-229l-12 61l64 22v250q0 37 -19.5 54.5t-49.5 17.5q-57 0 -106 -20v-302z" />
    <glyph glyph-name="i" unicode="i" horiz-adv-x="334" 
d="M230 83l64 -22l-12 -61h-230l-12 61l64 22v323h-46l-11 61l122 11l61 -11v-384zM159 697q27 0 46 -19t19 -46q0 -26 -19 -45.5t-46 -19.5q-26 0 -45.5 19.5t-19.5 45.5q0 27 19.5 46t45.5 19z" />
    <glyph glyph-name="j" unicode="j" horiz-adv-x="301" 
d="M33 467l135 11l59 -11v-387q0 -56 -9.5 -100.5t-34 -89.5t-73.5 -80.5t-121 -59.5l-34 57q91 60 118.5 126.5t27.5 162.5v310h-55zM156 697q27 0 46 -19t19 -46q0 -26 -19 -45.5t-46 -19.5q-26 0 -45.5 19.5t-19.5 45.5q0 27 19.5 46t45.5 19z" />
    <glyph glyph-name="k" unicode="k" horiz-adv-x="592" 
d="M555 467h-202l-14 -61l50 -22l-128 -123v-39l124 -171l-10 -51h195l12 61l-73 22l-106 150l-60 13l119 113q33 33 105 47zM230 83l63 -22l-12 -61h-229l-12 61l64 22v592h-44l-12 57l123 15l59 -15v-649z" />
    <glyph glyph-name="l" unicode="l" horiz-adv-x="344" 
d="M235 83l69 -22l-12 -61h-240l-12 61l69 22v592h-52l-11 57l130 15l59 -15v-649z" />
    <glyph glyph-name="m" unicode="m" horiz-adv-x="905" 
d="M516 310v-227l64 -22l-12 -61h-229l-12 61l63 22v244q0 37 -23.5 58t-55.5 21q-29 0 -87 -20v-303l63 -22l-12 -61h-228l-12 61l63 22v323h-45l-11 61l125 11l41 -26q78 26 125 26q91 0 131 -37q68 37 143 37q97 0 148 -43.5t51 -125.5v-226l64 -22l-12 -61h-228l-12 61
l63 22v235q0 41 -28 64.5t-63 23.5q-47 0 -89 -20q15 -36 15 -76z" />
    <glyph glyph-name="n" unicode="n" horiz-adv-x="624" 
d="M311 406q-29 0 -87 -20v-303l64 -22l-11 -61h-231l-11 61l63 22v323h-45l-11 61l128 11l41 -26q78 26 125 26q88 0 139 -44t51 -125v-226l63 -22l-12 -61h-228l-12 61l63 22v241q0 37 -27 59.5t-62 22.5z" />
    <glyph glyph-name="o" unicode="o" horiz-adv-x="579" 
d="M290 478q114 0 181.5 -65t67.5 -179q0 -116 -64.5 -180t-184.5 -64q-119 0 -184.5 65.5t-65.5 178.5q0 112 68 178t182 66zM290 415q-56 0 -88.5 -48t-32.5 -130q0 -84 32 -134t89 -50t89.5 50t32.5 134q0 83 -33 130.5t-89 47.5z" />
    <glyph glyph-name="p" unicode="p" horiz-adv-x="574" 
d="M236 0v61h19q53 0 97.5 54t44.5 139q0 152 -99 152q-52 0 -104 -20v-542l64 -22l-12 -61h-228l-12 61l63 22v562h-55l-12 61l134 11l43 -31q69 31 127 31q108 0 168 -58.5t60 -172.5q0 -109 -79.5 -178t-197.5 -69h-21z" />
    <glyph glyph-name="q" unicode="q" horiz-adv-x="570" 
d="M379 -156v168q-42 -22 -106 -22q-115 0 -174 61t-59 177q0 112 69 180.5t188 68.5q57 0 102 -15l42 16l64 -11v-623l63 -22l-12 -61h-244l-12 61zM283 61q25 0 52.5 11t43.5 30v291q-37 13 -80 13q-55 0 -88 -48t-33 -130q0 -79 30 -123t75 -44z" />
    <glyph glyph-name="r" unicode="r" horiz-adv-x="454" 
d="M444 340l-67 -12l-23 74q-14 4 -40 4q-37 0 -90 -20v-303l83 -22l-12 -61h-248l-12 61l63 22v323h-45l-12 61l130 11l41 -26q73 26 129 26q47 0 103 -22v-116z" />
    <glyph glyph-name="s" unicode="s" horiz-adv-x="452" 
d="M213 -10q-90 0 -173 41v118l67 13l34 -99q27 -10 64 -10q39 0 65.5 14t26.5 40q0 35 -99 81q-35 16 -54 27t-47 31t-41.5 45.5t-13.5 56.5q0 63 53 96.5t145 33.5q85 0 154 -42v-96l-68 -12l-21 77q-40 10 -75 10q-30 0 -51.5 -15t-21.5 -37q0 -11 8 -21t24 -19.5t30 -16
t35.5 -15.5t32.5 -14q63 -30 94 -60t31 -82q0 -66 -54 -105.5t-145 -39.5z" />
    <glyph glyph-name="t" unicode="t" horiz-adv-x="374" 
d="M203 573v-106h132l-12 -61h-120v-289q0 -24 14 -39.5t29 -15.5q40 0 85 48l43 -53q-65 -67 -144 -67q-73 0 -113 38t-40 97v281h-57l-10 55l75 23l43 106z" />
    <glyph glyph-name="u" unicode="u" horiz-adv-x="589" 
d="M384 100v306h-42l-11 59l129 13l50 -15v-380l64 -22l-12 -61h-136l-30 23q-48 -34 -132 -34q-85 0 -133.5 50t-48.5 133v234h-41l-11 59l120 13l58 -14v-301q0 -51 27.5 -76t63.5 -25q21 0 46 10.5t39 27.5z" />
    <glyph glyph-name="v" unicode="v" horiz-adv-x="586" 
d="M505 384l-156 -384l-92 -11l-172 395l-65 22l12 61h234l12 -61l-57 -22l86 -192v-91l124 284l-60 21l12 61h176l12 -61z" />
    <glyph glyph-name="w" unicode="w" horiz-adv-x="831" 
d="M514 -10l-86 267v80l-111 -337l-113 -10l-123 394l-69 22l12 61h233l12 -61l-59 -22l64 -192v-86l117 360l102 13l91 -287v-66l89 258l-60 22l12 61h178l12 -61l-69 -22l-124 -384z" />
    <glyph glyph-name="x" unicode="x" horiz-adv-x="553" 
d="M543 406l-75 -22l-117 -145l111 -156l75 -22l-12 -61h-251l-12 61l51 22l-49 69v37l-88 -106l48 -22l-12 -61h-190l-12 61l76 22l111 137l-112 164l-71 22l12 61h249l12 -61l-51 -22l49 -71v-43l92 114l-55 22l12 61h197z" />
    <glyph glyph-name="y" unicode="y" horiz-adv-x="608" 
d="M524 384l-171 -488q-13 -37 -40.5 -82.5t-53.5 -63.5l-135 11l-11 60q133 20 170 116l20 52l-31 11l-181 384l-73 22l12 61h258l12 -61l-77 -22l113 -221v-83l106 304l-68 22l12 61h195l12 -61z" />
    <glyph glyph-name="z" unicode="z" horiz-adv-x="484" 
d="M54 467h356l49 -61l-263 -311l-74 -34h224l31 101l67 -13v-149h-389l-30 61l254 308l71 37h-205l-24 -78l-67 12v127z" />
    <glyph glyph-name="braceleft" unicode="{" horiz-adv-x="423" 
d="M331 693q-23 0 -39.5 -16.5t-16.5 -39.5v-218q0 -102 -79 -139q79 -36 79 -138v-252q0 -24 16.5 -40t39.5 -16h52v-76h-65q-69 0 -118 49.5t-49 119.5v259q0 23 -17 39.5t-41 16.5h-33v76h33q24 0 41 16.5t17 39.5v226q0 70 49 119t118 49h65v-75h-52z" />
    <glyph glyph-name="bar" unicode="|" horiz-adv-x="290" 
d="M179 717v-956h-79v956h79z" />
    <glyph glyph-name="braceright" unicode="}" horiz-adv-x="423" 
d="M92 693h-52v75h65q69 0 118 -49t49 -119v-226q0 -23 17 -39.5t41 -16.5h33v-76h-33q-24 0 -41 -16.5t-17 -39.5v-259q0 -70 -49 -119.5t-118 -49.5h-65v76h52q23 0 39.5 16t16.5 40v252q0 102 79 138q-79 37 -79 139v218q0 23 -16.5 39.5t-39.5 16.5z" />
    <glyph glyph-name="asciitilde" unicode="~" horiz-adv-x="616" 
d="M519 357l42 -36q-60 -105 -163 -105q-36 0 -101.5 20.5t-98.5 20.5q-54 0 -97 -47l-46 30q67 111 174 111q31 0 98.5 -19t99.5 -19q46 0 92 44z" />
    <glyph glyph-name="exclamdown" unicode="&#xa1;" horiz-adv-x="313" 
d="M121 289h71l41 -528l-97 -17l-56 17zM156 341q-28 0 -48.5 20t-20.5 48q0 29 20.5 49t48.5 20t48 -20.5t20 -48.5t-20 -48t-48 -20z" />
    <glyph glyph-name="cent" unicode="&#xa2;" horiz-adv-x="610" 
d="M445 601l-26 -111q48 -10 96 -32v-104l-64 -13l-20 69q-21 5 -29 6l-81 -344q15 -3 33 -3q42 0 77 11l20 69l64 -13v-107q-79 -39 -163 -39q-29 0 -49 4l-24 -104h-54l27 116q-71 25 -111.5 86t-40.5 152q0 116 67 185t185 69q10 0 15 -1l25 104h53zM228 246
q0 -104 46 -147l75 321q-59 -2 -90 -46.5t-31 -127.5z" />
    <glyph glyph-name="sterling" unicode="&#xa3;" horiz-adv-x="457" 
d="M4 312h82v99q1 124 64.5 182.5t150.5 58.5q74 0 146 -47v-105l-65 -12l-23 72q-21 10 -54 10q-38 0 -65.5 -33t-27.5 -91v-134h164v-53h-164q0 -43 -29 -94.5t-63 -78.5l77 23h241v-109h-434v88q24 19 38 34.5t29 52.5t15 86h-82v51z" />
    <glyph glyph-name="currency" unicode="&#xa4;" horiz-adv-x="561" 
d="M421 220l59 -59l-57 -58l-61 60q-37 -20 -82 -20q-47 0 -81 21l-60 -60l-59 56l59 60q-20 40 -20 84q0 42 21 82q-6 6 -19 18.5t-23 23t-17 17.5l56 60l60 -61q39 23 83 23q46 0 84 -22l59 59l58 -57l-60 -60q22 -37 22 -83q0 -47 -22 -84zM200 304q0 -34 23 -57t57 -23
q35 0 58.5 23t23.5 57t-24 58t-58 24t-57 -24t-23 -58z" />
    <glyph glyph-name="yen" unicode="&#xa5;" horiz-adv-x="660" 
d="M77 407h108l-85 131l-90 39l13 64h289l12 -64l-74 -32l84 -142v-61l143 203l-76 32l13 64h225l11 -64l-89 -38l-92 -132h121v-52h-157l-29 -43v-44h186v-52h-186v-128l82 -20l-12 -68h-277l-12 68l84 21v127h-192v52h192v9l-51 78h-141v52z" />
    <glyph glyph-name="brokenbar" unicode="&#xa6;" horiz-adv-x="279" 
d="M179 163v-402h-79v402h79zM179 717v-402h-79v402h79z" />
    <glyph glyph-name="section" unicode="&#xa7;" horiz-adv-x="528" 
d="M200 590q0 -57 113 -104q35 -14 55.5 -24t45.5 -28.5t37 -44.5t12 -60q0 -73 -70 -133q70 -54 70 -124q0 -82 -54.5 -128t-142.5 -46q-36 0 -69.5 9.5t-52 19.5t-58.5 34v137l69 10l46 -117q35 -12 66 -12q33 0 52.5 20.5t19.5 49.5q0 32 -29.5 54t-82.5 44
q-36 15 -55.5 25t-45 29t-37.5 45t-12 60q0 68 71 130q-71 49 -71 131q0 81 53.5 123.5t143.5 42.5q36 0 69.5 -9.5t52 -19.5t58.5 -34v-126l-68 -11l-46 108q-32 13 -67 13q-33 0 -53 -18.5t-20 -45.5zM346 305q0 8 -4 16t-13 15.5t-17.5 14t-23 14t-23 11.5t-24.5 11.5
t-22 10.5q-25 -40 -25 -68q0 -18 24.5 -38t46 -30t58.5 -25q23 37 23 68z" />
    <glyph glyph-name="dieresis" unicode="&#xa8;" horiz-adv-x="418" 
d="M303 876q26 0 45.5 -19t19.5 -46q0 -26 -19.5 -45.5t-45.5 -19.5t-45.5 19.5t-19.5 45.5q0 27 19.5 46t45.5 19zM115 876q27 0 46 -19t19 -46q0 -26 -19 -45.5t-46 -19.5q-26 0 -45.5 19.5t-19.5 45.5q0 27 19.5 46t45.5 19z" />
    <glyph glyph-name="copyright" unicode="&#xa9;" horiz-adv-x="839" 
d="M55 352q0 151 106.5 258t256.5 107q152 0 259 -107t107 -258q0 -150 -108.5 -256t-260.5 -106q-150 0 -255 106t-105 256zM146 352q0 -121 75 -200.5t194 -79.5q122 0 200 79.5t78 200.5q0 124 -76.5 203.5t-198.5 79.5q-120 0 -196 -80t-76 -203zM426 184q37 0 69 8
l30 82l42 -6v-96q-55 -38 -141 -38q-107 0 -161.5 63.5t-54.5 153.5q0 89 57 153.5t159 64.5q73 0 141 -38v-92l-43 -7l-27 78q-32 9 -71 9q-127 0 -127 -165q0 -71 29 -120.5t98 -49.5z" />
    <glyph glyph-name="ordfeminine" unicode="&#xaa;" horiz-adv-x="305" 
d="M39 529v59q53 25 103 25q59 0 92 -30t33 -84v-126l34 -13l-7 -38h-78l-18 14q-29 -21 -78 -21q-43 0 -73 22.5t-30 62.5q0 39 29 63t64.5 31.5t79.5 7.5v21q0 25 -15 38.5t-37 13.5q-17 0 -45 -7l-13 -46zM190 384v80q-42 0 -66 -16t-24 -43q0 -23 13 -34t29 -11
q32 0 48 24z" />
    <glyph glyph-name="guillemotleft" unicode="&#xab;" horiz-adv-x="547" 
d="M456 98l-178 128l-14 49l191 135l32 -35l-103 -122l103 -120zM300 64l-228 154l-12 63l240 162l33 -45l-146 -145l146 -143z" />
    <glyph glyph-name="logicalnot" unicode="&#xac;" horiz-adv-x="552" 
d="M58 274l14 92h422v-248h-94v156h-342z" />
    <glyph glyph-name="uni00AD" unicode="&#xad;" horiz-adv-x="389" 
d="M42 274l12 92h293l-11 -92h-294z" />
    <glyph glyph-name="registered" unicode="&#xae;" horiz-adv-x="839" 
d="M55 352q0 151 106.5 258t256.5 107q152 0 259 -107t107 -258q0 -150 -108.5 -256t-260.5 -106q-150 0 -255 106t-105 256zM381 519v-316l51 -18l-7 -43h-170l-6 43l49 18v296l-50 20l7 42h208q66 0 102 -31.5t36 -88.5q0 -47 -39.5 -79.5t-85.5 -32.5l40 -21l59 -105
l65 -22q53 73 53 171q0 124 -76.5 203.5t-198.5 79.5q-120 0 -196 -80t-76 -203q0 -121 75 -200.5t194 -79.5q112 0 190 70h-115l6 33l-90 154v39h39q33 0 54 22.5t21 50.5q0 35 -20.5 56.5t-58.5 21.5h-60z" />
    <glyph glyph-name="macron" unicode="&#xaf;" horiz-adv-x="522" 
d="M90 763v66h341v-66h-341z" />
    <glyph glyph-name="degree" unicode="&#xb0;" horiz-adv-x="387" 
d="M195 717q54 0 93 -38.5t39 -95.5q0 -55 -39 -94t-93 -39q-58 0 -96.5 39.5t-38.5 93.5q0 55 39.5 94.5t95.5 39.5zM195 642q-25 0 -42 -17t-17 -42t17 -41t42 -16q23 0 40 16.5t17 40.5t-17 41.5t-40 17.5z" />
    <glyph glyph-name="plusminus" unicode="&#xb1;" horiz-adv-x="615" 
d="M547 1h-492l12 83h492zM350 126h-88v171h-207l12 86h195v169h88v-169h210l-15 -86h-195v-171z" />
    <glyph glyph-name="twosuperior" unicode="&#xb2;" horiz-adv-x="275" 
d="M135 673q-25 0 -45 -9l-18 -60l-41 8v80q53 25 106 25q57 0 87.5 -30t30.5 -75q0 -41 -24.5 -77t-54 -57.5t-58.5 -46t-35 -44.5h111l15 41l40 -8v-98h-229v32q0 29 16 57.5t39 51.5l46 46t39 51.5t16 58.5q0 54 -41 54z" />
    <glyph glyph-name="threesuperior" unicode="&#xb3;" horiz-adv-x="308" 
d="M266 678l-105 -119q45 -2 81 -32.5t36 -83.5q0 -57 -39.5 -92t-100.5 -35q-64 0 -113 44l24 37q49 -37 86 -37q26 0 46 24t20 57q0 66 -78 66l-28 -6l-21 28l120 136l-50 -19h-54l-14 -42l-39 8v98h214z" />
    <glyph glyph-name="acute" unicode="&#xb4;" horiz-adv-x="288" 
d="M251 870l-176 -112l-29 27l124 156z" />
    <glyph glyph-name="mu" unicode="&#xb5;" horiz-adv-x="572" 
d="M133 478l58 -14v-301q0 -51 27.5 -76t63.5 -25q21 0 46 10.5t39 27.5v306h-42l-11 59l129 13l50 -15v-380l64 -21l-12 -62h-136l-30 23q-48 -34 -132 -34q-55 0 -97 22l41 -75v-92l64 -22l-12 -61h-230l-11 61l63 22v562h-41l-11 59z" />
    <glyph glyph-name="paragraph" unicode="&#xb6;" horiz-adv-x="566" 
d="M270 588v-326q-230 0 -230 194q0 89 61.5 145.5t149.5 56.5h273l12 -65l-83 -31v-369q0 -80 -20 -148.5t-75 -130.5t-142 -88l-37 62q47 31 78.5 69.5t45 81.5t18 78t4.5 80v391h-55z" />
    <glyph glyph-name="periodcentered" unicode="&#xb7;" horiz-adv-x="237" 
d="M118 413q28 0 48 -20t20 -49q0 -28 -20 -48t-48 -20t-48 20t-20 48t20 48.5t48 20.5z" />
    <glyph glyph-name="cedilla" unicode="&#xb8;" horiz-adv-x="448" 
d="M183 -221l-20 56q38 0 60 13t22 34q0 13 -7.5 22t-21.5 9h-30v102h62v-54q31 -2 56.5 -20t25.5 -54q0 -55 -46 -81.5t-101 -26.5z" />
    <glyph glyph-name="onesuperior" unicode="&#xb9;" horiz-adv-x="312" 
d="M60 322l-7 42l66 12v268h-61l-8 43l107 23h41v-334l64 -13l-8 -41h-194z" />
    <glyph glyph-name="ordmasculine" unicode="&#xba;" horiz-adv-x="354" 
d="M177 612q70 0 111 -39.5t41 -109.5t-39 -109t-113 -39q-73 0 -112.5 39.5t-39.5 108.5q0 68 41.5 108.5t110.5 40.5zM177 574q-34 0 -53.5 -29.5t-19.5 -79.5q0 -51 19 -81.5t54 -30.5q34 0 54 30.5t20 81.5t-20 80t-54 29z" />
    <glyph glyph-name="guillemotright" unicode="&#xbb;" horiz-adv-x="547" 
d="M269 226l-178 -128l-31 35l103 120l-103 122l32 35l191 -135zM475 218l-228 -154l-33 46l146 143l-146 145l33 45l240 -162z" />
    <glyph glyph-name="onequarter" unicode="&#xbc;" horiz-adv-x="802" 
d="M649 717h71l-534 -734h-72zM82 322l-7 42l66 12v268h-61l-8 43l107 23h41v-334l64 -13l-8 -41h-194zM577 146v72l27 81l-112 -153h85zM577 102h-131l-22 30l193 263l39 -10v-239h55l-11 -44h-44v-48l63 -13l-8 -41h-192l-6 42l64 12v48z" />
    <glyph glyph-name="onehalf" unicode="&#xbd;" horiz-adv-x="806" 
d="M640 351q-26 0 -45 -9l-18 -60l-41 8v80q53 25 106 25q57 0 87.5 -30t30.5 -75q0 -41 -24.5 -77t-54 -57.5t-58.5 -46t-35 -44.5h111l15 41l40 -8v-98h-229v32q0 29 16 57.5t39 51.5l46 46t39 51.5t16 58.5q0 54 -41 54zM649 717h71l-534 -734h-72zM82 322l-7 42l66 12
v268h-61l-8 43l107 23h41v-334l64 -13l-8 -41h-194z" />
    <glyph glyph-name="threequarters" unicode="&#xbe;" horiz-adv-x="747" 
d="M291 678l-105 -119q45 -2 81 -32.5t36 -83.5q0 -57 -39.5 -92t-100.5 -35q-64 0 -113 44l24 37q49 -37 86 -37q26 0 46 24t20 57q0 66 -78 66l-28 -6l-21 28l120 136l-50 -19h-54l-14 -42l-39 8v98h214zM624 717h71l-534 -734h-72zM552 146v72l27 81l-112 -153h85z
M552 102h-131l-22 30l193 263l39 -10v-239h55l-11 -44h-44v-48l63 -13l-8 -41h-192l-6 42l64 12v48z" />
    <glyph glyph-name="questiondown" unicode="&#xbf;" horiz-adv-x="407" 
d="M203 289h74q36 -47 36 -139q0 -35 -16.5 -66t-40.5 -54t-48 -44.5t-40.5 -47t-16.5 -53.5q0 -32 23 -51t57 -19q31 0 61 24q16 48 25 81l62 -12v-99q-68 -65 -146 -65q-88 0 -139.5 39t-51.5 116q0 44 18.5 80t45 61t53 47.5t45 49.5t18.5 57q0 33 -19 95zM231 341
q-28 0 -48.5 20t-20.5 48q0 29 20 49t49 20q28 0 48 -20.5t20 -48.5t-20 -48t-48 -20z" />
    <glyph glyph-name="Agrave" unicode="&#xc0;" horiz-adv-x="761" 
d="M422 758l-176 112l81 71l124 -156zM441 717l-109 -17l-230 -597l-87 -32l11 -71h250l10 72l-94 31l48 120h234l45 -120l-79 -32l11 -71h291l11 71l-88 32zM382 471l63 -170h-175l112 284v-114z" />
    <glyph glyph-name="Aacute" unicode="&#xc1;" horiz-adv-x="761" 
d="M534 870l-176 -112l-29 27l124 156zM332 700l109 17l224 -614l88 -32l-11 -71h-291l-11 71l79 32l-45 120h-234l-48 -120l94 -31l-10 -72h-250l-11 71l87 32zM445 301l-63 170v114l-112 -284h175z" />
    <glyph glyph-name="Acircumflex" unicode="&#xc2;" horiz-adv-x="761" 
d="M425 928l116 -170l-32 -21l-118 98l-120 -98l-30 21l115 170h69zM441 717l-109 -17l-230 -597l-87 -32l11 -71h250l10 72l-94 31l48 120h234l45 -120l-79 -32l11 -71h291l11 71l-88 32zM382 471l63 -170h-175l112 284v-114z" />
    <glyph glyph-name="Atilde" unicode="&#xc3;" horiz-adv-x="761" 
d="M489 756h-36l-100 50l-83 -52l-32 21l93 115h34l100 -40l87 42l30 -21zM332 700l109 17l224 -614l88 -32l-11 -71h-291l-11 71l79 32l-45 120h-234l-48 -120l94 -31l-10 -72h-250l-11 71l87 32zM445 301l-63 170v114l-112 -284h175z" />
    <glyph glyph-name="Adieresis" unicode="&#xc4;" horiz-adv-x="761" 
d="M479 876q26 0 45.5 -19t19.5 -46q0 -26 -19.5 -45.5t-45.5 -19.5t-45.5 19.5t-19.5 45.5q0 27 19.5 46t45.5 19zM291 876q27 0 46 -19t19 -46q0 -26 -19 -45.5t-46 -19.5q-26 0 -45.5 19.5t-19.5 45.5q0 27 19.5 46t45.5 19zM332 700l109 17l224 -614l88 -32l-11 -71
h-291l-11 71l79 32l-45 120h-234l-48 -120l94 -31l-10 -72h-250l-11 71l87 32zM445 301l-63 170v114l-112 -284h175z" />
    <glyph glyph-name="Aring" unicode="&#xc5;" horiz-adv-x="761" 
d="M387 930q50 0 80 -25t30 -72t-29 -71t-81 -24t-81 24t-29 71t31 72t79 25zM387 889q-16 0 -26.5 -16.5t-10.5 -38.5q0 -23 10 -39t27 -16t27 16t10 39t-10.5 39t-26.5 16zM441 717l-109 -17l-230 -597l-87 -32l11 -71h250l10 72l-94 31l48 120h234l45 -120l-79 -32
l11 -71h291l11 71l-88 32zM382 471l63 -170h-175l112 284v-114z" />
    <glyph glyph-name="AE" unicode="&#xc6;" horiz-adv-x="1009" 
d="M846 629h-203v-229h113l30 81l72 -10v-221l-71 -10l-31 81h-113v-250h207l53 150l71 -10v-211h-541l-10 71l82 31v121h-268l-54 -121l85 -30l-10 -72h-242l-11 71l87 32l270 597h595v-178l-72 -11zM505 596l-84 33l-149 -328h233v295z" />
    <glyph glyph-name="Ccedilla" unicode="&#xc7;" horiz-adv-x="649" 
d="M396 67q64 0 115 14l51 139l71 -10v-162q-37 -26 -96 -43.5t-117 -20.5v-23q31 -2 56.5 -20t25.5 -54q0 -55 -46 -81.5t-101 -26.5l-20 56q38 0 60 13t22 34q0 13 -7.5 22t-21.5 9h-30v72q-84 6 -149 39t-103 84.5t-57 112.5t-19 129q0 70 23.5 135t67.5 117.5
t115.5 83.5t159.5 31q125 0 237 -64v-156l-72 -11l-46 131q-58 16 -119 16q-216 0 -216 -278q0 -44 6 -82.5t21 -77t39 -66.5t62.5 -45t87.5 -17z" />
    <glyph glyph-name="Egrave" unicode="&#xc8;" horiz-adv-x="613" 
d="M358 758l-176 112l81 71l124 -156zM257 629h193l39 -118l72 11v178h-515l-11 -71l84 -33v-494l-82 -31l10 -71h531v211l-71 10l-53 -150h-197v250h103l31 -81l71 10v221l-72 10l-30 -81h-103v229z" />
    <glyph glyph-name="Eacute" unicode="&#xc9;" horiz-adv-x="613" 
d="M477 870l-176 -112l-29 27l124 156zM450 629h-193v-229h103l30 81l72 -10v-221l-71 -10l-31 81h-103v-250h197l53 150l71 -10v-211h-531l-10 71l82 31v494l-84 33l11 71h515v-178l-72 -11z" />
    <glyph glyph-name="Ecircumflex" unicode="&#xca;" horiz-adv-x="613" 
d="M362 928l116 -170l-32 -21l-118 98l-120 -98l-30 21l115 170h69zM257 629h193l39 -118l72 11v178h-515l-11 -71l84 -33v-494l-82 -31l10 -71h531v211l-71 10l-53 -150h-197v250h103l31 -81l71 10v221l-72 10l-30 -81h-103v229z" />
    <glyph glyph-name="Edieresis" unicode="&#xcb;" horiz-adv-x="613" 
d="M416 876q26 0 45.5 -19t19.5 -46q0 -26 -19.5 -45.5t-45.5 -19.5t-45.5 19.5t-19.5 45.5q0 27 19.5 46t45.5 19zM228 876q27 0 46 -19t19 -46q0 -26 -19 -45.5t-46 -19.5q-26 0 -45.5 19.5t-19.5 45.5q0 27 19.5 46t45.5 19zM450 629h-193v-229h103l30 81l72 -10v-221
l-71 -10l-31 81h-103v-250h197l53 150l71 -10v-211h-531l-10 71l82 31v494l-84 33l11 71h515v-178l-72 -11z" />
    <glyph glyph-name="Igrave" unicode="&#xcc;" horiz-adv-x="428" 
d="M236 758l-176 112l81 71l124 -156zM283 102v494l85 33l-12 71h-284l-12 -71l85 -33v-494l-85 -31l12 -71h284l12 71z" />
    <glyph glyph-name="Iacute" unicode="&#xcd;" horiz-adv-x="428" 
d="M362 870l-176 -112l-29 27l124 156zM283 596v-494l85 -31l-12 -71h-284l-12 71l85 31v494l-85 33l12 71h284l12 -71z" />
    <glyph glyph-name="Icircumflex" unicode="&#xce;" horiz-adv-x="428" 
d="M248 928l116 -170l-32 -21l-118 98l-120 -98l-30 21l115 170h69zM283 102v494l85 33l-12 71h-284l-12 -71l85 -33v-494l-85 -31l12 -71h284l12 71z" />
    <glyph glyph-name="Idieresis" unicode="&#xcf;" horiz-adv-x="428" 
d="M308 876q26 0 45.5 -19t19.5 -46q0 -26 -19.5 -45.5t-45.5 -19.5t-45.5 19.5t-19.5 45.5q0 27 19.5 46t45.5 19zM120 876q27 0 46 -19t19 -46q0 -26 -19 -45.5t-46 -19.5q-26 0 -45.5 19.5t-19.5 45.5q0 27 19.5 46t45.5 19zM283 596v-494l85 -31l-12 -71h-284l-12 71
l85 31v494l-85 33l12 71h284l12 -71z" />
    <glyph glyph-name="Eth" unicode="&#xd0;" horiz-adv-x="735" 
d="M338 0h-292l-10 71l83 31v228h-83v52h83v214l-84 33l10 71h296q179 0 271.5 -96t92.5 -249q0 -155 -94 -255t-273 -100zM341 629h-84v-247h144v-52h-144v-259h84q71 0 120.5 40.5t72 104t22.5 141.5q0 119 -55 195.5t-160 76.5z" />
    <glyph glyph-name="Ntilde" unicode="&#xd1;" horiz-adv-x="746" 
d="M479 756h-36l-100 50l-83 -52l-32 21l93 115h34l100 -40l87 42l30 -21zM25 71l83 32v493l-84 33l10 71h208l281 -415l36 -104v415l-83 33l10 71h223l10 -71l-83 -33v-596l-83 -17l-368 549v-430l83 -31l-11 -71h-221z" />
    <glyph glyph-name="Ograve" unicode="&#xd2;" 
d="M436 758l-176 112l81 71l124 -156zM405 717q162 0 253 -103.5t91 -263.5q0 -164 -86.5 -265.5t-257.5 -101.5q-86 0 -154 31t-108.5 83.5t-61.5 117t-21 135.5q0 70 23 135t65.5 117t109 83.5t147.5 31.5zM405 633q-195 0 -195 -278q0 -288 195 -288q97 0 146.5 74
t49.5 214q0 138 -50 208t-146 70z" />
    <glyph glyph-name="Oacute" unicode="&#xd3;" 
d="M554 870l-176 -112l-29 27l124 156zM405 717q162 0 253 -103.5t91 -263.5q0 -164 -86.5 -265.5t-257.5 -101.5q-86 0 -154 31t-108.5 83.5t-61.5 117t-21 135.5q0 70 23 135t65.5 117t109 83.5t147.5 31.5zM405 633q-195 0 -195 -278q0 -288 195 -288q97 0 146.5 74
t49.5 214q0 138 -50 208t-146 70z" />
    <glyph glyph-name="Ocircumflex" unicode="&#xd4;" 
d="M438 928l116 -170l-32 -21l-118 98l-120 -98l-30 21l115 170h69zM405 717q162 0 253 -103.5t91 -263.5q0 -164 -86.5 -265.5t-257.5 -101.5q-86 0 -154 31t-108.5 83.5t-61.5 117t-21 135.5q0 70 23 135t65.5 117t109 83.5t147.5 31.5zM405 633q-195 0 -195 -278
q0 -288 195 -288q97 0 146.5 74t49.5 214q0 138 -50 208t-146 70z" />
    <glyph glyph-name="Otilde" unicode="&#xd5;" 
d="M483 756h-36l-100 50l-83 -52l-32 21l93 115h34l100 -40l87 42l30 -21zM405 717q162 0 253 -103.5t91 -263.5q0 -164 -86.5 -265.5t-257.5 -101.5q-86 0 -154 31t-108.5 83.5t-61.5 117t-21 135.5q0 70 23 135t65.5 117t109 83.5t147.5 31.5zM405 633q-195 0 -195 -278
q0 -288 195 -288q97 0 146.5 74t49.5 214q0 138 -50 208t-146 70z" />
    <glyph glyph-name="Odieresis" unicode="&#xd6;" 
d="M498 876q26 0 45.5 -19t19.5 -46q0 -26 -19.5 -45.5t-45.5 -19.5t-45.5 19.5t-19.5 45.5q0 27 19.5 46t45.5 19zM310 876q27 0 46 -19t19 -46q0 -26 -19 -45.5t-46 -19.5q-26 0 -45.5 19.5t-19.5 45.5q0 27 19.5 46t45.5 19zM405 717q162 0 253 -103.5t91 -263.5
q0 -164 -86.5 -265.5t-257.5 -101.5q-86 0 -154 31t-108.5 83.5t-61.5 117t-21 135.5q0 70 23 135t65.5 117t109 83.5t147.5 31.5zM405 633q-195 0 -195 -278q0 -288 195 -288q97 0 146.5 74t49.5 214q0 138 -50 208t-146 70z" />
    <glyph glyph-name="multiply" unicode="&#xd7;" horiz-adv-x="560" 
d="M397 124l-128 128l-128 -128l-65 59l131 131l-130 130l62 62l130 -130l130 130l62 -62l-130 -130l130 -131z" />
    <glyph glyph-name="Oslash" unicode="&#xd8;" 
d="M405 717q86 0 157 -33l25 42h57l9 -9l-38 -65q65 -48 99.5 -127t34.5 -175q0 -164 -86.5 -265.5t-257.5 -101.5q-87 0 -160 34l-22 -39h-54l-12 11l35 60q-65 51 -98.5 130.5t-33.5 170.5q0 70 23 135t65.5 117t109 83.5t147.5 31.5zM601 355q0 128 -44 198l-263 -452
q44 -34 111 -34q97 0 146.5 74t49.5 214zM405 633q-195 0 -195 -278q0 -132 42 -204l262 450q-46 32 -109 32z" />
    <glyph glyph-name="Ugrave" unicode="&#xd9;" horiz-adv-x="750" 
d="M436 758l-176 112l81 71l124 -156zM391 -17q260 0 260 316v297l84 33l-10 71h-224l-12 -71l86 -33v-305q0 -110 -43.5 -167t-124.5 -57q-80 0 -117.5 53.5t-37.5 172.5v303l84 33l-10 71h-286l-10 -71l84 -33v-297q0 -94 23 -159t64.5 -97.5t87 -46t102.5 -13.5z" />
    <glyph glyph-name="Uacute" unicode="&#xda;" horiz-adv-x="750" 
d="M569 870l-176 -112l-29 27l124 156zM391 -17q-57 0 -102.5 13.5t-87 46t-64.5 97.5t-23 159v297l-84 33l10 71h286l10 -71l-84 -33v-303q0 -119 37.5 -172.5t117.5 -53.5q81 0 124.5 57t43.5 167v305l-86 33l12 71h224l10 -71l-84 -33v-297q0 -316 -260 -316z" />
    <glyph glyph-name="Ucircumflex" unicode="&#xdb;" horiz-adv-x="750" 
d="M446 928l116 -170l-32 -21l-118 98l-120 -98l-30 21l115 170h69zM391 -17q260 0 260 316v297l84 33l-10 71h-224l-12 -71l86 -33v-305q0 -110 -43.5 -167t-124.5 -57q-80 0 -117.5 53.5t-37.5 172.5v303l84 33l-10 71h-286l-10 -71l84 -33v-297q0 -94 23 -159t64.5 -97.5
t87 -46t102.5 -13.5z" />
    <glyph glyph-name="Udieresis" unicode="&#xdc;" horiz-adv-x="750" 
d="M498 876q26 0 45.5 -19t19.5 -46q0 -26 -19.5 -45.5t-45.5 -19.5t-45.5 19.5t-19.5 45.5q0 27 19.5 46t45.5 19zM310 876q27 0 46 -19t19 -46q0 -26 -19 -45.5t-46 -19.5q-26 0 -45.5 19.5t-19.5 45.5q0 27 19.5 46t45.5 19zM391 -17q-57 0 -102.5 13.5t-87 46
t-64.5 97.5t-23 159v297l-84 33l10 71h286l10 -71l-84 -33v-303q0 -119 37.5 -172.5t117.5 -53.5q81 0 124.5 57t43.5 167v305l-86 33l12 71h224l10 -71l-84 -33v-297q0 -316 -260 -316z" />
    <glyph glyph-name="Yacute" unicode="&#xdd;" horiz-adv-x="685" 
d="M519 870l-176 -112l-29 27l124 156zM291 102v155l-198 339l-88 33l11 71h299l11 -72l-75 -32l106 -176v-63l144 239l-73 33l10 71h231l11 -71l-90 -33l-161 -274v-220l83 -31l-12 -71h-282l-11 71z" />
    <glyph glyph-name="Thorn" unicode="&#xde;" horiz-adv-x="611" 
d="M252 596v-33h84q112 0 173.5 -56t61.5 -157q0 -206 -261 -206h-58v-42l85 -31l-12 -71h-280l-11 71l85 31v494l-85 33l11 71h280l12 -71zM310 485h-58v-264h57q56 0 91 39t35 93q0 132 -125 132z" />
    <glyph glyph-name="germandbls" unicode="&#xdf;" horiz-adv-x="656" 
d="M311 747q108 0 161.5 -48.5t53.5 -103.5q0 -34 -14 -58.5t-34.5 -38t-41 -24.5t-34.5 -26.5t-14 -36.5q0 -25 23.5 -49t57 -44.5t67 -43.5t57 -56t23.5 -72q0 -70 -44 -113t-130 -43q-67 0 -150 40v126l64 12l32 -92q29 -9 47 -9q33 0 51.5 17.5t18.5 44.5q0 28 -23.5 53
t-56.5 45t-66.5 42t-57 54.5t-23.5 71.5q0 34 13 58.5t31 39t36.5 28t31.5 33t13 45.5q0 28 -25 48t-67 20q-56 0 -76 -33.5t-20 -97.5v-536h-173l-12 64l61 20v335h-60l-11 64l71 24v20q0 93 55 156.5t165 63.5z" />
    <glyph glyph-name="agrave" unicode="&#xe0;" horiz-adv-x="508" 
d="M237 561l-126 158l97 47l73 -182zM68 436v-96l67 -12l22 76q42 11 74 11q35 0 60 -22t25 -63v-35q-52 0 -98.5 -7.5t-90.5 -24.5t-70 -52t-26 -83q0 -65 49 -102t120 -37q80 0 129 34l30 -23h127l12 61l-56 22v207q0 90 -54.5 139t-151.5 49q-84 0 -168 -42zM316 233
v-131q-12 -18 -35 -29t-44 -11q-26 0 -47.5 18t-21.5 57q0 43 39.5 69.5t108.5 26.5z" />
    <glyph glyph-name="aacute" unicode="&#xe1;" horiz-adv-x="508" 
d="M366 719l-126 -158l-44 23l73 182zM68 340v96q84 42 168 42q97 0 151.5 -49t54.5 -139v-207l56 -22l-12 -61h-127l-30 23q-49 -34 -129 -34q-71 0 -120 37t-49 102q0 48 26 83t70 52t90.5 24.5t98.5 7.5v35q0 41 -25 63t-60 22q-32 0 -74 -11l-22 -76zM316 102v131
q-69 0 -108.5 -26.5t-39.5 -69.5q0 -39 21.5 -57t47.5 -18q21 0 44 11t35 29z" />
    <glyph glyph-name="acircumflex" unicode="&#xe2;" horiz-adv-x="508" 
d="M276 735l116 -170l-32 -21l-118 98l-120 -98l-30 21l115 170h69zM68 436v-96l67 -12l22 76q42 11 74 11q35 0 60 -22t25 -63v-35q-52 0 -98.5 -7.5t-90.5 -24.5t-70 -52t-26 -83q0 -65 49 -102t120 -37q80 0 129 34l30 -23h127l12 61l-56 22v207q0 90 -54.5 139
t-151.5 49q-84 0 -168 -42zM316 233v-131q-12 -18 -35 -29t-44 -11q-26 0 -47.5 18t-21.5 57q0 43 39.5 69.5t108.5 26.5z" />
    <glyph glyph-name="atilde" unicode="&#xe3;" horiz-adv-x="508" 
d="M331 563h-36l-100 50l-83 -52l-32 21l93 115h34l100 -40l87 42l30 -21zM68 340v96q84 42 168 42q97 0 151.5 -49t54.5 -139v-207l56 -22l-12 -61h-127l-30 23q-49 -34 -129 -34q-71 0 -120 37t-49 102q0 48 26 83t70 52t90.5 24.5t98.5 7.5v35q0 41 -25 63t-60 22
q-32 0 -74 -11l-22 -76zM316 102v131q-69 0 -108.5 -26.5t-39.5 -69.5q0 -39 21.5 -57t47.5 -18q21 0 44 11t35 29z" />
    <glyph glyph-name="adieresis" unicode="&#xe4;" horiz-adv-x="508" 
d="M335 697q26 0 45.5 -19t19.5 -46q0 -26 -19.5 -45.5t-45.5 -19.5t-45.5 19.5t-19.5 45.5q0 27 19.5 46t45.5 19zM147 697q27 0 46 -19t19 -46q0 -26 -19 -45.5t-46 -19.5q-26 0 -45.5 19.5t-19.5 45.5q0 27 19.5 46t45.5 19zM68 340v96q84 42 168 42q97 0 151.5 -49
t54.5 -139v-207l56 -22l-12 -61h-127l-30 23q-49 -34 -129 -34q-71 0 -120 37t-49 102q0 48 26 83t70 52t90.5 24.5t98.5 7.5v35q0 41 -25 63t-60 22q-32 0 -74 -11l-22 -76zM316 102v131q-69 0 -108.5 -26.5t-39.5 -69.5q0 -39 21.5 -57t47.5 -18q21 0 44 11t35 29z" />
    <glyph glyph-name="aring" unicode="&#xe5;" horiz-adv-x="508" 
d="M247 737q50 0 80 -25t30 -72t-29 -71t-81 -24t-81 24t-29 71t31 72t79 25zM247 696q-16 0 -26.5 -16.5t-10.5 -38.5q0 -23 10 -39t27 -16t27 16t10 39t-10.5 39t-26.5 16zM68 436v-96l67 -12l22 76q42 11 74 11q35 0 60 -22t25 -63v-35q-52 0 -98.5 -7.5t-90.5 -24.5
t-70 -52t-26 -83q0 -65 49 -102t120 -37q80 0 129 34l30 -23h127l12 61l-56 22v207q0 90 -54.5 139t-151.5 49q-84 0 -168 -42zM316 233v-131q-12 -18 -35 -29t-44 -11q-26 0 -47.5 18t-21.5 57q0 43 39.5 69.5t108.5 26.5z" />
    <glyph glyph-name="ae" unicode="&#xe6;" horiz-adv-x="825" 
d="M594 62q85 0 154 46l34 -51q-84 -68 -193 -68q-123 0 -193 53q-77 -53 -196 -53q-71 0 -120 37t-49 102q0 48 26 83t70 52t90.5 24.5t98.5 7.5v35q0 41 -25 63t-60 22q-32 0 -74 -11l-22 -76l-67 12v96q84 42 168 42q108 0 161 -59q71 59 175 59q92 0 155 -45t63 -117
q0 -46 -22 -84h-315q2 -76 39.5 -123t101.5 -47zM316 102v131q-69 0 -108.5 -26.5t-39.5 -69.5q0 -39 21.5 -57t47.5 -18q21 0 44 11t35 29zM456 294h205q3 15 3 29q0 43 -26 67.5t-66 24.5q-48 0 -78.5 -33t-37.5 -88z" />
    <glyph glyph-name="ccedilla" unicode="&#xe7;" horiz-adv-x="514" 
d="M313 415q-61 0 -98.5 -43.5t-37.5 -119.5q0 -86 32.5 -138t104.5 -52q77 0 144 46l34 -51q-69 -63 -168 -68v-28q31 -2 56.5 -20t25.5 -54q0 -55 -46 -81.5t-101 -26.5l-20 56q38 0 60 13t22 34q0 13 -7.5 22t-21.5 9h-30v79q-109 11 -165.5 74.5t-56.5 166.5
q0 114 75 179.5t196 65.5q82 0 166 -42v-96l-67 -12l-21 75q-31 12 -76 12z" />
    <glyph glyph-name="egrave" unicode="&#xe8;" horiz-adv-x="549" 
d="M300 561l-126 158l97 47l73 -182zM385 294h-205q7 55 37.5 88t78.5 33q40 0 66 -24.5t26 -67.5q0 -14 -3 -29zM318 62q-64 0 -101.5 47t-39.5 123h315q22 38 22 84q0 72 -63 117t-155 45q-110 0 -183 -66t-73 -178q0 -115 67.5 -180t205.5 -65q109 0 193 68l-34 51
q-69 -46 -154 -46z" />
    <glyph glyph-name="eacute" unicode="&#xe9;" horiz-adv-x="549" 
d="M424 719l-126 -158l-44 23l73 182zM180 294h205q3 15 3 29q0 43 -26 67.5t-66 24.5q-48 0 -78.5 -33t-37.5 -88zM318 62q85 0 154 46l34 -51q-84 -68 -193 -68q-138 0 -205.5 65t-67.5 180q0 112 73 178t183 66q92 0 155 -45t63 -117q0 -46 -22 -84h-315q2 -76 39.5 -123
t101.5 -47z" />
    <glyph glyph-name="ecircumflex" unicode="&#xea;" horiz-adv-x="549" 
d="M330 735l116 -170l-32 -21l-118 98l-120 -98l-30 21l115 170h69zM385 294h-205q7 55 37.5 88t78.5 33q40 0 66 -24.5t26 -67.5q0 -14 -3 -29zM318 62q-64 0 -101.5 47t-39.5 123h315q22 38 22 84q0 72 -63 117t-155 45q-110 0 -183 -66t-73 -178q0 -115 67.5 -180
t205.5 -65q109 0 193 68l-34 51q-69 -46 -154 -46z" />
    <glyph glyph-name="edieresis" unicode="&#xeb;" horiz-adv-x="549" 
d="M392 697q26 0 45.5 -19t19.5 -46q0 -26 -19.5 -45.5t-45.5 -19.5t-45.5 19.5t-19.5 45.5q0 27 19.5 46t45.5 19zM204 697q27 0 46 -19t19 -46q0 -26 -19 -45.5t-46 -19.5q-26 0 -45.5 19.5t-19.5 45.5q0 27 19.5 46t45.5 19zM180 294h205q3 15 3 29q0 43 -26 67.5
t-66 24.5q-48 0 -78.5 -33t-37.5 -88zM318 62q85 0 154 46l34 -51q-84 -68 -193 -68q-138 0 -205.5 65t-67.5 180q0 112 73 178t183 66q92 0 155 -45t63 -117q0 -46 -22 -84h-315q2 -76 39.5 -123t101.5 -47z" />
    <glyph glyph-name="igrave" unicode="&#xec;" horiz-adv-x="334" 
d="M167 561l-126 158l97 47l73 -182zM294 62l-64 21v384l-61 11l-122 -11l11 -61h46v-323l-64 -21l12 -62h230z" />
    <glyph glyph-name="iacute" unicode="&#xed;" horiz-adv-x="334" 
d="M271 719l-126 -158l-44 23l73 182zM230 83l64 -21l-12 -62h-230l-12 62l64 21v323h-46l-11 61l122 11l61 -11v-384z" />
    <glyph glyph-name="icircumflex" unicode="&#xee;" horiz-adv-x="334" 
d="M201 735l116 -170l-32 -21l-118 98l-120 -98l-30 21l115 170h69zM294 62l-64 21v384l-61 11l-122 -11l11 -61h46v-323l-64 -21l12 -62h230z" />
    <glyph glyph-name="idieresis" unicode="&#xef;" horiz-adv-x="334" 
d="M261 697q26 0 45.5 -19t19.5 -46q0 -26 -19.5 -45.5t-45.5 -19.5t-45.5 19.5t-19.5 45.5q0 27 19.5 46t45.5 19zM73 697q27 0 46 -19t19 -46q0 -26 -19 -45.5t-46 -19.5q-26 0 -45.5 19.5t-19.5 45.5q0 27 19.5 46t45.5 19zM230 83l64 -21l-12 -62h-230l-12 62l64 21v323
h-46l-11 61l122 11l61 -11v-384z" />
    <glyph glyph-name="eth" unicode="&#xf0;" horiz-adv-x="563" 
d="M445 732l-105 -75q182 -157 182 -406q0 -119 -63.5 -190t-175.5 -71q-111 0 -175 67t-64 177q0 111 66 177t179 66q46 0 73 -8q-27 64 -98 134l-114 -80l-39 44l107 76q-51 42 -107 73l28 61q85 -34 152 -82l115 82zM284 53q54 1 83 58.5t29 138.5t-17 144q-34 20 -85 20
t-83 -54t-32 -125q0 -70 30 -125.5t75 -56.5z" />
    <glyph glyph-name="ntilde" unicode="&#xf1;" horiz-adv-x="624" 
d="M380 563h-36l-100 50l-83 -52l-32 21l93 115h34l100 -40l87 42l30 -21zM311 406q-29 0 -87 -20v-303l64 -22l-11 -61h-231l-11 61l63 22v323h-45l-11 61l128 11l41 -26q78 26 125 26q88 0 139 -44t51 -125v-226l63 -22l-12 -61h-228l-12 61l63 22v241q0 37 -27 59.5
t-62 22.5z" />
    <glyph glyph-name="ograve" unicode="&#xf2;" horiz-adv-x="579" 
d="M300 561l-126 158l97 47l73 -182zM290 478q114 0 181.5 -65t67.5 -179q0 -116 -64.5 -180t-184.5 -64q-119 0 -184.5 65.5t-65.5 178.5q0 112 68 178t182 66zM290 415q-56 0 -88.5 -48t-32.5 -130q0 -84 32 -134t89 -50t89.5 50t32.5 134q0 83 -33 130.5t-89 47.5z" />
    <glyph glyph-name="oacute" unicode="&#xf3;" horiz-adv-x="579" 
d="M429 719l-126 -158l-44 23l73 182zM290 478q114 0 181.5 -65t67.5 -179q0 -116 -64.5 -180t-184.5 -64q-119 0 -184.5 65.5t-65.5 178.5q0 112 68 178t182 66zM290 415q-56 0 -88.5 -48t-32.5 -130q0 -84 32 -134t89 -50t89.5 50t32.5 134q0 83 -33 130.5t-89 47.5z" />
    <glyph glyph-name="ocircumflex" unicode="&#xf4;" horiz-adv-x="579" 
d="M323 735l116 -170l-32 -21l-118 98l-120 -98l-30 21l115 170h69zM290 478q114 0 181.5 -65t67.5 -179q0 -116 -64.5 -180t-184.5 -64q-119 0 -184.5 65.5t-65.5 178.5q0 112 68 178t182 66zM290 415q-56 0 -88.5 -48t-32.5 -130q0 -84 32 -134t89 -50t89.5 50t32.5 134
q0 83 -33 130.5t-89 47.5z" />
    <glyph glyph-name="otilde" unicode="&#xf5;" horiz-adv-x="579" 
d="M368 563h-36l-100 50l-83 -52l-32 21l93 115h34l100 -40l87 42l30 -21zM290 478q114 0 181.5 -65t67.5 -179q0 -116 -64.5 -180t-184.5 -64q-119 0 -184.5 65.5t-65.5 178.5q0 112 68 178t182 66zM290 415q-56 0 -88.5 -48t-32.5 -130q0 -84 32 -134t89 -50t89.5 50
t32.5 134q0 83 -33 130.5t-89 47.5z" />
    <glyph glyph-name="odieresis" unicode="&#xf6;" horiz-adv-x="579" 
d="M383 697q26 0 45.5 -19t19.5 -46q0 -26 -19.5 -45.5t-45.5 -19.5t-45.5 19.5t-19.5 45.5q0 27 19.5 46t45.5 19zM195 697q27 0 46 -19t19 -46q0 -26 -19 -45.5t-46 -19.5q-26 0 -45.5 19.5t-19.5 45.5q0 27 19.5 46t45.5 19zM290 478q114 0 181.5 -65t67.5 -179
q0 -116 -64.5 -180t-184.5 -64q-119 0 -184.5 65.5t-65.5 178.5q0 112 68 178t182 66zM290 415q-56 0 -88.5 -48t-32.5 -130q0 -84 32 -134t89 -50t89.5 50t32.5 134q0 83 -33 130.5t-89 47.5z" />
    <glyph glyph-name="divide" unicode="&#xf7;" horiz-adv-x="624" 
d="M309 554q29 0 49 -20t20 -48t-20 -48t-49 -20q-28 0 -48 20t-20 48t20 48t48 20zM309 230q28 0 48.5 -20t20.5 -48t-20 -48.5t-49 -20.5q-28 0 -48 20.5t-20 48.5t20 48t48 20zM58 286l10 80h498l-10 -80h-498z" />
    <glyph glyph-name="oslash" unicode="&#xf8;" horiz-adv-x="579" 
d="M290 478q65 0 117 -23l19 29h48l8 -7l-31 -47q88 -64 88 -196q0 -116 -64.5 -180t-184.5 -64q-67 0 -118 21l-21 -32h-46l-9 9l32 48q-88 64 -88 198q0 112 68 178t182 66zM412 237q0 62 -19 106l-174 -262q30 -28 71 -28q57 0 89.5 50t32.5 134zM290 415
q-56 0 -88.5 -48t-32.5 -130q0 -67 19 -111l173 261q-30 28 -71 28z" />
    <glyph glyph-name="ugrave" unicode="&#xf9;" horiz-adv-x="589" 
d="M312 561l-126 158l97 47l73 -182zM384 406v-306q-14 -17 -39 -27.5t-46 -10.5q-36 0 -63.5 25t-27.5 76v301l-58 14l-120 -13l11 -59h41v-234q0 -83 48.5 -133t133.5 -50q84 0 132 34l30 -23h136l12 61l-64 22v380l-50 15l-129 -13l11 -59h42z" />
    <glyph glyph-name="uacute" unicode="&#xfa;" horiz-adv-x="589" 
d="M427 719l-126 -158l-44 23l73 182zM384 100v306h-42l-11 59l129 13l50 -15v-380l64 -22l-12 -61h-136l-30 23q-48 -34 -132 -34q-85 0 -133.5 50t-48.5 133v234h-41l-11 59l120 13l58 -14v-301q0 -51 27.5 -76t63.5 -25q21 0 46 10.5t39 27.5z" />
    <glyph glyph-name="ucircumflex" unicode="&#xfb;" horiz-adv-x="589" 
d="M339 735l116 -170l-32 -21l-118 98l-120 -98l-30 21l115 170h69zM384 406v-306q-14 -17 -39 -27.5t-46 -10.5q-36 0 -63.5 25t-27.5 76v301l-58 14l-120 -13l11 -59h41v-234q0 -83 48.5 -133t133.5 -50q84 0 132 34l30 -23h136l12 61l-64 22v380l-50 15l-129 -13l11 -59
h42z" />
    <glyph glyph-name="udieresis" unicode="&#xfc;" horiz-adv-x="589" 
d="M383 697q26 0 45.5 -19t19.5 -46q0 -26 -19.5 -45.5t-45.5 -19.5t-45.5 19.5t-19.5 45.5q0 27 19.5 46t45.5 19zM195 697q27 0 46 -19t19 -46q0 -26 -19 -45.5t-46 -19.5q-26 0 -45.5 19.5t-19.5 45.5q0 27 19.5 46t45.5 19zM384 100v306h-42l-11 59l129 13l50 -15v-380
l64 -22l-12 -61h-136l-30 23q-48 -34 -132 -34q-85 0 -133.5 50t-48.5 133v234h-41l-11 59l120 13l58 -14v-301q0 -51 27.5 -76t63.5 -25q21 0 46 10.5t39 27.5z" />
    <glyph glyph-name="yacute" unicode="&#xfd;" horiz-adv-x="608" 
d="M438 719l-126 -158l-44 23l73 182zM524 384l-171 -488q-13 -37 -40.5 -82.5t-53.5 -63.5l-135 11l-11 60q133 20 170 116l20 52l-31 11l-181 384l-73 22l12 61h258l12 -61l-77 -22l113 -221v-83l106 304l-68 22l12 61h195l12 -61z" />
    <glyph glyph-name="thorn" unicode="&#xfe;" horiz-adv-x="578" 
d="M195 724v-266q52 19 108 19q114 0 174.5 -59.5t60.5 -174.5q0 -108 -80.5 -175.5t-191.5 -67.5h-28v53h22q52 0 96.5 57.5t44.5 143.5q0 152 -106 152q-48 0 -100 -20v-548l63 -20l-11 -57h-230l-11 57l63 20v827h-55l-12 60l134 12z" />
    <glyph glyph-name="ydieresis" unicode="&#xff;" horiz-adv-x="608" 
d="M411 697q26 0 45.5 -19t19.5 -46q0 -26 -19.5 -45.5t-45.5 -19.5t-45.5 19.5t-19.5 45.5q0 27 19.5 46t45.5 19zM223 697q27 0 46 -19t19 -46q0 -26 -19 -45.5t-46 -19.5q-26 0 -45.5 19.5t-19.5 45.5q0 27 19.5 46t45.5 19zM524 384l-171 -488q-13 -37 -40.5 -82.5
t-53.5 -63.5l-135 11l-11 60q133 20 170 116l20 52l-31 11l-181 384l-73 22l12 61h258l12 -61l-77 -22l113 -221v-83l106 304l-68 22l12 61h195l12 -61z" />
    <glyph glyph-name="Amacron" unicode="&#x100;" horiz-adv-x="761" 
d="M217 763v66h341v-66h-341zM441 717l-109 -17l-230 -597l-87 -32l11 -71h250l10 72l-94 31l48 120h234l45 -120l-79 -32l11 -71h291l11 71l-88 32zM382 471l63 -170h-175l112 284v-114z" />
    <glyph glyph-name="amacron" unicode="&#x101;" horiz-adv-x="508" 
d="M77 580v66h341v-66h-341zM68 436v-96l67 -12l22 76q42 11 74 11q35 0 60 -22t25 -63v-35q-52 0 -98.5 -7.5t-90.5 -24.5t-70 -52t-26 -83q0 -65 49 -102t120 -37q80 0 129 34l30 -23h127l12 61l-56 22v207q0 90 -54.5 139t-151.5 49q-84 0 -168 -42zM316 233v-131
q-12 -18 -35 -29t-44 -11q-26 0 -47.5 18t-21.5 57q0 43 39.5 69.5t108.5 26.5z" />
    <glyph glyph-name="Abreve" unicode="&#x102;" horiz-adv-x="761" 
d="M386 842q82 0 129 57l37 -25q-18 -48 -62 -83.5t-104 -35.5t-104 35.5t-61 83.5l36 25q46 -57 129 -57zM332 700l109 17l224 -614l88 -32l-11 -71h-291l-11 71l79 32l-45 120h-234l-48 -120l94 -31l-10 -72h-250l-11 71l87 32zM445 301l-63 170v114l-112 -284h175z" />
    <glyph glyph-name="abreve" unicode="&#x103;" horiz-adv-x="508" 
d="M256 658q82 0 129 57l37 -25q-18 -48 -62 -83.5t-104 -35.5t-104 35.5t-61 83.5l36 25q47 -57 129 -57zM68 340v96q84 42 168 42q97 0 151.5 -49t54.5 -139v-207l56 -22l-12 -61h-127l-30 23q-49 -34 -129 -34q-71 0 -120 37t-49 102q0 48 26 83t70 52t90.5 24.5
t98.5 7.5v35q0 41 -25 63t-60 22q-32 0 -74 -11l-22 -76zM316 102v131q-69 0 -108.5 -26.5t-39.5 -69.5q0 -39 21.5 -57t47.5 -18q21 0 44 11t35 29z" />
    <glyph glyph-name="Aogonek" unicode="&#x104;" horiz-adv-x="761" 
d="M332 700l109 17l224 -614l88 -32l-11 -71q-88 -42 -88 -85q0 -33 41 -33q14 0 31 5l17 -72q-34 -12 -69 -12q-45 0 -73.5 26.5t-28.5 69.5q0 60 76 101h-197l-11 71l79 32l-45 120h-234l-48 -120l94 -31l-10 -72h-250l-11 71l87 32zM445 301l-63 170v114l-112 -284h175z
" />
    <glyph glyph-name="aogonek" unicode="&#x105;" horiz-adv-x="508" 
d="M68 340v96q84 42 168 42q97 0 151.5 -49t54.5 -139v-207l56 -22l-12 -61q-88 -42 -88 -85q0 -33 41 -33q14 0 31 5l17 -72q-34 -12 -69 -12q-45 0 -73.5 26.5t-28.5 69.5q0 60 76 101h-33l-30 23q-49 -34 -129 -34q-71 0 -120 37t-49 102q0 48 26 83t70 52t90.5 24.5
t98.5 7.5v35q0 41 -25 63t-60 22q-32 0 -74 -11l-22 -76zM316 102v131q-69 0 -108.5 -26.5t-39.5 -69.5q0 -39 21.5 -57t47.5 -18q21 0 44 11t35 29z" />
    <glyph glyph-name="Cacute" unicode="&#x106;" horiz-adv-x="649" 
d="M396 67q64 0 115 14l51 139l71 -10v-162q-41 -29 -107.5 -47t-129.5 -18q-94 0 -166.5 31t-115 84t-63.5 116.5t-21 135.5q0 70 23.5 135t67.5 117.5t115.5 83.5t159.5 31q125 0 237 -64v-156l-72 -11l-46 131q-58 16 -119 16q-216 0 -216 -278q0 -44 6 -82.5t21 -77
t39 -66.5t62.5 -45t87.5 -17zM560 870l-176 -112l-29 27l124 156z" />
    <glyph glyph-name="cacute" unicode="&#x107;" horiz-adv-x="514" 
d="M429 719l-126 -158l-44 23l73 182zM313 415q-61 0 -98.5 -43.5t-37.5 -119.5q0 -86 32.5 -138t104.5 -52q77 0 144 46l34 -51q-74 -68 -183 -68q-132 0 -200.5 65.5t-68.5 178.5q0 114 75 179.5t196 65.5q82 0 166 -42v-96l-67 -12l-21 75q-31 12 -76 12z" />
    <glyph glyph-name="Ccircumflex" unicode="&#x108;" horiz-adv-x="649" 
d="M429 928l116 -170l-32 -21l-118 98l-120 -98l-30 21l115 170h69zM396 67q-49 0 -87.5 17t-62.5 45t-39 66.5t-21 77t-6 82.5q0 278 216 278q61 0 119 -16l46 -131l72 11v156q-112 64 -237 64q-88 0 -159.5 -31t-115.5 -83.5t-67.5 -117.5t-23.5 -135q0 -72 21 -135.5
t63.5 -116.5t115 -84t166.5 -31q63 0 129.5 18t107.5 47v162l-71 10l-51 -139q-51 -14 -115 -14z" />
    <glyph glyph-name="ccircumflex" unicode="&#x109;" horiz-adv-x="514" 
d="M317 735l116 -170l-32 -21l-118 98l-120 -98l-30 21l115 170h69zM313 415q45 0 76 -12l21 -75l67 12v96q-84 42 -166 42q-121 0 -196 -65.5t-75 -179.5q0 -113 68.5 -178.5t200.5 -65.5q109 0 183 68l-34 51q-67 -46 -144 -46q-72 0 -104.5 52t-32.5 138q0 76 37.5 119.5
t98.5 43.5z" />
    <glyph glyph-name="Cdotaccent" unicode="&#x10a;" horiz-adv-x="649" 
d="M398 875q27 0 46 -19t19 -46q0 -26 -19 -45.5t-46 -19.5q-26 0 -45.5 19.5t-19.5 45.5q0 27 19.5 46t45.5 19zM396 67q64 0 115 14l51 139l71 -10v-162q-41 -29 -107.5 -47t-129.5 -18q-94 0 -166.5 31t-115 84t-63.5 116.5t-21 135.5q0 70 23.5 135t67.5 117.5
t115.5 83.5t159.5 31q125 0 237 -64v-156l-72 -11l-46 131q-58 16 -119 16q-216 0 -216 -278q0 -44 6 -82.5t21 -77t39 -66.5t62.5 -45t87.5 -17z" />
    <glyph glyph-name="cdotaccent" unicode="&#x10b;" horiz-adv-x="514" 
d="M307 697q27 0 46 -19t19 -46q0 -26 -19 -45.5t-46 -19.5q-26 0 -45.5 19.5t-19.5 45.5q0 27 19.5 46t45.5 19zM313 415q-61 0 -98.5 -43.5t-37.5 -119.5q0 -86 32.5 -138t104.5 -52q77 0 144 46l34 -51q-74 -68 -183 -68q-132 0 -200.5 65.5t-68.5 178.5q0 114 75 179.5
t196 65.5q82 0 166 -42v-96l-67 -12l-21 75q-31 12 -76 12z" />
    <glyph glyph-name="Ccaron" unicode="&#x10c;" horiz-adv-x="649" 
d="M545 907l-116 -170h-69l-115 170l30 21l120 -98l118 98zM396 67q64 0 115 14l51 139l71 -10v-162q-41 -29 -107.5 -47t-129.5 -18q-94 0 -166.5 31t-115 84t-63.5 116.5t-21 135.5q0 70 23.5 135t67.5 117.5t115.5 83.5t159.5 31q125 0 237 -64v-156l-72 -11l-46 131
q-58 16 -119 16q-216 0 -216 -278q0 -44 6 -82.5t21 -77t39 -66.5t62.5 -45t87.5 -17z" />
    <glyph glyph-name="ccaron" unicode="&#x10d;" horiz-adv-x="514" 
d="M438 714l-116 -170h-69l-115 170l30 21l120 -98l118 98zM313 415q-61 0 -98.5 -43.5t-37.5 -119.5q0 -86 32.5 -138t104.5 -52q77 0 144 46l34 -51q-74 -68 -183 -68q-132 0 -200.5 65.5t-68.5 178.5q0 114 75 179.5t196 65.5q82 0 166 -42v-96l-67 -12l-21 75
q-31 12 -76 12z" />
    <glyph glyph-name="Dcaron" unicode="&#x10e;" horiz-adv-x="735" 
d="M341 629h-84v-558h84q71 0 120.5 40.5t72 104t22.5 141.5q0 119 -55 195.5t-160 76.5zM338 0h-292l-10 71l83 31v494l-84 33l10 71h296q179 0 271.5 -96t92.5 -249q0 -155 -94 -255t-273 -100zM460 907l-116 -170h-69l-115 170l30 21l120 -98l118 98z" />
    <glyph glyph-name="dcaron" unicode="&#x10f;" horiz-adv-x="571" 
d="M599 697q-23 0 -39 -16.5t-16 -39.5q0 -21 18 -42h17q-5 -36 -38 -62l28 -28q85 43 85 132q0 24 -16 40t-39 16zM375 93v293q-35 20 -81 20q-58 0 -90.5 -44t-32.5 -122t33.5 -128t84.5 -50q55 0 86 31zM418 0l-30 23q-42 -34 -105 -34q-119 0 -183.5 64t-64.5 177
q0 111 70.5 179.5t182.5 68.5q45 0 87 -13v210h-54l-11 57l132 15l59 -15v-649l65 -22l-12 -61h-136z" />
    <glyph glyph-name="Dcroat" unicode="&#x110;" horiz-adv-x="735" 
d="M338 0h-292l-10 71l83 31v228h-83v52h83v214l-84 33l10 71h296q179 0 271.5 -96t92.5 -249q0 -155 -94 -255t-273 -100zM341 629h-84v-247h144v-52h-144v-259h84q71 0 120.5 40.5t72 104t22.5 141.5q0 119 -55 195.5t-160 76.5z" />
    <glyph glyph-name="dcroat" unicode="&#x111;" horiz-adv-x="571" 
d="M418 0l-30 23q-42 -34 -105 -34q-119 0 -183.5 64t-64.5 177q0 111 70.5 179.5t182.5 68.5q45 0 87 -13v95h-184v51h184v64h-54l-11 57l132 15l59 -15v-121h67v-51h-67v-477l65 -22l-12 -61h-136zM375 93v293q-35 20 -81 20q-58 0 -90.5 -44t-32.5 -122t33.5 -128
t84.5 -50q55 0 86 31z" />
    <glyph glyph-name="Emacron" unicode="&#x112;" horiz-adv-x="613" 
d="M143 763v66h341v-66h-341zM257 629h193l39 -118l72 11v178h-515l-11 -71l84 -33v-494l-82 -31l10 -71h531v211l-71 10l-53 -150h-197v250h103l31 -81l71 10v221l-72 10l-30 -81h-103v229z" />
    <glyph glyph-name="emacron" unicode="&#x113;" horiz-adv-x="549" 
d="M116 580v66h341v-66h-341zM385 294h-205q7 55 37.5 88t78.5 33q40 0 66 -24.5t26 -67.5q0 -14 -3 -29zM318 62q-64 0 -101.5 47t-39.5 123h315q22 38 22 84q0 72 -63 117t-155 45q-110 0 -183 -66t-73 -178q0 -115 67.5 -180t205.5 -65q109 0 193 68l-34 51
q-69 -46 -154 -46z" />
    <glyph glyph-name="Ebreve" unicode="&#x114;" horiz-adv-x="613" 
d="M315 842q83 0 129 57l37 -25q-18 -48 -62 -83.5t-104 -35.5t-104 35.5t-61 83.5l36 25q46 -57 129 -57zM450 629h-193v-229h103l30 81l72 -10v-221l-71 -10l-31 81h-103v-250h197l53 150l71 -10v-211h-531l-10 71l82 31v494l-84 33l11 71h515v-178l-72 -11z" />
    <glyph glyph-name="ebreve" unicode="&#x115;" horiz-adv-x="549" 
d="M291 658q83 0 129 57l37 -25q-18 -48 -62 -83.5t-104 -35.5t-104 35.5t-61 83.5l36 25q46 -57 129 -57zM180 294h205q3 15 3 29q0 43 -26 67.5t-66 24.5q-48 0 -78.5 -33t-37.5 -88zM318 62q85 0 154 46l34 -51q-84 -68 -193 -68q-138 0 -205.5 65t-67.5 180
q0 112 73 178t183 66q92 0 155 -45t63 -117q0 -46 -22 -84h-315q2 -76 39.5 -123t101.5 -47z" />
    <glyph glyph-name="Edotaccent" unicode="&#x116;" horiz-adv-x="613" 
d="M317 875q27 0 46 -19t19 -46q0 -26 -19 -45.5t-46 -19.5q-26 0 -45.5 19.5t-19.5 45.5q0 27 19.5 46t45.5 19zM450 629h-193v-229h103l30 81l72 -10v-221l-71 -10l-31 81h-103v-250h197l53 150l71 -10v-211h-531l-10 71l82 31v494l-84 33l11 71h515v-178l-72 -11z" />
    <glyph glyph-name="edotaccent" unicode="&#x117;" horiz-adv-x="549" 
d="M294 697q27 0 46 -19t19 -46q0 -26 -19 -45.5t-46 -19.5q-26 0 -45.5 19.5t-19.5 45.5q0 27 19.5 46t45.5 19zM180 294h205q3 15 3 29q0 43 -26 67.5t-66 24.5q-48 0 -78.5 -33t-37.5 -88zM318 62q85 0 154 46l34 -51q-84 -68 -193 -68q-138 0 -205.5 65t-67.5 180
q0 112 73 178t183 66q92 0 155 -45t63 -117q0 -46 -22 -84h-315q2 -76 39.5 -123t101.5 -47z" />
    <glyph glyph-name="Eogonek" unicode="&#x118;" horiz-adv-x="613" 
d="M450 629h-193v-229h103l30 81l72 -10v-221l-71 -10l-31 81h-103v-250h197l53 150l71 -10v-211q-88 -42 -88 -85q0 -33 41 -33q14 0 31 5l17 -72q-34 -12 -69 -12q-45 0 -73.5 26.5t-28.5 69.5q0 60 76 101h-437l-10 71l82 31v494l-84 33l11 71h515v-178l-72 -11z" />
    <glyph glyph-name="eogonek" unicode="&#x119;" horiz-adv-x="549" 
d="M318 62q85 0 154 46l34 -51q-52 -42 -110 -58q-86 -42 -86 -84q0 -33 41 -33q14 0 31 5l17 -72q-34 -12 -69 -12q-45 0 -73.5 26.5t-28.5 69.5q0 54 58 91q-124 7 -185 70.5t-61 173.5q0 112 73 178t183 66q92 0 155 -45t63 -117q0 -46 -22 -84h-315q2 -76 39.5 -123
t101.5 -47zM180 294h205q3 15 3 29q0 43 -26 67.5t-66 24.5q-48 0 -78.5 -33t-37.5 -88z" />
    <glyph glyph-name="Ecaron" unicode="&#x11a;" horiz-adv-x="613" 
d="M474 907l-116 -170h-69l-115 170l30 21l120 -98l118 98zM450 629h-193v-229h103l30 81l72 -10v-221l-71 -10l-31 81h-103v-250h197l53 150l71 -10v-211h-531l-10 71l82 31v494l-84 33l11 71h515v-178l-72 -11z" />
    <glyph glyph-name="ecaron" unicode="&#x11b;" horiz-adv-x="549" 
d="M180 294h205q3 15 3 29q0 43 -26 67.5t-66 24.5q-48 0 -78.5 -33t-37.5 -88zM318 62q85 0 154 46l34 -51q-84 -68 -193 -68q-138 0 -205.5 65t-67.5 180q0 112 73 178t183 66q92 0 155 -45t63 -117q0 -46 -22 -84h-315q2 -76 39.5 -123t101.5 -47zM446 714l-116 -170h-69
l-115 170l30 21l120 -98l118 98z" />
    <glyph glyph-name="Gcircumflex" unicode="&#x11c;" horiz-adv-x="757" 
d="M446 928l116 -170l-32 -21l-118 98l-120 -98l-30 21l115 170h69zM184 355q0 75 22.5 136t75 101.5t128.5 40.5q58 0 119 -17l47 -131l71 11v156q-112 65 -237 65q-165 0 -270 -105.5t-105 -261.5q0 -71 23 -135.5t67 -117t117.5 -83.5t167.5 -31q63 0 130 18t107 47v195
l85 34l-12 71h-284l-11 -71l83 -33v-165q-44 -12 -99 -12q-62 0 -107.5 25.5t-70 68.5t-36 91t-11.5 103z" />
    <glyph glyph-name="gcircumflex" unicode="&#x11d;" horiz-adv-x="482" 
d="M290 735l116 -170l-32 -21l-118 98l-120 -98l-30 21l115 170h69zM195 108l88 -31q86 -30 128.5 -64.5t42.5 -92.5q0 -84 -68 -127t-168 -43q-82 0 -138 30t-56 92q0 37 31.5 68t74.5 46l36 -44q-22 -12 -33 -30.5t-11 -34.5q0 -24 26.5 -40t69.5 -16t74.5 21t31.5 52
q0 26 -26.5 48t-61.5 33l-102 33q-79 27 -79 85l48 80q-61 44 -61 131q0 72 57.5 123t146.5 51q47 0 88 -11l138 12l-15 -73h-58l45 -28q15 -33 15 -74q0 -83 -61 -127.5t-159 -44.5q-42 0 -70 8l-3 -8q1 -16 29 -24zM246 415q-38 0 -61.5 -27.5t-23.5 -80.5q0 -54 23.5 -83
t61.5 -29q41 0 66.5 28.5t25.5 85.5q0 58 -26.5 82t-65.5 24z" />
    <glyph glyph-name="Gbreve" unicode="&#x11e;" horiz-adv-x="757" 
d="M410 842q83 0 129 57l37 -25q-18 -48 -62 -83.5t-104 -35.5t-104 35.5t-61 83.5l36 25q47 -57 129 -57zM184 355q0 -55 11.5 -103t36 -91t70 -68.5t107.5 -25.5q55 0 99 12v165l-83 33l11 71h284l12 -71l-85 -34v-195q-40 -29 -107 -47t-130 -18q-94 0 -167.5 31
t-117.5 83.5t-67 117t-23 135.5q0 156 105 261.5t270 105.5q125 0 237 -65v-156l-71 -11l-47 131q-61 17 -119 17q-76 0 -128.5 -40.5t-75 -101.5t-22.5 -136z" />
    <glyph glyph-name="gbreve" unicode="&#x11f;" horiz-adv-x="482" 
d="M242 658q82 0 129 57l37 -25q-18 -48 -62 -83.5t-104 -35.5t-104 35.5t-61 83.5l36 25q46 -57 129 -57zM195 108l88 -31q86 -30 128.5 -64.5t42.5 -92.5q0 -84 -68 -127t-168 -43q-82 0 -138 30t-56 92q0 37 31.5 68t74.5 46l36 -44q-22 -12 -33 -30.5t-11 -34.5
q0 -24 26.5 -40t69.5 -16t74.5 21t31.5 52q0 26 -26.5 48t-61.5 33l-102 33q-79 27 -79 85l48 80q-61 44 -61 131q0 72 57.5 123t146.5 51q47 0 88 -11l138 12l-15 -73h-58l45 -28q15 -33 15 -74q0 -83 -61 -127.5t-159 -44.5q-42 0 -70 8l-3 -8q1 -16 29 -24zM246 415
q-38 0 -61.5 -27.5t-23.5 -80.5q0 -54 23.5 -83t61.5 -29q41 0 66.5 28.5t25.5 85.5q0 58 -26.5 82t-65.5 24z" />
    <glyph glyph-name="Gdotaccent" unicode="&#x120;" horiz-adv-x="757" 
d="M411 875q27 0 46 -19t19 -46q0 -26 -19 -45.5t-46 -19.5q-26 0 -45.5 19.5t-19.5 45.5q0 27 19.5 46t45.5 19zM184 355q0 -55 11.5 -103t36 -91t70 -68.5t107.5 -25.5q55 0 99 12v165l-83 33l11 71h284l12 -71l-85 -34v-195q-40 -29 -107 -47t-130 -18q-94 0 -167.5 31
t-117.5 83.5t-67 117t-23 135.5q0 156 105 261.5t270 105.5q125 0 237 -65v-156l-71 -11l-47 131q-61 17 -119 17q-76 0 -128.5 -40.5t-75 -101.5t-22.5 -136z" />
    <glyph glyph-name="gdotaccent" unicode="&#x121;" horiz-adv-x="482" 
d="M244 697q27 0 46 -19t19 -46q0 -26 -19 -45.5t-46 -19.5q-26 0 -45.5 19.5t-19.5 45.5q0 27 19.5 46t45.5 19zM195 108l88 -31q86 -30 128.5 -64.5t42.5 -92.5q0 -84 -68 -127t-168 -43q-82 0 -138 30t-56 92q0 37 31.5 68t74.5 46l36 -44q-22 -12 -33 -30.5t-11 -34.5
q0 -24 26.5 -40t69.5 -16t74.5 21t31.5 52q0 26 -26.5 48t-61.5 33l-102 33q-79 27 -79 85l48 80q-61 44 -61 131q0 72 57.5 123t146.5 51q47 0 88 -11l138 12l-15 -73h-58l45 -28q15 -33 15 -74q0 -83 -61 -127.5t-159 -44.5q-42 0 -70 8l-3 -8q1 -16 29 -24zM246 415
q-38 0 -61.5 -27.5t-23.5 -80.5q0 -54 23.5 -83t61.5 -29q41 0 66.5 28.5t25.5 85.5q0 58 -26.5 82t-65.5 24z" />
    <glyph glyph-name="Gcommaaccen" unicode="&#x122;" horiz-adv-x="757" 
d="M415 -36q23 0 39 -16t16 -40q0 -89 -85 -132l-28 28q33 26 38 62h-17q-18 21 -18 42q0 23 16 39.5t39 16.5zM184 355q0 -55 11.5 -103t36 -91t70 -68.5t107.5 -25.5q55 0 99 12v165l-83 33l11 71h284l12 -71l-85 -34v-195q-40 -29 -107 -47t-130 -18q-94 0 -167.5 31
t-117.5 83.5t-67 117t-23 135.5q0 156 105 261.5t270 105.5q125 0 237 -65v-156l-71 -11l-47 131q-61 17 -119 17q-76 0 -128.5 -40.5t-75 -101.5t-22.5 -136z" />
    <glyph glyph-name="gcommaaccent" unicode="&#x123;" horiz-adv-x="482" 
d="M244 529q-23 0 -39 16t-16 40q0 89 85 132l28 -28q-33 -26 -38 -62h17q18 -21 18 -42q0 -23 -16 -39.5t-39 -16.5zM195 108l88 -31q86 -30 128.5 -64.5t42.5 -92.5q0 -84 -68 -127t-168 -43q-82 0 -138 30t-56 92q0 37 31.5 68t74.5 46l36 -44q-22 -12 -33 -30.5
t-11 -34.5q0 -24 26.5 -40t69.5 -16t74.5 21t31.5 52q0 26 -26.5 48t-61.5 33l-102 33q-79 27 -79 85l48 80q-61 44 -61 131q0 72 57.5 123t146.5 51q47 0 88 -11l138 12l-15 -73h-58l45 -28q15 -33 15 -74q0 -83 -61 -127.5t-159 -44.5q-42 0 -70 8l-3 -8q1 -16 29 -24z
M246 415q-38 0 -61.5 -27.5t-23.5 -80.5q0 -54 23.5 -83t61.5 -29q41 0 66.5 28.5t25.5 85.5q0 58 -26.5 82t-65.5 24z" />
    <glyph glyph-name="Hcircumflex" unicode="&#x124;" horiz-adv-x="820" 
d="M444 928l116 -170l-32 -21l-118 98l-120 -98l-30 21l115 170h69zM696 596l84 33l-10 71h-286l-10 -71l84 -33v-197h-296v197l84 33l-10 71h-286l-10 -71l84 -33v-494l-83 -31l11 -71h282l10 71l-82 31v220h296v-220l-84 -31l10 -71h284l11 71l-83 32v493z" />
    <glyph glyph-name="hcircumflex" unicode="&#x125;" horiz-adv-x="602" 
d="M155 928l116 -170l-32 -21l-118 98l-120 -98l-30 21l115 170h69zM208 83l63 -22l-12 -61h-227l-12 61l62 22v592h-55l-12 57l134 15l59 -15v-280q56 26 113 26q88 0 138 -40t50 -119v-236l63 -22l-12 -61h-229l-12 61l64 22v250q0 37 -19.5 54.5t-49.5 17.5
q-57 0 -106 -20v-302z" />
    <glyph glyph-name="Hbar" unicode="&#x126;" horiz-adv-x="820" 
d="M780 629l-84 -33v-68h84v-52h-84v-373l83 -32l-11 -71h-284l-10 71l84 31v220h-296v-220l82 -31l-10 -71h-282l-11 71l83 31v374h-84v52h84v68l-84 33l10 71h286l10 -71l-84 -33v-68h296v68l-84 33l10 71h286zM262 399h296v77h-296v-77z" />
    <glyph glyph-name="hbar" unicode="&#x127;" horiz-adv-x="602" 
d="M208 83l63 -22l-12 -61h-227l-12 61l62 22v476h-67v52h67v64h-55l-12 57l134 15l59 -15v-121h156v-52h-156v-107q56 26 113 26q88 0 138 -40t50 -119v-236l63 -22l-12 -61h-229l-12 61l64 22v250q0 37 -19.5 54.5t-49.5 17.5q-57 0 -106 -20v-302z" />
    <glyph glyph-name="Itilde" unicode="&#x128;" horiz-adv-x="428" 
d="M303 756h-36l-100 50l-83 -52l-32 21l93 115h34l100 -40l87 42l30 -21zM283 596v-494l85 -31l-12 -71h-284l-12 71l85 31v494l-85 33l12 71h284l12 -71z" />
    <glyph glyph-name="itilde" unicode="&#x129;" horiz-adv-x="334" 
d="M246 563h-36l-100 50l-83 -52l-32 21l93 115h34l100 -40l87 42l30 -21zM230 83l64 -21l-12 -62h-230l-12 62l64 21v323h-46l-11 61l122 11l61 -11v-384z" />
    <glyph glyph-name="uni012A" unicode="&#x12a;" horiz-adv-x="428" 
d="M44 763v66h341v-66h-341zM283 102v494l85 33l-12 71h-284l-12 -71l85 -33v-494l-85 -31l12 -71h284l12 71z" />
    <glyph glyph-name="imacron" unicode="&#x12b;" horiz-adv-x="334" 
d="M-3 580v66h341v-66h-341zM294 62l-64 21v384l-61 11l-122 -11l11 -61h46v-323l-64 -21l12 -62h230z" />
    <glyph glyph-name="Ibreve" unicode="&#x12c;" horiz-adv-x="428" 
d="M214 842q82 0 129 57l37 -25q-18 -48 -62 -83.5t-104 -35.5t-104 35.5t-61 83.5l36 25q47 -57 129 -57zM283 596v-494l85 -31l-12 -71h-284l-12 71l85 31v494l-85 33l12 71h284l12 -71z" />
    <glyph glyph-name="uni012D" unicode="&#x12d;" horiz-adv-x="334" 
d="M230 83l64 -21l-12 -62h-230l-12 62l64 21v323h-46l-11 61l122 11l61 -11v-384zM168 658q82 0 129 57l37 -25q-18 -48 -62 -83.5t-104 -35.5t-104 35.5t-61 83.5l36 25q47 -57 129 -57z" />
    <glyph glyph-name="Iogonek" unicode="&#x12e;" horiz-adv-x="428" 
d="M217 15l63 -15q-88 -42 -88 -85q0 -33 41 -33q14 0 31 5l17 -72q-34 -12 -69 -12q-45 0 -73.5 26.5t-28.5 69.5q0 23 10 42.5t29.5 34t32.5 22t35 17.5zM283 596v-494l85 -31l-12 -71h-284l-12 71l85 31v494l-85 33l12 71h284l12 -71z" />
    <glyph glyph-name="iogonek" unicode="&#x12f;" horiz-adv-x="334" 
d="M181 15l63 -15q-88 -42 -88 -85q0 -33 41 -33q14 0 31 5l17 -72q-34 -12 -69 -12q-45 0 -73.5 26.5t-28.5 69.5q0 23 10 42.5t29.5 34t32.5 22t35 17.5zM230 83l64 -22l-12 -61h-230l-12 61l64 22v323h-46l-11 61l122 11l61 -11v-384zM159 697q27 0 46 -19t19 -46
q0 -26 -19 -45.5t-46 -19.5q-26 0 -45.5 19.5t-19.5 45.5q0 27 19.5 46t45.5 19z" />
    <glyph glyph-name="Idotaccent" unicode="&#x130;" horiz-adv-x="428" 
d="M214 875q27 0 46 -19t19 -46q0 -26 -19 -45.5t-46 -19.5q-26 0 -45.5 19.5t-19.5 45.5q0 27 19.5 46t45.5 19zM283 596v-494l85 -31l-12 -71h-284l-12 71l85 31v494l-85 33l12 71h284l12 -71z" />
    <glyph glyph-name="dotlessi" unicode="&#x131;" horiz-adv-x="334" 
d="M230 83l64 -21l-12 -62h-230l-12 62l64 21v323h-46l-11 61l122 11l61 -11v-384z" />
    <glyph glyph-name="Jcircumflex" unicode="&#x134;" horiz-adv-x="396" 
d="M240 928l116 -170l-32 -21l-118 98l-120 -98l-30 21l115 170h69zM144 596v-399q0 -98 -29 -172t-120 -136l38 -64q248 80 248 348v423l85 33l-11 71h-284l-12 -71z" />
    <glyph glyph-name="jcircumflex" unicode="&#x135;" horiz-adv-x="301" 
d="M181 735l116 -170l-32 -21l-118 98l-120 -98l-30 21l115 170h69zM33 467l135 11l59 -11v-387q0 -56 -9.5 -100.5t-34 -89.5t-73.5 -80.5t-121 -59.5l-34 57q91 60 118.5 126.5t27.5 162.5v310h-55z" />
    <glyph glyph-name="Kcommaaccent" unicode="&#x136;" horiz-adv-x="728" 
d="M404 -36q23 0 39 -16t16 -40q0 -89 -85 -132l-28 28q33 26 38 62h-17q-18 21 -18 42q0 23 16 39.5t39 16.5zM257 596v-492l84 -32l-10 -72h-286l-10 71l84 33v492l-84 34l11 70h285l10 -71zM481 0l9 54l-191 286v53l199 203l-63 33l12 71h241l11 -71q-82 -23 -129 -72
l-177 -180l68 -32l164 -242l87 -32l-11 -71h-220z" />
    <glyph glyph-name="kcommaaccent" unicode="&#x137;" horiz-adv-x="592" 
d="M320 -36q-23 0 -39 -16.5t-16 -39.5q0 -21 18 -42h17q-5 -36 -38 -62l28 -28q85 43 85 132q0 24 -16 40t-39 16zM555 467h-202l-14 -61l50 -22l-128 -123v-39l124 -171l-10 -51h195l12 61l-73 22l-106 150l-60 13l119 113q33 33 105 47zM230 83l63 -22l-12 -61h-229
l-12 61l64 22v592h-44l-12 57l123 15l59 -15v-649z" />
    <glyph glyph-name="kgreenlandic" unicode="&#x138;" horiz-adv-x="592" 
d="M555 467h-202l-14 -61l50 -22l-128 -123v-39l124 -171l-10 -51h195l12 62l-73 21l-106 150l-60 13l119 113q37 37 105 47zM230 83l63 -21l-12 -62h-229l-12 62l64 21v327h-44l-12 57l123 15l59 -15v-384z" />
    <glyph glyph-name="Lacute" unicode="&#x139;" horiz-adv-x="586" 
d="M45 700h286l11 -71l-85 -33v-525h193l55 150l71 -10v-211h-531l-10 71l84 32v493l-84 33zM382 870l-176 -112l-29 27l124 156z" />
    <glyph glyph-name="lacute" unicode="&#x13a;" horiz-adv-x="344" 
d="M299 870l-176 -112l-29 27l124 156zM235 83l69 -22l-12 -61h-240l-12 61l69 22v592h-52l-11 57l130 15l59 -15v-649z" />
    <glyph glyph-name="Lcommaaccent" unicode="&#x13b;" horiz-adv-x="586" 
d="M320 -36q-23 0 -39 -16.5t-16 -39.5q0 -21 18 -42h17q-5 -36 -38 -62l28 -28q85 43 85 132q0 24 -16 40t-39 16zM45 700h286l11 -71l-85 -33v-525h193l55 150l71 -10v-211h-531l-10 71l84 32v493l-84 33z" />
    <glyph glyph-name="lcommaaccent" unicode="&#x13c;" horiz-adv-x="344" 
d="M174 -36q-23 0 -39 -16.5t-16 -39.5q0 -21 18 -42h17q-5 -36 -38 -62l28 -28q85 43 85 132q0 24 -16 40t-39 16zM235 83l69 -22l-12 -61h-240l-12 61l69 22v592h-52l-11 57l130 15l59 -15v-649z" />
    <glyph glyph-name="Lcaron" unicode="&#x13d;" horiz-adv-x="586" 
d="M439 585q-23 0 -39 -16.5t-16 -39.5q0 -21 18 -42h17q-5 -36 -38 -62l28 -28q85 43 85 132q0 24 -16 40t-39 16zM45 700h286l11 -71l-85 -33v-525h193l55 150l71 -10v-211h-531l-10 71l84 32v493l-84 33z" />
    <glyph glyph-name="lcaron" unicode="&#x13e;" horiz-adv-x="344" 
d="M336 687q-23 0 -39 -16.5t-16 -39.5q0 -21 18 -42h17q-5 -36 -38 -62l28 -28q85 43 85 132q0 24 -16 40t-39 16zM235 83l69 -22l-12 -61h-240l-12 61l69 22v592h-52l-11 57l130 15l59 -15v-649z" />
    <glyph glyph-name="Ldot" unicode="&#x13f;" horiz-adv-x="586" 
d="M431 467q-26 0 -45.5 -19t-19.5 -46q0 -26 19.5 -45.5t45.5 -19.5q27 0 46 19.5t19 45.5q0 27 -19 46t-46 19zM45 700h286l11 -71l-85 -33v-525h193l55 150l71 -10v-211h-531l-10 71l84 32v493l-84 33z" />
    <glyph glyph-name="ldot" unicode="&#x140;" horiz-adv-x="344" 
d="M345 467q-26 0 -45.5 -19t-19.5 -46q0 -26 19.5 -45.5t45.5 -19.5q27 0 46 19.5t19 45.5q0 27 -19 46t-46 19zM235 83l69 -22l-12 -61h-240l-12 61l69 22v592h-52l-11 57l130 15l59 -15v-649z" />
    <glyph glyph-name="Lslash" unicode="&#x141;" horiz-adv-x="586" 
d="M45 700h286l11 -71l-85 -33v-157l72 28v-72l-72 -28v-296h193l55 150l71 -10v-211h-531l-10 71l84 32v212l-84 -31v72l84 31v209l-84 33z" />
    <glyph glyph-name="lslash" unicode="&#x142;" horiz-adv-x="344" 
d="M235 83l69 -22l-12 -61h-240l-12 61l69 22v232l-84 -31v72l84 31v288h-52l-11 57l130 15l59 -15v-297l84 32v-72l-84 -32v-280z" />
    <glyph glyph-name="Nacute" unicode="&#x143;" horiz-adv-x="746" 
d="M557 870l-176 -112l-29 27l124 156zM25 71l83 32v493l-84 33l10 71h208l281 -415l36 -104v415l-83 33l10 71h223l10 -71l-83 -33v-596l-83 -17l-368 549v-430l83 -31l-11 -71h-221z" />
    <glyph glyph-name="nacute" unicode="&#x144;" horiz-adv-x="624" 
d="M421 719l-126 -158l-44 23l73 182zM311 406q-29 0 -87 -20v-303l64 -22l-11 -61h-231l-11 61l63 22v323h-45l-11 61l128 11l41 -26q78 26 125 26q88 0 139 -44t51 -125v-226l63 -22l-12 -61h-228l-12 61l63 22v241q0 37 -27 59.5t-62 22.5z" />
    <glyph glyph-name="Ncommaaccent" unicode="&#x145;" horiz-adv-x="746" 
d="M388 -36q23 0 39 -16t16 -40q0 -89 -85 -132l-28 28q33 26 38 62h-17q-18 21 -18 42q0 23 16 39.5t39 16.5zM25 71l83 32v493l-84 33l10 71h208l281 -415l36 -104v415l-83 33l10 71h223l10 -71l-83 -33v-596l-83 -17l-368 549v-430l83 -31l-11 -71h-221z" />
    <glyph glyph-name="ncommaaccent" unicode="&#x146;" horiz-adv-x="624" 
d="M312 -36q-23 0 -39 -16.5t-16 -39.5q0 -21 18 -42h17q-5 -36 -38 -62l28 -28q85 43 85 132q0 24 -16 40t-39 16zM311 406q-29 0 -87 -20v-303l64 -22l-11 -61h-231l-11 61l63 22v323h-45l-11 61l128 11l41 -26q78 26 125 26q88 0 139 -44t51 -125v-226l63 -22l-12 -61
h-228l-12 61l63 22v241q0 37 -27 59.5t-62 22.5z" />
    <glyph glyph-name="Ncaron" unicode="&#x147;" horiz-adv-x="746" 
d="M528 907l-116 -170h-69l-115 170l30 21l120 -98l118 98zM25 71l83 32v493l-84 33l10 71h208l281 -415l36 -104v415l-83 33l10 71h223l10 -71l-83 -33v-596l-83 -17l-368 549v-430l83 -31l-11 -71h-221z" />
    <glyph glyph-name="ncaron" unicode="&#x148;" horiz-adv-x="624" 
d="M459 714l-116 -170h-69l-115 170l30 21l120 -98l118 98zM311 406q-29 0 -87 -20v-303l64 -22l-11 -61h-231l-11 61l63 22v323h-45l-11 61l128 11l41 -26q78 26 125 26q88 0 139 -44t51 -125v-226l63 -22l-12 -61h-228l-12 61l63 22v241q0 37 -27 59.5t-62 22.5z" />
    <glyph glyph-name="napostrophe" unicode="&#x149;" horiz-adv-x="624" 
d="M-40 585q23 0 39 -16t16 -40q0 -89 -85 -132l-28 28q33 26 38 62h-17q-18 21 -18 42q0 23 16 39.5t39 16.5zM311 406q-29 0 -87 -20v-303l64 -22l-11 -61h-231l-11 61l63 22v323h-45l-11 61l128 11l41 -26q78 26 125 26q88 0 139 -44t51 -125v-226l63 -22l-12 -61h-228
l-12 61l63 22v241q0 37 -27 59.5t-62 22.5z" />
    <glyph glyph-name="Eng" unicode="&#x14a;" horiz-adv-x="784" 
d="M25 71l83 32v493l-84 33l10 71h208l271 -400l46 -143v439l-83 33l10 71h253l10 -71l-83 -33v-423q0 -48 -3.5 -84t-16 -79.5t-35.5 -75t-64 -61t-99 -48.5l-38 64q82 56 118 131l-343 512v-430l83 -31l-11 -71h-221z" />
    <glyph glyph-name="eng" unicode="&#x14b;" horiz-adv-x="600" 
d="M400 324q0 37 -27 59.5t-62 22.5q-29 0 -87 -20v-303l64 -22l-11 -61h-231l-11 61l63 22v323h-45l-11 61l128 11l41 -26q78 26 125 26q88 0 139 -44t51 -125v-229q0 -56 -9.5 -100.5t-34 -89.5t-73.5 -80.5t-121 -59.5l-34 57q88 58 117 123t29 153v241z" />
    <glyph glyph-name="Omacron" unicode="&#x14c;" 
d="M234 763v66h341v-66h-341zM405 717q162 0 253 -103.5t91 -263.5q0 -164 -86.5 -265.5t-257.5 -101.5q-86 0 -154 31t-108.5 83.5t-61.5 117t-21 135.5q0 70 23 135t65.5 117t109 83.5t147.5 31.5zM405 633q-195 0 -195 -278q0 -288 195 -288q97 0 146.5 74t49.5 214
q0 138 -50 208t-146 70z" />
    <glyph glyph-name="omacron" unicode="&#x14d;" horiz-adv-x="579" 
d="M119 580v66h341v-66h-341zM290 478q114 0 181.5 -65t67.5 -179q0 -116 -64.5 -180t-184.5 -64q-119 0 -184.5 65.5t-65.5 178.5q0 112 68 178t182 66zM290 415q-56 0 -88.5 -48t-32.5 -130q0 -84 32 -134t89 -50t89.5 50t32.5 134q0 83 -33 130.5t-89 47.5z" />
    <glyph glyph-name="Obreve" unicode="&#x14e;" 
d="M404 842q82 0 129 57l37 -25q-18 -48 -62 -83.5t-104 -35.5t-104 35.5t-61 83.5l36 25q47 -57 129 -57zM405 717q162 0 253 -103.5t91 -263.5q0 -164 -86.5 -265.5t-257.5 -101.5q-86 0 -154 31t-108.5 83.5t-61.5 117t-21 135.5q0 70 23 135t65.5 117t109 83.5
t147.5 31.5zM405 633q-195 0 -195 -278q0 -288 195 -288q97 0 146.5 74t49.5 214q0 138 -50 208t-146 70z" />
    <glyph glyph-name="obreve" unicode="&#x14f;" horiz-adv-x="579" 
d="M289 658q82 0 129 57l37 -25q-18 -48 -62 -83.5t-104 -35.5t-104 35.5t-61 83.5l36 25q46 -57 129 -57zM290 478q114 0 181.5 -65t67.5 -179q0 -116 -64.5 -180t-184.5 -64q-119 0 -184.5 65.5t-65.5 178.5q0 112 68 178t182 66zM290 415q-56 0 -88.5 -48t-32.5 -130
q0 -84 32 -134t89 -50t89.5 50t32.5 134q0 83 -33 130.5t-89 47.5z" />
    <glyph glyph-name="Ohungarumlaut" unicode="&#x150;" 
d="M656 870l-176 -112l-29 27l124 156zM487 870l-176 -112l-29 27l124 156zM405 717q162 0 253 -103.5t91 -263.5q0 -164 -86.5 -265.5t-257.5 -101.5q-86 0 -154 31t-108.5 83.5t-61.5 117t-21 135.5q0 70 23 135t65.5 117t109 83.5t147.5 31.5zM405 633q-195 0 -195 -278
q0 -288 195 -288q97 0 146.5 74t49.5 214q0 138 -50 208t-146 70z" />
    <glyph glyph-name="ohungarumlaut" unicode="&#x151;" horiz-adv-x="579" 
d="M347 719l-126 -158l-44 23l73 182zM494 719l-126 -158l-44 23l73 182zM290 478q114 0 181.5 -65t67.5 -179q0 -116 -64.5 -180t-184.5 -64q-119 0 -184.5 65.5t-65.5 178.5q0 112 68 178t182 66zM290 415q-56 0 -88.5 -48t-32.5 -130q0 -84 32 -134t89 -50t89.5 50
t32.5 134q0 83 -33 130.5t-89 47.5z" />
    <glyph glyph-name="OE" unicode="&#x152;" horiz-adv-x="1015" 
d="M522 107v488q-46 38 -117 38q-195 0 -195 -278q0 -288 195 -288q71 0 117 40zM980 0h-452q-56 -17 -123 -17q-86 0 -154 31t-108.5 83.5t-61.5 117t-21 135.5q0 70 23 135t65.5 117t109 83.5t147.5 31.5q64 0 118 -17h440v-178l-72 -11l-39 118h-193v-229h103l30 81
l72 -10v-221l-71 -10l-31 81h-103v-250h197l53 150l71 -10v-211z" />
    <glyph glyph-name="oe" unicode="&#x153;" horiz-adv-x="921" 
d="M690 62q85 0 154 46l34 -51q-84 -68 -193 -68q-139 0 -208 67q-64 -66 -187 -66q-119 0 -184.5 65.5t-65.5 178.5q0 112 68 178t182 66q121 0 188 -72q74 72 190 72q92 0 155 -45t63 -117q0 -46 -22 -84h-315q2 -76 39.5 -123t101.5 -47zM290 415q-56 0 -88.5 -48
t-32.5 -130q0 -84 32 -134t89 -50t89.5 50t32.5 134v8q-2 80 -35 125t-87 45zM552 294h205q3 15 3 29q0 43 -26 67.5t-66 24.5q-48 0 -78.5 -33t-37.5 -88z" />
    <glyph glyph-name="Racute" unicode="&#x154;" horiz-adv-x="690" 
d="M499 870l-176 -112l-29 27l124 156zM258 629v-526l83 -32l-11 -71h-282l-11 71l82 31v494l-84 33l12 71h345q111 0 171 -53.5t60 -147.5q0 -78 -65.5 -132t-142.5 -54l66 -34l100 -177l87 -31l-11 -71h-219l10 55l-148 258v63h64q55 0 90 38t35 85q0 57 -34.5 93.5
t-98.5 36.5h-98z" />
    <glyph glyph-name="racute" unicode="&#x155;" horiz-adv-x="454" 
d="M357 719l-126 -158l-44 23l73 182zM444 340l-67 -12l-23 74q-14 4 -40 4q-37 0 -90 -20v-303l83 -22l-12 -61h-248l-12 61l63 22v323h-45l-12 61l130 11l41 -26q73 26 129 26q47 0 103 -22v-116z" />
    <glyph glyph-name="Rcommaaccent" unicode="&#x156;" horiz-adv-x="690" 
d="M378 -36q-23 0 -39 -16.5t-16 -39.5q0 -21 18 -42h17q-5 -36 -38 -62l28 -28q85 43 85 132q0 24 -16 40t-39 16zM258 629v-526l83 -32l-11 -71h-282l-11 71l82 31v494l-84 33l12 71h345q111 0 171 -53.5t60 -147.5q0 -78 -65.5 -132t-142.5 -54l66 -34l100 -177l87 -31
l-11 -71h-219l10 55l-148 258v63h64q55 0 90 38t35 85q0 57 -34.5 93.5t-98.5 36.5h-98z" />
    <glyph glyph-name="rcommaaccent" unicode="&#x157;" horiz-adv-x="454" 
d="M194 -36q-23 0 -39 -16.5t-16 -39.5q0 -21 18 -42h17q-5 -36 -38 -62l28 -28q85 43 85 132q0 24 -16 40t-39 16zM444 340l-67 -12l-23 74q-14 4 -40 4q-37 0 -90 -20v-303l83 -22l-12 -61h-248l-12 61l63 22v323h-45l-12 61l130 11l41 -26q73 26 129 26q47 0 103 -22
v-116z" />
    <glyph glyph-name="Rcaron" unicode="&#x158;" horiz-adv-x="690" 
d="M472 907l-116 -170h-69l-115 170l30 21l120 -98l118 98zM258 629v-526l83 -32l-11 -71h-282l-11 71l82 31v494l-84 33l12 71h345q111 0 171 -53.5t60 -147.5q0 -78 -65.5 -132t-142.5 -54l66 -34l100 -177l87 -31l-11 -71h-219l10 55l-148 258v63h64q55 0 90 38t35 85
q0 57 -34.5 93.5t-98.5 36.5h-98z" />
    <glyph glyph-name="rcaron" unicode="&#x159;" horiz-adv-x="454" 
d="M375 714l-116 -170h-69l-115 170l30 21l120 -98l118 98zM444 340l-67 -12l-23 74q-14 4 -40 4q-37 0 -90 -20v-303l83 -22l-12 -61h-248l-12 61l63 22v323h-45l-12 61l130 11l41 -26q73 26 129 26q47 0 103 -22v-116z" />
    <glyph glyph-name="Sacute" unicode="&#x15a;" horiz-adv-x="582" 
d="M439 870l-176 -112l-29 27l124 156zM50 527q0 91 70.5 140.5t173.5 49.5q107 0 214 -64v-156l-72 -11l-47 134q-44 13 -95 13q-55 0 -86.5 -23.5t-31.5 -65.5q0 -21 11.5 -39.5t33.5 -33.5t39 -24.5t43 -20.5t30 -13q93 -39 149 -93.5t56 -136.5q0 -91 -67 -145.5
t-197 -54.5t-221 65v162l71 10l51 -131q46 -22 92 -22q63 0 104.5 23t41.5 62q0 22 -11.5 42t-36.5 37t-42.5 27t-53 26t-44.5 20q-29 14 -41 20.5t-38 22.5t-38.5 31t-28.5 37t-22.5 50t-6.5 62z" />
    <glyph glyph-name="sacute" unicode="&#x15b;" horiz-adv-x="452" 
d="M345 719l-126 -158l-44 23l73 182zM213 -10q-90 0 -173 41v118l67 13l34 -99q27 -10 64 -10q39 0 65.5 14t26.5 40q0 35 -99 81q-35 16 -54 27t-47 31t-41.5 45.5t-13.5 56.5q0 63 53 96.5t145 33.5q85 0 154 -42v-96l-68 -12l-21 77q-40 10 -75 10q-30 0 -51.5 -15
t-21.5 -37q0 -11 8 -21t24 -19.5t30 -16t35.5 -15.5t32.5 -14q63 -30 94 -60t31 -82q0 -66 -54 -105.5t-145 -39.5z" />
    <glyph glyph-name="Scircumflex" unicode="&#x15c;" horiz-adv-x="582" 
d="M325 928l116 -170l-32 -21l-118 98l-120 -98l-30 21l115 170h69zM50 527q0 -34 6.5 -62t22.5 -50t28.5 -37t38.5 -31t38 -22.5t41 -20.5q9 -4 44.5 -20t53 -26t42.5 -27t36.5 -37t11.5 -42q0 -39 -41.5 -62t-104.5 -23q-46 0 -92 22l-51 131l-71 -10v-162q91 -65 221 -65
t197 54.5t67 145.5q0 82 -56 136.5t-149 93.5q-4 2 -30 13t-43 20.5t-39 24.5t-33.5 33.5t-11.5 39.5q0 42 31.5 65.5t86.5 23.5q51 0 95 -13l47 -134l72 11v156q-107 64 -214 64q-103 0 -173.5 -49.5t-70.5 -140.5z" />
    <glyph glyph-name="scircumflex" unicode="&#x15d;" horiz-adv-x="452" 
d="M213 -10q91 0 145 39.5t54 105.5q0 52 -31 82t-94 60q-11 5 -32.5 14t-35.5 15.5t-30 16t-24 19.5t-8 21q0 22 21.5 37t51.5 15q35 0 75 -10l21 -77l68 12v96q-69 42 -154 42q-92 0 -145 -33.5t-53 -96.5q0 -31 13.5 -56.5t41.5 -45.5t47 -31t54 -27q99 -46 99 -81
q0 -26 -26.5 -40t-65.5 -14q-37 0 -64 10l-34 99l-67 -13v-118q83 -41 173 -41zM253 735l116 -170l-32 -21l-118 98l-120 -98l-30 21l115 170h69z" />
    <glyph glyph-name="Scedilla" unicode="&#x15e;" horiz-adv-x="582" 
d="M50 527q0 91 70.5 140.5t173.5 49.5q107 0 214 -64v-156l-72 -11l-47 134q-44 13 -95 13q-55 0 -86.5 -23.5t-31.5 -65.5q0 -21 11.5 -39.5t33.5 -33.5t39 -24.5t43 -20.5t30 -13q93 -39 149 -93.5t56 -136.5q0 -84 -57.5 -137t-169.5 -61v-24q31 -2 56.5 -20t25.5 -54
q0 -55 -46 -81.5t-101 -26.5l-20 56q38 0 60 13t22 34q0 13 -7.5 22t-21.5 9h-30v71q-116 6 -196 64v162l71 10l51 -131q46 -22 92 -22q63 0 104.5 23t41.5 62q0 22 -11.5 42t-36.5 37t-42.5 27t-53 26t-44.5 20q-29 14 -41 20.5t-38 22.5t-38.5 31t-28.5 37t-22.5 50
t-6.5 62z" />
    <glyph glyph-name="scedilla" unicode="&#x15f;" horiz-adv-x="452" 
d="M177 -221l-20 56q38 0 60 13t22 34q0 13 -7.5 22t-21.5 9h-30v79q-81 9 -140 39v118l67 13l34 -99q27 -10 64 -10q39 0 65.5 14t26.5 40q0 35 -99 81q-35 16 -54 27t-47 31t-41.5 45.5t-13.5 56.5q0 63 53 96.5t145 33.5q85 0 154 -42v-96l-68 -12l-21 77q-40 10 -75 10
q-30 0 -51.5 -15t-21.5 -37q0 -11 8 -21t24 -19.5t30 -16t35.5 -15.5t32.5 -14q63 -30 94 -60t31 -82q0 -60 -46 -98.5t-124 -45.5v-30q31 -2 56.5 -20t25.5 -54q0 -55 -46 -81.5t-101 -26.5z" />
    <glyph glyph-name="Scaron" unicode="&#x160;" horiz-adv-x="582" 
d="M50 527q0 91 70.5 140.5t173.5 49.5q107 0 214 -64v-156l-72 -11l-47 134q-44 13 -95 13q-55 0 -86.5 -23.5t-31.5 -65.5q0 -21 11.5 -39.5t33.5 -33.5t39 -24.5t43 -20.5t30 -13q93 -39 149 -93.5t56 -136.5q0 -91 -67 -145.5t-197 -54.5t-221 65v162l71 10l51 -131
q46 -22 92 -22q63 0 104.5 23t41.5 62q0 22 -11.5 42t-36.5 37t-42.5 27t-53 26t-44.5 20q-29 14 -41 20.5t-38 22.5t-38.5 31t-28.5 37t-22.5 50t-6.5 62zM435 907l-116 -170h-69l-115 170l30 21l120 -98l118 98z" />
    <glyph glyph-name="scaron" unicode="&#x161;" horiz-adv-x="452" 
d="M369 714l-116 -170h-69l-115 170l30 21l120 -98l118 98zM213 -10q-90 0 -173 41v118l67 13l34 -99q27 -10 64 -10q39 0 65.5 14t26.5 40q0 35 -99 81q-35 16 -54 27t-47 31t-41.5 45.5t-13.5 56.5q0 63 53 96.5t145 33.5q85 0 154 -42v-96l-68 -12l-21 77q-40 10 -75 10
q-30 0 -51.5 -15t-21.5 -37q0 -11 8 -21t24 -19.5t30 -16t35.5 -15.5t32.5 -14q63 -30 94 -60t31 -82q0 -66 -54 -105.5t-145 -39.5z" />
    <glyph glyph-name="Tcommaaccent" unicode="&#x162;" horiz-adv-x="679" 
d="M40 496v204h599v-204l-71 -11l-53 144h-107v-527l84 -31l-10 -71h-119v-39q31 -2 56.5 -20t25.5 -54q0 -55 -46 -81.5t-101 -26.5l-20 56q38 0 60 13t22 34q0 13 -7.5 22t-21.5 9h-30v87h-105l-10 71l84 31v527h-106l-53 -144z" />
    <glyph glyph-name="tcommaaccent" unicode="&#x163;" horiz-adv-x="374" 
d="M203 573v-106h132l-12 -61h-120v-289q0 -24 14 -39.5t29 -15.5q40 0 85 48l43 -53q-65 -67 -144 -67q-4 0 -11.5 0.5t-10.5 0.5v-30q31 -2 56.5 -20t25.5 -54q0 -55 -46 -81.5t-101 -26.5l-20 56q38 0 60 13t22 34q0 13 -7.5 22t-21.5 9h-30v95q-69 34 -69 117v281h-57
l-10 55l75 23l43 106z" />
    <glyph glyph-name="Tcaron" unicode="&#x164;" horiz-adv-x="679" 
d="M489 907l-116 -170h-69l-115 170l30 21l120 -98l118 98zM40 496v204h599v-204l-71 -11l-53 144h-107v-527l84 -31l-10 -71h-286l-10 71l84 31v527h-106l-53 -144z" />
    <glyph glyph-name="tcaron" unicode="&#x165;" horiz-adv-x="374" 
d="M203 573v-106h132l-12 -61h-120v-289q0 -24 14 -39.5t29 -15.5q40 0 85 48l43 -53q-65 -67 -144 -67q-73 0 -113 38t-40 97v281h-57l-10 55l75 23l43 106zM398 687q23 0 39 -16t16 -40q0 -89 -85 -132l-28 28q33 26 38 62h-17q-18 21 -18 42q0 23 16 39.5t39 16.5z" />
    <glyph glyph-name="Tbar" unicode="&#x166;" horiz-adv-x="679" 
d="M40 496v204h599v-204l-71 -11l-53 144h-107v-259h164v-51h-164v-217l84 -31l-10 -71h-286l-10 71l84 31v217h-152v51h152v259h-106l-53 -144z" />
    <glyph glyph-name="tbar" unicode="&#x167;" horiz-adv-x="374" 
d="M203 573v-106h132l-12 -61h-120v-117h131v-51h-131v-121q0 -24 14 -39.5t29 -15.5q40 0 85 48l43 -53q-65 -67 -144 -67q-73 0 -113 38t-40 97v113h-68v51h68v117h-57l-10 55l75 23l43 106z" />
    <glyph glyph-name="Utilde" unicode="&#x168;" horiz-adv-x="750" 
d="M492 756h-36l-100 50l-83 -52l-32 21l93 115h34l100 -40l87 42l30 -21zM391 -17q-57 0 -102.5 13.5t-87 46t-64.5 97.5t-23 159v297l-84 33l10 71h286l10 -71l-84 -33v-303q0 -119 37.5 -172.5t117.5 -53.5q81 0 124.5 57t43.5 167v305l-86 33l12 71h224l10 -71l-84 -33
v-297q0 -316 -260 -316z" />
    <glyph glyph-name="utilde" unicode="&#x169;" horiz-adv-x="589" 
d="M398 563h-36l-100 50l-83 -52l-32 21l93 115h34l100 -40l87 42l30 -21zM384 100v306h-42l-11 59l129 13l50 -15v-380l64 -22l-12 -61h-136l-30 23q-48 -34 -132 -34q-85 0 -133.5 50t-48.5 133v234h-41l-11 59l120 13l58 -14v-301q0 -51 27.5 -76t63.5 -25q21 0 46 10.5
t39 27.5z" />
    <glyph glyph-name="Umacron" unicode="&#x16a;" horiz-adv-x="750" 
d="M224 763v66h341v-66h-341zM391 -17q260 0 260 316v297l84 33l-10 71h-224l-12 -71l86 -33v-305q0 -110 -43.5 -167t-124.5 -57q-80 0 -117.5 53.5t-37.5 172.5v303l84 33l-10 71h-286l-10 -71l84 -33v-297q0 -94 23 -159t64.5 -97.5t87 -46t102.5 -13.5z" />
    <glyph glyph-name="umacron" unicode="&#x16b;" horiz-adv-x="589" 
d="M127 580v66h341v-66h-341zM384 406v-306q-14 -17 -39 -27.5t-46 -10.5q-36 0 -63.5 25t-27.5 76v301l-58 14l-120 -13l11 -59h41v-234q0 -83 48.5 -133t133.5 -50q84 0 132 34l30 -23h136l12 61l-64 22v380l-50 15l-129 -13l11 -59h42z" />
    <glyph glyph-name="Ubreve" unicode="&#x16c;" horiz-adv-x="750" 
d="M404 842q82 0 129 57l37 -25q-18 -48 -62 -83.5t-104 -35.5t-104 35.5t-61 83.5l36 25q47 -57 129 -57zM391 -17q-57 0 -102.5 13.5t-87 46t-64.5 97.5t-23 159v297l-84 33l10 71h286l10 -71l-84 -33v-303q0 -119 37.5 -172.5t117.5 -53.5q81 0 124.5 57t43.5 167v305
l-86 33l12 71h224l10 -71l-84 -33v-297q0 -316 -260 -316z" />
    <glyph glyph-name="ubreve" unicode="&#x16d;" horiz-adv-x="589" 
d="M307 658q82 0 129 57l37 -25q-18 -48 -62 -83.5t-104 -35.5t-104 35.5t-61 83.5l36 25q46 -57 129 -57zM384 100v306h-42l-11 59l129 13l50 -15v-380l64 -22l-12 -61h-136l-30 23q-48 -34 -132 -34q-85 0 -133.5 50t-48.5 133v234h-41l-11 59l120 13l58 -14v-301
q0 -51 27.5 -76t63.5 -25q21 0 46 10.5t39 27.5z" />
    <glyph glyph-name="Uring" unicode="&#x16e;" horiz-adv-x="750" 
d="M407 930q50 0 80 -25t30 -72t-29 -71t-81 -24t-81 24t-29 71t31 72t79 25zM407 889q-16 0 -26.5 -16.5t-10.5 -38.5q0 -23 10 -39t27 -16t27 16t10 39t-10.5 39t-26.5 16zM391 -17q260 0 260 316v297l84 33l-10 71h-224l-12 -71l86 -33v-305q0 -110 -43.5 -167
t-124.5 -57q-80 0 -117.5 53.5t-37.5 172.5v303l84 33l-10 71h-286l-10 -71l84 -33v-297q0 -94 23 -159t64.5 -97.5t87 -46t102.5 -13.5z" />
    <glyph glyph-name="uring" unicode="&#x16f;" horiz-adv-x="589" 
d="M303 737q50 0 80 -25t30 -72t-29 -71t-81 -24t-81 24t-29 71t31 72t79 25zM303 696q-16 0 -26.5 -16.5t-10.5 -38.5q0 -23 10 -39t27 -16t27 16t10 39t-10.5 39t-26.5 16zM384 406v-306q-14 -17 -39 -27.5t-46 -10.5q-36 0 -63.5 25t-27.5 76v301l-58 14l-120 -13l11 -59
h41v-234q0 -83 48.5 -133t133.5 -50q84 0 132 34l30 -23h136l12 61l-64 22v380l-50 15l-129 -13l11 -59h42z" />
    <glyph glyph-name="Uhungarumlaut" unicode="&#x170;" horiz-adv-x="750" 
d="M649 870l-176 -112l-29 27l124 156zM480 870l-176 -112l-29 27l124 156zM391 -17q-57 0 -102.5 13.5t-87 46t-64.5 97.5t-23 159v297l-84 33l10 71h286l10 -71l-84 -33v-303q0 -119 37.5 -172.5t117.5 -53.5q81 0 124.5 57t43.5 167v305l-86 33l12 71h224l10 -71l-84 -33
v-297q0 -316 -260 -316z" />
    <glyph glyph-name="uhungarumlaut" unicode="&#x171;" horiz-adv-x="589" 
d="M350 719l-126 -158l-44 23l73 182zM497 719l-126 -158l-44 23l73 182zM384 100v306h-42l-11 59l129 13l50 -15v-380l64 -22l-12 -61h-136l-30 23q-48 -34 -132 -34q-85 0 -133.5 50t-48.5 133v234h-41l-11 59l120 13l58 -14v-301q0 -51 27.5 -76t63.5 -25q21 0 46 10.5
t39 27.5z" />
    <glyph glyph-name="Uogonek" unicode="&#x172;" horiz-adv-x="750" 
d="M408 -85q0 -33 41 -33q14 0 31 5l17 -72q-34 -12 -69 -12q-45 0 -73.5 26.5t-28.5 69.5q0 51 49 85q-54 2 -97.5 16.5t-82 48t-60 97t-21.5 153.5v297l-84 33l10 71h286l10 -71l-84 -33v-303q0 -119 37.5 -172.5t117.5 -53.5q81 0 124.5 57t43.5 167v305l-86 33l12 71
h224l10 -71l-84 -33v-297q0 -247 -159 -301q-84 -40 -84 -83z" />
    <glyph glyph-name="uogonek" unicode="&#x173;" horiz-adv-x="589" 
d="M384 100v306h-42l-11 59l129 13l50 -15v-380l64 -22l-12 -61q-88 -42 -88 -85q0 -33 41 -33q14 0 31 5l17 -72q-34 -12 -69 -12q-45 0 -73.5 26.5t-28.5 69.5q0 60 76 101h-42l-30 23q-48 -34 -132 -34q-85 0 -133.5 50t-48.5 133v234h-41l-11 59l120 13l58 -14v-301
q0 -51 27.5 -76t63.5 -25q21 0 46 10.5t39 27.5z" />
    <glyph glyph-name="Wcircumflex" unicode="&#x174;" horiz-adv-x="1036" 
d="M577 928l116 -170l-32 -21l-118 98l-120 -98l-30 21l115 170h69zM537 385l126 -402l96 17l185 596l89 33l-11 71h-226l-11 -71l80 -33l-147 -451v135l-136 437l-70 -17l-177 -560v140l-101 316l81 33l-12 71h-289l-10 -71l88 -33l188 -613l98 17l159 504v-119z" />
    <glyph glyph-name="wcircumflex" unicode="&#x175;" horiz-adv-x="831" 
d="M468 735l116 -170l-32 -21l-118 98l-120 -98l-30 21l115 170h69zM514 -10l-86 267v80l-111 -337l-113 -10l-123 394l-69 22l12 61h233l12 -61l-59 -22l64 -192v-86l117 360l102 13l91 -287v-66l89 258l-60 22l12 61h178l12 -61l-69 -22l-124 -384z" />
    <glyph glyph-name="Ycircumflex" unicode="&#x176;" horiz-adv-x="685" 
d="M397 928l116 -170l-32 -21l-118 98l-120 -98l-30 21l115 170h69zM291 257v-155l-84 -31l11 -71h282l12 71l-83 31v220l161 274l90 33l-11 71h-231l-10 -71l73 -33l-144 -239v63l-106 176l75 32l-11 72h-299l-11 -71l88 -33z" />
    <glyph glyph-name="ycircumflex" unicode="&#x177;" horiz-adv-x="608" 
d="M357 735l116 -170l-32 -21l-118 98l-120 -98l-30 21l115 170h69zM524 384l-171 -488q-13 -37 -40.5 -82.5t-53.5 -63.5l-135 11l-11 60q133 20 170 116l20 52l-31 11l-181 384l-73 22l12 61h258l12 -61l-77 -22l113 -221v-83l106 304l-68 22l12 61h195l12 -61z" />
    <glyph glyph-name="Ydieresis" unicode="&#x178;" horiz-adv-x="685" 
d="M291 102v155l-198 339l-88 33l11 71h299l11 -72l-75 -32l106 -176v-63l144 239l-73 33l10 71h231l11 -71l-90 -33l-161 -274v-220l83 -31l-12 -71h-282l-11 71zM446 876q26 0 45.5 -19t19.5 -46q0 -26 -19.5 -45.5t-45.5 -19.5t-45.5 19.5t-19.5 45.5q0 27 19.5 46
t45.5 19zM258 876q27 0 46 -19t19 -46q0 -26 -19 -45.5t-46 -19.5q-26 0 -45.5 19.5t-19.5 45.5q0 27 19.5 46t45.5 19z" />
    <glyph glyph-name="Zacute" unicode="&#x179;" horiz-adv-x="637" 
d="M506 870l-176 -112l-29 27l124 156zM166 71h322l54 150l71 -11v-210h-547l-45 71l379 498l76 60h-281l-51 -144l-71 11v204h486l54 -71l-372 -505z" />
    <glyph glyph-name="zacute" unicode="&#x17a;" horiz-adv-x="484" 
d="M374 719l-126 -158l-44 23l73 182zM54 467h356l49 -61l-263 -311l-74 -34h224l31 101l67 -13v-149h-389l-30 61l254 308l71 37h-205l-24 -78l-67 12v127z" />
    <glyph glyph-name="Zdotaccent" unicode="&#x17b;" horiz-adv-x="637" 
d="M339 875q27 0 46 -19t19 -46q0 -26 -19 -45.5t-46 -19.5q-26 0 -45.5 19.5t-19.5 45.5q0 27 19.5 46t45.5 19zM166 71h322l54 150l71 -11v-210h-547l-45 71l379 498l76 60h-281l-51 -144l-71 11v204h486l54 -71l-372 -505z" />
    <glyph glyph-name="zdotaccent" unicode="&#x17c;" horiz-adv-x="484" 
d="M254 697q27 0 46 -19t19 -46q0 -26 -19 -45.5t-46 -19.5q-26 0 -45.5 19.5t-19.5 45.5q0 27 19.5 46t45.5 19zM54 467h356l49 -61l-263 -311l-74 -34h224l31 101l67 -13v-149h-389l-30 61l254 308l71 37h-205l-24 -78l-67 12v127z" />
    <glyph glyph-name="Zcaron" unicode="&#x17d;" horiz-adv-x="642" 
d="M175 71h322l54 150l71 -11v-210h-547l-45 71l379 498l76 60h-281l-51 -144l-71 11v204h486l54 -71l-372 -505zM505 907l-116 -170h-69l-115 170l30 21l120 -98l118 98z" />
    <glyph glyph-name="zcaron" unicode="&#x17e;" horiz-adv-x="484" 
d="M399 714l-116 -170h-69l-115 170l30 21l120 -98l118 98zM54 467h356l49 -61l-263 -311l-74 -34h224l31 101l67 -13v-149h-389l-30 61l254 308l71 37h-205l-24 -78l-67 12v127z" />
    <glyph glyph-name="longs" unicode="&#x17f;" horiz-adv-x="413" 
d="M311 747q73 0 137 -48v-94l-67 -13l-22 83q-18 9 -44 9q-87 0 -87 -115v-486l84 -21l-12 -62h-250l-12 62l64 21v322h-72l-10 56l82 24v65q0 87 57.5 142t151.5 55z" />
    <glyph glyph-name="florin" unicode="&#x192;" horiz-adv-x="466" 
d="M245 336v-240q0 -57 -9.5 -103.5t-33 -95t-71.5 -86.5t-118 -61l-37 63q48 32 79 68.5t45 77.5t18.5 74.5t4.5 78.5v224h-71l-13 70h84v53q0 74 52 126t142 52q76 0 129 -44v-104l-64 -13l-22 79q-20 8 -39 8q-76 0 -76 -120v-37h125l-13 -70h-112z" />
    <glyph glyph-name="AEacute" unicode="&#x1fc;" horiz-adv-x="1009" 
d="M846 629h-203v-229h113l30 81l72 -10v-221l-71 -10l-31 81h-113v-250h207l53 150l71 -10v-211h-541l-10 71l82 31v121h-268l-54 -121l85 -30l-10 -72h-242l-11 71l87 32l270 597h595v-178l-72 -11zM505 596l-84 33l-149 -328h233v295zM759 870l-176 -112l-29 27l124 156z
" />
    <glyph glyph-name="aeacute" unicode="&#x1fd;" horiz-adv-x="823" 
d="M592 62q85 0 154 46l34 -51q-84 -68 -193 -68q-123 0 -193 53q-77 -53 -196 -53q-71 0 -120 37t-49 102q0 48 26 83t70 52t90.5 24.5t98.5 7.5v35q0 41 -25 63t-60 22q-32 0 -74 -11l-22 -76l-67 12v96q84 42 168 42q108 0 161 -59q71 59 175 59q92 0 155 -45t63 -117
q0 -46 -22 -84h-315q2 -76 39.5 -123t101.5 -47zM314 102v131q-69 0 -108.5 -26.5t-39.5 -69.5q0 -39 21.5 -57t47.5 -18q21 0 44 11t35 29zM454 294h205q3 15 3 29q0 43 -26 67.5t-66 24.5q-48 0 -78.5 -33t-37.5 -88zM573 719l-126 -158l-44 23l73 182z" />
    <glyph glyph-name="Oslashacute" unicode="&#x1fe;" 
d="M405 717q86 0 157 -33l25 42h57l9 -9l-38 -65q65 -48 99.5 -127t34.5 -175q0 -164 -86.5 -265.5t-257.5 -101.5q-87 0 -160 34l-22 -39h-54l-12 11l35 60q-65 51 -98.5 130.5t-33.5 170.5q0 70 23 135t65.5 117t109 83.5t147.5 31.5zM601 355q0 128 -44 198l-263 -452
q44 -34 111 -34q97 0 146.5 74t49.5 214zM405 633q-195 0 -195 -278q0 -132 42 -204l262 450q-46 32 -109 32zM554 870l-176 -112l-29 27l124 156z" />
    <glyph glyph-name="oslashacute" unicode="&#x1ff;" horiz-adv-x="579" 
d="M290 478q65 0 117 -23l19 29h48l8 -7l-31 -47q88 -64 88 -196q0 -116 -64.5 -180t-184.5 -64q-67 0 -118 21l-21 -32h-46l-9 9l32 48q-88 64 -88 198q0 112 68 178t182 66zM412 237q0 62 -19 106l-174 -262q30 -28 71 -28q57 0 89.5 50t32.5 134zM290 415
q-56 0 -88.5 -48t-32.5 -130q0 -67 19 -111l173 261q-30 28 -71 28zM429 719l-126 -158l-44 23l73 182z" />
    <glyph glyph-name="uni0200" unicode="&#x200;" horiz-adv-x="761" 
d="M326 758l-176 112l81 71l124 -156zM495 758l-176 112l81 71l124 -156zM441 717l-109 -17l-230 -597l-87 -32l11 -71h250l10 72l-94 31l48 120h234l45 -120l-79 -32l11 -71h291l11 71l-88 32zM382 471l63 -170h-175l112 284v-114z" />
    <glyph glyph-name="uni0201" unicode="&#x201;" horiz-adv-x="508" 
d="M310 561l-126 158l97 47l73 -182zM163 561l-126 158l97 47l73 -182zM68 436v-96l67 -12l22 76q42 11 74 11q35 0 60 -22t25 -63v-35q-52 0 -98.5 -7.5t-90.5 -24.5t-70 -52t-26 -83q0 -65 49 -102t120 -37q80 0 129 34l30 -23h127l12 61l-56 22v207q0 90 -54.5 139
t-151.5 49q-84 0 -168 -42zM316 233v-131q-12 -18 -35 -29t-44 -11q-26 0 -47.5 18t-21.5 57q0 43 39.5 69.5t108.5 26.5z" />
    <glyph glyph-name="uni0202" unicode="&#x202;" horiz-adv-x="738" 
d="M415 928l116 -170l-32 -21l-118 98l-120 -98l-30 21l115 170h69zM441 717l-109 -17l-230 -597l-87 -32l11 -71h250l10 72l-94 31l48 120h234l45 -120l-79 -32l11 -71h291l11 71l-88 32zM382 471l63 -170h-175l112 284v-114z" />
    <glyph glyph-name="uni0203" unicode="&#x203;" horiz-adv-x="508" 
d="M276 735l116 -170l-32 -21l-118 98l-120 -98l-30 21l115 170h69zM68 436v-96l67 -12l22 76q42 11 74 11q35 0 60 -22t25 -63v-35q-52 0 -98.5 -7.5t-90.5 -24.5t-70 -52t-26 -83q0 -65 49 -102t120 -37q80 0 129 34l30 -23h127l12 61l-56 22v207q0 90 -54.5 139
t-151.5 49q-84 0 -168 -42zM316 233v-131q-12 -18 -35 -29t-44 -11q-26 0 -47.5 18t-21.5 57q0 43 39.5 69.5t108.5 26.5z" />
    <glyph glyph-name="uni0204" unicode="&#x204;" horiz-adv-x="613" 
d="M264 758l-176 112l81 71l124 -156zM433 758l-176 112l81 71l124 -156zM257 629h193l39 -118l72 11v178h-515l-11 -71l84 -33v-494l-82 -31l10 -71h531v211l-71 10l-53 -150h-197v250h103l31 -81l71 10v221l-72 10l-30 -81h-103v229z" />
    <glyph glyph-name="uni0205" unicode="&#x205;" horiz-adv-x="549" 
d="M355 561l-126 158l97 47l73 -182zM208 561l-126 158l97 47l73 -182zM385 294h-205q7 55 37.5 88t78.5 33q40 0 66 -24.5t26 -67.5q0 -14 -3 -29zM318 62q-64 0 -101.5 47t-39.5 123h315q22 38 22 84q0 72 -63 117t-155 45q-110 0 -183 -66t-73 -178q0 -115 67.5 -180
t205.5 -65q109 0 193 68l-34 51q-69 -46 -154 -46z" />
    <glyph glyph-name="uni0206" unicode="&#x206;" horiz-adv-x="613" 
d="M257 629h193l39 -118l72 11v178h-515l-11 -71l84 -33v-494l-82 -31l10 -71h531v211l-71 10l-53 -150h-197v250h103l31 -81l71 10v221l-72 10l-30 -81h-103v229zM362 928l116 -170l-32 -21l-118 98l-120 -98l-30 21l115 170h69z" />
    <glyph glyph-name="uni0207" unicode="&#x207;" horiz-adv-x="549" 
d="M330 735l116 -170l-32 -21l-118 98l-120 -98l-30 21l115 170h69zM385 294h-205q7 55 37.5 88t78.5 33q40 0 66 -24.5t26 -67.5q0 -14 -3 -29zM318 62q-64 0 -101.5 47t-39.5 123h315q22 38 22 84q0 72 -63 117t-155 45q-110 0 -183 -66t-73 -178q0 -115 67.5 -180
t205.5 -65q109 0 193 68l-34 51q-69 -46 -154 -46z" />
    <glyph glyph-name="uni0208" unicode="&#x208;" horiz-adv-x="428" 
d="M135 758l-176 112l81 71l124 -156zM304 758l-176 112l81 71l124 -156zM283 102v494l85 33l-12 71h-284l-12 -71l85 -33v-494l-85 -31l12 -71h284l12 71z" />
    <glyph glyph-name="uni0209" unicode="&#x209;" horiz-adv-x="334" 
d="M221 561l-126 158l97 47l73 -182zM74 561l-126 158l97 47l73 -182zM294 62l-64 21v384l-61 11l-122 -11l11 -61h46v-323l-64 -21l12 -62h230z" />
    <glyph glyph-name="uni020A" unicode="&#x20a;" horiz-adv-x="428" 
d="M248 928l116 -170l-32 -21l-118 98l-120 -98l-30 21l115 170h69zM283 102v494l85 33l-12 71h-284l-12 -71l85 -33v-494l-85 -31l12 -71h284l12 71z" />
    <glyph glyph-name="uni020B" unicode="&#x20b;" horiz-adv-x="334" 
d="M200 735l116 -170l-32 -21l-118 98l-120 -98l-30 21l115 170h69zM294 62l-64 21v384l-61 11l-122 -11l11 -61h46v-323l-64 -21l12 -62h230z" />
    <glyph glyph-name="uni020C" unicode="&#x20c;" 
d="M326 758l-176 112l81 71l124 -156zM495 758l-176 112l81 71l124 -156zM405 717q162 0 253 -103.5t91 -263.5q0 -164 -86.5 -265.5t-257.5 -101.5q-86 0 -154 31t-108.5 83.5t-61.5 117t-21 135.5q0 70 23 135t65.5 117t109 83.5t147.5 31.5zM405 633q-195 0 -195 -278
q0 -288 195 -288q97 0 146.5 74t49.5 214q0 138 -50 208t-146 70z" />
    <glyph glyph-name="uni020D" unicode="&#x20d;" horiz-adv-x="579" 
d="M350 561l-126 158l97 47l73 -182zM203 561l-126 158l97 47l73 -182zM290 478q114 0 181.5 -65t67.5 -179q0 -116 -64.5 -180t-184.5 -64q-119 0 -184.5 65.5t-65.5 178.5q0 112 68 178t182 66zM290 415q-56 0 -88.5 -48t-32.5 -130q0 -84 32 -134t89 -50t89.5 50
t32.5 134q0 83 -33 130.5t-89 47.5z" />
    <glyph glyph-name="uni020E" unicode="&#x20e;" 
d="M438 928l116 -170l-32 -21l-118 98l-120 -98l-30 21l115 170h69zM405 717q162 0 253 -103.5t91 -263.5q0 -164 -86.5 -265.5t-257.5 -101.5q-86 0 -154 31t-108.5 83.5t-61.5 117t-21 135.5q0 70 23 135t65.5 117t109 83.5t147.5 31.5zM405 633q-195 0 -195 -278
q0 -288 195 -288q97 0 146.5 74t49.5 214q0 138 -50 208t-146 70z" />
    <glyph glyph-name="uni020F" unicode="&#x20f;" horiz-adv-x="579" 
d="M323 735l116 -170l-32 -21l-118 98l-120 -98l-30 21l115 170h69zM290 478q114 0 181.5 -65t67.5 -179q0 -116 -64.5 -180t-184.5 -64q-119 0 -184.5 65.5t-65.5 178.5q0 112 68 178t182 66zM290 415q-56 0 -88.5 -48t-32.5 -130q0 -84 32 -134t89 -50t89.5 50t32.5 134
q0 83 -33 130.5t-89 47.5z" />
    <glyph glyph-name="uni0210" unicode="&#x210;" horiz-adv-x="690" 
d="M223 758l-176 112l81 71l124 -156zM392 758l-176 112l81 71l124 -156zM258 629v-526l83 -32l-11 -71h-282l-11 71l82 31v494l-84 33l12 71h345q111 0 171 -53.5t60 -147.5q0 -78 -65.5 -132t-142.5 -54l66 -34l100 -177l87 -31l-11 -71h-219l10 55l-148 258v63h64
q55 0 90 38t35 85q0 57 -34.5 93.5t-98.5 36.5h-98z" />
    <glyph glyph-name="uni0211" unicode="&#x211;" horiz-adv-x="454" 
d="M320 561l-126 158l97 47l73 -182zM173 561l-126 158l97 47l73 -182zM444 340l-67 -12l-23 74q-14 4 -40 4q-37 0 -90 -20v-303l83 -22l-12 -61h-248l-12 61l63 22v323h-45l-12 61l130 11l41 -26q73 26 129 26q47 0 103 -22v-116z" />
    <glyph glyph-name="uni0212" unicode="&#x212;" horiz-adv-x="690" 
d="M258 629v-526l83 -32l-11 -71h-282l-11 71l82 31v494l-84 33l12 71h345q111 0 171 -53.5t60 -147.5q0 -78 -65.5 -132t-142.5 -54l66 -34l100 -177l87 -31l-11 -71h-219l10 55l-148 258v63h64q55 0 90 38t35 85q0 57 -34.5 93.5t-98.5 36.5h-98zM326 928l116 -170
l-32 -21l-118 98l-120 -98l-30 21l115 170h69z" />
    <glyph glyph-name="uni0213" unicode="&#x213;" horiz-adv-x="454" 
d="M267 735l116 -170l-32 -21l-118 98l-120 -98l-30 21l115 170h69zM444 340l-67 -12l-23 74q-14 4 -40 4q-37 0 -90 -20v-303l83 -22l-12 -61h-248l-12 61l63 22v323h-45l-12 61l130 11l41 -26q73 26 129 26q47 0 103 -22v-116z" />
    <glyph glyph-name="uni0214" unicode="&#x214;" horiz-adv-x="750" 
d="M330 758l-176 112l81 71l124 -156zM499 758l-176 112l81 71l124 -156zM391 -17q260 0 260 316v297l84 33l-10 71h-224l-12 -71l86 -33v-305q0 -110 -43.5 -167t-124.5 -57q-80 0 -117.5 53.5t-37.5 172.5v303l84 33l-10 71h-286l-10 -71l84 -33v-297q0 -94 23 -159
t64.5 -97.5t87 -46t102.5 -13.5z" />
    <glyph glyph-name="uni0215" unicode="&#x215;" horiz-adv-x="589" 
d="M371 561l-126 158l97 47l73 -182zM224 561l-126 158l97 47l73 -182zM384 406v-306q-14 -17 -39 -27.5t-46 -10.5q-36 0 -63.5 25t-27.5 76v301l-58 14l-120 -13l11 -59h41v-234q0 -83 48.5 -133t133.5 -50q84 0 132 34l30 -23h136l12 61l-64 22v380l-50 15l-129 -13
l11 -59h42z" />
    <glyph glyph-name="uni0216" unicode="&#x216;" horiz-adv-x="750" 
d="M432 928l116 -170l-32 -21l-118 98l-120 -98l-30 21l115 170h69zM391 -17q260 0 260 316v297l84 33l-10 71h-224l-12 -71l86 -33v-305q0 -110 -43.5 -167t-124.5 -57q-80 0 -117.5 53.5t-37.5 172.5v303l84 33l-10 71h-286l-10 -71l84 -33v-297q0 -94 23 -159t64.5 -97.5
t87 -46t102.5 -13.5z" />
    <glyph glyph-name="uni0217" unicode="&#x217;" horiz-adv-x="589" 
d="M332 735l116 -170l-32 -21l-118 98l-120 -98l-30 21l115 170h69zM384 406v-306q-14 -17 -39 -27.5t-46 -10.5q-36 0 -63.5 25t-27.5 76v301l-58 14l-120 -13l11 -59h41v-234q0 -83 48.5 -133t133.5 -50q84 0 132 34l30 -23h136l12 61l-64 22v380l-50 15l-129 -13l11 -59
h42z" />
    <glyph glyph-name="Scommaaccent" unicode="&#x218;" horiz-adv-x="582" 
d="M302 -36q23 0 39 -16t16 -40q0 -89 -85 -132l-28 28q33 26 38 62h-17q-18 21 -18 42q0 23 16 39.5t39 16.5zM50 527q0 91 70.5 140.5t173.5 49.5q107 0 214 -64v-156l-72 -11l-47 134q-44 13 -95 13q-55 0 -86.5 -23.5t-31.5 -65.5q0 -21 11.5 -39.5t33.5 -33.5t39 -24.5
t43 -20.5t30 -13q93 -39 149 -93.5t56 -136.5q0 -91 -67 -145.5t-197 -54.5t-221 65v162l71 10l51 -131q46 -22 92 -22q63 0 104.5 23t41.5 62q0 22 -11.5 42t-36.5 37t-42.5 27t-53 26t-44.5 20q-29 14 -41 20.5t-38 22.5t-38.5 31t-28.5 37t-22.5 50t-6.5 62z" />
    <glyph glyph-name="scommaaccent" unicode="&#x219;" horiz-adv-x="452" 
d="M218 -36q23 0 39 -16t16 -40q0 -89 -85 -132l-28 28q33 26 38 62h-17q-18 21 -18 42q0 23 16 39.5t39 16.5zM213 -10q-90 0 -173 41v118l67 13l34 -99q27 -10 64 -10q39 0 65.5 14t26.5 40q0 35 -99 81q-35 16 -54 27t-47 31t-41.5 45.5t-13.5 56.5q0 63 53 96.5
t145 33.5q85 0 154 -42v-96l-68 -12l-21 77q-40 10 -75 10q-30 0 -51.5 -15t-21.5 -37q0 -11 8 -21t24 -19.5t30 -16t35.5 -15.5t32.5 -14q63 -30 94 -60t31 -82q0 -66 -54 -105.5t-145 -39.5z" />
    <glyph glyph-name="uni021A" unicode="&#x21a;" horiz-adv-x="679" 
d="M341 -36q23 0 39 -16t16 -40q0 -89 -85 -132l-28 28q33 26 38 62h-17q-18 21 -18 42q0 23 16 39.5t39 16.5zM40 496v204h599v-204l-71 -11l-53 144h-107v-527l84 -31l-10 -71h-286l-10 71l84 31v527h-106l-53 -144z" />
    <glyph glyph-name="uni021B" unicode="&#x21b;" horiz-adv-x="374" 
d="M196 -36q23 0 39 -16t16 -40q0 -89 -85 -132l-28 28q33 26 38 62h-17q-18 21 -18 42q0 23 16 39.5t39 16.5zM203 573v-106h132l-12 -61h-120v-289q0 -24 14 -39.5t29 -15.5q40 0 85 48l43 -53q-65 -67 -144 -67q-73 0 -113 38t-40 97v281h-57l-10 55l75 23l43 106z" />
    <glyph glyph-name="dotlessj" unicode="&#x237;" horiz-adv-x="301" 
d="M33 467l135 11l59 -11v-387q0 -56 -9.5 -100.5t-34 -89.5t-73.5 -80.5t-121 -59.5l-34 57q91 60 118.5 126.5t27.5 162.5v310h-55z" />
    <glyph glyph-name="circumflex" unicode="&#x2c6;" horiz-adv-x="400" 
d="M234 928l116 -170l-32 -21l-118 98l-120 -98l-30 21l115 170h69z" />
    <glyph glyph-name="caron" unicode="&#x2c7;" horiz-adv-x="400" 
d="M350 907l-116 -170h-69l-115 170l30 21l120 -98l118 98z" />
    <glyph glyph-name="breve" unicode="&#x2d8;" horiz-adv-x="384" 
d="M186 842q82 0 129 57l37 -25q-18 -48 -62 -83.5t-104 -35.5t-104 35.5t-61 83.5l36 25q47 -57 129 -57z" />
    <glyph glyph-name="dotaccent" unicode="&#x2d9;" horiz-adv-x="181" 
d="M92 697q27 0 46 -19t19 -46q0 -26 -19 -45.5t-46 -19.5q-26 0 -45.5 19.5t-19.5 45.5q0 27 19.5 46t45.5 19z" />
    <glyph glyph-name="ring" unicode="&#x2da;" horiz-adv-x="277" 
d="M134 930q50 0 80 -25t30 -72t-29 -71t-81 -24t-81 24t-29 71t31 72t79 25zM134 889q-16 0 -26.5 -16.5t-10.5 -38.5q0 -23 10 -39t27 -16t27 16t10 39t-10.5 39t-26.5 16z" />
    <glyph glyph-name="ogonek" unicode="&#x2db;" horiz-adv-x="215" 
d="M126 15l63 -15q-88 -42 -88 -85q0 -33 41 -33q14 0 31 5l17 -72q-34 -12 -69 -12q-45 0 -73.5 26.5t-28.5 69.5q0 23 10 42.5t29.5 34t32.5 22t35 17.5z" />
    <glyph glyph-name="tilde" unicode="&#x2dc;" horiz-adv-x="444" 
d="M301 563h-36l-100 50l-83 -52l-32 21l93 115h34l100 -40l87 42l30 -21z" />
    <glyph glyph-name="hungarumlaut" unicode="&#x2dd;" horiz-adv-x="385" 
d="M387 870l-176 -112l-29 27l124 156zM218 870l-176 -112l-29 27l124 156z" />
    <glyph glyph-name="uni0400" unicode="&#x400;" horiz-adv-x="613" 
d="M358 758l-176 112l81 71l124 -156zM257 629h193l39 -118l72 11v178h-515l-11 -71l84 -33v-494l-82 -31l10 -71h531v211l-71 10l-53 -150h-197v250h103l31 -81l71 10v221l-72 10l-30 -81h-103v229z" />
    <glyph glyph-name="afii10023" unicode="&#x401;" horiz-adv-x="613" 
d="M416 876q26 0 45.5 -19t19.5 -46q0 -26 -19.5 -45.5t-45.5 -19.5t-45.5 19.5t-19.5 45.5q0 27 19.5 46t45.5 19zM228 876q27 0 46 -19t19 -46q0 -26 -19 -45.5t-46 -19.5q-26 0 -45.5 19.5t-19.5 45.5q0 27 19.5 46t45.5 19zM450 629h-193v-229h103l30 81l72 -10v-221
l-71 -10l-31 81h-103v-250h197l53 150l71 -10v-211h-531l-10 71l82 31v494l-84 33l11 71h515v-178l-72 -11z" />
    <glyph glyph-name="afii10051" unicode="&#x402;" horiz-adv-x="757" 
d="M40 506v194h599v-194l-71 -11l-53 134h-107v-190q45 19 105 19q90 0 147 -45.5t57 -126.5v-193q0 -57 -9.5 -102.5t-35 -91.5t-75 -82t-123.5 -61l-34 58q49 32 79.5 67t44 75t17.5 72t4 81v192q0 37 -24 60t-56 23q-52 0 -97 -19v-263l84 -31l-10 -71h-285l-11 71l84 31
v527h-106l-53 -133z" />
    <glyph glyph-name="afii10052" unicode="&#x403;" horiz-adv-x="568" 
d="M249 629v-527l83 -31l-11 -71h-274l-10 71l82 31v496l-84 31l12 71h496v-203l-71 -11l-54 143h-169zM447 870l-176 -112l-29 27l124 156z" />
    <glyph glyph-name="afii10053" unicode="&#x404;" horiz-adv-x="707" 
d="M436 67q53 0 115 15l51 139l71 -10v-161q-41 -30 -108 -48.5t-129 -18.5q-94 0 -168 31t-118 83.5t-67 117t-23 135.5q0 95 42 177t129.5 136t204.5 54q124 0 237 -65v-155l-72 -11l-47 134q-61 14 -118 14q-95 0 -154.5 -61t-69.5 -173h139l32 81l70 -11v-218l-70 -12
l-32 82h-140q3 -68 25 -123t73.5 -93.5t126.5 -38.5z" />
    <glyph glyph-name="afii10054" unicode="&#x405;" horiz-adv-x="582" 
d="M50 527q0 91 70.5 140.5t173.5 49.5q107 0 214 -64v-156l-72 -11l-47 134q-44 13 -95 13q-55 0 -86.5 -23.5t-31.5 -65.5q0 -21 11.5 -39.5t33.5 -33.5t39 -24.5t43 -20.5t30 -13q93 -39 149 -93.5t56 -136.5q0 -91 -67 -145.5t-197 -54.5t-221 65v162l71 10l51 -131
q46 -22 92 -22q63 0 104.5 23t41.5 62q0 22 -11.5 42t-36.5 37t-42.5 27t-53 26t-44.5 20q-29 14 -41 20.5t-38 22.5t-38.5 31t-28.5 37t-22.5 50t-6.5 62z" />
    <glyph glyph-name="afii10055" unicode="&#x406;" horiz-adv-x="428" 
d="M283 596v-494l85 -31l-12 -71h-284l-12 71l85 31v494l-85 33l12 71h284l12 -71z" />
    <glyph glyph-name="afii10056" unicode="&#x407;" horiz-adv-x="428" 
d="M308 876q26 0 45.5 -19t19.5 -46q0 -26 -19.5 -45.5t-45.5 -19.5t-45.5 19.5t-19.5 45.5q0 27 19.5 46t45.5 19zM120 876q27 0 46 -19t19 -46q0 -26 -19 -45.5t-46 -19.5q-26 0 -45.5 19.5t-19.5 45.5q0 27 19.5 46t45.5 19zM283 596v-494l85 -31l-12 -71h-284l-12 71
l85 31v494l-85 33l12 71h284l12 -71z" />
    <glyph glyph-name="afii10057" unicode="&#x408;" horiz-adv-x="396" 
d="M144 197v399l-85 33l12 71h284l11 -71l-85 -33v-423q0 -268 -248 -348l-38 64q91 62 120 136t29 172z" />
    <glyph glyph-name="afii10058" unicode="&#x409;" horiz-adv-x="963" 
d="M295 461q0 -119 -27.5 -250t-79.5 -211h-167l-11 70q197 88 197 426v102l-84 31l11 71h526l12 -71l-84 -31v-527h45q69 0 104.5 44t35.5 112q0 63 -35.5 96.5t-97.5 33.5h-16v77h40q67 0 123 -19t96 -67.5t40 -120.5q0 -102 -57.5 -164.5t-191.5 -62.5h-297l-10 71l83 31
v527h-155v-168z" />
    <glyph glyph-name="afii10059" unicode="&#x40a;" horiz-adv-x="1069" 
d="M780 629l-83 -31v-527h45q69 0 104.5 44t35.5 112q0 63 -35.5 96.5t-97.5 33.5h-16v77h40q67 0 123 -19t96 -67.5t40 -120.5q0 -102 -57.5 -164.5t-191.5 -62.5h-299l-10 71l84 31v220h-296v-219l82 -32l-10 -71h-282l-11 71l83 32v494l-84 32l10 71h286l10 -71l-84 -31
v-199h296v198l-84 32l10 71h286z" />
    <glyph glyph-name="afii10060" unicode="&#x40b;" horiz-adv-x="820" 
d="M40 496v204h599v-204l-71 -11l-53 144h-107v-214q69 33 124 33q90 0 147 -45.5t57 -126.5v-193l64 -22l-11 -61h-179l-9 47v244q0 37 -23 60t-54 23q-43 0 -116 -32v-240l84 -31l-10 -71h-286l-10 71l84 31v527h-106l-53 -144z" />
    <glyph glyph-name="afii10061" unicode="&#x40c;" horiz-adv-x="728" 
d="M538 870l-176 -112l-29 27l124 156zM257 596v-492l84 -32l-10 -72h-286l-10 71l84 33v492l-84 34l11 70h285l10 -71zM481 0l9 54l-191 286v53l199 203l-63 33l12 71h241l11 -71q-82 -23 -129 -72l-177 -180l68 -32l164 -242l87 -32l-11 -71h-220z" />
    <glyph glyph-name="uni040D" unicode="&#x40d;" horiz-adv-x="845" 
d="M262 103v26l359 339l-39 -105v-261l-82 -31l10 -71h283l11 71l-84 31v496l85 31l-12 71h-283l-12 -71l84 -31v-33l-350 -332l30 110v254l86 32l-13 71h-283l-12 -71l84 -31v-496l-82 -31l10 -71h282l12 71zM443 758l-176 112l81 71l124 -156z" />
    <glyph glyph-name="afii10062" unicode="&#x40e;" horiz-adv-x="574" 
d="M486 900l37 -38q-34 -48 -86.5 -77.5t-103.5 -29.5q-118 0 -182 89l63 66h51q35 -63 99 -63q36 0 63 11.5t59 41.5zM554 598l-197 -494q-37 -92 -82 -121l-147 19l-11 76q49 0 106.5 24t74.5 65l4 12l-22 5l-188 414l-87 31l13 71h292l11 -71l-77 -30l97 -207v-113
l130 320l-76 30l12 71h224l13 -71z" />
    <glyph glyph-name="afii10145" unicode="&#x40f;" horiz-adv-x="805" 
d="M359 -174l-28 174h-279l-11 71l83 31v494l-84 34l11 71h285l10 -71l-84 -34v-525h281v525l-84 34l10 71h285l11 -71l-84 -34v-493l82 -32l-10 -71h-293l-27 -174h-74z" />
    <glyph glyph-name="afii10017" unicode="&#x410;" horiz-adv-x="761" 
d="M332 700l109 17l224 -614l88 -32l-11 -71h-291l-11 71l79 32l-45 120h-234l-48 -120l94 -31l-10 -72h-250l-11 71l87 32zM445 301l-63 170v114l-112 -284h175z" />
    <glyph glyph-name="afii10018" unicode="&#x411;" horiz-adv-x="637" 
d="M482 512l-42 117h-179v-558h46q69 0 104.5 42t35.5 109q0 124 -125 124h-24v79h48q50 0 92.5 -10.5t79 -33.5t57.5 -63.5t21 -95.5q0 -222 -249 -222h-297l-11 71l85 31v494l-85 33l12 71h502v-178z" />
    <glyph glyph-name="afii10019" unicode="&#x412;" horiz-adv-x="699" 
d="M257 629v-558h138q47 0 78.5 42t31.5 98t-37.5 95.5t-94.5 39.5h-74v78h42q41 0 70 29t29 70q0 46 -26 76t-81 30h-76zM422 0h-375l-11 71l83 31v494l-84 33l11 71h361q77 0 129.5 -49t52.5 -119q0 -89 -76 -140q62 -20 101.5 -72.5t39.5 -118.5q0 -86 -63.5 -143.5
t-168.5 -57.5z" />
    <glyph glyph-name="afii10020" unicode="&#x413;" horiz-adv-x="568" 
d="M249 629v-527l112 -31l-10 -71h-304l-10 71l82 31v494l-84 33l12 71h496v-203l-71 -11l-54 143h-169z" />
    <glyph glyph-name="afii10021" unicode="&#x414;" horiz-adv-x="718" 
d="M589 71h72v-235l-71 -10l-64 174h-376l-65 -174l-71 10v235h66q60 61 90.5 206t32.5 319l-85 33l12 71h530l13 -70l-84 -34v-525zM450 71v558h-160q-2 -387 -102 -558h262z" />
    <glyph glyph-name="afii10022" unicode="&#x415;" horiz-adv-x="613" 
d="M450 629h-193v-229h103l30 81l72 -10v-221l-71 -10l-31 81h-103v-250h197l53 150l71 -10v-211h-531l-10 71l82 31v494l-84 33l11 71h515v-178l-72 -11z" />
    <glyph glyph-name="afii10024" unicode="&#x416;" horiz-adv-x="1020" 
d="M234 56l9 -56h-218l-10 71l86 31l142 227l76 43l-170 182q-50 54 -129 75l12 71h247l12 -71l-61 -31l184 -199v-53zM574 102v495l84 32l-13 71h-272l-11 -71l84 -32v-494l-83 -32l10 -71h272l12 71zM786 56l-9 -56h218l10 71l-89 32l-139 226l-76 43l170 182
q49 53 129 75l-12 71h-247l-12 -71l61 -31l-184 -199v-53z" />
    <glyph glyph-name="afii10025" unicode="&#x417;" horiz-adv-x="572" 
d="M247 -17q-132 0 -223 65v162l72 10l46 -132q54 -21 105 -21q55 0 90.5 42t35.5 108q0 56 -38.5 92.5t-97.5 36.5h-63v79h45q44 0 82 32t38 77q0 47 -25 73t-68 26q-49 0 -93 -14l-48 -133l-71 11v155q113 65 212 65q123 0 182.5 -48t59.5 -126q0 -107 -96 -152
q58 -22 94 -69.5t36 -115.5q0 -94 -70.5 -158.5t-204.5 -64.5z" />
    <glyph glyph-name="afii10026" unicode="&#x418;" horiz-adv-x="845" 
d="M262 129v-26l84 -32l-12 -71h-282l-10 71l82 31v494l-84 33l12 71h283l13 -71l-86 -34v-252l-30 -110l350 332v32l-84 32l12 71h283l12 -71l-85 -31v-496l84 -31l-11 -71h-283l-10 71l82 31v261l39 105z" />
    <glyph glyph-name="afii10027" unicode="&#x419;" horiz-adv-x="825" 
d="M586 900l37 -38q-34 -48 -86.5 -77.5t-103.5 -29.5q-118 0 -182 89l63 66h51q35 -63 99 -63q36 0 63 11.5t59 41.5zM262 129v-26l84 -32l-12 -71h-282l-10 71l82 31v494l-84 33l12 71h283l13 -71l-86 -34v-252l-30 -110l350 332v32l-84 32l12 71h283l12 -71l-85 -31v-496
l84 -31l-11 -71h-283l-10 71l82 31v261l39 105z" />
    <glyph glyph-name="afii10028" unicode="&#x41a;" horiz-adv-x="728" 
d="M257 596v-492l84 -32l-10 -72h-286l-10 71l84 33v492l-84 34l11 70h285l10 -71zM481 0l9 54l-191 286v53l199 203l-63 33l12 71h241l11 -71q-82 -23 -129 -72l-177 -180l68 -32l164 -242l87 -32l-11 -71h-220z" />
    <glyph glyph-name="afii10029" unicode="&#x41b;" horiz-adv-x="702" 
d="M295 461q0 -119 -27.5 -250t-79.5 -211h-167l-11 70q197 88 197 426v100l-84 33l11 71h516l12 -71l-84 -33v-494l83 -31l-11 -71h-283l-10 71l83 31v527h-145v-168z" />
    <glyph glyph-name="afii10030" unicode="&#x41c;" horiz-adv-x="965" 
d="M665 487l-178 -487l-75 -17l-175 479l-45 -359l81 -32l-10 -71h-222l-12 71l85 32l58 493l-83 33l11 71h201l162 -437v-100l198 537h206l12 -71l-84 -33l48 -494l83 -31l-10 -71h-283l-10 71l81 31z" />
    <glyph glyph-name="afii10031" unicode="&#x41d;" horiz-adv-x="820" 
d="M780 629l-84 -33v-493l83 -32l-11 -71h-284l-10 71l84 31v220h-296v-220l82 -31l-10 -71h-282l-11 71l83 31v494l-84 33l10 71h286l10 -71l-84 -33v-197h296v197l-84 33l10 71h286z" />
    <glyph glyph-name="afii10032" unicode="&#x41e;" 
d="M405 717q162 0 253 -103.5t91 -263.5q0 -164 -86.5 -265.5t-257.5 -101.5q-86 0 -154 31t-108.5 83.5t-61.5 117t-21 135.5q0 70 23 135t65.5 117t109 83.5t147.5 31.5zM405 633q-195 0 -195 -278q0 -288 195 -288q97 0 146.5 74t49.5 214q0 138 -50 208t-146 70z" />
    <glyph glyph-name="afii10033" unicode="&#x41f;" horiz-adv-x="810" 
d="M548 103v526h-286v-526l82 -32l-10 -71h-282l-11 71l83 32v493l-84 33l11 71h707l12 -71l-84 -33v-493l82 -32l-10 -71h-282l-11 71z" />
    <glyph glyph-name="afii10034" unicode="&#x420;" horiz-adv-x="634" 
d="M259 629v-527l114 -31l-11 -71h-314l-11 71l84 31v494l-86 33l12 71h330q110 0 168.5 -59.5t58.5 -162.5q0 -113 -73 -164t-190 -51h-40v78h43q56 0 90.5 41t34.5 96q0 67 -30 109t-93 42h-87z" />
    <glyph glyph-name="afii10035" unicode="&#x421;" horiz-adv-x="649" 
d="M396 67q64 0 115 14l51 139l71 -10v-162q-41 -29 -107.5 -47t-129.5 -18q-94 0 -166.5 31t-115 84t-63.5 116.5t-21 135.5q0 70 23.5 135t67.5 117.5t115.5 83.5t159.5 31q125 0 237 -64v-156l-72 -11l-46 131q-58 16 -119 16q-216 0 -216 -278q0 -44 6 -82.5t21 -77
t39 -66.5t62.5 -45t87.5 -17z" />
    <glyph glyph-name="afii10036" unicode="&#x422;" horiz-adv-x="679" 
d="M40 496v204h599v-204l-71 -11l-53 144h-107v-527l84 -31l-10 -71h-286l-10 71l84 31v527h-106l-53 -144z" />
    <glyph glyph-name="afii10037" unicode="&#x423;" horiz-adv-x="574" 
d="M554 598l-197 -494q-37 -92 -82 -121l-147 19l-11 76q49 0 106.5 24t74.5 65l4 12l-22 5l-188 414l-87 31l13 71h292l11 -71l-77 -30l97 -207v-113l130 320l-76 30l12 71h224l13 -71z" />
    <glyph glyph-name="afii10038" unicode="&#x424;" horiz-adv-x="895" 
d="M306 717h284l11 -70l-84 -34v-20q24 4 54 4q125 0 197 -69t72 -172q0 -105 -68.5 -172.5t-200.5 -67.5q-30 0 -54 4v-17l82 -32l-10 -71h-282l-11 71l83 32v17q-24 -4 -55 -4q-131 0 -200 68t-69 172q0 103 72 172t197 69q31 0 55 -4v20l-84 34zM517 517v-321
q12 -2 29 -2q82 0 121 46t39 120q0 89 -41.5 124t-118.5 35q-18 0 -29 -2zM379 196v321q-16 2 -29 2q-77 0 -118.5 -35t-41.5 -124q0 -75 39 -120.5t122 -45.5q16 0 28 2z" />
    <glyph glyph-name="afii10039" unicode="&#x425;" horiz-adv-x="697" 
d="M343 278l-145 -176l69 -31l-11 -71h-234l-11 71l86 31l183 223l-183 271l-87 33l11 71h304l10 -71l-73 -33l92 -128v-45l143 173l-67 33l10 71h237l10 -71l-90 -33l-181 -224l182 -270l87 -31l-11 -71h-302l-11 71l72 31l-90 126v50z" />
    <glyph glyph-name="afii10040" unicode="&#x426;" horiz-adv-x="805" 
d="M543 71v525l-84 34l10 71h285l11 -71l-84 -34v-525h82v-235l-71 -10l-65 174h-575l-11 71l83 31v494l-84 34l11 71h285l10 -71l-84 -34v-525h281z" />
    <glyph glyph-name="afii10041" unicode="&#x427;" horiz-adv-x="723" 
d="M243 598v-169q0 -39 30.5 -60.5t66.5 -21.5q28 0 64.5 8t56.5 18v225l-85 31l11 72h285l11 -72l-84 -31v-496l83 -31l-11 -71h-313l-10 71l113 31v183q-57 -20 -130 -20q-91 0 -159 46.5t-68 126.5v160l-84 31l13 71h282l12 -71z" />
    <glyph glyph-name="afii10042" unicode="&#x428;" horiz-adv-x="1072" 
d="M809 71v525l-84 33l11 72h284l12 -72l-84 -33v-494l82 -31l-11 -71h-971l-11 71l83 31v494l-84 33l10 72h285l11 -72l-84 -33v-525h207v525l-85 33l11 72h286l10 -72l-84 -33v-525h206z" />
    <glyph glyph-name="afii10043" unicode="&#x429;" horiz-adv-x="1072" 
d="M809 71v525l-84 33l11 72h284l12 -72l-84 -33v-525h82v-235l-71 -10l-64 174h-847l-11 71l83 31v494l-84 33l10 72h285l11 -72l-84 -33v-525h207v525l-85 33l11 72h286l10 -72l-84 -33v-525h206z" />
    <glyph glyph-name="afii10044" unicode="&#x42a;" horiz-adv-x="699" 
d="M186 102v527h-61l-44 -117l-71 10v178h386l12 -71l-84 -31v-527h45q69 0 104.5 44t35.5 112q0 63 -35.5 96.5t-97.5 33.5h-15v77h39q67 0 123 -19t96 -67.5t40 -120.5q0 -102 -57.5 -164.5t-191.5 -62.5h-296l-11 71z" />
    <glyph glyph-name="afii10045" unicode="&#x42b;" horiz-adv-x="950" 
d="M830 596v-492l85 -33l-11 -71h-285l-11 71l84 32v493l-84 34l11 70h284l12 -70zM120 102v496l-85 31l12 71h284l11 -71l-84 -31v-527h56q68 0 103.5 42t35.5 109q0 62 -35.5 93t-98.5 31h-24v79h48q50 0 94 -10.5t82 -33.5t60.5 -63.5t22.5 -95.5q0 -222 -249 -222h-305
l-11 71z" />
    <glyph glyph-name="afii10046" unicode="&#x42c;" horiz-adv-x="633" 
d="M120 102v496l-85 31l12 71h283l12 -71l-84 -31v-527h45q69 0 104.5 44t35.5 112q0 63 -35.5 96.5t-97.5 33.5h-15v77h39q67 0 123 -19t96 -67.5t40 -120.5q0 -102 -57.5 -164.5t-191.5 -62.5h-296l-11 71z" />
    <glyph glyph-name="afii10047" unicode="&#x42d;" horiz-adv-x="692" 
d="M287 67q56 0 98 21.5t66 59.5t36 80.5t15 93.5h-130l-33 -82l-70 12v218l70 11l33 -81h129q-10 114 -65 173.5t-149 59.5q-77 0 -128 -15l-48 -132l-71 11v155q113 65 247 65q116 0 201 -54t124.5 -136t39.5 -177q0 -72 -21 -135.5t-63.5 -116.5t-115 -84t-165.5 -31
q-64 0 -135.5 18.5t-111.5 47.5v161l71 10l50 -138q62 -15 126 -15z" />
    <glyph glyph-name="afii10048" unicode="&#x42e;" horiz-adv-x="1051" 
d="M692 717q160 0 239.5 -101t79.5 -266q0 -81 -16.5 -145t-53 -115t-99.5 -79t-150 -28q-82 0 -144 27.5t-98 76t-55 106.5t-22 127h-111v-218l85 -31l-11 -71h-285l-11 71l84 31v496l-84 31l12 71h284l11 -71l-85 -31v-202h112q6 65 28 121.5t59.5 102t97 71.5t133.5 26z
M692 633q-94 0 -132 -66t-38 -211q0 -149 38 -219t132 -70t132 71.5t38 217.5q0 142 -38.5 209.5t-131.5 67.5z" />
    <glyph glyph-name="afii10049" unicode="&#x42f;" horiz-adv-x="690" 
d="M446 103v526h-103q-64 0 -96.5 -37.5t-32.5 -96.5q0 -45 39.5 -79t96.5 -34h53v-64l-168 -263l10 -55h-223l-12 71l93 32l110 178l64 37q-74 3 -135.5 54t-61.5 123q0 96 58.5 150.5t168.5 54.5h350l11 -71l-84 -33v-493l84 -32l-11 -71h-285l-11 71z" />
    <glyph glyph-name="afii10065" unicode="&#x430;" horiz-adv-x="508" 
d="M68 340v96q84 42 168 42q97 0 151.5 -49t54.5 -139v-207l56 -22l-12 -61h-127l-30 23q-49 -34 -129 -34q-71 0 -120 37t-49 102q0 48 26 83t70 52t90.5 24.5t98.5 7.5v35q0 41 -25 63t-60 22q-32 0 -74 -11l-22 -76zM316 102v131q-69 0 -108.5 -26.5t-39.5 -69.5
q0 -39 21.5 -57t47.5 -18q21 0 44 11t35 29z" />
    <glyph glyph-name="afii10066" unicode="&#x431;" horiz-adv-x="548" 
d="M274 415q-51 0 -81.5 -47t-30.5 -131q0 -80 29.5 -132.5t82.5 -52.5q51 0 76.5 51.5t25.5 133.5q0 85 -26.5 131.5t-75.5 46.5zM274 478q111 0 175 -67.5t64 -176.5q0 -110 -64 -177.5t-175 -67.5q-116 0 -177.5 77t-61.5 195q0 76 7 133.5t25.5 110.5t50 89.5t82 63
t119.5 38.5q36 6 55.5 17t28.5 37h68q-5 -50 -15 -79.5t-34.5 -50.5t-56.5 -32.5t-91 -25.5q-99 -24 -125 -83l-5 -43q57 42 130 42z" />
    <glyph glyph-name="afii10067" unicode="&#x432;" horiz-adv-x="553" 
d="M263 225v63h12q25 0 42 17.5t17 43.5q0 25 -17 41t-42 16h-54v-345h75q34 0 57.5 23t23.5 57q0 35 -23.5 59.5t-57.5 24.5h-33zM373 0h-330l-12 61l64 22v301l-65 22l12 61h310q49 0 83.5 -33t34.5 -80q0 -56 -48 -92q41 -15 66 -49.5t25 -78.5q0 -55 -41 -94.5
t-99 -39.5z" />
    <glyph glyph-name="afii10068" unicode="&#x433;" horiz-adv-x="441" 
d="M220 406v-323l63 -22l-12 -61h-227l-12 61l63 22v301l-65 22l12 61h379v-127l-68 -12l-22 78h-111z" />
    <glyph glyph-name="afii10069" unicode="&#x434;" horiz-adv-x="552" 
d="M447 61h53v-185l-67 -6l-39 130h-278l-38 -130l-68 12v179h51q75 78 77 323l-65 22l12 61h415l12 -61l-65 -22v-323zM321 61v345h-104q0 -235 -66 -345h170z" />
    <glyph glyph-name="afii10070" unicode="&#x435;" horiz-adv-x="549" 
d="M180 294h205q3 15 3 29q0 43 -26 67.5t-66 24.5q-48 0 -78.5 -33t-37.5 -88zM318 62q85 0 154 46l34 -51q-84 -68 -193 -68q-138 0 -205.5 65t-67.5 180q0 112 73 178t183 66q92 0 155 -45t63 -117q0 -46 -22 -84h-315q2 -76 39.5 -123t101.5 -47z" />
    <glyph glyph-name="afii10072" unicode="&#x436;" horiz-adv-x="775" 
d="M239 262l-108 97q-41 37 -103 47l12 61h182l12 -61l-40 -22l110 -99h26v99l-57 22l12 61h204l12 -61l-56 -22v-99h26l109 99l-40 22l12 61h182l12 -61q-60 -9 -102 -48l-108 -96l68 -30l88 -149l73 -22l-12 -61h-194l10 52l-102 171l-22 9v-149l63 -22l-12 -61h-218
l-12 61l64 23v148l-22 -9l-103 -171l11 -52h-194l-12 61l73 22l88 149z" />
    <glyph glyph-name="afii10073" unicode="&#x437;" horiz-adv-x="435" 
d="M198 -10q-88 0 -173 41v118l68 13l27 -99q26 -10 68 -10q35 0 58.5 26t23.5 64q0 34 -26.5 58t-61.5 24h-47v62h37q27 0 51 20t24 50t-17.5 44t-43.5 14q-36 0 -67 -11l-21 -75l-67 12v95q85 42 168 42q77 0 125.5 -33.5t48.5 -83.5q0 -69 -58 -100q36 -15 58.5 -46.5
t22.5 -75.5q0 -60 -53.5 -104.5t-144.5 -44.5z" />
    <glyph glyph-name="afii10074" unicode="&#x438;" horiz-adv-x="657" 
d="M225 97v-14l63 -22l-12 -61h-227l-12 61l63 22v301l-65 22l12 61h232l12 -61l-66 -22v-145l-24 -73l231 201v17l-65 22l12 61h231l12 -61l-65 -22v-301l63 -22l-12 -61h-229l-12 61l65 22v142l24 73z" />
    <glyph glyph-name="afii10075" unicode="&#x439;" horiz-adv-x="657" 
d="M225 97v-14l63 -22l-12 -61h-227l-12 61l63 22v301l-65 22l12 61h232l12 -61l-66 -22v-145l-24 -73l231 201v17l-65 22l12 61h231l12 -61l-65 -22v-301l63 -22l-12 -61h-229l-12 61l65 22v142l24 73zM492 716l37 -38q-34 -48 -86.5 -77.5t-103.5 -29.5q-118 0 -182 89
l63 66h51q35 -63 99 -63q36 0 63 11.5t59 41.5z" />
    <glyph glyph-name="afii10076" unicode="&#x43a;" horiz-adv-x="562" 
d="M321 467h204l12 -61q-68 -10 -105 -47l-119 -113l60 -13l106 -150l73 -22l-12 -61h-195l10 51l-124 171v39l128 123l-50 22zM200 83l63 -22l-12 -61h-229l-12 61l64 22v323h-52l-12 61l131 15l59 -15v-384z" />
    <glyph glyph-name="afii10077" unicode="&#x43b;" horiz-adv-x="543" 
d="M230 306q0 -69 -19.5 -161t-54.5 -145h-134l-12 61q52 10 87.5 56t49 100.5t13.5 112.5v54l-65 22l12 61h389l12 -61l-65 -22v-301l63 -22l-12 -61h-228l-12 61l63 22v323h-87v-100z" />
    <glyph glyph-name="afii10078" unicode="&#x43c;" horiz-adv-x="755" 
d="M508 290l-114 -290l-79 -10l-104 256v72l-43 -235l62 -22l-12 -61h-176l-12 61l66 22l47 301l-64 22l12 61h173l101 -250v-80l128 330h176l12 -61l-63 -22l39 -301l66 -22l-12 -61h-230l-12 61l62 22l-23 144v63z" />
    <glyph glyph-name="afii10079" unicode="&#x43d;" horiz-adv-x="652" 
d="M427 274v110l-65 22l12 61h231l12 -61l-64 -22v-301l63 -22l-12 -61h-229l-12 61l64 22v134h-202v-134l63 -22l-12 -61h-227l-12 61l62 22v301l-64 22l12 61h232l12 -61l-66 -22v-110h202z" />
    <glyph glyph-name="afii10080" unicode="&#x43e;" horiz-adv-x="579" 
d="M290 478q114 0 181.5 -65t67.5 -179q0 -116 -64.5 -180t-184.5 -64q-119 0 -184.5 65.5t-65.5 178.5q0 112 68 178t182 66zM290 415q-56 0 -88.5 -48t-32.5 -130q0 -84 32 -134t89 -50t89.5 50t32.5 134q0 83 -33 130.5t-89 47.5z" />
    <glyph glyph-name="afii10081" unicode="&#x43f;" horiz-adv-x="624" 
d="M47 467h530l12 -61l-65 -22v-301l63 -22l-12 -61h-229l-12 61l64 23v322h-172v-323l63 -22l-12 -61h-228l-12 61l63 22v301l-65 22z" />
    <glyph glyph-name="afii10082" unicode="&#x440;" horiz-adv-x="574" 
d="M236 0v61h19q53 0 97.5 54t44.5 139q0 152 -99 152q-52 0 -104 -20v-542l64 -22l-12 -61h-228l-12 61l63 22v562h-55l-12 61l134 11l43 -31q69 31 127 31q108 0 168 -58.5t60 -172.5q0 -109 -79.5 -178t-197.5 -69h-21z" />
    <glyph glyph-name="afii10083" unicode="&#x441;" horiz-adv-x="514" 
d="M313 415q-61 0 -98.5 -43.5t-37.5 -119.5q0 -86 32.5 -138t104.5 -52q77 0 144 46l34 -51q-74 -68 -183 -68q-132 0 -200.5 65.5t-68.5 178.5q0 114 75 179.5t196 65.5q82 0 166 -42v-96l-67 -12l-21 75q-31 12 -76 12z" />
    <glyph glyph-name="afii10084" unicode="&#x442;" horiz-adv-x="484" 
d="M379 406h-76v-323l62 -22l-12 -61h-228l-12 61l63 22v323h-75l-23 -78l-68 12v127h459v-127l-68 -12z" />
    <glyph glyph-name="afii10085" unicode="&#x443;" horiz-adv-x="608" 
d="M524 384l-171 -488q-13 -37 -40.5 -82.5t-53.5 -63.5l-135 11l-11 60q133 20 170 116l20 52l-31 11l-181 384l-73 22l12 61h258l12 -61l-77 -22l113 -221v-83l106 304l-68 22l12 61h195l12 -61z" />
    <glyph glyph-name="afii10086" unicode="&#x444;" horiz-adv-x="728" 
d="M301 61v344q-50 -8 -86 -50.5t-36 -117.5q0 -77 36 -123t86 -53zM301 -156v146q-117 5 -189 67t-72 177q0 114 73 171t188 62v208h-45l-10 60l122 12l59 -13v-267q115 -5 188 -62t73 -171q0 -115 -71.5 -177t-189.5 -67v-146l63 -22l-12 -61h-228l-12 61zM427 405v-344
q50 7 86.5 53t36.5 123q0 74 -36.5 117t-86.5 51z" />
    <glyph glyph-name="afii10087" unicode="&#x445;" horiz-adv-x="553" 
d="M543 406l-75 -22l-117 -145l111 -156l75 -22l-12 -61h-251l-12 61l51 22l-49 69v37l-88 -106l48 -22l-12 -61h-190l-12 61l76 22l111 137l-112 164l-71 22l12 61h249l12 -61l-51 -22l49 -71v-43l92 114l-55 22l12 61h197z" />
    <glyph glyph-name="afii10088" unicode="&#x446;" horiz-adv-x="628" 
d="M528 61h63v-179l-68 -12l-38 130h-438l-12 61l65 22v301l-63 22l12 61h228l12 -61l-63 -22v-323h176v323l-65 22l12 61h230l12 -61l-63 -22v-323z" />
    <glyph glyph-name="afii10089" unicode="&#x447;" horiz-adv-x="580" 
d="M355 384l-60 22l12 61h226l12 -61l-64 -22v-301l63 -22l-12 -61h-228l-12 61l63 23v102q-42 -16 -103 -16q-86 0 -135 42.5t-49 122.5v50l-63 21l12 61h224l12 -61l-59 -22v-67q0 -38 18.5 -59t47.5 -21q65 0 95 15v132z" />
    <glyph glyph-name="afii10090" unicode="&#x448;" horiz-adv-x="875" 
d="M828 0h-781l-12 61l65 22v301l-63 22l12 61h228l12 -61l-63 -22v-323h150v323l-64 22l12 61h228l12 -61l-62 -22v-323h147v323l-63 22l12 61h229l12 -61l-64 -22v-301l65 -22z" />
    <glyph glyph-name="afii10091" unicode="&#x449;" horiz-adv-x="875" 
d="M734 0h-687l-12 61l65 22v301l-63 22l12 61h228l12 -61l-63 -22v-323h150v323l-64 22l12 61h228l12 -61l-62 -22v-323h147v323l-63 22l12 61h229l12 -61l-64 -22v-301l65 -22v-185l-67 -6z" />
    <glyph glyph-name="afii10092" unicode="&#x44a;" horiz-adv-x="577" 
d="M313 288h42q30 0 60.5 -7t60 -22.5t48 -46.5t18.5 -72q0 -56 -43 -98t-101 -42h-305l-12 61l63 22v323h-40l-24 -78l-67 12v127h310l12 -61l-65 -22v-323h64q32 0 52.5 25t20.5 61q0 35 -20.5 57t-52.5 22h-21v62z" />
    <glyph glyph-name="afii10093" unicode="&#x44b;" horiz-adv-x="780" 
d="M298 288q31 0 61 -7t60 -22.5t48.5 -46.5t18.5 -72q0 -56 -43.5 -98t-101.5 -42h-292l-12 61l63 22v301l-65 22l12 61h232l12 -61l-65 -22v-323h50q33 0 53.5 24.5t20.5 61.5q0 35 -20 57t-54 22h-7v62h29zM556 83v301l-63 22l12 61h228l12 -61l-63 -22v-302l63 -21
l-12 -61h-228l-12 61z" />
    <glyph glyph-name="afii10094" unicode="&#x44c;" horiz-adv-x="533" 
d="M226 384v-323h64q32 0 52.5 25t20.5 61q0 35 -20.5 57t-52.5 22h-21v62h42q30 0 60.5 -7t60 -22.5t48 -46.5t18.5 -72q0 -56 -43 -98t-101 -42h-305l-12 61l63 22v301l-65 22l11 61h233l12 -61z" />
    <glyph glyph-name="afii10095" unicode="&#x44d;" horiz-adv-x="507" 
d="M159 206v65h171q-3 68 -40 105.5t-96 37.5q-45 0 -75 -11q-2 -6 -10 -34.5t-11 -40.5l-68 12v97q83 40 167 40q121 0 195.5 -65t74.5 -179q0 -113 -68.5 -178t-200.5 -65q-82 0 -168 40v119l68 13l27 -99q26 -10 66 -10q63 0 97.5 42.5t40.5 110.5h-170z" />
    <glyph glyph-name="afii10096" unicode="&#x44e;" horiz-adv-x="819" 
d="M98 83v301l-63 22l12 61h228l12 -61l-63 -22v-113h92q10 97 69.5 152t161.5 55q112 0 172 -64t60 -180q0 -244 -232 -244q-110 0 -168 56.5t-64 159.5h-91v-123l63 -22l-12 -61h-228l-12 61zM547 415q-94 0 -94 -178q0 -184 94 -184q95 0 95 184q0 178 -95 178z" />
    <glyph glyph-name="afii10097" unicode="&#x44f;" horiz-adv-x="563" 
d="M311 241v-46l-102 -149l9 -46h-190l-13 61l72 22l57 86l46 26q-123 31 -123 128q0 65 41 104.5t116 39.5h292l12 -61l-59 -22v-301l57 -22l-12 -61h-215l-12 61l56 22v323h-64q-39 0 -58.5 -23t-19.5 -61q0 -31 24 -56t59 -25h27z" />
    <glyph glyph-name="uni0450" unicode="&#x450;" horiz-adv-x="549" 
d="M300 561l-126 158l97 47l73 -182zM385 294h-205q7 55 37.5 88t78.5 33q40 0 66 -24.5t26 -67.5q0 -14 -3 -29zM318 62q-64 0 -101.5 47t-39.5 123h315q22 38 22 84q0 72 -63 117t-155 45q-110 0 -183 -66t-73 -178q0 -115 67.5 -180t205.5 -65q109 0 193 68l-34 51
q-69 -46 -154 -46z" />
    <glyph glyph-name="afii10071" unicode="&#x451;" horiz-adv-x="549" 
d="M392 697q26 0 45.5 -19t19.5 -46q0 -26 -19.5 -45.5t-45.5 -19.5t-45.5 19.5t-19.5 45.5q0 27 19.5 46t45.5 19zM204 697q27 0 46 -19t19 -46q0 -26 -19 -45.5t-46 -19.5q-26 0 -45.5 19.5t-19.5 45.5q0 27 19.5 46t45.5 19zM180 294h205q3 15 3 29q0 43 -26 67.5
t-66 24.5q-48 0 -78.5 -33t-37.5 -88zM318 62q85 0 154 46l34 -51q-84 -68 -193 -68q-138 0 -205.5 65t-67.5 180q0 112 73 178t183 66q92 0 155 -45t63 -117q0 -46 -22 -84h-315q2 -76 39.5 -123t101.5 -47z" />
    <glyph glyph-name="afii10099" unicode="&#x452;" horiz-adv-x="580" 
d="M373 574h-163v-115q42 18 103 18q111 0 169 -68t58 -189q0 -65 -15.5 -135t-46 -139t-84 -122.5t-120.5 -73.5l-33 56q166 111 166 424q0 99 -27 137t-75 38q-51 0 -95 -19v-303l63 -22l-11 -61h-231l-10 61l63 22v491h-68v42h68v59h-55l-13 60l135 12l59 -13v-118h163
v-42z" />
    <glyph glyph-name="afii10100" unicode="&#x453;" horiz-adv-x="441" 
d="M327 719l-126 -158l-44 23l73 182zM220 406v-323l63 -22l-12 -61h-227l-12 61l63 22v301l-65 22l12 61h379v-127l-68 -12l-22 78h-111z" />
    <glyph glyph-name="afii10101" unicode="&#x454;" horiz-adv-x="495" 
d="M295 -10q-134 0 -206.5 65.5t-72.5 177.5q0 113 79 178.5t201 65.5q74 0 157 -40v-97l-68 -12l-21 75q-29 11 -66 11q-59 0 -100.5 -38t-44.5 -105h181v-65h-180q6 -65 44 -104.5t103 -39.5q49 0 130 51l37 -56q-73 -67 -173 -67z" />
    <glyph glyph-name="afii10102" unicode="&#x455;" horiz-adv-x="452" 
d="M213 -10q-90 0 -173 41v118l67 13l34 -99q27 -10 64 -10q39 0 65.5 14t26.5 40q0 35 -99 81q-35 16 -54 27t-47 31t-41.5 45.5t-13.5 56.5q0 63 53 96.5t145 33.5q85 0 154 -42v-96l-68 -12l-21 77q-40 10 -75 10q-30 0 -51.5 -15t-21.5 -37q0 -11 8 -21t24 -19.5t30 -16
t35.5 -15.5t32.5 -14q63 -30 94 -60t31 -82q0 -66 -54 -105.5t-145 -39.5z" />
    <glyph glyph-name="afii10103" unicode="&#x456;" horiz-adv-x="334" 
d="M230 83l64 -22l-12 -61h-230l-12 61l64 22v323h-46l-11 61l122 11l61 -11v-384zM159 697q27 0 46 -19t19 -46q0 -26 -19 -45.5t-46 -19.5q-26 0 -45.5 19.5t-19.5 45.5q0 27 19.5 46t45.5 19z" />
    <glyph glyph-name="afii10104" unicode="&#x457;" horiz-adv-x="334" 
d="M261 697q26 0 45.5 -19t19.5 -46q0 -26 -19.5 -45.5t-45.5 -19.5t-45.5 19.5t-19.5 45.5q0 27 19.5 46t45.5 19zM73 697q27 0 46 -19t19 -46q0 -26 -19 -45.5t-46 -19.5q-26 0 -45.5 19.5t-19.5 45.5q0 27 19.5 46t45.5 19zM230 83l64 -21l-12 -62h-230l-12 62l64 21v323
h-46l-11 61l122 11l61 -11v-384z" />
    <glyph glyph-name="afii10105" unicode="&#x458;" horiz-adv-x="301" 
d="M33 467l135 11l59 -11v-387q0 -56 -9.5 -100.5t-34 -89.5t-73.5 -80.5t-121 -59.5l-34 57q91 60 118.5 126.5t27.5 162.5v310h-55zM156 697q27 0 46 -19t19 -46q0 -26 -19 -45.5t-46 -19.5q-26 0 -45.5 19.5t-19.5 45.5q0 27 19.5 46t45.5 19z" />
    <glyph glyph-name="afii10106" unicode="&#x459;" horiz-adv-x="750" 
d="M230 306q0 -69 -19.5 -161t-54.5 -145h-134l-12 61q52 10 87.5 56t49 100.5t13.5 112.5v54l-65 22l12 61h389l12 -61l-65 -22v-323h64q32 0 52.5 25t20.5 61q0 35 -20.5 57t-52.5 22h-21v62h42q30 0 60.5 -7t60 -22.5t48 -46.5t18.5 -72q0 -56 -43 -98t-101 -42h-305
l-12 61l63 22v323h-87v-100z" />
    <glyph glyph-name="afii10107" unicode="&#x45a;" horiz-adv-x="855" 
d="M427 274v110l-65 22l12 61h231l12 -61l-64 -22v-323h64q32 0 52.5 25t20.5 61q0 35 -20.5 57t-52.5 22h-21v62h42q30 0 60.5 -7t60 -22.5t48 -46.5t18.5 -72q0 -56 -43 -98t-101 -42h-306l-12 61l64 22v134h-202v-134l63 -22l-12 -61h-227l-12 61l62 22v301l-64 22l12 61
h232l12 -61l-66 -22v-110h202z" />
    <glyph glyph-name="afii10108" unicode="&#x45b;" horiz-adv-x="607" 
d="M211 606h158v-51h-158v-96q70 18 103 18q88 0 144 -44.5t56 -123.5v-226l63 -22l-10 -61h-176l-8 46v282q0 37 -23 57.5t-58 20.5q-42 0 -91 -20v-303l63 -22l-10 -61h-231l-10 61l63 22v472h-70v51h70v69h-56l-12 60l134 12l59 -13v-128z" />
    <glyph glyph-name="afii10109" unicode="&#x45c;" horiz-adv-x="562" 
d="M416 719l-126 -158l-44 23l73 182zM321 467h204l12 -61q-68 -10 -105 -47l-119 -113l60 -13l106 -150l73 -22l-12 -61h-195l10 51l-124 171v39l128 123l-50 22zM200 83l63 -22l-12 -61h-229l-12 61l64 22v323h-52l-12 61l131 15l59 -15v-384z" />
    <glyph glyph-name="uni045D" unicode="&#x45d;" horiz-adv-x="657" 
d="M225 83v14l231 201l-24 -73v-142l-65 -21l11 -62h232l10 62l-63 21v301l65 22l-10 61h-235l-10 -61l65 -22v-17l-231 -201l24 73v145l66 22l-11 61h-235l-10 -61l65 -22v-301l-63 -21l10 -62h230l11 62zM306 561l-126 158l97 47l73 -182z" />
    <glyph glyph-name="afii10110" unicode="&#x45e;" horiz-adv-x="608" 
d="M491 716l37 -38q-34 -48 -86.5 -77.5t-103.5 -29.5q-118 0 -182 89l63 66h51q35 -63 99 -63q36 0 63 11.5t59 41.5zM524 384l-171 -488q-13 -37 -40.5 -82.5t-53.5 -63.5l-135 11l-11 60q133 20 170 116l20 52l-31 11l-181 384l-73 22l12 61h258l12 -61l-77 -22l113 -221
v-83l106 304l-68 22l12 61h195l12 -61z" />
    <glyph glyph-name="afii10193" unicode="&#x45f;" horiz-adv-x="628" 
d="M258 0h-213l-10 61l65 22v308l-63 20l10 56h231l11 -56l-63 -20v-329h176v329l-65 20l12 56h232l10 -56l-63 -20v-308l65 -22l-10 -61h-211l-19 -130h-76z" />
    <glyph glyph-name="afii10146" unicode="&#x462;" horiz-adv-x="715" 
d="M10 419v163h192v30l-84 34l11 70h283l12 -70l-84 -34v-30h213v-163l-68 -13l-43 109h-102v-444h46q72 0 105.5 30t33.5 92q0 58 -33.5 81t-99.5 23h-6v71h29q43 0 76 -3.5t69.5 -14t60 -29t39 -51t15.5 -77.5q0 -97 -55.5 -145t-193.5 -48h-298l-9 71l83 31v413h-81
l-43 -109z" />
    <glyph glyph-name="afii10194" unicode="&#x463;" horiz-adv-x="597" 
d="M378 406h-79v-345h53q32 0 52.5 24.5t20.5 61.5q0 35 -20 57t-53 22h-10v62h36q24 0 48 -4t49 -14.5t44 -26.5t31 -42.5t12 -60.5q0 -56 -41 -98t-98 -42h-302l-11 61l63 22v323h-73l-23 -78l-67 12v127h163v208h-55l-11 60l133 12l59 -13v-267h170v-127l-68 -12z" />
    <glyph glyph-name="afii10147" unicode="&#x472;" 
d="M405 717q162 0 253 -103.5t91 -263.5q0 -164 -86.5 -265.5t-257.5 -101.5q-86 0 -154 31t-108.5 83.5t-61.5 117t-21 135.5q0 70 23 135t65.5 117t109 83.5t147.5 31.5zM405 633q-195 0 -195 -278v-7q50 48 121 48q29 0 94 -18.5t95 -18.5q37 0 80 34q-14 240 -195 240z
M301 306q-47 0 -86 -39q27 -200 190 -200q177 0 194 238q-44 -38 -107 -38q-34 0 -96.5 19.5t-94.5 19.5z" />
    <glyph glyph-name="afii10195" unicode="&#x473;" horiz-adv-x="579" 
d="M290 478q114 0 181.5 -65t67.5 -179q0 -116 -64.5 -180t-184.5 -64q-119 0 -184.5 65.5t-65.5 178.5q0 112 68 178t182 66zM290 415q-54 0 -87 -45.5t-34 -123.5q30 27 73 27q18 0 59.5 -11t60.5 -11q21 0 48 20q-7 68 -38.5 106t-81.5 38zM224 213q-28 0 -52 -22
q8 -64 38.5 -101t79.5 -37q52 0 84 43t37 117q-28 -24 -66 -24q-23 0 -62 12t-59 12z" />
    <glyph glyph-name="afii10148" unicode="&#x474;" horiz-adv-x="711" 
d="M619 582l-214 -582l-80 -10l-231 606l-89 33l12 71h291l11 -71l-77 -33l130 -335v-113l179 473q18 48 63.5 71.5t91.5 23.5v-67q-10 0 -21 -2t-33 -18.5t-33 -46.5z" />
    <glyph glyph-name="afii10196" unicode="&#x475;" horiz-adv-x="569" 
d="M477 372l-139 -372l-92 -12l-159 396l-67 22l11 61h237l10 -61l-54 -22l75 -192v-93l109 288q15 40 53.5 64t80.5 30l12 -63q-27 -4 -49 -17t-28 -29z" />
    <glyph glyph-name="afii10050" unicode="&#x490;" horiz-adv-x="545" 
d="M545 623h-294v-520l83 -32l-11 -71h-276l-10 71l82 31v494l-84 34l12 70h373l54 143l71 -10v-210z" />
    <glyph glyph-name="afii10098" unicode="&#x491;" horiz-adv-x="432" 
d="M412 411h-191v-328l63 -21l-10 -62h-231l-11 62l63 21v301l-65 27l11 56h281l23 80l67 -12v-124z" />
    <glyph glyph-name="uni0492" unicode="&#x492;" horiz-adv-x="568" 
d="M249 629v-259h143v-53h-143v-215l112 -31l-10 -71h-304l-10 71l82 31v215h-84v53h84v226l-84 33l12 71h496v-203l-71 -11l-54 143h-169z" />
    <glyph glyph-name="uni0493" unicode="&#x493;" horiz-adv-x="441" 
d="M220 406v-132h112v-51h-112v-140l63 -22l-12 -61h-227l-12 61l63 22v140h-65v51h65v110l-65 22l12 61h379v-127l-68 -12l-22 78h-111z" />
    <glyph glyph-name="uni0496" unicode="&#x496;" horiz-adv-x="1020" 
d="M777 0l9 56l-180 290v53l184 199l-61 31l12 71h247l12 -71q-80 -22 -129 -75l-170 -182l76 -43l139 -226l89 -32v-235l-71 -10l-64 174h-93zM574 597v-495l83 -31l-12 -71h-272l-10 71l83 32v494l-84 32l11 71h272l13 -71zM234 56l9 -56h-218l-10 71l86 31l142 227l76 43
l-170 182q-50 54 -129 75l12 71h247l12 -71l-61 -31l184 -199v-53z" />
    <glyph glyph-name="uni0497" unicode="&#x497;" horiz-adv-x="775" 
d="M239 262l-108 97q-41 37 -103 47l12 61h182l12 -61l-40 -22l110 -99h26v99l-57 22l12 61h204l12 -61l-56 -22v-99h26l109 99l-40 22l12 61h182l12 -61q-60 -9 -102 -48l-108 -96l68 -30l88 -149l73 -21v-186l-67 -6l-39 130h-100l10 52l-102 171l-22 9v-149l63 -22
l-12 -61h-218l-12 61l64 23v148l-22 -9l-103 -171l11 -52h-194l-12 61l73 22l88 149z" />
    <glyph glyph-name="uni0498" unicode="&#x498;" horiz-adv-x="572" 
d="M188 -221l-20 56q38 0 60 13t22 34q0 13 -7.5 22t-21.5 9h-30v74q-100 13 -167 61v162l72 10l46 -132q54 -21 105 -21q55 0 90.5 42t35.5 108q0 56 -38.5 92.5t-97.5 36.5h-63v79h45q44 0 82 32t38 77q0 47 -25 73t-68 26q-49 0 -93 -14l-48 -133l-71 11v155
q113 65 212 65q123 0 182.5 -48t59.5 -126q0 -107 -96 -152q58 -22 94 -69.5t36 -115.5q0 -94 -69 -158t-200 -65v-22q31 -2 56.5 -20t25.5 -54q0 -55 -46 -81.5t-101 -26.5z" />
    <glyph glyph-name="uni0499" unicode="&#x499;" horiz-adv-x="435" 
d="M143 -221l-20 56q38 0 60 13t22 34q0 13 -7.5 22t-21.5 9h-30v81q-66 10 -121 37v118l68 13l27 -99q26 -10 68 -10q35 0 58.5 26t23.5 64q0 34 -26.5 58t-61.5 24h-47v62h37q27 0 51 20t24 50t-17.5 44t-43.5 14q-36 0 -67 -11l-21 -75l-67 12v95q85 42 168 42
q77 0 125.5 -33.5t48.5 -83.5q0 -69 -58 -100q36 -15 58.5 -46.5t22.5 -75.5q0 -58 -50.5 -102t-137.5 -47v-29q31 -2 56.5 -20t25.5 -54q0 -55 -46 -81.5t-101 -26.5z" />
    <glyph glyph-name="uni049A" unicode="&#x49a;" horiz-adv-x="728" 
d="M481 0l9 54l-191 286v53l199 203l-63 33l12 71h241l11 -71q-82 -23 -129 -72l-177 -180l68 -32l164 -242l87 -32v-235l-71 -10l-64 174h-96zM257 596v-492l84 -32l-10 -72h-286l-10 71l84 33v492l-84 34l11 70h285l10 -71z" />
    <glyph glyph-name="uni049B" unicode="&#x49b;" horiz-adv-x="562" 
d="M321 467h204l12 -61q-68 -10 -105 -47l-119 -113l60 -13l106 -150l72 -22v-185l-66 -6l-39 130h-101l10 51l-124 171v39l128 123l-50 22zM200 83l63 -22l-12 -61h-229l-12 61l64 22v323h-52l-12 61l131 15l59 -15v-384z" />
    <glyph glyph-name="uni049C" unicode="&#x49c;" horiz-adv-x="764" 
d="M364 298v-128h-59v391h59v-140l173 177l-65 31l12 71h241l11 -71q-38 -8 -73 -29.5t-56 -42.5l-177 -180l68 -32l164 -243l87 -31l-11 -71h-220l9 54zM257 598v-495l84 -31l-10 -72h-286l-10 71l84 32v494l-84 32l11 71h285l10 -71z" />
    <glyph glyph-name="uni049D" unicode="&#x49d;" horiz-adv-x="597" 
d="M226 102v299h52v-129l116 112l-50 22l12 61h204l12 -61q-68 -10 -105 -47l-119 -113l60 -13l106 -150l73 -22l-12 -61h-195l10 51l-112 154v-103h-52zM195 83l63 -22l-12 -61h-229l-12 61l64 22v323h-52l-12 61l131 15l59 -15v-384z" />
    <glyph glyph-name="uni04A0" unicode="&#x4a0;" horiz-adv-x="728" 
d="M119 629h-61l-44 -117l-71 10v178h388l10 -71l-84 -31v-494l84 -31l-10 -73h-286l-10 72l84 32v525zM490 54l-9 -54h220l11 71l-90 36l-161 238l-68 32l177 180q47 49 129 72l-11 71h-241l-12 -71l63 -33l-199 -203v-53z" />
    <glyph glyph-name="uni04A1" unicode="&#x4a1;" horiz-adv-x="632" 
d="M270 83l63 -22l-12 -61h-229l-12 61l64 22v323h-40l-24 -78l-67 12v127h310l12 -61l-65 -22v-301zM391 467h204l12 -61q-68 -10 -105 -47l-119 -113l60 -13l106 -150l73 -22l-12 -61h-195l10 51l-124 171v39l128 123l-50 22z" />
    <glyph glyph-name="uni04A2" unicode="&#x4a2;" horiz-adv-x="820" 
d="M780 629l-84 -33v-493l82 -32v-235l-70 -10l-64 174h-160l-10 71l84 31v220h-296v-220l82 -31l-10 -71h-282l-11 71l83 31v494l-84 33l10 71h286l10 -71l-84 -33v-197h296v197l-84 33l10 71h286z" />
    <glyph glyph-name="uni04A3" unicode="&#x4a3;" horiz-adv-x="652" 
d="M510 0h-137l-10 63l64 21v133h-202v-134l63 -20l-11 -63h-230l-10 63l62 20v301l-64 20l10 63h235l11 -63l-66 -20v-110h202v110l-65 20l10 63h235l10 -63l-64 -20v-301l63 -20v-187l-67 -6z" />
    <glyph glyph-name="uni04AA" unicode="&#x4aa;" horiz-adv-x="649" 
d="M396 67q64 0 115 14l51 139l71 -10v-162q-42 -30 -111 -48q-88 -42 -88 -85q0 -33 41 -33q14 0 31 5l17 -72q-34 -12 -69 -12q-45 0 -73.5 26.5t-28.5 69.5q0 49 48 84h-4q-94 0 -166.5 31t-115 84t-63.5 116.5t-21 135.5q0 70 23.5 135t67.5 117.5t115.5 83.5t159.5 31
q125 0 237 -64v-156l-72 -11l-46 131q-58 16 -119 16q-216 0 -216 -278q0 -44 6 -82.5t21 -77t39 -66.5t62.5 -45t87.5 -17z" />
    <glyph glyph-name="uni04AB" unicode="&#x4ab;" horiz-adv-x="514" 
d="M313 415q-61 0 -98.5 -43.5t-37.5 -119.5q0 -86 32.5 -138t104.5 -52q77 0 144 46l34 -51q-44 -40 -104 -57q-88 -42 -88 -85q0 -33 41 -33q14 0 31 5l17 -72q-34 -12 -69 -12q-45 0 -73.5 26.5t-28.5 69.5q0 55 59 91q-117 8 -177 72.5t-60 170.5q0 114 75 179.5
t196 65.5q82 0 166 -42v-96l-67 -12l-21 75q-31 12 -76 12z" />
    <glyph glyph-name="uni04AE" unicode="&#x4ae;" horiz-adv-x="685" 
d="M291 102v155l-198 339l-88 33l11 71h299l11 -72l-75 -32l106 -176v-63l144 239l-73 33l10 71h231l11 -71l-90 -33l-161 -274v-220l83 -31l-12 -71h-282l-11 71z" />
    <glyph glyph-name="uni04AF" unicode="&#x4af;" horiz-adv-x="625" 
d="M541 382l-147 -355v-183l63 -22l-10 -61h-237l-11 61l63 22v175l-170 365l-72 22l11 61h239l10 -61l-55 -22l107 -214v-93l130 307l-57 22l11 61h184l10 -61z" />
    <glyph glyph-name="uni04B0" unicode="&#x4b0;" horiz-adv-x="685" 
d="M429 300h141v-52h-141v-146l83 -31l-12 -71h-282l-11 71l84 31v146h-175v52h150l-173 296l-88 33l11 71h299l11 -72l-75 -32l106 -176v-63l144 239l-73 33l10 71h231l11 -71l-90 -33l-161 -274v-22z" />
    <glyph glyph-name="uni04B1" unicode="&#x4b1;" horiz-adv-x="625" 
d="M541 382l-137 -330h141v-52h-151v-156l63 -22l-10 -61h-237l-11 61l63 22v156h-151v52h135l-154 332l-72 22l11 61h239l10 -61l-55 -22l107 -214v-93l130 307l-57 22l11 61h184l10 -61z" />
    <glyph glyph-name="uni04B2" unicode="&#x4b2;" horiz-adv-x="697" 
d="M343 278l-145 -176l69 -31l-11 -71h-234l-11 71l86 31l183 223l-183 271l-87 33l11 71h304l10 -71l-73 -33l92 -128v-45l143 173l-67 33l10 71h237l10 -71l-90 -33l-181 -224l182 -270l86 -31v-235l-70 -10l-64 174h-178l-11 71l72 31l-90 126v50z" />
    <glyph glyph-name="uni04B3" unicode="&#x4b3;" horiz-adv-x="553" 
d="M543 406l-75 -22l-117 -145l111 -156l75 -21v-186l-67 -6l-39 130h-157l-12 61l51 22l-49 69v37l-88 -106l48 -22l-12 -61h-190l-12 61l76 22l111 137l-112 164l-71 22l12 61h249l12 -61l-51 -22l49 -71v-43l92 114l-55 22l12 61h197z" />
    <glyph glyph-name="uni04B8" unicode="&#x4b8;" horiz-adv-x="723" 
d="M243 598v-169q0 -36 25.5 -57t59.5 -25v214h59v-210q49 9 74 22v225l-85 31l11 72h285l11 -72l-84 -31v-496l83 -31l-11 -71h-313l-10 71l113 31v183q-34 -11 -74 -16v-99h-59v95q-90 1 -157 47.5t-67 125.5v160l-84 31l13 71h282l12 -71z" />
    <glyph glyph-name="uni04B9" unicode="&#x4b9;" horiz-adv-x="590" 
d="M355 384l-60 22l12 61h226l12 -61l-64 -22v-301l63 -22l-12 -61h-228l-12 61l63 23v102q-24 -9 -62 -14v-70h-52v68q-82 2 -127.5 44.5t-45.5 120.5v50l-63 21l12 61h224l12 -61l-59 -22v-67q0 -65 47 -78v142h52v-143q42 4 62 14v132z" />
    <glyph glyph-name="uni04BA" unicode="&#x4ba;" horiz-adv-x="623" 
d="M280 634l-64 -20v-198q49 18 113 18q94 0 156 -47.5t62 -136.5v-164l64 -21l-12 -65h-237l-13 65l65 22v189q0 38 -29 57t-64 19q-55 0 -105 -16v-250l64 -21l-12 -65h-231l-12 66l64 20v528l-64 20l12 66h231z" />
    <glyph glyph-name="uni04BB" unicode="&#x4bb;" horiz-adv-x="602" 
d="M208 83l63 -22l-12 -61h-227l-12 61l62 22v592h-55l-12 57l134 15l59 -15v-280q56 26 113 26q88 0 138 -40t50 -119v-236l63 -22l-12 -61h-229l-12 61l64 22v250q0 37 -19.5 54.5t-49.5 17.5q-57 0 -106 -20v-302z" />
    <glyph glyph-name="uni04D0" unicode="&#x4d0;" horiz-adv-x="761" 
d="M386 842q82 0 129 57l37 -25q-18 -48 -62 -83.5t-104 -35.5t-104 35.5t-61 83.5l36 25q46 -57 129 -57zM332 700l109 17l224 -614l88 -32l-11 -71h-291l-11 71l79 32l-45 120h-234l-48 -120l94 -31l-10 -72h-250l-11 71l87 32zM445 301l-63 170v114l-112 -284h175z" />
    <glyph glyph-name="uni04D1" unicode="&#x4d1;" horiz-adv-x="508" 
d="M256 658q82 0 129 57l37 -25q-18 -48 -62 -83.5t-104 -35.5t-104 35.5t-61 83.5l36 25q47 -57 129 -57zM68 340v96q84 42 168 42q97 0 151.5 -49t54.5 -139v-207l56 -22l-12 -61h-127l-30 23q-49 -34 -129 -34q-71 0 -120 37t-49 102q0 48 26 83t70 52t90.5 24.5
t98.5 7.5v35q0 41 -25 63t-60 22q-32 0 -74 -11l-22 -76zM316 102v131q-69 0 -108.5 -26.5t-39.5 -69.5q0 -39 21.5 -57t47.5 -18q21 0 44 11t35 29z" />
    <glyph glyph-name="uni04D2" unicode="&#x4d2;" horiz-adv-x="761" 
d="M479 876q26 0 45.5 -19t19.5 -46q0 -26 -19.5 -45.5t-45.5 -19.5t-45.5 19.5t-19.5 45.5q0 27 19.5 46t45.5 19zM291 876q27 0 46 -19t19 -46q0 -26 -19 -45.5t-46 -19.5q-26 0 -45.5 19.5t-19.5 45.5q0 27 19.5 46t45.5 19zM332 700l109 17l224 -614l88 -32l-11 -71
h-291l-11 71l79 32l-45 120h-234l-48 -120l94 -31l-10 -72h-250l-11 71l87 32zM445 301l-63 170v114l-112 -284h175z" />
    <glyph glyph-name="uni04D3" unicode="&#x4d3;" horiz-adv-x="508" 
d="M335 697q26 0 45.5 -19t19.5 -46q0 -26 -19.5 -45.5t-45.5 -19.5t-45.5 19.5t-19.5 45.5q0 27 19.5 46t45.5 19zM147 697q27 0 46 -19t19 -46q0 -26 -19 -45.5t-46 -19.5q-26 0 -45.5 19.5t-19.5 45.5q0 27 19.5 46t45.5 19zM68 340v96q84 42 168 42q97 0 151.5 -49
t54.5 -139v-207l56 -22l-12 -61h-127l-30 23q-49 -34 -129 -34q-71 0 -120 37t-49 102q0 48 26 83t70 52t90.5 24.5t98.5 7.5v35q0 41 -25 63t-60 22q-32 0 -74 -11l-22 -76zM316 102v131q-69 0 -108.5 -26.5t-39.5 -69.5q0 -39 21.5 -57t47.5 -18q21 0 44 11t35 29z" />
    <glyph glyph-name="uni04D4" unicode="&#x4d4;" horiz-adv-x="1009" 
d="M846 629h-203v-229h113l30 81l72 -10v-221l-71 -10l-31 81h-113v-250h207l53 150l71 -10v-211h-541l-10 71l82 31v121h-268l-54 -121l85 -30l-10 -72h-242l-11 71l87 32l270 597h595v-178l-72 -11zM505 596l-84 33l-149 -328h233v295z" />
    <glyph glyph-name="uni04D5" unicode="&#x4d5;" horiz-adv-x="823" 
d="M592 62q85 0 154 46l34 -51q-84 -68 -193 -68q-123 0 -193 53q-77 -53 -196 -53q-71 0 -120 37t-49 102q0 48 26 83t70 52t90.5 24.5t98.5 7.5v35q0 41 -25 63t-60 22q-32 0 -74 -11l-22 -76l-67 12v96q84 42 168 42q108 0 161 -59q71 59 175 59q92 0 155 -45t63 -117
q0 -46 -22 -84h-315q2 -76 39.5 -123t101.5 -47zM314 102v131q-69 0 -108.5 -26.5t-39.5 -69.5q0 -39 21.5 -57t47.5 -18q21 0 44 11t35 29zM454 294h205q3 15 3 29q0 43 -26 67.5t-66 24.5q-48 0 -78.5 -33t-37.5 -88z" />
    <glyph glyph-name="uni04D6" unicode="&#x4d6;" horiz-adv-x="613" 
d="M315 842q83 0 129 57l37 -25q-18 -48 -62 -83.5t-104 -35.5t-104 35.5t-61 83.5l36 25q46 -57 129 -57zM450 629h-193v-229h103l30 81l72 -10v-221l-71 -10l-31 81h-103v-250h197l53 150l71 -10v-211h-531l-10 71l82 31v494l-84 33l11 71h515v-178l-72 -11z" />
    <glyph glyph-name="uni04D7" unicode="&#x4d7;" horiz-adv-x="549" 
d="M291 658q83 0 129 57l37 -25q-18 -48 -62 -83.5t-104 -35.5t-104 35.5t-61 83.5l36 25q46 -57 129 -57zM180 294h205q3 15 3 29q0 43 -26 67.5t-66 24.5q-48 0 -78.5 -33t-37.5 -88zM318 62q85 0 154 46l34 -51q-84 -68 -193 -68q-138 0 -205.5 65t-67.5 180
q0 112 73 178t183 66q92 0 155 -45t63 -117q0 -46 -22 -84h-315q2 -76 39.5 -123t101.5 -47z" />
    <glyph glyph-name="uni04D8" unicode="&#x4d8;" horiz-adv-x="756" 
d="M542 307h-319q-17 -39 -17 -78q0 -69 46 -115.5t124 -46.5q80 0 122 70.5t44 169.5zM696 350q0 -176 -81.5 -271.5t-238.5 -95.5q-146 0 -231 66.5t-85 190.5q0 74 46 157h439q-4 108 -61 172t-144 64q-63 0 -128 -14l-47 -133l-71 11v156q112 64 246 64q88 0 158 -31
t112 -83.5t64 -117t22 -135.5z" />
    <glyph glyph-name="afii10846" unicode="&#x4d9;" horiz-adv-x="531" 
d="M352 204h-180q-10 -26 -10 -51q0 -42 24.5 -66.5t64.5 -24.5q45 0 72 41.5t29 100.5zM70 266h284q0 69 -32 109t-90 40q-57 0 -85 -11l-21 -75l-67 12v96q82 41 176 41q120 0 188 -65t68 -180q0 -113 -65.5 -178t-174.5 -65q-94 0 -152.5 44t-58.5 127q0 20 9.5 53
t20.5 52z" />
    <glyph glyph-name="uni04DA" unicode="&#x4da;" horiz-adv-x="756" 
d="M542 307h-319q-17 -39 -17 -78q0 -69 46 -115.5t124 -46.5q80 0 122 70.5t44 169.5zM696 350q0 -176 -81.5 -271.5t-238.5 -95.5q-146 0 -231 66.5t-85 190.5q0 74 46 157h439q-4 108 -61 172t-144 64q-63 0 -128 -14l-47 -133l-71 11v156q112 64 246 64q88 0 158 -31
t112 -83.5t64 -117t22 -135.5zM432 876q26 0 45.5 -19t19.5 -46q0 -26 -19.5 -45.5t-45.5 -19.5t-45.5 19.5t-19.5 45.5q0 27 19.5 46t45.5 19zM244 876q27 0 46 -19t19 -46q0 -26 -19 -45.5t-46 -19.5q-26 0 -45.5 19.5t-19.5 45.5q0 27 19.5 46t45.5 19z" />
    <glyph glyph-name="uni04DB" unicode="&#x4db;" horiz-adv-x="531" 
d="M352 204h-180q-10 -26 -10 -51q0 -42 24.5 -66.5t64.5 -24.5q45 0 72 41.5t29 100.5zM70 266h284q0 69 -32 109t-90 40q-57 0 -85 -11l-21 -75l-67 12v96q82 41 176 41q120 0 188 -65t68 -180q0 -113 -65.5 -178t-174.5 -65q-94 0 -152.5 44t-58.5 127q0 20 9.5 53
t20.5 52zM335 697q26 0 45.5 -19t19.5 -46q0 -26 -19.5 -45.5t-45.5 -19.5t-45.5 19.5t-19.5 45.5q0 27 19.5 46t45.5 19zM147 697q27 0 46 -19t19 -46q0 -26 -19 -45.5t-46 -19.5q-26 0 -45.5 19.5t-19.5 45.5q0 27 19.5 46t45.5 19z" />
    <glyph glyph-name="uni04DC" unicode="&#x4dc;" horiz-adv-x="1020" 
d="M604 876q26 0 45.5 -19t19.5 -46q0 -26 -19.5 -45.5t-45.5 -19.5t-45.5 19.5t-19.5 45.5q0 27 19.5 46t45.5 19zM416 876q27 0 46 -19t19 -46q0 -26 -19 -45.5t-46 -19.5q-26 0 -45.5 19.5t-19.5 45.5q0 27 19.5 46t45.5 19zM234 56l9 -56h-218l-10 71l86 31l142 227
l76 43l-170 182q-50 54 -129 75l12 71h247l12 -71l-61 -31l184 -199v-53zM574 597v-495l83 -31l-12 -71h-272l-10 71l83 32v494l-84 32l11 71h272l13 -71zM777 0l9 56l-180 290v53l184 199l-61 31l12 71h247l12 -71q-80 -22 -129 -75l-170 -182l76 -43l139 -226l89 -32
l-10 -71h-218z" />
    <glyph glyph-name="uni04DD" unicode="&#x4dd;" horiz-adv-x="775" 
d="M481 697q26 0 45.5 -19t19.5 -46q0 -26 -19.5 -45.5t-45.5 -19.5t-45.5 19.5t-19.5 45.5q0 27 19.5 46t45.5 19zM293 697q27 0 46 -19t19 -46q0 -26 -19 -45.5t-46 -19.5q-26 0 -45.5 19.5t-19.5 45.5q0 27 19.5 46t45.5 19zM239 262l-108 97q-41 37 -103 47l12 61h182
l12 -61l-40 -22l110 -99h26v99l-57 22l12 61h204l12 -61l-56 -22v-99h26l109 99l-40 22l12 61h182l12 -61q-60 -9 -102 -48l-108 -96l68 -30l88 -149l73 -22l-12 -61h-194l10 52l-102 171l-22 9v-149l63 -22l-12 -61h-218l-12 61l64 23v148l-22 -9l-103 -171l11 -52h-194
l-12 61l73 22l88 149z" />
    <glyph glyph-name="uni04DE" unicode="&#x4de;" horiz-adv-x="572" 
d="M338 876q26 0 45.5 -19t19.5 -46q0 -26 -19.5 -45.5t-45.5 -19.5t-45.5 19.5t-19.5 45.5q0 27 19.5 46t45.5 19zM150 876q27 0 46 -19t19 -46q0 -26 -19 -45.5t-46 -19.5q-26 0 -45.5 19.5t-19.5 45.5q0 27 19.5 46t45.5 19zM247 -17q-132 0 -223 65v162l72 10l46 -132
q54 -21 105 -21q55 0 90.5 42t35.5 108q0 56 -38.5 92.5t-97.5 36.5h-63v79h45q44 0 82 32t38 77q0 47 -25 73t-68 26q-49 0 -93 -14l-48 -133l-71 11v155q113 65 212 65q123 0 182.5 -48t59.5 -126q0 -107 -96 -152q58 -22 94 -69.5t36 -115.5q0 -94 -70.5 -158.5
t-204.5 -64.5z" />
    <glyph glyph-name="uni04DF" unicode="&#x4df;" horiz-adv-x="435" 
d="M291 697q26 0 45.5 -19t19.5 -46q0 -26 -19.5 -45.5t-45.5 -19.5t-45.5 19.5t-19.5 45.5q0 27 19.5 46t45.5 19zM103 697q27 0 46 -19t19 -46q0 -26 -19 -45.5t-46 -19.5q-26 0 -45.5 19.5t-19.5 45.5q0 27 19.5 46t45.5 19zM198 -10q-88 0 -173 41v118l68 13l27 -99
q26 -10 68 -10q35 0 58.5 26t23.5 64q0 34 -26.5 58t-61.5 24h-47v62h37q27 0 51 20t24 50t-17.5 44t-43.5 14q-36 0 -67 -11l-21 -75l-67 12v95q85 42 168 42q77 0 125.5 -33.5t48.5 -83.5q0 -69 -58 -100q36 -15 58.5 -46.5t22.5 -75.5q0 -60 -53.5 -104.5t-144.5 -44.5z
" />
    <glyph glyph-name="uni04E2" unicode="&#x4e2;" horiz-adv-x="845" 
d="M262 103v26l359 339l-39 -105v-261l-82 -31l10 -71h283l11 71l-84 31v496l85 31l-12 71h-283l-12 -71l84 -31v-33l-350 -332l30 110v254l86 32l-13 71h-283l-12 -71l84 -31v-496l-82 -31l10 -71h282l12 71zM252 763v66h341v-66h-341z" />
    <glyph glyph-name="uni04E3" unicode="&#x4e3;" horiz-adv-x="657" 
d="M158 580v66h341v-66h-341zM225 83v14l231 201l-24 -73v-142l-65 -22l12 -61h229l12 61l-63 22v301l65 22l-12 61h-231l-12 -61l65 -22v-17l-231 -201l24 73v145l66 22l-12 61h-232l-12 -61l65 -22v-301l-63 -22l12 -61h227l12 61z" />
    <glyph glyph-name="uni04E4" unicode="&#x4e4;" horiz-adv-x="845" 
d="M262 129v-26l84 -32l-12 -71h-282l-10 71l82 31v496l-84 31l12 71h283l13 -71l-86 -32v-254l-30 -110l350 332v33l-84 31l12 71h283l12 -71l-85 -31v-496l84 -31l-11 -71h-283l-10 71l82 31v261l39 105zM516 876q26 0 45.5 -19t19.5 -46q0 -26 -19.5 -45.5t-45.5 -19.5
t-45.5 19.5t-19.5 45.5q0 27 19.5 46t45.5 19zM328 876q27 0 46 -19t19 -46q0 -26 -19 -45.5t-46 -19.5q-26 0 -45.5 19.5t-19.5 45.5q0 27 19.5 46t45.5 19z" />
    <glyph glyph-name="uni04E5" unicode="&#x4e5;" horiz-adv-x="657" 
d="M422 697q26 0 45.5 -19t19.5 -46q0 -26 -19.5 -45.5t-45.5 -19.5t-45.5 19.5t-19.5 45.5q0 27 19.5 46t45.5 19zM234 697q27 0 46 -19t19 -46q0 -26 -19 -45.5t-46 -19.5q-26 0 -45.5 19.5t-19.5 45.5q0 27 19.5 46t45.5 19zM225 97v-14l63 -22l-12 -61h-227l-12 61
l63 22v301l-65 22l12 61h232l12 -61l-66 -22v-145l-24 -73l231 201v17l-65 22l12 61h231l12 -61l-65 -22v-301l63 -22l-12 -61h-229l-12 61l65 22v142l24 73z" />
    <glyph glyph-name="uni04E6" unicode="&#x4e6;" 
d="M498 876q26 0 45.5 -19t19.5 -46q0 -26 -19.5 -45.5t-45.5 -19.5t-45.5 19.5t-19.5 45.5q0 27 19.5 46t45.5 19zM310 876q27 0 46 -19t19 -46q0 -26 -19 -45.5t-46 -19.5q-26 0 -45.5 19.5t-19.5 45.5q0 27 19.5 46t45.5 19zM405 717q162 0 253 -103.5t91 -263.5
q0 -164 -86.5 -265.5t-257.5 -101.5q-86 0 -154 31t-108.5 83.5t-61.5 117t-21 135.5q0 70 23 135t65.5 117t109 83.5t147.5 31.5zM405 633q-195 0 -195 -278q0 -288 195 -288q97 0 146.5 74t49.5 214q0 138 -50 208t-146 70z" />
    <glyph glyph-name="uni04E7" unicode="&#x4e7;" horiz-adv-x="579" 
d="M383 697q26 0 45.5 -19t19.5 -46q0 -26 -19.5 -45.5t-45.5 -19.5t-45.5 19.5t-19.5 45.5q0 27 19.5 46t45.5 19zM195 697q27 0 46 -19t19 -46q0 -26 -19 -45.5t-46 -19.5q-26 0 -45.5 19.5t-19.5 45.5q0 27 19.5 46t45.5 19zM290 478q114 0 181.5 -65t67.5 -179
q0 -116 -64.5 -180t-184.5 -64q-119 0 -184.5 65.5t-65.5 178.5q0 112 68 178t182 66zM290 415q-56 0 -88.5 -48t-32.5 -130q0 -84 32 -134t89 -50t89.5 50t32.5 134q0 83 -33 130.5t-89 47.5z" />
    <glyph glyph-name="uni04E8" unicode="&#x4e8;" 
d="M405 717q162 0 253 -103.5t91 -263.5q0 -164 -86.5 -265.5t-257.5 -101.5q-86 0 -154 31t-108.5 83.5t-61.5 117t-21 135.5q0 70 23 135t65.5 117t109 83.5t147.5 31.5zM600 325h-390q11 -258 195 -258q91 0 140.5 66.5t54.5 191.5zM210 377h390q-8 256 -195 256
q-188 0 -195 -256z" />
    <glyph glyph-name="uni04E9" unicode="&#x4e9;" horiz-adv-x="579" 
d="M290 478q114 0 181.5 -65t67.5 -179q0 -116 -64.5 -180t-184.5 -64q-119 0 -184.5 65.5t-65.5 178.5q0 112 68 178t182 66zM411 210h-241q5 -73 36 -115t84 -42q51 0 83.5 42t37.5 115zM170 262h241q-5 72 -37.5 112.5t-83.5 40.5t-83.5 -41t-36.5 -112z" />
    <glyph glyph-name="uni04EA" unicode="&#x4ea;" 
d="M405 717q162 0 253 -103.5t91 -263.5q0 -164 -86.5 -265.5t-257.5 -101.5q-86 0 -154 31t-108.5 83.5t-61.5 117t-21 135.5q0 70 23 135t65.5 117t109 83.5t147.5 31.5zM600 325h-390q11 -258 195 -258q91 0 140.5 66.5t54.5 191.5zM210 377h390q-8 256 -195 256
q-188 0 -195 -256zM498 876q26 0 45.5 -19t19.5 -46q0 -26 -19.5 -45.5t-45.5 -19.5t-45.5 19.5t-19.5 45.5q0 27 19.5 46t45.5 19zM310 876q27 0 46 -19t19 -46q0 -26 -19 -45.5t-46 -19.5q-26 0 -45.5 19.5t-19.5 45.5q0 27 19.5 46t45.5 19z" />
    <glyph glyph-name="uni04EB" unicode="&#x4eb;" horiz-adv-x="579" 
d="M290 478q114 0 181.5 -65t67.5 -179q0 -116 -64.5 -180t-184.5 -64q-119 0 -184.5 65.5t-65.5 178.5q0 112 68 178t182 66zM411 210h-241q5 -73 36 -115t84 -42q51 0 83.5 42t37.5 115zM170 262h241q-5 72 -37.5 112.5t-83.5 40.5t-83.5 -41t-36.5 -112zM383 697
q26 0 45.5 -19t19.5 -46q0 -26 -19.5 -45.5t-45.5 -19.5t-45.5 19.5t-19.5 45.5q0 27 19.5 46t45.5 19zM195 697q27 0 46 -19t19 -46q0 -26 -19 -45.5t-46 -19.5q-26 0 -45.5 19.5t-19.5 45.5q0 27 19.5 46t45.5 19z" />
    <glyph glyph-name="uni04EC" unicode="&#x4ec;" horiz-adv-x="692" 
d="M287 67q56 0 98 21.5t66 59.5t36 80.5t15 93.5h-130l-33 -82l-70 12v218l70 11l33 -81h129q-10 114 -65 173.5t-149 59.5q-77 0 -128 -15l-48 -132l-71 11v155q113 65 247 65q116 0 201 -54t124.5 -136t39.5 -177q0 -72 -21 -135.5t-63.5 -116.5t-115 -84t-165.5 -31
q-64 0 -135.5 18.5t-111.5 47.5v161l71 10l50 -138q62 -15 126 -15zM375 876q26 0 45.5 -19t19.5 -46q0 -26 -19.5 -45.5t-45.5 -19.5t-45.5 19.5t-19.5 45.5q0 27 19.5 46t45.5 19zM187 876q27 0 46 -19t19 -46q0 -26 -19 -45.5t-46 -19.5q-26 0 -45.5 19.5t-19.5 45.5
q0 27 19.5 46t45.5 19z" />
    <glyph glyph-name="uni04ED" unicode="&#x4ed;" horiz-adv-x="507" 
d="M159 206v65h171q-3 68 -40 105.5t-96 37.5q-45 0 -75 -11q-2 -6 -10 -34.5t-11 -40.5l-68 12v97q83 40 167 40q121 0 195.5 -65t74.5 -179q0 -113 -68.5 -178t-200.5 -65q-82 0 -168 40v119l68 13l27 -99q26 -10 66 -10q63 0 97.5 42.5t40.5 110.5h-170zM298 697
q26 0 45.5 -19t19.5 -46q0 -26 -19.5 -45.5t-45.5 -19.5t-45.5 19.5t-19.5 45.5q0 27 19.5 46t45.5 19zM110 697q27 0 46 -19t19 -46q0 -26 -19 -45.5t-46 -19.5q-26 0 -45.5 19.5t-19.5 45.5q0 27 19.5 46t45.5 19z" />
    <glyph glyph-name="uni04EE" unicode="&#x4ee;" horiz-adv-x="574" 
d="M171 763v66h341v-66h-341zM554 598l-197 -494q-37 -92 -82 -121l-147 19l-11 76q49 0 106.5 24t74.5 65l4 12l-22 5l-188 414l-87 31l13 71h292l11 -71l-77 -30l97 -207v-113l130 320l-76 30l12 71h224l13 -71z" />
    <glyph glyph-name="uni04EF" unicode="&#x4ef;" horiz-adv-x="608" 
d="M150 580v66h341v-66h-341zM524 384l-171 -488q-13 -37 -40.5 -82.5t-53.5 -63.5l-135 11l-11 60q133 20 170 116l20 52l-31 11l-181 384l-73 22l12 61h258l12 -61l-77 -22l113 -221v-83l106 304l-68 22l12 61h195l12 -61z" />
    <glyph glyph-name="uni04F0" unicode="&#x4f0;" horiz-adv-x="574" 
d="M416 876q26 0 45.5 -19t19.5 -46q0 -26 -19.5 -45.5t-45.5 -19.5t-45.5 19.5t-19.5 45.5q0 27 19.5 46t45.5 19zM228 876q27 0 46 -19t19 -46q0 -26 -19 -45.5t-46 -19.5q-26 0 -45.5 19.5t-19.5 45.5q0 27 19.5 46t45.5 19zM554 598l-197 -494q-37 -92 -82 -121l-147 19
l-11 76q49 0 106.5 24t74.5 65l4 12l-22 5l-188 414l-87 31l13 71h292l11 -71l-77 -30l97 -207v-113l130 320l-76 30l12 71h224l13 -71z" />
    <glyph glyph-name="uni04F1" unicode="&#x4f1;" horiz-adv-x="608" 
d="M411 697q26 0 45.5 -19t19.5 -46q0 -26 -19.5 -45.5t-45.5 -19.5t-45.5 19.5t-19.5 45.5q0 27 19.5 46t45.5 19zM223 697q27 0 46 -19t19 -46q0 -26 -19 -45.5t-46 -19.5q-26 0 -45.5 19.5t-19.5 45.5q0 27 19.5 46t45.5 19zM524 384l-171 -488q-13 -37 -40.5 -82.5
t-53.5 -63.5l-135 11l-11 60q133 20 170 116l20 52l-31 11l-181 384l-73 22l12 61h258l12 -61l-77 -22l113 -221v-83l106 304l-68 22l12 61h195l12 -61z" />
    <glyph glyph-name="uni04F2" unicode="&#x4f2;" horiz-adv-x="574" 
d="M560 870l-176 -112l-29 27l124 156zM391 870l-176 -112l-29 27l124 156zM554 598l-197 -494q-37 -92 -82 -121l-147 19l-11 76q49 0 106.5 24t74.5 65l4 12l-22 5l-188 414l-87 31l13 71h292l11 -71l-77 -30l97 -207v-113l130 320l-76 30l12 71h224l13 -71z" />
    <glyph glyph-name="uni04F3" unicode="&#x4f3;" horiz-adv-x="608" 
d="M367 719l-126 -158l-44 23l73 182zM514 719l-126 -158l-44 23l73 182zM524 384l-171 -488q-13 -37 -40.5 -82.5t-53.5 -63.5l-135 11l-11 60q133 20 170 116l20 52l-31 11l-181 384l-73 22l12 61h258l12 -61l-77 -22l113 -221v-83l106 304l-68 22l12 61h195l12 -61z" />
    <glyph glyph-name="uni04F4" unicode="&#x4f4;" horiz-adv-x="723" 
d="M448 876q26 0 45.5 -19t19.5 -46q0 -26 -19.5 -45.5t-45.5 -19.5t-45.5 19.5t-19.5 45.5q0 27 19.5 46t45.5 19zM260 876q27 0 46 -19t19 -46q0 -26 -19 -45.5t-46 -19.5q-26 0 -45.5 19.5t-19.5 45.5q0 27 19.5 46t45.5 19zM243 598v-169q0 -39 30.5 -60.5t66.5 -21.5
q28 0 64.5 8t56.5 18v225l-85 31l11 72h285l11 -72l-84 -31v-496l83 -31l-11 -71h-313l-10 71l113 31v183q-57 -20 -130 -20q-91 0 -159 46.5t-68 126.5v160l-84 31l13 71h282l12 -71z" />
    <glyph glyph-name="uni04F5" unicode="&#x4f5;" horiz-adv-x="580" 
d="M384 697q26 0 45.5 -19t19.5 -46q0 -26 -19.5 -45.5t-45.5 -19.5t-45.5 19.5t-19.5 45.5q0 27 19.5 46t45.5 19zM196 697q27 0 46 -19t19 -46q0 -26 -19 -45.5t-46 -19.5q-26 0 -45.5 19.5t-19.5 45.5q0 27 19.5 46t45.5 19zM355 384l-60 22l12 61h226l12 -61l-64 -22
v-301l63 -22l-12 -61h-228l-12 61l63 23v102q-42 -16 -103 -16q-86 0 -135 42.5t-49 122.5v50l-63 21l12 61h224l12 -61l-59 -22v-67q0 -38 18.5 -59t47.5 -21q65 0 95 15v132z" />
    <glyph glyph-name="uni04F8" unicode="&#x4f8;" horiz-adv-x="950" 
d="M569 876q26 0 45.5 -19t19.5 -46q0 -26 -19.5 -45.5t-45.5 -19.5t-45.5 19.5t-19.5 45.5q0 27 19.5 46t45.5 19zM381 876q27 0 46 -19t19 -46q0 -26 -19 -45.5t-46 -19.5q-26 0 -45.5 19.5t-19.5 45.5q0 27 19.5 46t45.5 19zM830 596v-492l85 -33l-11 -71h-285l-11 71
l84 32v493l-84 34l11 70h284l12 -70zM120 102v496l-85 31l12 71h284l11 -71l-84 -31v-527h56q68 0 103.5 42t35.5 109q0 62 -35.5 93t-98.5 31h-24v79h48q50 0 94 -10.5t82 -33.5t60.5 -63.5t22.5 -95.5q0 -222 -249 -222h-305l-11 71z" />
    <glyph glyph-name="uni04F9" unicode="&#x4f9;" horiz-adv-x="780" 
d="M298 288q31 0 61 -7t60 -22.5t48.5 -46.5t18.5 -72q0 -56 -43.5 -98t-101.5 -42h-292l-12 61l63 22v301l-65 22l12 61h232l12 -61l-65 -22v-323h50q33 0 53.5 24.5t20.5 61.5q0 35 -20 57t-54 22h-7v62h29zM556 83v301l-63 22l12 61h228l12 -61l-63 -22v-302l63 -21
l-12 -61h-228l-12 61zM492 697q26 0 45.5 -19t19.5 -46q0 -26 -19.5 -45.5t-45.5 -19.5t-45.5 19.5t-19.5 45.5q0 27 19.5 46t45.5 19zM304 697q27 0 46 -19t19 -46q0 -26 -19 -45.5t-46 -19.5q-26 0 -45.5 19.5t-19.5 45.5q0 27 19.5 46t45.5 19z" />
    <glyph glyph-name="Wgrave" unicode="&#x1e80;" horiz-adv-x="1036" 
d="M590 758l-176 112l81 71l124 -156zM537 385l126 -402l96 17l185 596l89 33l-11 71h-226l-11 -71l80 -33l-147 -451v135l-136 437l-70 -17l-177 -560v140l-101 316l81 33l-12 71h-289l-10 -71l88 -33l188 -613l98 17l159 504v-119z" />
    <glyph glyph-name="wgrave" unicode="&#x1e81;" horiz-adv-x="831" 
d="M419 561l-126 158l97 47l73 -182zM514 -10l-86 267v80l-111 -337l-113 -10l-123 394l-69 22l12 61h233l12 -61l-59 -22l64 -192v-86l117 360l102 13l91 -287v-66l89 258l-60 22l12 61h178l12 -61l-69 -22l-124 -384z" />
    <glyph glyph-name="Wacute" unicode="&#x1e82;" horiz-adv-x="1036" 
d="M698 870l-176 -112l-29 27l124 156zM663 -17l-126 402v119l-159 -504l-98 -17l-188 613l-88 33l10 71h289l12 -71l-81 -33l101 -316v-140l177 560l70 17l136 -437v-135l147 451l-80 33l11 71h226l11 -71l-89 -33l-185 -596z" />
    <glyph glyph-name="wacute" unicode="&#x1e83;" horiz-adv-x="831" 
d="M553 719l-126 -158l-44 23l73 182zM514 -10l-86 267v80l-111 -337l-113 -10l-123 394l-69 22l12 61h233l12 -61l-59 -22l64 -192v-86l117 360l102 13l91 -287v-66l89 258l-60 22l12 61h178l12 -61l-69 -22l-124 -384z" />
    <glyph glyph-name="Wdieresis" unicode="&#x1e84;" horiz-adv-x="1036" 
d="M637 876q26 0 45.5 -19t19.5 -46q0 -26 -19.5 -45.5t-45.5 -19.5t-45.5 19.5t-19.5 45.5q0 27 19.5 46t45.5 19zM449 876q27 0 46 -19t19 -46q0 -26 -19 -45.5t-46 -19.5q-26 0 -45.5 19.5t-19.5 45.5q0 27 19.5 46t45.5 19zM663 -17l-126 402v119l-159 -504l-98 -17
l-188 613l-88 33l10 71h289l12 -71l-81 -33l101 -316v-140l177 560l70 17l136 -437v-135l147 451l-80 33l11 71h226l11 -71l-89 -33l-185 -596z" />
    <glyph glyph-name="wdieresis" unicode="&#x1e85;" horiz-adv-x="831" 
d="M520 697q26 0 45.5 -19t19.5 -46q0 -26 -19.5 -45.5t-45.5 -19.5t-45.5 19.5t-19.5 45.5q0 27 19.5 46t45.5 19zM332 697q27 0 46 -19t19 -46q0 -26 -19 -45.5t-46 -19.5q-26 0 -45.5 19.5t-19.5 45.5q0 27 19.5 46t45.5 19zM514 -10l-86 267v80l-111 -337l-113 -10
l-123 394l-69 22l12 61h233l12 -61l-59 -22l64 -192v-86l117 360l102 13l91 -287v-66l89 258l-60 22l12 61h178l12 -61l-69 -22l-124 -384z" />
    <glyph glyph-name="Ygrave" unicode="&#x1ef2;" horiz-adv-x="685" 
d="M291 257v-155l-84 -31l11 -71h282l12 71l-83 31v220l161 274l90 33l-11 71h-231l-10 -71l73 -33l-144 -239v63l-106 176l75 32l-11 72h-299l-11 -71l88 -33zM370 758l-176 112l81 71l124 -156z" />
    <glyph glyph-name="ygrave" unicode="&#x1ef3;" horiz-adv-x="608" 
d="M317 561l-126 158l97 47l73 -182zM524 384l-171 -488q-13 -37 -40.5 -82.5t-53.5 -63.5l-135 11l-11 60q133 20 170 116l20 52l-31 11l-181 384l-73 22l12 61h258l12 -61l-77 -22l113 -221v-83l106 304l-68 22l12 61h195l12 -61z" />
    <glyph glyph-name="endash" unicode="&#x2013;" horiz-adv-x="560" 
d="M30 220l12 88h488l-11 -88h-489z" />
    <glyph glyph-name="emdash" unicode="&#x2014;" horiz-adv-x="764" 
d="M30 220l12 88h692l-11 -88h-693z" />
    <glyph glyph-name="quoteleft" unicode="&#x2018;" horiz-adv-x="297" 
d="M138 475q-28 0 -48 20t-20 48q0 69 47 139t95 94l35 -36q-34 -27 -55.5 -67.5t-23.5 -77.5h15q23 -26 23 -52q0 -28 -20 -48t-48 -20z" />
    <glyph glyph-name="quoteright" unicode="&#x2019;" horiz-adv-x="297" 
d="M159 776q28 0 48 -20t20 -48q0 -69 -47 -139t-95 -94l-35 36q34 27 55.5 67.5t23.5 77.5h-15q-23 26 -23 52q0 28 20 48t48 20z" />
    <glyph glyph-name="quotesinglbase" unicode="&#x201a;" horiz-adv-x="250" 
d="M132 120q28 0 48 -20t20 -48q0 -69 -47 -139t-95 -94l-35 36q34 27 55.5 67.5t23.5 77.5h-15q-23 26 -23 52q0 28 20 48t48 20z" />
    <glyph glyph-name="quotedblleft" unicode="&#x201c;" horiz-adv-x="469" 
d="M310 475q-28 0 -48 20t-20 48q0 69 47 139t95 94l35 -36q-34 -27 -55.5 -67.5t-23.5 -77.5h15q23 -26 23 -52q0 -28 -20 -48t-48 -20zM138 475q-28 0 -48 20t-20 48q0 69 47 139t95 94l35 -36q-34 -27 -55.5 -67.5t-23.5 -77.5h15q23 -26 23 -52q0 -28 -20 -48t-48 -20z
" />
    <glyph glyph-name="quotedblright" unicode="&#x201d;" horiz-adv-x="469" 
d="M159 776q28 0 48 -20t20 -48q0 -69 -47 -139t-95 -94l-35 36q34 27 55.5 67.5t23.5 77.5h-15q-23 26 -23 52q0 28 20 48t48 20zM331 776q28 0 48 -20t20 -48q0 -69 -47 -139t-95 -94l-35 36q34 27 55.5 67.5t23.5 77.5h-15q-23 26 -23 52q0 28 20 48t48 20z" />
    <glyph glyph-name="quotedblbase" unicode="&#x201e;" horiz-adv-x="422" 
d="M132 120q28 0 48 -20t20 -48q0 -69 -47 -139t-95 -94l-35 36q34 27 55.5 67.5t23.5 77.5h-15q-23 26 -23 52q0 28 20 48t48 20zM304 120q28 0 48 -20t20 -48q0 -69 -47 -139t-95 -94l-35 36q34 27 55.5 67.5t23.5 77.5h-15q-23 26 -23 52q0 28 20 48t48 20z" />
    <glyph glyph-name="dagger" unicode="&#x2020;" horiz-adv-x="516" 
d="M309 428l-23 -558h-59l-19 558l-160 -32l-18 88l23 47l154 -35l-19 204l88 17l52 -17l-20 -204l160 32l18 -88l-23 -47z" />
    <glyph glyph-name="daggerdbl" unicode="&#x2021;" horiz-adv-x="516" 
d="M309 428l-11 -263l128 20l18 -48l-23 -47l-125 23l-10 -243h-59l-8 241l-131 -20l-18 58l23 37l124 -23l-9 265l-160 -32l-18 88l23 47l154 -35l-19 204l88 17l52 -17l-20 -204l160 32l18 -88l-23 -47z" />
    <glyph glyph-name="bullet" unicode="&#x2022;" horiz-adv-x="432" 
d="M215 478q49 0 83 -34t34 -81q0 -49 -34 -83t-83 -34t-82 33.5t-33 83.5q0 48 33.5 81.5t81.5 33.5z" />
    <glyph glyph-name="onedotenleader" unicode="&#x2024;" horiz-adv-x="210" 
d="M104 120q28 0 48.5 -20t20.5 -48t-20.5 -48.5t-48.5 -20.5t-48 20.5t-20 48.5t20 48t48 20z" />
    <glyph glyph-name="twodotenleader" unicode="&#x2025;" horiz-adv-x="420" 
d="M311 120q28 0 48.5 -20t20.5 -48t-20 -48.5t-49 -20.5q-28 0 -48 20.5t-20 48.5t20 48t48 20zM108 120q28 0 48.5 -20t20.5 -48t-20.5 -48.5t-48.5 -20.5t-48 20.5t-20 48.5t20 48t48 20z" />
    <glyph glyph-name="ellipsis" unicode="&#x2026;" horiz-adv-x="663" 
d="M331 120q28 0 48.5 -20t20.5 -48t-20 -48.5t-49 -20.5q-28 0 -48 20.5t-20 48.5t20 48t48 20zM544 120q28 0 48.5 -20t20.5 -48t-20.5 -48.5t-48.5 -20.5t-48 20.5t-20 48.5t20 48t48 20zM118 120q28 0 48.5 -20t20.5 -48t-20.5 -48.5t-48.5 -20.5t-48 20.5t-20 48.5
t20 48t48 20z" />
    <glyph glyph-name="perthousand" unicode="&#x2030;" horiz-adv-x="1280" 
d="M676 386q87 0 127 -55.5t40 -144.5q0 -203 -167 -203q-170 0 -170 203q0 91 41 145.5t129 54.5zM676 319q-33 0 -45.5 -33t-12.5 -97q0 -139 58 -139q55 0 55 139q0 66 -11.5 98t-43.5 32zM664 717h81l-534 -734h-82zM210 717q87 0 127 -55.5t40 -144.5q0 -203 -167 -203
q-170 0 -170 203q0 91 41 145.5t129 54.5zM210 650q-33 0 -45.5 -33t-12.5 -97q0 -139 58 -139q55 0 55 139q0 66 -11.5 98t-43.5 32zM1073 386q87 0 127 -55.5t40 -144.5q0 -203 -167 -203q-170 0 -170 203q0 91 41 145.5t129 54.5zM1073 319q-33 0 -45.5 -33t-12.5 -97
q0 -139 58 -139q55 0 55 139q0 66 -11.5 98t-43.5 32z" />
    <glyph glyph-name="guilsinglleft" unicode="&#x2039;" horiz-adv-x="365" 
d="M273 89l-198 128l-15 63l213 138l32 -36l-120 -126l120 -131z" />
    <glyph glyph-name="guilsinglright" unicode="&#x203a;" horiz-adv-x="365" 
d="M290 217l-198 -128l-32 36l120 131l-120 126l32 36l213 -138z" />
    <glyph glyph-name="franc" unicode="&#x20a3;" horiz-adv-x="908" 
d="M243 576v-210h92l29 74l64 -10v-200l-64 -10l-29 74h-92v-201l105 -28l-9 -65h-288l-10 65l76 29v452l-77 30l9 65h462v-163l-65 -10l-37 108h-166zM883 311l-61 -11l-21 68q-12 4 -37 4q-37 0 -82 -19v-277l76 -20l-11 -56h-227l-11 56l58 20v296h-42l-11 56l119 10
l38 -24q67 24 118 24q42 0 94 -20v-107z" />
    <glyph glyph-name="Euro" unicode="&#x20ac;" horiz-adv-x="633" 
d="M31 407h76q20 110 95.5 177.5t206.5 67.5q111 0 212 -62v-143l-69 -11l-47 110q-45 24 -96 24q-110 0 -153 -163h202l-12 -51h-199q-1 -11 -1 -32q0 -35 2 -52h210l-12 -51h-189q34 -148 152 -148q59 0 96 23l47 109l69 -10v-142q-103 -63 -212 -63q-127 0 -201.5 63
t-97.5 168h-93l13 51h72q-2 32 -2 51q0 22 1 33h-84z" />
    <glyph glyph-name="hryvnia" unicode="&#x20b4;" horiz-adv-x="558" 
d="M76 407h245q35 37 35 79q0 33 -25.5 55t-71.5 22q-54 0 -84 -13l-23 -75l-72 14v106q92 46 178 46q224 0 224 -164q0 -40 -12 -70h78l-12 -51h-93q-33 -45 -99 -84h154l-12 -51h-229q-70 -44 -70 -89q0 -29 27 -46.5t68 -17.5q54 0 93 11l37 103l74 -12v-133
q-45 -22 -106.5 -34.5t-103.5 -12.5q-103 0 -158.5 32.5t-55.5 114.5q0 46 22 84h-67l13 51h97q13 12 30.5 24t30.5 20t34.5 21t31.5 19h-192z" />
    <glyph glyph-name="centigrade" unicode="&#x2103;" horiz-adv-x="985" 
d="M198 718q53 0 91.5 -38t38.5 -95q0 -53 -38.5 -91.5t-91.5 -38.5q-57 0 -95 38.5t-38 91.5q0 55 39 94t94 39zM198 650q-28 0 -46.5 -18.5t-18.5 -46.5q0 -26 19 -44.5t46 -18.5q26 0 44.5 18.5t18.5 44.5q0 27 -18.5 46t-44.5 19zM732 67q64 0 115 14l51 139l71 -10
v-162q-41 -29 -107.5 -47t-129.5 -18q-94 0 -166.5 31t-115 84t-63.5 116.5t-21 135.5q0 70 23.5 135t67.5 117.5t115.5 83.5t159.5 31q125 0 237 -64v-156l-72 -11l-46 131q-58 16 -119 16q-216 0 -216 -278q0 -44 6 -82.5t21 -77t39 -66.5t62.5 -45t87.5 -17z" />
    <glyph glyph-name="fahrenheit" unicode="&#x2109;" horiz-adv-x="911" 
d="M594 629v-229h111l32 81l70 -11v-219l-70 -11l-32 81h-111v-219l114 -31l-10 -71h-314l-11 71l83 32v493l-84 33l10 71h504v-178l-71 -11l-40 118h-181zM198 717q53 0 91.5 -38t38.5 -95q0 -53 -38.5 -91.5t-91.5 -38.5q-57 0 -95 38.5t-38 91.5q0 55 39 94t94 39z
M198 649q-28 0 -46.5 -18.5t-18.5 -46.5q0 -26 19 -44.5t46 -18.5q26 0 44.5 18.5t18.5 44.5q0 27 -18.5 46t-44.5 19z" />
    <glyph glyph-name="afii61352" unicode="&#x2116;" horiz-adv-x="1124" 
d="M770 165v77h304v-77h-304zM922 297q-83 0 -125.5 46t-42.5 128q0 80 44.5 126.5t123.5 46.5t123 -46t44 -127q0 -83 -42 -128.5t-125 -45.5zM922 584q-70 0 -70 -111q0 -117 70 -117q69 0 69 117q0 111 -69 111zM36 71l83 32v493l-84 33l10 71h208l281 -415l36 -104v415
l-83 33l10 71h223l10 -71l-83 -33v-596l-83 -17l-368 549v-430l83 -31l-11 -71h-221z" />
    <glyph glyph-name="published" unicode="&#x2117;" horiz-adv-x="839" 
d="M55 352q0 151 106.5 258t256.5 107q152 0 259 -107t107 -258q0 -150 -108.5 -256t-260.5 -106q-150 0 -255 106t-105 256zM146 352q0 -121 75 -200.5t194 -79.5q122 0 200 79.5t78 200.5q0 124 -76.5 203.5t-198.5 79.5q-120 0 -196 -80t-76 -203zM398 518v-315l68 -18
l-6 -43h-188l-6 43l50 18v296l-52 19l8 43h197q65 0 100.5 -36t35.5 -97q0 -68 -44 -98t-114 -30h-24v46h26q33 0 54 25t21 57q0 90 -74 90h-52z" />
    <glyph glyph-name="trademark" unicode="&#x2122;" horiz-adv-x="851" 
d="M50 601v99h292v-99l-34 -6l-26 70h-52v-256l41 -15l-5 -35h-139l-5 35l41 15v256h-52l-26 -70zM674 596l-87 -237l-36 -8l-86 233l-21 -175l39 -15l-5 -35h-108l-6 35l42 15l28 240l-41 16l6 35h98l79 -213v-49l96 262h100l6 -35l-41 -16l24 -240l40 -15l-5 -35h-138
l-4 35l39 15z" />
    <glyph glyph-name="arrowleft" unicode="&#x2190;" horiz-adv-x="863" 
d="M390 73l-298 171l-10 47l307 183l36 -47l-179 -155l178 -152zM356 310h446v-82h-446v82z" />
    <glyph glyph-name="arrowup" unicode="&#x2191;" horiz-adv-x="443" 
d="M26 412l171 298l47 10l183 -307l-47 -36l-155 179l-152 -178zM263 446v-446h-82v446h82z" />
    <glyph glyph-name="arrowright" unicode="&#x2192;" horiz-adv-x="863" 
d="M771 244l-298 -171l-34 47l178 152l-179 155l36 47l307 -183zM61 310h446v-82h-446v82z" />
    <glyph glyph-name="arrowdown" unicode="&#x2193;" horiz-adv-x="443" 
d="M197 10l-171 298l47 34l152 -178l155 179l47 -36l-183 -307zM263 720v-446h-82v446h82z" />
    <glyph glyph-name="heart" unicode="&#x2665;" horiz-adv-x="714" 
d="M357 45q-6 3 -17 8t-42.5 23.5t-60 39t-63.5 54.5t-60 70t-42 85t-17 100q0 49 16.5 84.5t39.5 52t46.5 26t40.5 10.5l16 1q38 0 73.5 -17.5t52.5 -34.5l17 -17q7 8 19 19.5t49.5 30.5t74.5 19q6 0 17 -1t38.5 -10.5t48.5 -26t38 -52t17 -84.5q0 -51 -16.5 -100
t-43.5 -85.5t-59 -69t-64 -55t-59 -39t-43 -24.5z" />
    <glyph glyph-name="f_j" unicode="&#xe1f8;" horiz-adv-x="680" 
d="M473 632l1 13q-38 39 -108 39q-60 0 -99 -48t-39 -117v-52h377v-387q0 -56 -9.5 -100.5t-34 -89.5t-73.5 -80.5t-121 -59.5l-34 57q91 60 118.5 126.5t27.5 162.5v310h-251v-323l84 -22l-12 -61h-250l-12 61l64 22v323h-72l-10 55l82 24v15q0 45 14.5 87t44.5 79t84.5 59
t125.5 22q40 0 78 -6t74 -18.5t58 -36t22 -54.5q0 -26 -19 -45.5t-46 -19.5q-26 0 -45.5 19.5t-19.5 45.5z" />
    <glyph glyph-name="f_f_j" unicode="&#xe1f9;" horiz-adv-x="1087" 
d="M509 467v33q0 45 14.5 87t44.5 79t84.5 59t125.5 22q56 0 104.5 -8.5t88 -35t39.5 -67.5q0 -28 -20 -48.5t-49 -20.5q-28 0 -48 20.5t-20 48.5l1 13q-34 35 -101 35q-60 0 -99 -48t-39 -117v-52h377v-387q0 -56 -9.5 -100.5t-34 -89.5t-73.5 -80.5t-121 -59.5l-34 57
q91 60 118.5 126.5t27.5 162.5v310h-251v-323l84 -22l-12 -61h-250l-12 61l64 22v323h-281v-323l94 -22l-12 -61h-260l-12 61l64 22v323h-72l-10 55l82 24v65q0 87 57.5 142t151.5 55q73 0 137 -48v-94l-67 -13l-22 83q-18 9 -44 9q-87 0 -87 -115v-102h281z" />
    <glyph glyph-name="slashedzero" unicode="&#xe23f;" horiz-adv-x="628" 
d="M316 655q65 0 114 -29.5t76.5 -78.5t41 -105.5t13.5 -118.5q0 -63 -11.5 -118.5t-38 -105.5t-76.5 -79.5t-119 -29.5q-55 0 -99 19.5t-72 51t-46 75.5t-25.5 90t-7.5 97q0 50 8.5 96.5t27.5 90t47.5 75.5t71 51t95.5 19zM215 219l177 304q-27 58 -76 58q-55 0 -82.5 -74
t-27.5 -180q0 -55 9 -108zM412 446l-177 -307q29 -75 81 -75q53 0 79.5 78t26.5 185q0 65 -10 119z" />
    <glyph glyph-name="information" unicode="&#xe389;" horiz-adv-x="839" 
d="M55 352q0 151 106.5 258t256.5 107q152 0 259 -107t107 -258q0 -150 -108.5 -256t-260.5 -106q-150 0 -255 106t-105 256zM146 352q0 -121 75 -200.5t194 -79.5q122 0 200 79.5t78 200.5q0 124 -76.5 203.5t-198.5 79.5q-120 0 -196 -80t-76 -203zM507 155l-45 16v272
l-43 8l-87 -8l8 -43h33v-229l-46 -16l9 -43h163zM412 606q-19 0 -32.5 -13.5t-13.5 -32.5t13.5 -32.5t32.5 -13.5t32.5 13.5t13.5 32.5t-13.5 32.5t-32.5 13.5z" />
    <glyph glyph-name="dblS" unicode="&#xf485;" horiz-adv-x="1148" 
d="M616 527q0 91 70.5 140.5t173.5 49.5q107 0 214 -64v-156l-72 -11l-47 134q-44 13 -95 13q-55 0 -86.5 -23.5t-31.5 -65.5q0 -21 11.5 -39.5t33.5 -33.5t39 -24.5t43 -20.5t30 -13q93 -39 149 -93.5t56 -136.5q0 -91 -67 -145.5t-197 -54.5t-221 65v162l71 10l51 -131
q46 -22 92 -22q63 0 104.5 23t41.5 62q0 22 -11.5 42t-36.5 37t-42.5 27t-53 26t-44.5 20q-29 14 -41 20.5t-38 22.5t-38.5 31t-28.5 37t-22.5 50t-6.5 62zM50 527q0 91 70.5 140.5t173.5 49.5q107 0 214 -64v-156l-72 -11l-47 134q-44 13 -95 13q-55 0 -86.5 -23.5
t-31.5 -65.5q0 -21 11.5 -39.5t33.5 -33.5t39 -24.5t43 -20.5t30 -13q93 -39 149 -93.5t56 -136.5q0 -91 -67 -145.5t-197 -54.5t-221 65v162l71 10l51 -131q46 -22 92 -22q63 0 104.5 23t41.5 62q0 22 -11.5 42t-36.5 37t-42.5 27t-53 26t-44.5 20q-29 14 -41 20.5
t-38 22.5t-38.5 31t-28.5 37t-22.5 50t-6.5 62z" />
    <glyph glyph-name="uniF644" unicode="&#xf644;" horiz-adv-x="548" 
d="M274 478q110 0 165.5 -63.5t55.5 -181.5q0 -120 -52.5 -181.5t-168.5 -61.5q-221 0 -221 243q0 115 56 180t165 65zM274 407q-47 0 -71.5 -45t-24.5 -125q0 -82 24.5 -129t71.5 -47q48 0 72 46.5t24 129.5q0 81 -24 125.5t-72 44.5z" />
    <glyph glyph-name="uniF645" unicode="&#xf645;" horiz-adv-x="390" 
d="M59 0l-13 67l95 20v278h-82l-13 63l150 39h69v-380l98 -20l-12 -67h-292z" />
    <glyph glyph-name="uniF646" unicode="&#xf646;" horiz-adv-x="460" 
d="M218 407q-30 0 -59 -19l-19 -74l-67 13v108q91 43 159 43q159 0 159 -127q0 -43 -23.5 -78.5t-58 -59t-69.5 -44t-64 -43t-36 -44.5l64 27h109l24 58l62 -12v-155h-342v91q9 36 34.5 67.5t54 53.5t56.5 43t46 46.5t18 54.5q0 51 -48 51z" />
    <glyph glyph-name="uniF647" unicode="&#xf647;" horiz-adv-x="501" 
d="M227 -59q44 0 75.5 33.5t31.5 92.5q0 103 -114 103l-41 -8l-29 38l155 177l-67 -21h-82l-18 -65l-67 13v163h319l33 -54l-147 -167q69 -5 125.5 -46.5t56.5 -126.5q0 -96 -65.5 -149.5t-163.5 -53.5q-84 0 -165 40v125l65 12l26 -94q36 -12 72 -12z" />
    <glyph glyph-name="uniF648" unicode="&#xf648;" horiz-adv-x="498" 
d="M250 53h-211l-34 48l310 377l58 -16v-328h96l-20 -81h-76v-156l-123 -27v183zM250 134v76l28 116l-157 -192h129z" />
    <glyph glyph-name="uniF649" unicode="&#xf649;" horiz-adv-x="493" 
d="M185 -59q49 0 89.5 36t40.5 98q0 51 -32 77.5t-75 26.5q-50 0 -95 -29l-55 23l41 294h227l21 73l67 -13v-173h-249l-16 -107q44 17 93 17q79 0 139 -50t60 -138q0 -96 -71 -151t-175 -55q-79 0 -160 40v135l65 12l27 -104q33 -12 58 -12z" />
    <glyph glyph-name="uniF64A" unicode="&#xf64a;" horiz-adv-x="497" 
d="M397 541q-158 -74 -210 -196q51 31 101 31q74 0 122 -48t48 -135q0 -86 -57.5 -144.5t-152.5 -58.5q-98 0 -154.5 58.5t-56.5 164.5q0 141 94.5 245t232.5 145zM198 289l-18 36q-18 -52 -18 -111q0 -62 22.5 -107.5t62.5 -45.5q41 0 65.5 41t24.5 92q0 49 -20.5 80
t-49.5 31q-34 0 -69 -16z" />
    <glyph glyph-name="uniF64B" unicode="&#xf64b;" horiz-adv-x="458" 
d="M95 -130l240 506l-72 -23h-129l-19 -62l-67 13v163h365l32 -51l-231 -488v-58h-119z" />
    <glyph glyph-name="uniF64C" unicode="&#xf64c;" horiz-adv-x="500" 
d="M336 156q0 32 -36.5 66.5t-71.5 48.5q-25 -18 -43.5 -51t-18.5 -63q0 -42 25 -69t60 -27q34 0 59.5 27.5t25.5 67.5zM183 459q0 -32 26 -57.5t59 -40.5q18 13 33.5 43.5t15.5 60.5t-17 48.5t-50 18.5q-31 0 -49 -19t-18 -54zM433 455q0 -40 -27.5 -74t-61.5 -55
q50 -31 78.5 -68.5t28.5 -96.5q0 -82 -57.5 -126.5t-143.5 -44.5q-87 0 -143.5 42t-56.5 125q0 49 29.5 87.5t74.5 60.5q-86 58 -86 150q0 67 48 107.5t134 40.5t134.5 -41t48.5 -107z" />
    <glyph glyph-name="uniF64D" unicode="&#xf64d;" horiz-adv-x="482" 
d="M110 -66q114 57 173 176q-35 -22 -74 -22q-73 0 -123 49.5t-50 136.5q0 90 55 147t151 57q203 0 203 -208q0 -127 -88 -240t-209 -160zM225 159q31 0 58 23l21 -21q16 53 16 108q0 138 -78 138q-38 0 -59.5 -40t-21.5 -94q0 -49 18.5 -81.5t45.5 -32.5z" />
    <glyph glyph-name="cyrbreve" unicode="&#xf6d4;" horiz-adv-x="413" 
d="M358 900l37 -38q-34 -48 -86.5 -77.5t-103.5 -29.5q-118 0 -182 89l63 66h51q35 -63 99 -63q36 0 63 11.5t59 41.5z" />
    <glyph glyph-name="f_f" unicode="&#xfb00;" horiz-adv-x="820" 
d="M718 747q73 0 137 -48v-94l-67 -13l-22 83q-18 9 -44 9q-87 0 -87 -115v-102h116l-11 -61h-105v-323l94 -22l-12 -61h-260l-12 61l64 22v323h-281v-323l94 -22l-12 -61h-260l-12 61l64 22v323h-72l-10 55l82 24v65q0 87 57.5 142t151.5 55q73 0 137 -48v-94l-67 -13
l-22 83q-18 9 -44 9q-87 0 -87 -115v-102h281v83q0 87 57.5 142t151.5 55z" />
    <glyph glyph-name="f_i" unicode="&#xfb01;" horiz-adv-x="709" 
d="M473 632l1 13q-34 39 -108 39q-60 0 -99 -48t-39 -117v-52h377v-384l64 -22l-12 -61h-230l-12 61l64 22v323h-251v-323l84 -22l-12 -61h-250l-12 61l64 22v323h-72l-10 55l82 24v15q0 45 14.5 87t44.5 79t84.5 59t125.5 22q40 0 78 -6t74 -18.5t58 -36t22 -54.5
q0 -26 -19 -45.5t-46 -19.5q-26 0 -45.5 19.5t-19.5 45.5z" />
    <glyph glyph-name="f_l" unicode="&#xfb02;" horiz-adv-x="759" 
d="M650 83l69 -22l-12 -61h-240l-12 61l69 22v558q-56 43 -147 43q-59 0 -104 -40t-45 -120v-57h116l-11 -61h-105v-323l94 -22l-12 -61h-260l-12 61l64 22v323h-72l-10 55l82 24v24q0 98 73 168t206 70q128 0 269 -48v-616z" />
    <glyph glyph-name="f_f_i" unicode="&#xfb03;" horiz-adv-x="1116" 
d="M509 467v33q0 45 14.5 87t44.5 79t84.5 59t125.5 22q40 0 78 -6t74 -18.5t58 -36t22 -54.5q0 -26 -19 -45.5t-46 -19.5q-26 0 -45.5 19.5t-19.5 45.5l1 13q-34 39 -108 39q-60 0 -99 -48t-39 -117v-52h377v-384l64 -22l-12 -61h-230l-12 61l64 22v323h-251v-323l84 -22
l-12 -61h-250l-12 61l64 22v323h-281v-323l94 -22l-12 -61h-260l-12 61l64 22v323h-72l-10 55l82 24v65q0 87 57.5 142t151.5 55q73 0 137 -48v-94l-67 -13l-22 83q-18 9 -44 9q-87 0 -87 -115v-102h281z" />
    <glyph glyph-name="f_f_l" unicode="&#xfb04;" horiz-adv-x="1166" 
d="M509 467v42q0 98 73 168t206 70q128 0 269 -48v-616l69 -22l-12 -61h-240l-12 61l69 22v558q-56 43 -147 43q-59 0 -104 -40t-45 -120v-57h116l-11 -61h-105v-323l94 -22l-12 -61h-260l-12 61l64 22v323h-281v-323l94 -22l-12 -61h-260l-12 61l64 22v323h-72l-10 55
l82 24v65q0 87 57.5 142t151.5 55q73 0 137 -48v-94l-67 -13l-22 83q-18 9 -44 9q-87 0 -87 -115v-102h281z" />
    <glyph glyph-name="longs_t" unicode="&#xfb05;" horiz-adv-x="722" 
d="M333 747q114 0 177 -45.5t63 -126.5q0 -60 -22 -108h132l-12 -61h-120v-289q0 -24 14 -39.5t29 -15.5q40 0 85 48l43 -53q-65 -67 -144 -67q-73 0 -113 38t-40 97v281h-57l-11 61q45 14 71 46.5t26 71.5q0 99 -122 99q-46 0 -75 -27.5t-29 -88.5v-485l84 -21l-12 -62
h-250l-12 62l64 21v322h-72l-10 56l82 24v63q0 87 63 143t168 56z" />
    <glyph glyph-name="s_t" unicode="&#xfb06;" horiz-adv-x="830" 
d="M213 -10q-90 0 -173 41v118l67 13l34 -99q27 -10 64 -10q39 0 65.5 14t26.5 40q0 35 -99 81q-35 16 -54 27t-47 31t-41.5 45.5t-13.5 56.5q0 63 53 96.5t145 33.5q20 0 40 -3l-57 42q-14 30 -14 63q0 72 63.5 119.5t165.5 47.5q115 0 179 -45.5t64 -126.5q0 -60 -22 -108
h132l-12 -61h-120v-289q0 -24 14 -39.5t29 -15.5q40 0 85 48l43 -53q-65 -67 -144 -67q-73 0 -113 38t-40 97v281h-57l-11 61q45 14 71 46.5t26 71.5q0 47 -40.5 73t-98.5 26q-55 0 -99.5 -25.5t-44.5 -76.5q0 -43 35.5 -83.5t79.5 -62.5v-96l-68 -12l-21 77q-40 10 -75 10
q-30 0 -51.5 -15t-21.5 -37q0 -11 8 -21t24 -19.5t30 -16t35.5 -15.5t32.5 -14q63 -30 94 -60t31 -82q0 -66 -54 -105.5t-145 -39.5z" />
    <glyph glyph-name="CR" horiz-adv-x="250" 
 />
    <glyph glyph-name="commaaccent" horiz-adv-x="153" 
d="M77 585q23 0 39 -16t16 -40q0 -89 -85 -132l-28 28q33 26 38 62h-17q-18 21 -18 42q0 23 16 39.5t39 16.5z" />
    <glyph glyph-name="dblgrave" horiz-adv-x="387" 
d="M170 758l-176 112l81 71l124 -156zM339 758l-176 112l81 71l124 -156z" />
    <glyph glyph-name="ampersand.alt" horiz-adv-x="702" 
d="M273 316q-48 0 -78 -34t-30 -84q0 -49 34 -83.5t83 -34.5q30 0 66 13t52 29v194h-127zM278 -11q-123 0 -182 51t-59 141q0 60 28.5 109.5t78.5 68.5q-66 48 -66 134q0 70 56.5 116t153.5 46q95 0 188 -64v-110l-69 -13l-27 86q-30 19 -79 19q-38 0 -68 -21t-30 -63
q0 -46 26 -72t62 -26h357l-12 -75h-112v-197q0 -23 9 -36.5t23 -13.5q33 0 73 45l46 -55q-34 -36 -63.5 -53t-71.5 -17q-70 0 -106 39q-25 -17 -68.5 -28t-87.5 -11z" />
    <glyph glyph-name="i_j.cyr" horiz-adv-x="989" 
d="M225 97v-14l63 -22l-12 -61h-227l-12 61l63 22v301l-65 22l12 61h232l12 -61l-66 -22v-145l-24 -73l231 201v17l-65 22l12 61h231l12 -61l-65 -22v-115l-24 -103l231 201v17l-65 22l12 61h231l12 -61l-65 -22v-301l63 -22l-12 -61h-229l-12 61l65 22v142l24 73l-231 -201
v-14l63 -22l-12 -61h-229l-12 61l65 22v142l24 73zM805 716l37 -38q-34 -48 -86.5 -77.5t-103.5 -29.5q-118 0 -182 89l63 66h51q35 -63 99 -63q36 0 63 11.5t59 41.5z" />
    <glyph glyph-name="i_n.cyr" horiz-adv-x="989" 
d="M225 97v-14l63 -22l-12 -61h-227l-12 61l63 22v301l-65 22l12 61h232l12 -61l-66 -22v-145l-24 -73l231 201v17l-65 22l12 61h231l12 -61l-65 -22v-110h202v110l-65 22l12 61h231l12 -61l-64 -22v-301l63 -22l-12 -61h-229l-12 61l64 22v134h-202v-134l63 -22l-12 -61
h-229l-12 61l65 22v142l24 73z" />
    <glyph glyph-name="w_w_w" horiz-adv-x="2122" 
d="M514 -10l-86 267v80l-111 -337l-113 -10l-123 394l-69 22l12 61h233l12 -61l-59 -22l64 -192v-86l117 360l102 13l91 -287v-66l116 341h128l91 -275v-86l117 360l102 13l91 -287v-66l116 341h129l91 -275v-86l117 360l102 13l91 -287v-66l89 258l-60 22l12 61h178l12 -61
l-69 -22l-124 -384l-108 -10l-86 267v80l-111 -337l-113 -10l-114 362l-114 -352l-108 -10l-86 267v80l-111 -337l-113 -10l-113 362l-114 -352z" />
    <glyph glyph-name="n_n.cyr" horiz-adv-x="985" 
d="M427 274v110l-65 22l12 61h231l12 -61l-64 -22v-110h202v110l-65 22l12 61h231l12 -61l-64 -22v-301l63 -22l-12 -61h-229l-12 61l64 22v134h-202v-134l63 -22l-12 -61h-229l-12 61l64 22v134h-202v-134l63 -22l-12 -61h-227l-12 61l62 22v301l-64 22l12 61h232l12 -61
l-66 -22v-110h202z" />
    <glyph glyph-name="a_l.cyr.001" horiz-adv-x="1051" 
d="M442 290v-158q0 -71 76 -71q73 0 111.5 72.5t38.5 196.5v54l-65 22l12 61h389l12 -61l-65 -22v-301l63 -22l-12 -61h-228l-12 61l63 22v323h-87v-100q0 -46 -5 -85.5t-20.5 -83.5t-40.5 -75t-69.5 -51.5t-102.5 -20.5q-105 0 -171 33q-49 -34 -129 -34q-71 0 -120 37
t-49 102q0 48 26 83t70 52t90.5 24.5t98.5 7.5v35q0 41 -25 63t-60 22q-32 0 -74 -11l-22 -76l-67 12v96q84 42 168 42q97 0 151.5 -49t54.5 -139zM316 102v131q-69 0 -108.5 -26.5t-39.5 -69.5q0 -39 21.5 -57t47.5 -18q21 0 44 11t35 29z" />
    <glyph glyph-name="P_K.cyr" horiz-adv-x="1157" 
d="M548 102v527h-286v-527l82 -31l-10 -71h-282l-11 71l83 31v496l-84 31l11 71h707l12 -71l-84 -31v-496l82 -31l-10 -71h-282l-11 71zM910 0l9 54l-191 286v53l199 203l-63 33l12 71h241l11 -71q-82 -23 -129 -72l-177 -180l68 -32l161 -238l90 -36l-11 -71h-220z" />
    <glyph glyph-name="i_i.ukr" horiz-adv-x="659" 
d="M586 697q26 0 45.5 -19t19.5 -46q0 -26 -19.5 -45.5t-45.5 -19.5t-45.5 19.5t-19.5 45.5q0 27 19.5 46t45.5 19zM330 697q27 0 46 -19t19 -46q0 -26 -19 -45.5t-46 -19.5q-26 0 -45.5 19.5t-19.5 45.5q0 27 19.5 46t45.5 19zM555 83l64 -21l-12 -62h-230l-12 62l64 21
v323h-46l-11 61l122 11l61 -11v-384zM73 697q27 0 46 -19t19 -46q0 -26 -19 -45.5t-46 -19.5q-26 0 -45.5 19.5t-19.5 45.5q0 27 19.5 46t45.5 19zM230 83l64 -21l-12 -62h-230l-12 62l64 21v323h-46l-11 61l122 11l61 -11v-384z" />
    <glyph glyph-name="O_O" horiz-adv-x="1350" 
d="M405 717q180 0 273 -129q100 129 268 129q162 0 253 -103.5t91 -263.5q0 -164 -86.5 -265.5t-257.5 -101.5q-174 0 -268 121q-89 -121 -273 -121q-86 0 -154 31t-108.5 83.5t-61.5 117t-21 135.5q0 70 23 135t65.5 117t109 83.5t147.5 31.5zM405 633q-195 0 -195 -278
q0 -288 195 -288q97 0 146.5 74t49.5 214q0 138 -50 208t-146 70zM946 633q-195 0 -195 -278q0 -288 195 -288q97 0 146.5 74t49.5 214q0 138 -50 208t-146 70z" />
    <glyph glyph-name="k_k.cyr" horiz-adv-x="862" 
d="M321 467h204l12 -61q-68 -10 -105 -47l-119 -113l60 -13l106 -150l73 -22l-12 -61h-195l10 51l-124 171v39l128 123l-50 22zM200 83l63 -22l-12 -61h-229l-12 61l64 22v323h-52l-12 61l131 15l59 -15v-384zM611 467h204l12 -61q-68 -10 -105 -47l-119 -113l60 -13
l106 -150l73 -22l-12 -61h-195l10 51l-124 171v39l128 123l-50 22z" />
    <glyph glyph-name="O_C" horiz-adv-x="1220" 
d="M967 67q64 0 115 14l51 139l71 -10v-162q-41 -29 -107.5 -47t-129.5 -18q-190 0 -288 123q-89 -123 -274 -123q-86 0 -154 31t-108.5 83.5t-61.5 117t-21 135.5q0 70 23 135t65.5 117t109 83.5t147.5 31.5q181 0 274 -130q103 130 288 130q125 0 237 -64v-156l-72 -11
l-46 131q-58 16 -119 16q-216 0 -216 -278q0 -44 6 -82.5t21 -77t39 -66.5t62.5 -45t87.5 -17zM405 633q-195 0 -195 -278q0 -288 195 -288q96 0 145.5 73t50.5 210v5q0 138 -50 208t-146 70z" />
    <glyph glyph-name="A_A" horiz-adv-x="1230" 
d="M327 699l109 18l166 -454v-78l199 514l109 18l225 -615l87 -31l-11 -71h-291l-11 71l79 31l-45 121h-234l-48 -121l87 -31l-11 -71h-291l-11 71l79 31l-45 121h-234l-48 -121l94 -30l-10 -72h-250l-11 71l87 32zM440 301l-63 170v114l-112 -284h175zM914 301l-63 170v114
l-112 -284h175z" />
    <glyph glyph-name="O_Q" horiz-adv-x="1350" 
d="M1289 350q0 -51 -13.5 -104t-43 -108.5t-85 -103.5t-131.5 -77q45 0 90 -20t72 -20q28 0 67 26l45 -36l-106 -100q-58 0 -120 33.5t-103 33.5q-79 0 -182 -44l-40 68q102 49 154 89q-143 13 -218 112q-90 -116 -270 -116q-86 0 -154 31t-108.5 83.5t-61.5 117t-21 135.5
q0 70 23 135t65.5 117t109 83.5t147.5 31.5q180 0 273 -129q97 129 267 129q162 0 253 -103.5t91 -263.5zM405 633q-195 0 -195 -278q0 -288 195 -288q97 0 146.5 74t49.5 214q0 138 -50 208t-146 70zM1141 355q0 138 -50 208t-146 70q-195 0 -195 -278q0 -288 195 -288
q84 0 140 77t56 211z" />
    <glyph glyph-name="n_m" horiz-adv-x="1207" 
d="M818 310v-227l64 -22l-12 -61h-229l-12 61l63 22v244q0 37 -23.5 58t-55.5 21q-29 0 -101 -24q14 -33 14 -73v-226l63 -22l-12 -61h-228l-12 61l63 22v241q0 37 -27 59.5t-62 22.5q-29 0 -87 -20v-303l64 -22l-11 -61h-231l-11 61l63 22v323h-45l-11 61l128 11l41 -26
q78 26 125 26q86 0 137 -42q79 42 162 42q91 0 131 -37q68 37 143 37q97 0 148 -43.5t51 -125.5v-226l64 -22l-12 -61h-228l-12 61l63 22v235q0 41 -28 64.5t-63 23.5q-47 0 -89 -20q15 -36 15 -76z" />
    <glyph glyph-name="m_m" horiz-adv-x="1487" 
d="M516 310v-227l64 -22l-12 -61h-229l-12 61l63 22v244q0 37 -23.5 58t-55.5 21q-29 0 -87 -20v-303l63 -22l-12 -61h-228l-12 61l63 22v323h-45l-11 61l125 11l41 -26q78 26 125 26q91 0 131 -37q68 37 143 37q94 0 144 -41q33 16 83 28.5t81 12.5q91 0 131 -37
q68 37 143 37q97 0 148 -43.5t51 -125.5v-226l64 -22l-12 -61h-228l-12 61l63 22v235q0 41 -28 64.5t-63 23.5q-47 0 -89 -20q15 -36 15 -76v-227l64 -22l-12 -61h-229l-12 61l63 22v244q0 37 -23.5 58t-55.5 21q-46 0 -100 -26q13 -34 13 -71v-226l64 -22l-12 -61h-228
l-12 61l63 22v235q0 41 -28 64.5t-63 23.5q-47 0 -89 -20q15 -36 15 -76z" />
    <glyph glyph-name="ruble.cyr" horiz-adv-x="586" 
d="M382 207v-51h-142v-63l105 -28l-11 -65h-287l-10 65l77 28v63h-77v51h77v67h-77v51h77v221l-79 30l11 65h302q103 0 155.5 -48.5t52.5 -140.5q0 -54 -19 -90.5t-54.5 -55t-75 -25.5t-92.5 -7h-29v51h32q51 0 82.5 38.5t31.5 88.5q0 124 -112 124h-80v-369h142z" />
    <glyph glyph-name="ya.cyr" horiz-adv-x="439" 
d="M30 215h379v-67h-379v67zM248 485v-33l-72 -105l6 -32h-133l-9 43l50 15l40 61l33 18q-87 23 -87 91q0 46 29 73.5t82 27.5h205l9 -43l-42 -15v-213l40 -15l-8 -43h-152l-8 43l39 15v228h-45q-27 0 -41 -16.5t-14 -42.5q0 -22 17 -39.5t42 -17.5h19z" />
    <glyph glyph-name="a_ya.cyr.001" horiz-adv-x="799" 
d="M30 215h739v-67h-739v67zM67 555v68q55 29 117 29q68 0 107 -34.5t39 -96.5v-147l39 -16l-9 -43h-91l-19 17q-32 -23 -90 -23q-51 0 -85.5 25.5t-34.5 71.5q0 34 18 58.5t49.5 36.5t64 17t69.5 5v24q0 30 -17.5 45.5t-44.5 15.5q-1 0 -50 -7l-16 -54zM241 387v92
q-49 0 -76.5 -18t-27.5 -49q0 -27 15 -39.5t34 -12.5q36 0 55 27zM609 486v-33l-72 -105l7 -33h-134l-10 43l51 16l42 61l30 18q-87 24 -87 90q0 46 29.5 73.5t82.5 27.5h205l9 -43l-42 -14v-213l39 -16l-8 -43h-150l-10 43l40 16v227h-44q-56 0 -56 -58q0 -22 17 -39.5
t41 -17.5h20z" />
    <glyph glyph-name="e.cyr" horiz-adv-x="412" 
d="M138 523h143q3 11 3 20q0 31 -18 48t-47 17q-34 0 -55 -23.5t-26 -61.5zM235 360q58 0 108 32l23 -35q-58 -48 -135 -48q-97 0 -144 45.5t-47 126.5q0 78 51 124.5t128 46.5q65 0 109 -31.5t44 -82.5q0 -31 -15 -59h-221q1 -53 27.5 -86t71.5 -33zM30 215h352v-67h-352
v67z" />
    <glyph glyph-name="o_e.cyr" horiz-adv-x="815" 
d="M217 652q80 0 127.5 -45.5t47.5 -125.5q0 -81 -45 -126t-130 -45q-84 0 -129.5 45.5t-45.5 125.5q0 78 47.5 124.5t127.5 46.5zM217 608q-39 0 -62 -33.5t-23 -91.5q0 -59 22.5 -94t62.5 -35t63 35t23 94t-23.5 92t-62.5 33zM684 523h-143q5 38 26 61.5t55 23.5
q29 0 47 -17t18 -48q0 -9 -3 -20zM638 360q-45 0 -71.5 33t-27.5 86h221q15 28 15 59q0 51 -44 82.5t-109 31.5q-77 0 -128 -46.5t-51 -124.5q0 -81 47 -126.5t144 -45.5q77 0 135 48l-23 35q-50 -32 -108 -32zM30 215h755v-67h-755v67z" />
    <glyph glyph-name="o_i.cyr" horiz-adv-x="882" 
d="M217 652q80 0 127.5 -46t47.5 -125q0 -81 -45.5 -126.5t-129.5 -45.5q-85 0 -131 46t-46 126q0 79 48 125t129 46zM217 608q-39 0 -63 -34t-24 -91q0 -60 23 -95t64 -35q40 0 62.5 35t22.5 95q0 58 -23 91.5t-62 33.5zM563 384v-10l44 -17l-8 -42h-159l-9 42l43 17v211
l-44 16l7 43h164l9 -43l-47 -16v-101l-16 -50l162 141v10l-46 16l9 43h161l9 -43l-46 -16v-211l45 -17l-9 -42h-160l-9 42l46 17v100l16 52zM752 820l26 -27q-25 -34 -62 -54.5t-73 -20.5q-82 0 -128 63l44 46h36q27 -45 69 -45q45 0 88 38zM30 215h822v-67h-822v67z" />
    <glyph glyph-name="i.cyr" horiz-adv-x="491" 
d="M172 384v-10l44 -17l-8 -42h-159l-9 42l43 17v211l-44 16l7 43h164l9 -43l-47 -16v-101l-16 -50l162 141v10l-46 16l9 43h161l9 -43l-46 -16v-211l45 -17l-9 -42h-160l-9 42l46 17v100l16 52zM361 820l26 -27q-25 -34 -62 -54.5t-73 -20.5q-82 0 -128 63l44 46h36
q27 -45 69 -45q45 0 88 38zM30 215h431v-67h-431v67z" />
    <glyph glyph-name="i_i.cyr" horiz-adv-x="1039" 
d="M720 384v-10l44 -17l-8 -42h-159l-9 42l43 17v211l-44 16l7 43h164l9 -43l-47 -16v-101l-16 -50l162 141v10l-46 16l9 43h161l9 -43l-46 -16v-211l45 -17l-9 -42h-160l-9 42l46 17v100l16 52zM909 820l26 -27q-25 -34 -62 -54.5t-73 -20.5q-82 0 -128 63l44 46h36
q27 -45 69 -45q45 0 88 38zM30 215h979v-67h-979v67zM224 518q50 0 91 -24.5t41 -79.5q0 -40 -30.5 -69.5t-71.5 -29.5h-205l-9 43l44 15v213l-45 15l8 43h163l9 -43l-46 -15v-228h35q23 0 37.5 17.5t14.5 43.5q0 25 -14 40t-38 15h-5v44h21zM406 373v213l-45 15l9 43h160
l9 -43l-45 -15v-213l45 -15l-9 -43h-160l-9 43z" />
    <glyph glyph-name="e_e.cyr" horiz-adv-x="789" 
d="M515 523h143q3 11 3 20q0 31 -18 48t-47 17q-34 0 -55 -23.5t-26 -61.5zM612 360q58 0 108 32l23 -35q-58 -48 -135 -48q-97 0 -144 45.5t-47 126.5q0 78 51 124.5t128 46.5q65 0 109 -31.5t44 -82.5q0 -31 -15 -59h-221q1 -53 27.5 -86t71.5 -33zM30 215h729v-67h-729
v67zM137 523h143q3 11 3 20q0 31 -18 48t-47 17q-34 0 -55 -23.5t-26 -61.5zM234 360q58 0 108 32l23 -35q-58 -48 -135 -48q-97 0 -144 45.5t-47 126.5q0 78 51 124.5t128 46.5q65 0 109 -31.5t44 -82.5q0 -31 -15 -59h-221q1 -53 27.5 -86t71.5 -33z" />
    <glyph glyph-name="ya_ya.cyr" horiz-adv-x="827" 
d="M30 215h767v-67h-767v67zM637 486v-33l-72 -105l7 -33h-134l-10 43l51 16l42 61l30 18q-87 24 -87 90q0 46 29.5 73.5t82.5 27.5h205l9 -43l-42 -14v-213l39 -16l-8 -43h-150l-10 43l40 16v227h-44q-56 0 -56 -58q0 -22 17 -39.5t41 -17.5h20zM249 486v-33l-72 -105
l7 -33h-134l-10 43l51 16l42 61l30 18q-87 24 -87 90q0 46 29.5 73.5t82.5 27.5h205l9 -43l-42 -14v-213l39 -16l-8 -43h-150l-10 43l40 16v227h-44q-56 0 -56 -58q0 -22 17 -39.5t41 -17.5h20z" />
    <glyph glyph-name="i_i" horiz-adv-x="944" 
d="M625 384v-10l44 -17l-8 -42h-159l-9 42l43 17v211l-44 16l7 43h164l9 -43l-47 -16v-101l-16 -50l162 141v10l-46 16l9 43h161l9 -43l-46 -16v-211l45 -17l-9 -42h-160l-9 42l46 17v100l16 52zM814 820l26 -27q-25 -34 -62 -54.5t-73 -20.5q-82 0 -128 63l44 46h36
q27 -45 69 -45q45 0 88 38zM30 215h884v-67h-884v67zM172 384v-10l44 -17l-8 -42h-159l-9 42l43 17v211l-44 16l7 43h164l9 -43l-47 -16v-101l-16 -50l162 141v10l-46 16l9 43h161l9 -43l-46 -16v-211l45 -17l-9 -42h-160l-9 42l46 17v100l16 52z" />
    </font>
</defs>
</svg>
